<svg width="125" height="36" viewBox="0 0 125 36" fill="none" xmlns="http://www.w3.org/2000/svg">
<path d="M6.966 20.824H3.636V17.152H6.966V20.824ZM6.966 15.298H3.636V11.284H1.278V22.714H9.324V11.284H6.966V15.298ZM16.164 16.144H13.752V9.988H11.376V26.548H13.752V18.124H16.164V16.144ZM25.9186 22.786V20.32H30.9406V18.412H21.3286V16.558H30.5626V11.032H18.9526V12.922H28.2226V14.704H18.9706V20.32H23.5426V22.786H17.2426V24.73H32.2546V22.786H25.9186ZM34.4672 11.662V13.588H39.8852C39.4532 17.26 37.4012 19.888 33.5492 21.868L34.8812 23.686C40.3892 20.896 42.2792 16.63 42.2792 11.662H34.4672ZM49.0112 16.288H46.6892V9.952H44.3132V26.512H46.6892V18.25H49.0112V16.288ZM51.0978 11.68V13.57H56.6238C56.2818 17.242 54.4458 19.834 50.2158 21.868L51.4578 23.74C57.3438 20.896 59.0538 16.756 59.0538 11.68H51.0978ZM61.5918 9.952V26.53H63.9858V9.952H61.5918Z" fill="white"/>
<path fill-rule="evenodd" clip-rule="evenodd" d="M107 36C116.941 36 125 27.9411 125 18C125 8.05887 116.941 0 107 0C97.2831 0 89.3645 7.69936 89.0122 17.3301H98.5V14L106 18.3301L98.5 22.6603V19.3301H89.0484C89.7291 28.6501 97.5062 36 107 36Z" fill="white"/>
<path fill-rule="evenodd" clip-rule="evenodd" d="M89.0027 17.3296H76V19.3296H89.1342C89.058 18.6721 89.0136 18.0049 89.0027 17.3296Z" fill="white"/>
</svg>
