<svg width="55" height="69" viewBox="0 0 55 69" fill="none" xmlns="http://www.w3.org/2000/svg">
<rect x="1.5" y="10.9396" width="52" height="56.0146" rx="3.5" stroke="#E94E24" stroke-width="3"/>
<mask id="path-2-inside-1_2_397" fill="white">
<path fill-rule="evenodd" clip-rule="evenodd" d="M21.7317 5.91479C22.1242 2.96858 24.647 0.695801 27.7005 0.695801C30.7541 0.695801 33.2768 2.96858 33.6694 5.91479H37.3355V15.9513H18.0654V5.91479H21.7317Z"/>
</mask>
<path fill-rule="evenodd" clip-rule="evenodd" d="M21.7317 5.91479C22.1242 2.96858 24.647 0.695801 27.7005 0.695801C30.7541 0.695801 33.2768 2.96858 33.6694 5.91479H37.3355V15.9513H18.0654V5.91479H21.7317Z" fill="#F7F7F7"/>
<path d="M21.7317 5.91479V8.91479H24.3585L24.7054 6.31099L21.7317 5.91479ZM33.6694 5.91479L30.6957 6.31099L31.0426 8.91479H33.6694V5.91479ZM37.3355 5.91479H40.3355V2.91479H37.3355V5.91479ZM37.3355 15.9513V18.9513H40.3355V15.9513H37.3355ZM18.0654 15.9513H15.0654V18.9513H18.0654V15.9513ZM18.0654 5.91479V2.91479H15.0654V5.91479H18.0654ZM24.7054 6.31099C24.902 4.8355 26.1706 3.6958 27.7005 3.6958V-2.3042C23.1233 -2.3042 19.3465 1.10167 18.758 5.51859L24.7054 6.31099ZM27.7005 3.6958C29.2305 3.6958 30.4991 4.8355 30.6957 6.31099L36.6431 5.51859C36.0546 1.10167 32.2778 -2.3042 27.7005 -2.3042V3.6958ZM33.6694 8.91479H37.3355V2.91479H33.6694V8.91479ZM34.3355 5.91479V15.9513H40.3355V5.91479H34.3355ZM37.3355 12.9513H18.0654V18.9513H37.3355V12.9513ZM21.0654 15.9513V5.91479H15.0654V15.9513H21.0654ZM18.0654 8.91479H21.7317V2.91479H18.0654V8.91479Z" fill="#E94E24" mask="url(#path-2-inside-1_2_397)"/>
<path fill-rule="evenodd" clip-rule="evenodd" d="M42.1532 38.746C42.1532 46.7279 35.6825 53.1986 27.7006 53.1986C19.7187 53.1986 13.248 46.7279 13.248 38.746C13.248 30.7641 19.7187 24.2935 27.7006 24.2935C35.6825 24.2935 42.1532 30.7641 42.1532 38.746ZM29.7081 31.5198C29.7081 32.6284 28.8094 33.5271 27.7008 33.5271C26.5922 33.5271 25.6935 32.6284 25.6935 31.5198C25.6935 30.4112 26.5922 29.5125 27.7008 29.5125C28.8094 29.5125 29.7081 30.4112 29.7081 31.5198ZM27.6863 35.9361C26.5857 35.9361 25.6934 36.8284 25.6934 37.929V45.987C25.6934 47.0877 26.5857 47.9799 27.6863 47.9799C28.7869 47.9799 29.6792 47.0877 29.6792 45.987V37.929C29.6792 36.8284 28.7869 35.9361 27.6863 35.9361Z" fill="#E94E24"/>
</svg>
