<svg width="76" height="58" viewBox="0 0 76 58" fill="none" xmlns="http://www.w3.org/2000/svg">
<path d="M20.5455 37.6364L11 28.0909C10.1425 26.8583 9.9959 25.7398 10.1818 24.8452M10.1818 24.8452C10.3743 23.9189 10.9235 23.2329 11.4091 22.9091C12.7325 22.0268 13.8974 22.1488 14.8182 22.5911M10.1818 24.8452V10.9091M14.8182 22.5911C15.6052 22.9691 16.2139 23.5811 16.5909 24L23.4091 30.4091C32.1364 31.6091 34.3182 37.5455 34.3182 40.3637V56.0455H18.5V46.3637L3.63636 31.7728C2.32727 31.0091 2 29.2728 2 28.5V8.18185C2.04545 6.90912 2.92727 4.36367 6.09091 4.36367C7.36364 4.31821 9.96364 5.01821 10.1818 8.18185V10.9091M14.8182 22.5911V15.2727C14.7727 13.6818 13.7818 10.5818 10.1818 10.9091" stroke="#56A815" stroke-width="3"/>
<path d="M55.4544 37.6364L64.9998 28.0909C65.8573 26.8583 66.0039 25.7398 65.818 24.8452M65.818 24.8452C65.6255 23.9189 65.0763 23.2329 64.5907 22.9091C63.2673 22.0268 62.1024 22.1488 61.1816 22.5911M65.818 24.8452V10.9091M61.1816 22.5911C60.3946 22.9691 59.7859 23.5811 59.4089 24L52.5907 30.4091C43.8635 31.6091 41.6816 37.5455 41.6816 40.3637V56.0455H57.4998V46.3637L72.3635 31.7728C73.6725 31.0091 73.9998 29.2728 73.9998 28.5V8.18185C73.9544 6.90912 73.0725 4.36367 69.9089 4.36367C68.6362 4.31821 66.0362 5.01821 65.818 8.18185V10.9091M61.1816 22.5911V15.2727C61.2271 13.6818 62.218 10.5818 65.818 10.9091" stroke="#56A815" stroke-width="3"/>
<path fill-rule="evenodd" clip-rule="evenodd" d="M23 8.159C23 10.5698 24.0178 12.7364 25.6359 14.23L37.0336 25.9998L49.6132 14.1421H49.6129C51.1765 12.652 52.155 10.5229 52.155 8.159C52.155 3.65291 48.5995 0 44.2136 0C41.4395 0 38.9976 1.46134 37.5775 3.67562C36.1574 1.46134 33.7155 0 30.9415 0C26.5555 0 23 3.65291 23 8.159Z" fill="#56A815"/>
</svg>
