<svg width="75" height="74" viewBox="0 0 75 74" fill="none" xmlns="http://www.w3.org/2000/svg">
<path d="M47.4331 57.6479L57.5356 47.5454" stroke="#E94E24" stroke-width="3"/>
<circle cx="28.4659" cy="28.0216" r="26.006" stroke="#E94E24" stroke-width="3"/>
<circle cx="28.036" cy="27.5916" r="20.4188" stroke="#E94E24" stroke-width="3"/>
<circle cx="28.5791" cy="22.3888" r="5.76467" fill="#E94E24"/>
<path d="M45.6565 53.8179L53.8407 45.6337L67.8094 59.6024C70.0695 61.8624 70.0695 65.5266 67.8094 67.7866C65.5494 70.0466 61.8853 70.0466 59.6252 67.7866L45.6565 53.8179Z" stroke="#E94E24" stroke-width="3"/>
<path fill-rule="evenodd" clip-rule="evenodd" d="M16.1763 38.8613C16.1763 34.443 19.758 30.8613 24.1763 30.8613H32.8321C37.2504 30.8613 40.8321 34.443 40.8321 38.8613V39.9307C40.8321 40.8887 40.6637 41.8074 40.3549 42.6587L35.8421 47.3451C34.913 47.7227 33.8968 47.9307 32.8321 47.9307H24.1763C22.8445 47.9307 21.5887 47.6053 20.4841 47.0296L16.9426 43.3519C16.4512 42.3146 16.1763 41.1548 16.1763 39.9307V38.8613Z" fill="#E94E24"/>
</svg>
