<svg width="66" height="58" viewBox="0 0 66 58" fill="none" xmlns="http://www.w3.org/2000/svg">
<circle cx="51.3999" cy="5" r="5" fill="#E94E24"/>
<path d="M37.3116 6.6352L31.8185 10.4818L23.141 16.6049C20.0839 19.4309 21.4426 23.2775 22.5041 24.8476L29.4302 33.4828C30.7039 34.4248 30.6509 35.707 30.4652 36.2303L29.4302 50.5176C29.3665 53.4065 31.6858 54.1287 32.8534 54.1287C35.5284 54.2543 36.2502 51.7737 36.2767 50.5176L37.3116 34.0323C37.3116 32.3994 36.3563 31.1015 35.8786 30.6567L31.3408 25.4756C29.8123 24.1567 30.7039 22.8327 31.3408 22.3355L37.7097 18.7244C38.9198 17.594 40.5491 18.2534 41.2125 18.7244L43.0436 21.315C44.19 23.3874 47.0772 24.5336 48.3775 24.8476L59.523 27.1241C62.1979 27.0613 62.8136 25.2662 62.787 24.3765C63.1692 22.2413 61.0887 21.4458 60.0007 21.315L50.1289 19.2739C48.7915 18.9599 48.404 18.1487 48.3775 17.7824L44.1581 8.99025C41.9927 4.71975 38.6915 5.64084 37.3116 6.6352Z" fill="#E94E24"/>
<circle cx="13.05" cy="44.95" r="11.55" stroke="#E94E24" stroke-width="3"/>
<circle cx="52.6833" cy="44.95" r="11.55" stroke="#E94E24" stroke-width="3"/>
</svg>
