<svg width="66" height="58" viewBox="0 0 66 58" fill="none" xmlns="http://www.w3.org/2000/svg">
<circle cx="51.4" cy="5" r="5" fill="#56A815"/>
<path d="M37.3117 6.6352L31.8185 10.4818L23.141 16.6049C20.084 19.4309 21.4427 23.2775 22.5042 24.8476L29.4302 33.4828C30.704 34.4248 30.651 35.707 30.4652 36.2303L29.4302 50.5176C29.3666 53.4065 31.6859 54.1287 32.8535 54.1287C35.5284 54.2543 36.2502 51.7737 36.2768 50.5176L37.3117 34.0323C37.3117 32.3994 36.3564 31.1015 35.8787 30.6567L31.3409 25.4756C29.8124 24.1567 30.704 22.8327 31.3409 22.3355L37.7097 18.7244C38.9198 17.594 40.5492 18.2534 41.2126 18.7244L43.0436 21.315C44.19 23.3874 47.0773 24.5336 48.3776 24.8476L59.5231 27.1241C62.198 27.0613 62.8136 25.2662 62.7871 24.3765C63.1692 22.2413 61.0887 21.4458 60.0007 21.315L50.129 19.2739C48.7915 18.9599 48.4041 18.1487 48.3776 17.7824L44.1582 8.99025C41.9928 4.71975 38.6916 5.64084 37.3117 6.6352Z" fill="#56A815"/>
<circle cx="13.05" cy="44.95" r="11.55" stroke="#56A815" stroke-width="3"/>
<circle cx="52.6833" cy="44.95" r="11.55" stroke="#56A815" stroke-width="3"/>
</svg>
