<svg width="75" height="74" viewBox="0 0 75 74" fill="none" xmlns="http://www.w3.org/2000/svg">
<path d="M47.4331 57.6479L57.5356 47.5454" stroke="#56A815" stroke-width="3"/>
<circle cx="28.466" cy="28.0216" r="26.006" stroke="#56A815" stroke-width="3"/>
<circle cx="28.0362" cy="27.5916" r="20.4188" stroke="#56A815" stroke-width="3"/>
<path d="M45.6565 53.8179L53.8407 45.6337L67.8094 59.6024C70.0695 61.8624 70.0695 65.5266 67.8094 67.7866C65.5494 70.0466 61.8853 70.0466 59.6252 67.7866L45.6565 53.8179Z" stroke="#56A815" stroke-width="3"/>
<circle cx="28.5792" cy="22.3888" r="5.76467" fill="#56A815"/>
<path fill-rule="evenodd" clip-rule="evenodd" d="M16.1764 38.8613C16.1764 34.443 19.7581 30.8613 24.1764 30.8613H32.8322C37.2505 30.8613 40.8322 34.443 40.8322 38.8613V39.9307C40.8322 40.8887 40.6638 41.8074 40.355 42.6587L35.8422 47.3451C34.9131 47.7227 33.8969 47.9307 32.8322 47.9307H24.1764C22.8446 47.9307 21.5888 47.6053 20.4842 47.0296L16.9428 43.3519C16.4513 42.3146 16.1764 41.1548 16.1764 39.9307V38.8613Z" fill="#56A815"/>
</svg>
