<svg width="136" height="42" viewBox="0 0 136 42" fill="none" xmlns="http://www.w3.org/2000/svg">
<g clip-path="url(#clip0_20_25)">
<path d="M14.2447 27.5098V31.0088C14.2447 31.0088 11.1309 34.101 10.0503 34.6473" stroke="white" stroke-width="1.5" stroke-miterlimit="10"/>
<path d="M18.0905 34.6473C18.0905 34.6473 15.6447 32.4096 14.2446 31.0088" stroke="white" stroke-width="1.5" stroke-miterlimit="10"/>
<path d="M20.5366 27.5098V34.6473" stroke="white" stroke-width="1.5" stroke-miterlimit="10"/>
<path d="M23.2671 31.4272H20.5366" stroke="white" stroke-width="1.5" stroke-miterlimit="10"/>
<path d="M20.5425 36.8154H12.9204V41.4304H20.5425V36.8154Z" stroke="white" stroke-width="1.5" stroke-miterlimit="10"/>
<path d="M28.6463 34.2928C30.3821 34.2928 31.7893 32.963 31.7893 31.3226C31.7893 29.6823 30.3821 28.3525 28.6463 28.3525C26.9106 28.3525 25.5034 29.6823 25.5034 31.3226C25.5034 32.963 26.9106 34.2928 28.6463 34.2928Z" stroke="white" stroke-width="1.5" stroke-miterlimit="10"/>
<path d="M32.1438 41.7094C34.0753 41.7094 35.6411 40.4655 35.6411 38.9311C35.6411 37.3967 34.0753 36.1528 32.1438 36.1528C30.2123 36.1528 28.6465 37.3967 28.6465 38.9311C28.6465 40.4655 30.2123 41.7094 32.1438 41.7094Z" stroke="white" stroke-width="1.5" stroke-miterlimit="10"/>
<path d="M35.2866 27.5098V35.3448" stroke="white" stroke-width="1.5" stroke-miterlimit="10"/>
<path d="M38.081 29.6777H35.2866" stroke="white" stroke-width="1.5" stroke-miterlimit="10"/>
<path d="M38.081 32.8281H35.2866" stroke="white" stroke-width="1.5" stroke-miterlimit="10"/>
<path d="M43.2571 27.5098V32.8222C43.2571 32.8222 40.393 36.3213 39.481 37.3675" stroke="white" stroke-width="1.5" stroke-miterlimit="10"/>
<path d="M47.4518 37.3734L43.2573 32.8281" stroke="white" stroke-width="1.5" stroke-miterlimit="10"/>
<path d="M49.7583 27.5098V41.4303" stroke="white" stroke-width="1.5" stroke-miterlimit="10"/>
<path d="M52.5527 32.4443H49.7583" stroke="white" stroke-width="1.5" stroke-miterlimit="10"/>
<path d="M123.911 4.18489C123.911 6.50401 122.04 8.36978 119.728 8.36978C117.416 8.36978 115.545 6.4982 115.545 4.18489C115.545 1.87157 117.416 0 119.728 0C122.04 0 123.911 1.87739 123.911 4.18489Z" fill="#E94E24"/>
<path d="M136 4.18489C136 6.50401 134.129 8.36978 131.817 8.36978C129.505 8.36978 127.64 6.4982 127.64 4.18489C127.64 1.87157 129.511 0 131.817 0C134.124 0 136 1.87739 136 4.18489Z" fill="#A9BA00"/>
<path d="M8.37146 4.18489C8.37146 6.50401 6.50662 8.36978 4.18864 8.36978C1.87065 8.36978 0 6.4982 0 4.18489C0 3.02823 0.476378 1.98201 1.23161 1.23222C1.99265 0.4708 3.03255 0 4.18864 0C5.24015 0 6.21034 0.395239 6.94233 1.0346C7.82537 1.80764 8.37146 2.92942 8.37146 4.18489Z" fill="#189ACE"/>
<path d="M74.4426 9.98001C74.5356 8.82335 75.4593 8.17237 76.6793 8.17237C78.1258 8.17237 78.8462 8.96866 78.8462 10.631V11.3052H77.3764C73.8675 11.3052 71.1719 12.4677 71.1719 15.3274C71.1719 17.9313 73.1181 19.0473 75.2676 19.0473C77.0046 19.0473 78.2769 18.3905 78.8753 17.3559V18.8496H81.6929V10.5903C81.6929 7.12034 79.3807 6.01018 76.8303 6.01018C74.28 6.01018 71.9155 7.17265 71.6541 9.98582H74.4484L74.4426 9.98001ZM75.8834 16.8967C74.5356 16.8967 73.9837 16.176 73.9837 15.1646C73.9837 13.8394 75.3082 13.1884 77.4461 13.1884H78.8462V14.0951C78.8462 15.8098 77.6669 16.8967 75.8834 16.8967ZM15.8191 19.1403C18.9621 19.1403 20.8734 17.693 20.8734 15.1414C20.8734 12.5898 18.9446 11.747 16.1445 11.282C14.175 10.9681 13.6406 10.4624 13.6406 9.59639C13.6406 8.73036 14.3958 8.12587 15.6216 8.12587C16.9694 8.12587 17.6607 8.61411 17.8757 9.98001H20.5771C20.3331 7.01571 18.1429 5.94043 15.6216 5.94043C13.2978 5.94043 10.8694 7.1959 10.8694 9.72427C10.8694 11.8458 12.1708 12.9966 15.4067 13.5488C17.225 13.8685 18.0035 14.4206 18.0035 15.3797C18.0035 16.391 17.3238 16.9199 15.7959 16.9199C14.0821 16.9199 13.5244 16.0016 13.4256 14.9728H10.6777C10.7765 17.5535 12.6065 19.1403 15.8191 19.1403ZM26.5783 9.98001C26.6712 8.82335 27.5949 8.17237 28.8208 8.17237C30.2615 8.17237 30.9819 8.96866 30.9819 10.631V11.3052H29.5121C25.9973 11.3052 23.3017 12.4677 23.3017 15.3274C23.3017 17.9313 25.2479 19.0473 27.3974 19.0473C29.1345 19.0473 30.4125 18.3905 31.0109 17.3559V18.8496H33.8285V10.5903C33.8285 7.12034 31.5163 6.01018 28.966 6.01018C26.4156 6.01018 24.0454 7.17265 23.7897 9.98582H26.5725L26.5783 9.98001ZM28.019 16.8967C26.6654 16.8967 26.1252 16.176 26.1252 15.1646C26.1252 13.8394 27.4497 13.1884 29.5876 13.1884H30.9819V14.0951C30.9819 15.8098 29.8084 16.8967 28.019 16.8967ZM37.5873 18.8438H40.4804V11.84C40.4804 9.84051 41.6307 8.5618 43.1295 8.5618C44.4773 8.5618 45.1047 9.42784 45.1047 11.282V18.8438H47.992V11.6423C47.992 9.71845 49.1191 8.5618 50.5192 8.5618C51.9193 8.5618 52.6164 9.45109 52.6164 11.3052V18.8438H55.5095V10.9449C55.5095 7.45745 53.6447 6.05668 51.3964 6.05668C49.7581 6.05668 48.236 6.77741 47.4169 8.25374C46.8592 6.70766 45.6799 6.05668 44.1404 6.05668C42.3859 6.05668 41.0613 6.95178 40.4746 8.10843V6.2543H37.5815V18.8496L37.5873 18.8438ZM59.977 23.1624H62.8178L70.0739 6.24848H67.082L63.7648 14.6066L60.436 6.24848H57.3744L62.2718 17.693L59.977 23.1624ZM85.5213 18.8438H88.4144V11.7179C88.4144 9.7882 89.6635 8.48624 91.232 8.48624C92.8006 8.48624 93.6371 9.34646 93.6371 11.2529V18.838H96.5303V10.9855C96.5303 7.51557 94.6945 6.04505 92.3184 6.04505C90.6104 6.04505 89.2626 6.67279 88.4202 8.07356V6.23686H85.5271V18.8322L85.5213 18.8438ZM108.684 16.4143C108.248 17.5477 106.732 18.3672 105.215 18.3672C101.288 18.3672 99.4408 15.5657 99.4408 12.241C99.4408 8.91635 101.317 5.99855 105.146 5.99855C106.61 5.99855 108.085 6.64954 108.69 7.76551V6.24267H111.577V17.5244C111.577 21.9011 108.643 23.4705 105.459 23.4705C102.276 23.4705 100.115 21.9767 99.801 19.2739H102.764C102.979 20.5352 104.112 21.2327 105.581 21.2327C107.51 21.2327 108.695 20.047 108.695 17.7162V16.4143H108.684ZM105.721 8.29443C103.548 8.29443 102.404 9.76495 102.404 12.2468C102.404 14.7287 103.484 16.1469 105.75 16.1469C107.51 16.1469 108.713 14.967 108.713 12.6769V11.747C108.713 9.76495 107.632 8.29443 105.727 8.29443" fill="white"/>
</g>
<defs>
<clipPath id="clip0_20_25">
<rect width="136" height="42" fill="white"/>
</clipPath>
</defs>
</svg>
