<svg width="136" height="42" viewBox="0 0 136 42" fill="none" xmlns="http://www.w3.org/2000/svg">
<g clip-path="url(#clip0_20_23)">
<path d="M14.2447 27.5098V31.0088C14.2447 31.0088 11.1309 34.101 10.0503 34.6473" stroke="#231916" stroke-width="1.5" stroke-miterlimit="10"/>
<path d="M18.0905 34.6473C18.0905 34.6473 15.6447 32.4096 14.2446 31.0088" stroke="#231916" stroke-width="1.5" stroke-miterlimit="10"/>
<path d="M20.5366 27.5098V34.6473" stroke="#231916" stroke-width="1.5" stroke-miterlimit="10"/>
<path d="M23.2671 31.4272H20.5366" stroke="#231916" stroke-width="1.5" stroke-miterlimit="10"/>
<path d="M20.5425 36.8154H12.9204V41.4304H20.5425V36.8154Z" stroke="#231916" stroke-width="1.5" stroke-miterlimit="10"/>
<path d="M28.6463 34.2928C30.3821 34.2928 31.7893 32.963 31.7893 31.3226C31.7893 29.6823 30.3821 28.3525 28.6463 28.3525C26.9106 28.3525 25.5034 29.6823 25.5034 31.3226C25.5034 32.963 26.9106 34.2928 28.6463 34.2928Z" stroke="#231916" stroke-width="1.5" stroke-miterlimit="10"/>
<path d="M32.1438 41.7092C34.0753 41.7092 35.6411 40.4653 35.6411 38.9309C35.6411 37.3965 34.0753 36.1526 32.1438 36.1526C30.2123 36.1526 28.6465 37.3965 28.6465 38.9309C28.6465 40.4653 30.2123 41.7092 32.1438 41.7092Z" stroke="#231916" stroke-width="1.5" stroke-miterlimit="10"/>
<path d="M35.2866 27.5098V35.3448" stroke="#231916" stroke-width="1.5" stroke-miterlimit="10"/>
<path d="M38.081 29.6777H35.2866" stroke="#231916" stroke-width="1.5" stroke-miterlimit="10"/>
<path d="M38.081 32.8281H35.2866" stroke="#231916" stroke-width="1.5" stroke-miterlimit="10"/>
<path d="M43.2571 27.5098V32.8222C43.2571 32.8222 40.393 36.3213 39.481 37.3675" stroke="#231916" stroke-width="1.5" stroke-miterlimit="10"/>
<path d="M47.4518 37.3734L43.2573 32.8281" stroke="#231916" stroke-width="1.5" stroke-miterlimit="10"/>
<path d="M49.7583 27.5098V41.4303" stroke="#231916" stroke-width="1.5" stroke-miterlimit="10"/>
<path d="M52.5527 32.4443H49.7583" stroke="#231916" stroke-width="1.5" stroke-miterlimit="10"/>
<path d="M123.911 4.18489C123.911 6.50401 122.04 8.36978 119.728 8.36978C117.416 8.36978 115.545 6.4982 115.545 4.18489C115.545 1.87157 117.416 0 119.728 0C122.04 0 123.911 1.87739 123.911 4.18489Z" fill="#E94E24"/>
<path d="M136 4.18489C136 6.50401 134.129 8.36978 131.817 8.36978C129.505 8.36978 127.64 6.4982 127.64 4.18489C127.64 1.87157 129.511 0 131.817 0C134.124 0 136 1.87739 136 4.18489Z" fill="#A9BA00"/>
<path d="M8.37146 4.18489C8.37146 6.50401 6.50662 8.36978 4.18864 8.36978C1.87065 8.36978 0 6.4982 0 4.18489C0 3.02823 0.476378 1.98201 1.23161 1.23222C1.99265 0.4708 3.03255 0 4.18864 0C5.24015 0 6.21034 0.395239 6.94233 1.0346C7.82537 1.80764 8.37146 2.92942 8.37146 4.18489Z" fill="#189ACE"/>
<path d="M74.4426 9.97976C74.5356 8.82311 75.4593 8.17213 76.6793 8.17213C78.1258 8.17213 78.8462 8.96842 78.8462 10.6307V11.305H77.3764C73.8675 11.305 71.1719 12.4674 71.1719 15.3271C71.1719 17.9311 73.1181 19.047 75.2676 19.047C77.0046 19.047 78.2769 18.3902 78.8753 17.3556V18.8494H81.6929V10.5901C81.6929 7.12009 79.3807 6.00993 76.8303 6.00993C74.28 6.00993 71.9155 7.1724 71.6541 9.98558H74.4484L74.4426 9.97976ZM75.8834 16.8965C74.5356 16.8965 73.9837 16.1757 73.9837 15.1644C73.9837 13.8392 75.3082 13.1882 77.4461 13.1882H78.8462V14.0949C78.8462 15.8095 77.6669 16.8965 75.8834 16.8965ZM15.8191 19.14C18.9621 19.14 20.8734 17.6927 20.8734 15.1411C20.8734 12.5895 18.9446 11.7467 16.1445 11.2817C14.175 10.9679 13.6406 10.4622 13.6406 9.59615C13.6406 8.73011 14.3958 8.12563 15.6216 8.12563C16.9694 8.12563 17.6607 8.61386 17.8757 9.97976H20.5771C20.3331 7.01547 18.1429 5.94019 15.6216 5.94019C13.2978 5.94019 10.8694 7.19565 10.8694 9.72402C10.8694 11.8455 12.1708 12.9964 15.4067 13.5485C17.225 13.8682 18.0035 14.4204 18.0035 15.3794C18.0035 16.3908 17.3238 16.9197 15.7959 16.9197C14.0821 16.9197 13.5244 16.0014 13.4256 14.9726H10.6777C10.7765 17.5533 12.6065 19.14 15.8191 19.14ZM26.5783 9.97976C26.6712 8.82311 27.5949 8.17213 28.8208 8.17213C30.2615 8.17213 30.9819 8.96842 30.9819 10.6307V11.305H29.5121C25.9973 11.305 23.3017 12.4674 23.3017 15.3271C23.3017 17.9311 25.2479 19.047 27.3974 19.047C29.1345 19.047 30.4125 18.3902 31.0109 17.3556V18.8494H33.8285V10.5901C33.8285 7.12009 31.5163 6.00993 28.966 6.00993C26.4156 6.00993 24.0454 7.1724 23.7897 9.98558H26.5725L26.5783 9.97976ZM28.019 16.8965C26.6654 16.8965 26.1252 16.1757 26.1252 15.1644C26.1252 13.8392 27.4497 13.1882 29.5876 13.1882H30.9819V14.0949C30.9819 15.8095 29.8084 16.8965 28.019 16.8965ZM37.5873 18.8436H40.4804V11.8397C40.4804 9.84027 41.6307 8.56155 43.1295 8.56155C44.4773 8.56155 45.1047 9.42759 45.1047 11.2817V18.8436H47.992V11.6421C47.992 9.71821 49.1191 8.56155 50.5192 8.56155C51.9193 8.56155 52.6164 9.45084 52.6164 11.305V18.8436H55.5095V10.9446C55.5095 7.45721 53.6447 6.05643 51.3964 6.05643C49.7581 6.05643 48.236 6.77716 47.4169 8.2535C46.8592 6.70741 45.6799 6.05643 44.1404 6.05643C42.3859 6.05643 41.0613 6.95153 40.4746 8.10819V6.25405H37.5815V18.8494L37.5873 18.8436ZM59.977 23.1622H62.8178L70.0739 6.24824H67.082L63.7648 14.6064L60.436 6.24824H57.3744L62.2718 17.6927L59.977 23.1622ZM85.5213 18.8436H88.4144V11.7177C88.4144 9.78796 89.6635 8.48599 91.232 8.48599C92.8006 8.48599 93.6371 9.34622 93.6371 11.2527V18.8378H96.5303V10.9853C96.5303 7.51533 94.6945 6.04481 92.3184 6.04481C90.6104 6.04481 89.2626 6.67254 88.4202 8.07332V6.23661H85.5271V18.832L85.5213 18.8436ZM108.684 16.414C108.248 17.5474 106.732 18.367 105.215 18.367C101.288 18.367 99.4408 15.5654 99.4408 12.2408C99.4408 8.91611 101.317 5.99831 105.146 5.99831C106.61 5.99831 108.085 6.64929 108.69 7.76526V6.24243H111.577V17.5242C111.577 21.9009 108.643 23.4702 105.459 23.4702C102.276 23.4702 100.115 21.9764 99.801 19.2737H102.764C102.979 20.535 104.112 21.2325 105.581 21.2325C107.51 21.2325 108.695 20.0467 108.695 17.716V16.414H108.684ZM105.721 8.29419C103.548 8.29419 102.404 9.76471 102.404 12.2466C102.404 14.7284 103.484 16.1467 105.75 16.1467C107.51 16.1467 108.713 14.9668 108.713 12.6767V11.7467C108.713 9.76471 107.632 8.29419 105.727 8.29419" fill="#231916"/>
</g>
<defs>
<clipPath id="clip0_20_23">
<rect width="136" height="42" fill="white"/>
</clipPath>
</defs>
</svg>
