<svg width="520" height="86" viewBox="0 0 520 86" fill="none" xmlns="http://www.w3.org/2000/svg">
<g filter="url(#filter0_b_2_42)">
<rect width="520" height="86" rx="43" fill="black" fill-opacity="0.5"/>
</g>
<g clip-path="url(#clip0_2_42)">
<path d="M47.6998 37.815H42.0151C41.4629 37.815 41 38.2732 41 38.8198V47.1237C41 47.6703 41.4629 48.1285 42.0151 48.1285H47.1151C47.2613 48.1285 47.4724 48.1687 47.6105 48.1285C47.8297 48.0642 47.0664 47.8633 47.2613 48.0321C47.4805 48.233 47.8622 48.3536 48.1221 48.4903L49.7544 49.3665L53.6768 51.4726L56.17 52.815C56.844 53.1768 57.6967 52.7266 57.6967 51.9469V33.9967C57.6967 33.217 56.8359 32.7668 56.17 33.1285L47.1882 37.9517C46.0431 38.5707 47.0664 40.307 48.2114 39.688L57.1932 34.8649L55.6665 33.9967V51.9469L57.1932 51.0787L51.1512 47.8311C50.2173 47.3327 49.2915 46.7941 48.3414 46.3198C47.6267 45.9581 46.6847 46.1108 45.9051 46.1108H42.0151L43.0302 47.1157V38.8198L42.0151 39.8247H47.6998C49.0073 39.8247 49.0073 37.815 47.6998 37.815Z" fill="white"/>
<path d="M60.8151 39.463C62.2119 40.2347 63.0321 41.6495 62.9428 43.2331C62.8534 44.8167 61.8302 46.0466 60.4171 46.6655C59.9136 46.8826 59.7999 47.6061 60.0517 48.0401C60.3522 48.5546 60.9369 48.6189 61.4404 48.4019C63.5031 47.4935 64.8512 45.4517 64.973 43.2331C65.0948 41.0144 63.8198 38.8118 61.8383 37.7266C60.6933 37.0996 59.67 38.836 60.8151 39.463Z" fill="white"/>
<path d="M62.5775 35.1383C65.7853 36.5289 67.9617 39.5595 67.9698 43.0723C67.9779 46.5852 65.8259 49.6801 62.6262 50.9823C61.4324 51.4646 61.9603 53.41 63.1622 52.9196C67.1334 51.3039 69.8864 47.6302 69.9919 43.3296C70.0975 39.0289 67.5313 35.1061 63.6007 33.4019C62.4151 32.8875 61.3837 34.6158 62.5775 35.1383Z" fill="white"/>
</g>
<path d="M90.704 49H98.08V47.736H94.832C94.24 47.736 93.52 47.8 92.912 47.848C95.664 45.24 97.504 42.856 97.504 40.52C97.504 38.424 96.192 37.048 94.096 37.048C92.608 37.048 91.6 37.736 90.64 38.776L91.488 39.608C92.128 38.84 92.96 38.248 93.92 38.248C95.376 38.248 96.08 39.224 96.08 40.568C96.08 42.584 94.384 44.92 90.704 48.136V49ZM103.243 49.208C105.467 49.208 106.891 47.176 106.891 43.096C106.891 39.032 105.467 37.048 103.243 37.048C101.003 37.048 99.579 39.016 99.579 43.096C99.579 47.176 101.003 49.208 103.243 49.208ZM103.243 48.04C101.899 48.04 101.003 46.552 101.003 43.096C101.003 39.672 101.899 38.216 103.243 38.216C104.571 38.216 105.467 39.672 105.467 43.096C105.467 46.552 104.571 48.04 103.243 48.04ZM108.294 49H115.67V47.736H112.422C111.83 47.736 111.11 47.8 110.502 47.848C113.254 45.24 115.094 42.856 115.094 40.52C115.094 38.424 113.782 37.048 111.686 37.048C110.198 37.048 109.19 37.736 108.23 38.776L109.078 39.608C109.718 38.84 110.55 38.248 111.51 38.248C112.966 38.248 113.67 39.224 113.67 40.568C113.67 42.584 111.974 44.92 108.294 48.136V49ZM117.089 49H124.465V47.736H121.217C120.625 47.736 119.905 47.8 119.297 47.848C122.049 45.24 123.889 42.856 123.889 40.52C123.889 38.424 122.577 37.048 120.481 37.048C118.993 37.048 117.985 37.736 117.025 38.776L117.873 39.608C118.513 38.84 119.345 38.248 120.305 38.248C121.761 38.248 122.465 39.224 122.465 40.568C122.465 42.584 120.769 44.92 117.089 48.136V49ZM136.524 46.472H137.852V35.848H136.524V37.704H132.476V38.76H136.524V40.456H132.476V41.496H136.524V46.472ZM134.156 42.728C132.012 43.112 130.14 43.224 128.172 43.24V36.872H126.86V44.344H127.948C130.06 44.344 131.996 44.232 134.3 43.816L134.156 42.728ZM129.964 48.792V45.56H128.652V49.864H138.22V48.792H129.964ZM145.445 41.32C146.005 41.32 146.389 40.968 146.389 40.344C146.389 39.768 145.941 39.448 145.445 39.448C145.397 39.448 145.349 39.448 145.301 39.464C145.301 38.456 145.749 37.832 146.645 37.24L146.229 36.552C144.997 37.272 144.325 38.296 144.325 39.72C144.325 40.744 144.741 41.32 145.445 41.32ZM148.581 41.32C149.141 41.32 149.541 40.968 149.541 40.344C149.541 39.768 149.077 39.448 148.581 39.448C148.533 39.448 148.485 39.448 148.437 39.464C148.437 38.456 148.901 37.832 149.781 37.24L149.365 36.552C148.149 37.272 147.477 38.296 147.477 39.72C147.477 40.744 147.893 41.32 148.581 41.32ZM160.015 42.504C157.935 41.768 156.511 39.944 156.511 37.976V36.552H155.199V38.008C155.199 40.184 153.791 42.104 151.631 42.888L152.319 43.928C154.015 43.272 155.295 41.96 155.887 40.28C156.527 41.768 157.743 42.936 159.311 43.528L160.015 42.504ZM155.087 45.928H161.519V48.936H155.087V45.928ZM153.807 49.992H162.815V44.888H153.807V49.992ZM164.943 39.416H162.815V35.848H161.503V44.232H162.815V40.504H164.943V39.416ZM167.869 40.056C167.869 38.712 168.893 37.784 170.333 37.784C171.757 37.784 172.797 38.712 172.797 40.056C172.797 41.4 171.757 42.344 170.333 42.344C168.893 42.344 167.869 41.4 167.869 40.056ZM174.077 40.056C174.077 38.072 172.493 36.696 170.333 36.696C168.157 36.696 166.589 38.072 166.589 40.056C166.589 42.056 168.157 43.448 170.333 43.448C172.493 43.448 174.077 42.056 174.077 40.056ZM172.893 49.128C170.765 49.128 169.469 48.504 169.469 47.48C169.469 46.44 170.765 45.832 172.893 45.832C175.005 45.832 176.301 46.44 176.301 47.48C176.301 48.504 175.005 49.128 172.893 49.128ZM172.893 44.792C169.981 44.792 168.157 45.768 168.157 47.48C168.157 49.176 169.981 50.168 172.893 50.168C175.789 50.168 177.613 49.176 177.613 47.48C177.613 45.768 175.789 44.792 172.893 44.792ZM179.549 39.048V37.976H177.469V35.848H176.157V44.344H177.469V42.12H179.549V41.032H177.469V39.048H179.549ZM185.772 37.08H184.476V39.656C184.476 42.264 182.844 45.016 180.78 46.072L181.564 47.128C183.18 46.264 184.508 44.472 185.132 42.376C185.788 44.344 187.084 46.024 188.604 46.84L189.42 45.8C187.404 44.792 185.772 42.184 185.772 39.656V37.08ZM194.364 41.656H191.996V35.848H190.684V50.184H191.996V42.744H194.364V41.656ZM196.283 41.288C197.515 40.568 198.187 39.544 198.187 38.12C198.187 37.096 197.771 36.504 197.051 36.504C196.507 36.504 196.123 36.872 196.123 37.48C196.123 38.072 196.571 38.392 197.051 38.392C197.115 38.392 197.179 38.392 197.227 38.376C197.227 39.384 196.763 39.992 195.867 40.6L196.283 41.288ZM199.435 41.288C200.651 40.568 201.323 39.544 201.323 38.12C201.323 37.096 200.907 36.504 200.203 36.504C199.659 36.504 199.259 36.872 199.259 37.48C199.259 38.072 199.707 38.392 200.203 38.392C200.251 38.392 200.315 38.392 200.363 38.376C200.363 39.384 199.915 39.992 199.003 40.6L199.435 41.288ZM218.831 37.016H213.759V35.64H212.447V37.016H207.279V38.04H218.831V37.016ZM209.487 46.904H216.719V49H209.487V46.904ZM208.207 49.992H217.999V45.912H208.207V49.992ZM209.839 40.632C209.839 39.928 211.007 39.528 213.103 39.528C215.167 39.528 216.335 39.928 216.335 40.632C216.335 41.352 215.167 41.752 213.103 41.752C211.007 41.752 209.839 41.352 209.839 40.632ZM213.759 43.752V42.664C216.287 42.568 217.727 41.864 217.727 40.632C217.727 39.304 216.047 38.6 213.103 38.6C210.127 38.6 208.463 39.304 208.463 40.632C208.463 41.864 209.887 42.568 212.447 42.664V43.752H206.607V44.792H219.567V43.752H213.759ZM223.758 38.712H225.55V45.448C224.942 45.48 224.35 45.496 223.758 45.512V38.712ZM226.75 38.712H227.934V37.656H221.374V38.712H222.558V45.544C222.014 45.56 221.534 45.56 221.102 45.56L221.23 46.648C223.102 46.648 226.11 46.584 228.334 46.168L228.254 45.208C227.79 45.272 227.262 45.32 226.75 45.368V38.712ZM229.47 41.304H227.502V42.456H229.47V49.432H230.702V36.184H229.47V41.304ZM232.238 35.848V50.184H233.502V35.848H232.238ZM246.316 35.832V50.216H247.628V35.832H246.316ZM240.06 36.936C237.932 36.936 236.412 38.888 236.412 41.944C236.412 45 237.932 46.952 240.06 46.952C242.188 46.952 243.708 45 243.708 41.944C243.708 38.888 242.188 36.936 240.06 36.936ZM240.06 38.12C241.452 38.12 242.444 39.624 242.444 41.944C242.444 44.28 241.452 45.784 240.06 45.784C238.652 45.784 237.66 44.28 237.66 41.944C237.66 39.624 238.652 38.12 240.06 38.12ZM255.643 38.392H259.019V37.304H251.003V38.392H254.331V40.216C254.331 42.696 252.587 45.4 250.523 46.376L251.291 47.432C252.923 46.6 254.331 44.792 254.987 42.696C255.675 44.664 257.083 46.312 258.747 47.08L259.483 46.024C257.371 45.128 255.643 42.648 255.643 40.216V38.392ZM260.955 35.848V50.184H262.267V35.848H260.955ZM265.93 37.368V38.456H271.194C270.89 41.848 268.922 44.6 265.258 46.44L265.978 47.464C270.618 45.144 272.49 41.448 272.49 37.368H265.93ZM278.506 41.656H276.202V35.832H274.89V50.184H276.202V42.744H278.506V41.656ZM287.587 37.176H286.323V39.912C286.323 42.392 285.123 44.952 283.139 46.104L283.971 47.096C285.379 46.232 286.435 44.616 286.947 42.744C287.459 44.456 288.451 45.928 289.811 46.728L290.595 45.688C288.691 44.632 287.587 42.2 287.587 39.864V37.176ZM294.243 35.832V41.608H292.339V36.152H291.091V49.464H292.339V42.68H294.243V50.184H295.491V35.832H294.243ZM308.001 48.952H300.961V47.368H308.001V48.952ZM308.001 46.36H300.961V44.952H299.665V49.992H309.297V44.952H308.001V46.36ZM305.105 43.192V41.8H309.585V40.776H300.897V39.432H309.281V36.136H299.569V37.144H307.985V38.456H299.601V41.8H303.777V43.192H297.921V44.232H310.945V43.192H305.105ZM320.528 41.704H318.048C318.528 40.424 318.736 39.064 318.736 37.656H313.2V38.728H317.44C317.2 41.736 315.664 44.312 312.592 46.152L313.36 47.096C315.344 45.912 316.72 44.424 317.584 42.76H320.528V49.464H321.776V36.216H320.528V41.704ZM323.52 35.832V50.184H324.768V35.832H323.52ZM331.257 37.688V38.76H335.561C335.369 41.736 334.009 44.328 330.713 46.168L331.481 47.112C335.561 44.808 336.857 41.384 336.857 37.688H331.257ZM341.625 35.832V41.608H339.673V36.216H338.441V49.464H339.673V42.68H341.625V50.184H342.889V35.832H341.625ZM355.848 46.504H357.176V35.848H355.848V38.568H353.448V39.624H355.848V41.304H353.448V42.376H355.848V46.504ZM348.472 38.056H350.632V43.144C349.912 43.176 349.176 43.208 348.472 43.224V38.056ZM353.784 42.888C353.192 42.952 352.552 43.016 351.912 43.064V38.056H353.336V37H345.784V38.056H347.208V43.24C346.568 43.256 345.944 43.256 345.4 43.256L345.544 44.344C347.864 44.344 351.112 44.296 353.864 43.864L353.784 42.888ZM349.288 48.792V45.64H347.976V49.864H357.544V48.792H349.288ZM372.785 42.216C371.537 42.408 370.225 42.504 368.897 42.584V41.096H371.729V40.024H366.129V37.624H371.585V36.552H364.833V41.096H367.585V42.632C366.145 42.696 364.737 42.696 363.537 42.696L363.729 43.752C366.305 43.736 369.745 43.688 372.865 43.16L372.785 42.216ZM373.969 48.936H367.169V47.272H373.969V48.936ZM373.969 46.248H367.169V44.744H365.857V49.992H375.265V44.744H373.969V46.248ZM373.953 35.848V44.104H375.265V35.848H373.953ZM380.335 37.224H379.023V46.472H380.207C382.495 46.472 384.751 46.312 387.247 45.8L387.103 44.68C384.719 45.16 382.495 45.352 380.335 45.352V37.224ZM388.575 35.832V50.168H389.887V35.832H388.575ZM394.686 38.296H400.046V37.208H393.374V46.632H394.51C397.214 46.632 399.102 46.536 401.294 46.12L401.15 45.032C399.07 45.4 397.23 45.512 394.686 45.512V38.296ZM406.174 41.496H403.806V35.832H402.494V50.216H403.806V42.584H406.174V41.496ZM408.781 49.208C409.357 49.208 409.837 48.76 409.837 48.104C409.837 47.432 409.357 46.968 408.781 46.968C408.205 46.968 407.725 47.432 407.725 48.104C407.725 48.76 408.205 49.208 408.781 49.208ZM425.708 35.832V50.216H427.02V35.832H425.708ZM419.452 36.936C417.324 36.936 415.804 38.888 415.804 41.944C415.804 45 417.324 46.952 419.452 46.952C421.58 46.952 423.1 45 423.1 41.944C423.1 38.888 421.58 36.936 419.452 36.936ZM419.452 38.12C420.844 38.12 421.836 39.624 421.836 41.944C421.836 44.28 420.844 45.784 419.452 45.784C418.044 45.784 417.052 44.28 417.052 41.944C417.052 39.624 418.044 38.12 419.452 38.12ZM433.163 45.816C432.011 45.816 431.291 44.36 431.291 42.008C431.291 39.704 432.011 38.248 433.163 38.248C434.283 38.248 435.019 39.704 435.019 42.008C435.019 44.36 434.283 45.816 433.163 45.816ZM438.011 41.416H436.203C436.043 38.712 434.891 37.032 433.163 37.032C431.291 37.032 430.091 38.952 430.091 42.008C430.091 45.112 431.291 47.032 433.163 47.032C434.923 47.032 436.091 45.304 436.203 42.488H438.011V49.48H439.259V36.152H438.011V41.416ZM440.859 35.832V50.184H442.107V35.832H440.859ZM446.378 41.864C445.786 41.864 445.322 42.328 445.322 42.92C445.322 43.512 445.786 43.976 446.378 43.976C446.97 43.976 447.434 43.512 447.434 42.92C447.434 42.328 446.97 41.864 446.378 41.864ZM451.706 41.864C451.114 41.864 450.65 42.328 450.65 42.92C450.65 43.512 451.114 43.976 451.706 43.976C452.298 43.976 452.762 43.512 452.762 42.92C452.762 42.328 452.298 41.864 451.706 41.864ZM457.034 41.864C456.442 41.864 455.978 42.328 455.978 42.92C455.978 43.512 456.442 43.976 457.034 43.976C457.626 43.976 458.09 43.512 458.09 42.92C458.09 42.328 457.626 41.864 457.034 41.864Z" fill="white"/>
<defs>
<filter id="filter0_b_2_42" x="-50" y="-50" width="620" height="186" filterUnits="userSpaceOnUse" color-interpolation-filters="sRGB">
<feFlood flood-opacity="0" result="BackgroundImageFix"/>
<feGaussianBlur in="BackgroundImage" stdDeviation="25"/>
<feComposite in2="SourceAlpha" operator="in" result="effect1_backgroundBlur_2_42"/>
<feBlend mode="normal" in="SourceGraphic" in2="effect1_backgroundBlur_2_42" result="shape"/>
</filter>
<clipPath id="clip0_2_42">
<rect width="29" height="20" fill="white" transform="translate(41 33)"/>
</clipPath>
</defs>
</svg>
