<svg width="50" height="202" viewBox="0 0 50 202" fill="none" xmlns="http://www.w3.org/2000/svg">
<g clip-path="url(#clip0_2_90)">
<path d="M29.9364 124V128.424H27.5291C26.8115 128.424 26.3573 128.615 26.1302 129.005C25.9667 129.269 25.9031 129.723 25.9031 130.341V132.357H30L29.5095 136.818H25.9031V149.662H20.598V136.808H18V132.348H20.598V129.687C20.598 126.961 21.5428 125.199 23.3959 124.454C24.3043 124.1 25.0855 124 25.9031 124H29.9364Z" fill="white" fill-opacity="0.8"/>
</g>
<g clip-path="url(#clip1_2_90)">
<path d="M30.6452 66H19.3623C15.2996 66 12 69.2996 12 73.3623V84.3309C12 88.3862 15.2996 91.6858 19.3623 91.6858H30.6452C34.7004 91.6858 38.0075 88.3862 38.0075 84.3309V73.3623C38.0075 69.3071 34.7079 66 30.6452 66ZM35.6282 84.3309C35.6282 87.0768 33.3911 89.314 30.6452 89.314H19.3623C16.6164 89.314 14.3793 87.0768 14.3793 84.3309V73.3623C14.3793 70.6164 16.6164 68.3793 19.3623 68.3793H30.6452C33.3911 68.3793 35.6282 70.6164 35.6282 73.3623V84.3309Z" fill="white" fill-opacity="0.8"/>
<path d="M25.0037 72.1052C21.2852 72.1052 18.2625 75.128 18.2625 78.8465C18.2625 82.5651 21.2852 85.5878 25.0037 85.5878C28.7223 85.5878 31.745 82.5651 31.745 78.8465C31.745 75.128 28.7223 72.1052 25.0037 72.1052ZM25.0037 83.2085C22.5945 83.2085 20.6417 81.2557 20.6417 78.8465C20.6417 76.4373 22.5945 74.4845 25.0037 74.4845C27.413 74.4845 29.3658 76.4448 29.3658 78.8465C29.3658 81.2482 27.4055 83.2085 25.0037 83.2085Z" fill="white" fill-opacity="0.8"/>
<path d="M31.9771 70.3845C31.1017 70.3845 30.3909 71.0953 30.3909 71.9707C30.3909 72.8461 31.1017 73.5569 31.9771 73.5569C32.8525 73.5569 33.5632 72.8461 33.5632 71.9707C33.5632 71.0953 32.8525 70.3845 31.9771 70.3845Z" fill="white" fill-opacity="0.8"/>
</g>
<path d="M36.8176 20.1033C36.8176 18.0137 35.1231 16.3267 33.0334 16.3267C33.0334 16.3267 29.5836 16 24.652 16C19.7204 16 15.9438 16.3191 15.9438 16.3191C13.8541 16.3191 12.1672 18.0137 12.1672 20.1033C12.1672 20.1033 12 22.2158 12 24.7538C12 27.2918 12.1672 29.3055 12.1672 29.3055C12.1672 31.3951 13.8617 33.0821 15.9514 33.0821C15.9514 33.0821 20.7918 33.4088 24.4164 33.4088C28.041 33.4088 33.0486 33.0821 33.0486 33.0821C35.1383 33.0821 36.8328 31.3875 36.8328 29.3055C36.8328 29.3055 37 27.2918 37 24.7538C37 22.2158 36.8328 20.1033 36.8328 20.1033H36.8176ZM22.4407 28.4848V20.924L28.6869 24.6246L22.4407 28.4924V28.4848Z" fill="white" fill-opacity="0.8"/>
<g clip-path="url(#clip2_2_90)">
<path d="M26.5892 188.5C25.9937 188.5 25.5024 188.984 25.5024 189.587C25.5024 190.19 25.9863 190.674 26.5892 190.674C27.1921 190.674 27.6759 190.19 27.6759 189.587C27.6759 188.984 27.1921 188.5 26.5892 188.5Z" fill="white" fill-opacity="0.8"/>
<path d="M32.5217 188.582C31.9709 188.582 31.5168 189.029 31.5168 189.587C31.5168 190.145 31.9635 190.592 32.5217 190.592C33.08 190.592 33.5266 190.145 33.5266 189.587C33.5266 189.029 33.08 188.582 32.5217 188.582Z" fill="white" fill-opacity="0.8"/>
<path d="M33.4744 180H16.5256C14.0246 180 12 182.025 12 184.526V193.309C12 195.81 14.0246 197.835 16.5256 197.835H22.8972L25.0037 201.981L27.3856 197.835H33.4818C35.9828 197.835 38.0074 195.81 38.0074 193.309V184.526C38.0074 182.025 35.9828 180 33.4818 180H33.4744ZM17.6124 192.014C17.1509 192.014 16.7192 191.887 16.347 191.664V191.977H14.6573V185.099H16.3544V187.376C16.7266 187.161 17.1583 187.034 17.6198 187.034C18.9969 187.034 20.1134 188.151 20.1134 189.528C20.1134 190.905 18.9969 192.021 17.6198 192.021L17.6124 192.014ZM22.8972 187.429V192.014H21.2671V187.429C21.2671 186.431 20.6344 186.431 20.6344 186.431V185.099C22.1231 185.076 22.6293 186.066 22.8079 186.759C22.8898 187.094 22.8972 187.362 22.8972 187.414V187.429ZM26.5892 192.23C25.1303 192.23 23.9542 191.054 23.9542 189.595C23.9542 188.136 25.1303 186.96 26.5892 186.96C28.0481 186.96 29.2242 188.136 29.2242 189.595C29.2242 191.054 28.0481 192.23 26.5892 192.23ZM32.276 194.396V193.071C32.276 193.071 33.7498 193.242 33.7498 192.408V191.701C33.3851 191.917 32.9682 192.036 32.5216 192.036C31.1743 192.036 30.0876 190.942 30.0876 189.602C30.0876 188.262 31.1818 187.161 32.5216 187.161C32.9682 187.161 33.3925 187.287 33.7498 187.496V187.28H35.3278V192.401C35.3278 192.401 35.6702 194.396 32.276 194.396Z" fill="white" fill-opacity="0.8"/>
<path d="M17.4337 188.508C16.8754 188.508 16.4214 188.962 16.4214 189.52C16.4214 190.078 16.8754 190.532 17.4337 190.532C17.992 190.532 18.446 190.078 18.446 189.52C18.446 188.962 17.992 188.508 17.4337 188.508Z" fill="white" fill-opacity="0.8"/>
</g>
<defs>
<clipPath id="clip0_2_90">
<rect width="12" height="25.6533" fill="white" transform="translate(18 124)"/>
</clipPath>
<clipPath id="clip1_2_90">
<rect width="26" height="25.6858" fill="white" transform="translate(12 66)"/>
</clipPath>
<clipPath id="clip2_2_90">
<rect width="26" height="21.9805" fill="white" transform="translate(12 180)"/>
</clipPath>
</defs>
</svg>
