<svg id="icon_07" xmlns="http://www.w3.org/2000/svg" width="40.285" height="40" viewBox="0 0 40.285 40">
  <g id="그룹_16189" data-name="그룹 16189" transform="translate(0.442 2.442)">
    <g id="그룹_68933" data-name="그룹 68933">
      <path id="패스_3632" data-name="패스 3632" d="M24.9,3.752C24.36,1.711,21.8.5,21.8.5s-1.692,2.1-1.156,4.14,3.1,3.252,3.1,3.252S25.432,5.793,24.9,3.752Z" transform="translate(3.993 0.058)" fill="none" stroke="#393b4a" stroke-linejoin="round" stroke-width="2"/>
      <path id="패스_3633" data-name="패스 3633" d="M31.439,16.212A5.484,5.484,0,0,0,33.13,12.22s-2.881-.3-4.624,1.107a5.476,5.476,0,0,0-1.691,3.99S29.7,17.619,31.439,16.212Z" transform="translate(5.226 2.354)" fill="none" stroke="#393b4a" stroke-linejoin="round" stroke-width="2"/>
      <path id="패스_3634" data-name="패스 3634" d="M30.2,22.772a6.387,6.387,0,0,0,3.661-2.748,7.179,7.179,0,0,0-4.641-1.046,6.392,6.392,0,0,0-3.663,2.748A7.18,7.18,0,0,0,30.2,22.772Z" transform="translate(4.979 3.669)" fill="none" stroke="#393b4a" stroke-linejoin="round" stroke-width="2"/>
      <path id="패스_3635" data-name="패스 3635" d="M25.953,28.355a7.184,7.184,0,0,0,4.646-1.03,6.372,6.372,0,0,0-3.65-2.76,7.184,7.184,0,0,0-4.646,1.03A6.372,6.372,0,0,0,25.953,28.355Z" transform="translate(4.34 4.766)" fill="none" stroke="#393b4a" stroke-linejoin="round" stroke-width="2"/>
      <path id="패스_3636" data-name="패스 3636" d="M26.179,12.594s2.727-.879,3.578-2.834-.5-4.242-.5-4.242-2.728.881-3.58,2.834a3.192,3.192,0,0,0-.22,2.207" transform="translate(4.94 1.043)" fill="none" stroke="#393b4a" stroke-linejoin="round" stroke-width="2"/>
      <path id="패스_3637" data-name="패스 3637" d="M22.3,29.089c6.524-5.812,7.194-16.5,1.091-22.412" transform="translate(4.34 1.271)" fill="none" stroke="#393b4a" stroke-linejoin="round" stroke-width="2"/>
      <path id="패스_3638" data-name="패스 3638" d="M8.836,3.752C9.372,1.711,11.935.5,11.935.5s1.692,2.1,1.156,4.14-3.1,3.252-3.1,3.252S8.3,5.793,8.836,3.752Z" transform="translate(1.674 0.058)" fill="none" stroke="#393b4a" stroke-linejoin="round" stroke-width="2"/>
      <path id="패스_3639" data-name="패스 3639" d="M2.6,16.212A5.484,5.484,0,0,1,.907,12.22s2.881-.3,4.624,1.107a5.482,5.482,0,0,1,1.691,3.99S4.341,17.619,2.6,16.212Z" transform="translate(0.138 2.354)" fill="none" stroke="#393b4a" stroke-linejoin="round" stroke-width="2"/>
      <path id="패스_3640" data-name="패스 3640" d="M4.162,22.8A6.387,6.387,0,0,1,.5,20.056,7.178,7.178,0,0,1,5.142,19.01,6.382,6.382,0,0,1,8.8,21.758,7.176,7.176,0,0,1,4.162,22.8Z" transform="translate(0.058 3.676)" fill="none" stroke="#393b4a" stroke-linejoin="round" stroke-width="2"/>
      <path id="패스_3641" data-name="패스 3641" d="M8.379,28.355a7.184,7.184,0,0,1-4.646-1.03,6.372,6.372,0,0,1,3.65-2.76,7.184,7.184,0,0,1,4.646,1.03A6.372,6.372,0,0,1,8.379,28.355Z" transform="translate(0.693 4.766)" fill="none" stroke="#393b4a" stroke-linejoin="round" stroke-width="2"/>
      <path id="패스_3642" data-name="패스 3642" d="M7.59,12.594s-2.727-.879-3.578-2.834.5-4.242.5-4.242S7.233,6.4,8.085,8.351A2.658,2.658,0,0,1,8.3,10.578" transform="translate(0.692 1.043)" fill="none" stroke="#393b4a" stroke-linejoin="round" stroke-width="2"/>
      <path id="패스_3643" data-name="패스 3643" d="M11.568,29.089c-6.524-5.812-7.194-16.5-1.091-22.412" transform="translate(1.19 1.271)" fill="none" stroke="#393b4a" stroke-linejoin="round" stroke-width="2"/>
    </g>
    <path id="패스_3644" data-name="패스 3644" d="M17.844,9.059l2.487,5.118,5.344.654a.024.024,0,0,1,.013.043L21.452,18.4l1.242,5.718a.018.018,0,0,1-.029.02l-4.863-3-4.865,3a.018.018,0,0,1-.029-.02L14.14,18.4,9.9,14.866a.019.019,0,0,1,.011-.035l5.353-.659,2.505-5.113Z" transform="translate(1.903 1.738)" fill="none" stroke="#1c99b9" stroke-linejoin="round" stroke-width="2"/>
  </g>
  <rect id="사각형_8245" data-name="사각형 8245" width="40" height="40" fill="none"/>
</svg>
