<svg id="icon_03" xmlns="http://www.w3.org/2000/svg" width="40" height="40" viewBox="0 0 40 40">
  <g id="그룹_16207" data-name="그룹 16207" transform="translate(4.203 1.5)">
    <g id="그룹_68934" data-name="그룹 68934">
      <path id="패스_3669" data-name="패스 3669" d="M27.527,29.795v5.3H.5V.5H21.78l5.747,5.747V11.3" fill="none" stroke="#393b4a" stroke-linecap="square" stroke-linejoin="round" stroke-width="2"/>
      <path id="패스_3670" data-name="패스 3670" d="M20.182.5V6.247h5.747" transform="translate(1.598)" fill="none" stroke="#393b4a" stroke-linejoin="round" stroke-width="2"/>
      <path id="패스_3673" data-name="패스 3673" d="M4.168,14.775,5.31,15.917l1.9-1.9" transform="translate(0.298 1.097)" fill="none" stroke="#393b4a" stroke-linecap="square" stroke-linejoin="round" stroke-width="2"/>
      <path id="패스_3674" data-name="패스 3674" d="M4.168,20.854,5.31,22l1.9-1.9" transform="translate(0.298 1.591)" fill="none" stroke="#393b4a" stroke-linecap="square" stroke-linejoin="round" stroke-width="2"/>
      <line id="선_53" data-name="선 53" x2="2.597" transform="translate(10.114 16.063)" fill="none" stroke="#393b4a" stroke-linejoin="round" stroke-width="2"/>
      <line id="선_54" data-name="선 54" x2="5.228" transform="translate(10.114 9.491)" fill="none" stroke="#393b4a" stroke-linejoin="round" stroke-width="2"/>
      <path id="패스_3675" data-name="패스 3675" d="M4.114,8.7,5.256,9.838l1.9-1.9" transform="translate(0.293 0.604)" fill="none" stroke="#393b4a" stroke-linecap="square" stroke-linejoin="round" stroke-width="2"/>
      <line id="선_55" data-name="선 55" x2="2.995" transform="translate(10.114 22.635)" fill="none" stroke="#393b4a" stroke-linejoin="round" stroke-width="2"/>
      <path id="패스_3676" data-name="패스 3676" d="M4.168,26.932,5.31,28.074l1.9-1.9" transform="translate(0.298 2.084)" fill="none" stroke="#393b4a" stroke-linecap="square" stroke-linejoin="round" stroke-width="2"/>
      <line id="선_56" data-name="선 56" x2="8.913" transform="translate(10.114 29.207)" fill="none" stroke="#393b4a" stroke-linejoin="round" stroke-width="2"/>
    </g>
    <path id="패스_3671" data-name="패스 3671" d="M14.7,21.118a7.756,7.756,0,1,1,10.72,2.32A7.756,7.756,0,0,1,14.7,21.118Z" transform="translate(1.052 0.703)" fill="none" stroke="#1c99b9" stroke-linejoin="round" stroke-width="2"/>
    <line id="선_52" data-name="선 52" x1="1.204" y1="1.869" transform="translate(26.714 24.279)" fill="none" stroke="#1c99b9" stroke-linejoin="round" stroke-width="2"/>
    <path id="패스_3672" data-name="패스 3672" d="M24.362,25.333l3.022-1.946,2.269,3.521,1.808,2.808a1.8,1.8,0,0,1-3.022,1.947l-1.033-1.6Z" transform="translate(1.937 1.858)" fill="none" stroke="#1c99b9" stroke-linejoin="round" stroke-width="2"/>
    <path id="패스_3677" data-name="패스 3677" d="M17.124,19.118A4.592,4.592,0,0,1,18.5,12.771" transform="translate(1.29 0.996)" fill="none" stroke="#1c99b9" stroke-linejoin="round" stroke-width="2"/>
  </g>
  <rect id="사각형_8251" data-name="사각형 8251" width="40" height="40" fill="none"/>
</svg>
