<svg xmlns="http://www.w3.org/2000/svg" width="40" height="40.394" viewBox="0 0 40 40.394">
  <g id="icon_06" transform="translate(0 0.394)">
    <g id="그룹_16192" data-name="그룹 16192" transform="translate(2.409 0.016)">
      <g id="그룹_16194" data-name="그룹 16194" transform="translate(0.591 0.591)">
        <path id="패스_3645" data-name="패스 3645" d="M12.626,2.886a2.386,2.386,0,1,1,2.386,2.386A2.386,2.386,0,0,1,12.626,2.886Z" transform="translate(2.164 -0.5)" fill="none" stroke="#393b4a" stroke-linejoin="round" stroke-width="2"/>
        <line id="선_23" data-name="선 23" y1="3.866" x2="6.696" transform="translate(21.634 30.573)" fill="none" stroke="#393b4a" stroke-linejoin="round" stroke-width="2"/>
        <line id="선_24" data-name="선 24" x2="6.694" y2="3.865" transform="translate(6.025 30.576)" fill="none" stroke="#393b4a" stroke-linejoin="round" stroke-width="2"/>
        <line id="선_25" data-name="선 25" y2="7.33" transform="translate(2.387 15.535)" fill="none" stroke="#393b4a" stroke-linejoin="round" stroke-width="2"/>
        <line id="선_26" data-name="선 26" x1="6.693" y2="3.864" transform="translate(6.027 3.958)" fill="none" stroke="#393b4a" stroke-linejoin="round" stroke-width="2"/>
        <line id="선_27" data-name="선 27" x1="6.699" y1="3.868" transform="translate(21.633 3.958)" fill="none" stroke="#393b4a" stroke-linejoin="round" stroke-width="2"/>
        <line id="선_28" data-name="선 28" y1="7.329" transform="translate(31.966 15.535)" fill="none" stroke="#393b4a" stroke-linejoin="round" stroke-width="2"/>
        <path id="패스_3646" data-name="패스 3646" d="M12.626,30.89a2.386,2.386,0,1,1,2.386,2.386A2.386,2.386,0,0,1,12.626,30.89Z" transform="translate(2.164 5.118)" fill="none" stroke="#393b4a" stroke-linejoin="round" stroke-width="2"/>
        <path id="패스_3647" data-name="패스 3647" d="M4.08,25.955a2.386,2.386,0,1,1,.873-3.26A2.387,2.387,0,0,1,4.08,25.955Z" transform="translate(-0.5 3.713)" fill="none" stroke="#393b4a" stroke-linejoin="round" stroke-width="2"/>
        <path id="패스_3648" data-name="패스 3648" d="M28.331,11.954a2.386,2.386,0,1,1,.873-3.26A2.387,2.387,0,0,1,28.331,11.954Z" transform="translate(4.828 0.904)" fill="none" stroke="#393b4a" stroke-linejoin="round" stroke-width="2"/>
        <path id="패스_3649" data-name="패스 3649" d="M28.331,21.822a2.386,2.386,0,1,1-3.26.873A2.386,2.386,0,0,1,28.331,21.822Z" transform="translate(4.828 3.713)" fill="none" stroke="#393b4a" stroke-linejoin="round" stroke-width="2"/>
        <path id="패스_3650" data-name="패스 3650" d="M4.08,7.821a2.386,2.386,0,1,1-3.26.873A2.386,2.386,0,0,1,4.08,7.821Z" transform="translate(-0.5 0.905)" fill="none" stroke="#393b4a" stroke-linejoin="round" stroke-width="2"/>
      </g>
      <g id="그룹_16193" data-name="그룹 16193" transform="translate(8.674 10.694)">
        <circle id="_0b10d1fd-6e0c-414a-9afd-4fa4c2df6fcb" data-name="0b10d1fd-6e0c-414a-9afd-4fa4c2df6fcb" cx="9" cy="9" r="9" transform="translate(-0.083 0.29)" fill="none" stroke="#1c99b9" stroke-linecap="round" stroke-linejoin="round" stroke-width="2"/>
        <line id="b4671809-eb28-4e8d-a8c8-25ea5540d4ae" x2="17.417" transform="translate(0 9.571)" fill="none" stroke="#1c99b9" stroke-linecap="round" stroke-linejoin="round" stroke-width="2"/>
        <path id="_6cb15df2-6a5b-4ccd-bfd4-d5d789ba3546" data-name="6cb15df2-6a5b-4ccd-bfd4-d5d789ba3546" d="M11.814,2a12.919,12.919,0,0,1,3.814,8.8,12.919,12.919,0,0,1-3.814,8.8A12.919,12.919,0,0,1,8,10.8,12.919,12.919,0,0,1,11.814,2Z" transform="translate(-2.778 -1.41)" fill="none" stroke="#1c99b9" stroke-linecap="round" stroke-linejoin="round" stroke-width="2"/>
      </g>
    </g>
    <rect id="사각형_8246" data-name="사각형 8246" width="40" height="40" fill="none"/>
  </g>
</svg>
