<?xml version="1.0" standalone="no"?>
<!DOCTYPE svg PUBLIC "-//W3C//DTD SVG 1.1//EN" "http://www.w3.org/Graphics/SVG/1.1/DTD/svg11.dtd" >
<svg xmlns="http://www.w3.org/2000/svg" xmlns:xlink="http://www.w3.org/1999/xlink" version="1.1">
<metadata>
Created by FontForge 20191125 at Mon Apr 29 12:19:09 2019
 By convertio
Copyright \(c\) 2019 by MadeType. All rights reserved.
</metadata>
<defs>
<font id="MADECoachella" horiz-adv-x="743" >
  <font-face 
    font-family="MADE Coachella"
    font-weight="400"
    font-stretch="normal"
    units-per-em="1000"
    panose-1="2 0 5 3 0 0 0 2 0 4"
    ascent="800"
    descent="-200"
    x-height="527"
    cap-height="700"
    bbox="-19 -379 1253 945"
    underline-thickness="50"
    underline-position="-100"
    unicode-range="U+0020-F6C3"
  />
<missing-glyph horiz-adv-x="300" 
 />
    <glyph glyph-name=".notdef" horiz-adv-x="300" 
 />
    <glyph glyph-name="B" unicode="B" horiz-adv-x="751" 
d="M453 372c155 8 268 -55 268 -183c0 -155 -131 -189 -295 -189h-378v13h65v674h-73v13h328c164 0 296 -32 296 -173c0 -100 -105 -150 -211 -151v-4zM341 679h-56v-306h56c86 0 146 35 146 154c0 120 -60 152 -146 152zM391 22c86 0 153 33 153 167s-76 171 -162 171h-97
v-338h106z" />
    <glyph glyph-name="C" unicode="C" horiz-adv-x="732" 
d="M690 155l12 -10c-39 -67 -130 -152 -284 -152c-205 0 -388 117 -388 355c0 230 195 355 398 355c89 0 163 -24 259 -60v-232h-13c-77 202 -126 276 -219 276c-106 0 -239 -114 -223 -339c14 -185 144 -268 280 -268c93 0 146 37 178 75z" />
    <glyph glyph-name="D" unicode="D" horiz-adv-x="817" 
d="M787 350c0 -249 -163 -350 -432 -350h-315v13h64v674h-64v13h315c270 0 432 -101 432 -350zM374 22c160 0 220 120 220 328s-60 329 -220 329h-97v-657h97z" />
    <glyph glyph-name="E" unicode="E" horiz-adv-x="670" 
d="M623 276h12v-276h-595v13h65v674h-65v13h578v-275h-12c-17 133 -63 254 -224 254h-105v-322h85c101 0 127 28 141 112h11v-237h-11c-14 84 -40 112 -141 112h-85v-322h121c161 0 207 120 225 254z" />
    <glyph glyph-name="F" unicode="F" horiz-adv-x="635" 
d="M40 700h570v-275h-12c-17 133 -64 254 -224 254h-97v-330h85c101 0 127 28 141 112h11v-237h-11c-14 84 -40 112 -141 112h-85v-323h107v-13h-344v13h65v674h-65v13z" />
    <glyph glyph-name="G" unicode="G" horiz-adv-x="782" 
d="M762 313v-14h-56v-299h-14v61c-65 -39 -146 -68 -239 -68c-234 0 -423 112 -423 355c0 234 180 355 423 355c74 0 153 -19 227 -47v-204h-12c-57 160 -101 236 -215 236c-116 0 -231 -119 -231 -340s106 -317 232 -330c34 -3 63 -2 89 4v277h-65v14h284z" />
    <glyph glyph-name="H" unicode="H" horiz-adv-x="840" 
d="M800 687h-64v-674h64v-13h-301v13h65v323h-288v-323h65v-13h-301v13h64v674h-64v13h301v-13h-65v-330h288v330h-65v13h301v-13z" />
    <glyph glyph-name="I" unicode="I" horiz-adv-x="381" 
d="M341 687h-64v-674h64v-13h-301v13h65v674h-65v13h301v-13z" />
    <glyph glyph-name="J" unicode="J" horiz-adv-x="585" 
d="M565 700v-13h-64v-393c0 -227 -73 -301 -284 -301c-59 0 -123 20 -197 48v227h11c70 -161 105 -260 186 -260c82 0 111 73 111 195v484h-97v13h334z" />
    <glyph glyph-name="K" unicode="K" horiz-adv-x="839" 
d="M761 13h73v-13h-326v13h56l-202 325l-85 -87v-238h65v-13h-302v13h65v674h-65v13h302v-13h-65v-415l226 235c113 124 72 177 -12 180v13h266v-13c-81 -15 -144 -85 -232 -179l-43 -45z" />
    <glyph glyph-name="L" unicode="L" horiz-adv-x="677" 
d="M640 276h12v-276h-612v13h65v674h-65v13h302v-13h-65v-665h138c161 0 207 120 225 254z" />
    <glyph glyph-name="M" unicode="M" horiz-adv-x="980" 
d="M940 687h-65v-674h65v-13h-302v13h65v633l-243 -646h-25l-281 608v-380c0 -103 35 -199 120 -215v-13h-254v13c85 16 121 112 121 215v409l-24 50h-70v13h258l214 -491l184 491h237v-13z" />
    <glyph glyph-name="N" unicode="N" horiz-adv-x="832" 
d="M546 700h266v-13c-85 -16 -122 -112 -122 -215v-472h-60l-475 583v-355c0 -103 46 -199 130 -215v-13h-265v13c84 16 122 112 122 215v371l-72 88h-49v13h265l391 -482v254c0 103 -46 199 -131 215v13z" />
    <glyph glyph-name="O" unicode="O" horiz-adv-x="840" 
d="M420 703c230 0 390 -130 390 -355c0 -224 -160 -355 -390 -355s-390 131 -390 355c0 225 160 355 390 355zM420 5c116 0 191 92 193 343c-2 252 -77 344 -193 344c-110 0 -192 -92 -193 -344c1 -251 77 -343 193 -343z" />
    <glyph glyph-name="P" unicode="P" horiz-adv-x="694" 
d="M384 700c165 0 280 -61 280 -222c0 -157 -115 -222 -280 -222h-107v-243h97v-13h-334v13h65v674h-65v13h344zM341 269c98 0 154 66 154 209c0 139 -56 201 -154 201h-64v-410h64z" />
    <glyph glyph-name="Q" unicode="Q" horiz-adv-x="840" 
d="M810 348c0 -224 -160 -357 -390 -357l293 -139v-14l-194 -71l-166 204v8c80 19 260 34 260 369c-1 252 -77 344 -193 344c-110 0 -191 -92 -193 -344c0 -210 71 -306 184 -317v-10c-230 0 -381 107 -381 327c0 225 160 355 390 355s390 -130 390 -355z" />
    <glyph glyph-name="R" unicode="R" horiz-adv-x="761" 
d="M681 188v-86c0 -23 8 -48 31 -48c28 0 37 35 37 69h12c0 -89 -45 -130 -117 -130c-77 0 -136 20 -136 120v103c0 85 -39 122 -155 122h-76v-325h65v-13h-302v13h65v674h-65v13h345c164 0 279 -34 279 -185c0 -107 -69 -163 -212 -163v-3c172 0 229 -44 229 -161zM342 351
c86 0 153 27 153 160c0 132 -67 168 -153 168h-65v-328h65z" />
    <glyph glyph-name="S" unicode="S" horiz-adv-x="594" 
d="M172 574c-1 -167 408 -149 391 -381c-10 -134 -109 -200 -286 -200c-73 0 -169 20 -244 44v189h11c64 -161 117 -218 227 -218c74 0 118 24 130 80c44 202 -380 167 -370 414c5 129 88 201 274 201c67 0 141 -24 209 -46v-173h-11c-49 142 -105 204 -202 204
c-73 0 -129 -35 -129 -114z" />
    <glyph glyph-name="T" unicode="T" horiz-adv-x="698" 
d="M20 700h658v-267h-13c-12 90 -19 246 -181 246h-49v-666h65v-13h-302v13h65v666h-49c-162 0 -170 -156 -181 -246h-13v267z" />
    <glyph glyph-name="U" unicode="U" horiz-adv-x="742" 
d="M568 700h159v-13c-49 -13 -73 -54 -73 -157v-247c0 -191 -96 -290 -260 -290c-174 0 -314 91 -314 298v396h-65v13h302v-13h-65v-396c0 -161 66 -250 193 -250c116 0 196 80 196 242v247c0 103 -21 144 -73 157v13z" />
    <glyph glyph-name="V" unicode="V" horiz-adv-x="788" 
d="M583 700h200v-13c-40 -12 -90 -65 -122 -143l-218 -544h-47l-327 687h-64v13h314v-13h-57l239 -509l147 366c29 73 -6 132 -65 143v13z" />
    <glyph glyph-name="W" unicode="W" horiz-adv-x="1118" 
d="M870 700h243v-13c-57 -17 -101 -65 -140 -175l-175 -512h-56l-195 522l-166 -522h-55l-259 687h-62v13h311v-13h-60l173 -486l159 499h75l186 -514l110 322c36 106 -4 169 -89 179v13z" />
    <glyph glyph-name="X" unicode="X" horiz-adv-x="801" 
d="M721 13h65v-13h-326v13h64l-186 282l-94 -129c-60 -85 -54 -143 29 -153v-13h-244v13c57 17 137 64 207 161l96 131l-252 382h-65v13h326v-13h-64l171 -260s74 102 75 103c64 91 63 147 -23 157v13h240v-13c-57 -17 -134 -61 -205 -159l-80 -111z" />
    <glyph glyph-name="Y" unicode="Y" horiz-adv-x="756" 
d="M515 700h236v-13c-55 -16 -94 -50 -148 -152l-128 -239v-283h65v-13h-302v13h65v260l-234 414h-64v13h326v-13h-66l199 -380l120 220c52 98 17 150 -69 160v13z" />
    <glyph glyph-name="Z" unicode="Z" horiz-adv-x="661" 
d="M631 700v-13l-407 -666h173c168 0 191 104 209 238h13v-259h-589v13l400 666h-141c-168 0 -207 -104 -224 -238h-13v259h579z" />
    <glyph glyph-name="a" unicode="a" horiz-adv-x="627" 
d="M614 86l13 -9c-16 -34 -58 -84 -134 -84c-77 0 -112 36 -118 91c-29 -41 -98 -91 -180 -91c-90 0 -165 52 -165 158c0 188 228 176 344 180v100c0 60 -22 96 -84 96c-50 0 -103 -28 -187 -180h-12v154c76 23 151 39 210 39c133 0 237 -30 237 -164v-243
c0 -63 14 -73 35 -73c15 0 32 13 41 26zM176 176c0 -134 114 -155 198 -78v3v218c-121 5 -198 -42 -198 -143z" />
    <glyph glyph-name="b" unicode="b" horiz-adv-x="705" 
d="M452 540c110 3 218 -87 218 -271c0 -183 -121 -276 -251 -276c-85 0 -135 19 -177 44l-143 -37h-13v687h-56v13h220v-287c36 61 96 123 202 127zM351 26c89 6 149 75 149 217c0 137 -57 219 -151 212c-46 -4 -80 -30 -99 -68v-340c19 -12 69 -23 101 -21z" />
    <glyph glyph-name="c" unicode="c" horiz-adv-x="589" 
d="M543 119l11 -9c-30 -51 -101 -117 -220 -117c-157 0 -304 90 -304 273c0 185 151 274 313 274c68 0 125 -19 199 -47v-178h-12c-59 155 -95 212 -166 212c-82 0 -166 -87 -153 -261c10 -142 98 -206 196 -206c72 0 110 29 136 59z" />
    <glyph glyph-name="d" unicode="d" horiz-adv-x="718" 
d="M621 13h57v-13h-220v112c-24 -58 -89 -119 -192 -119c-109 0 -236 89 -236 273c0 185 127 274 236 274c103 0 168 -61 192 -119v266h-57v13h220v-687zM458 133v267c-22 33 -51 63 -95 69c-90 13 -163 -66 -163 -203c0 -136 73 -215 163 -202c44 6 73 36 95 69z" />
    <glyph glyph-name="e" unicode="e" horiz-adv-x="609" 
d="M318 540c157 0 266 -86 255 -274h-362c11 -142 98 -206 197 -206c72 0 110 29 135 59l11 -9c-30 -51 -100 -117 -219 -117c-157 0 -305 90 -305 273c0 187 137 274 288 274zM416 288c3 133 -25 239 -98 239c-68 0 -113 -100 -108 -239h206z" />
    <glyph glyph-name="f" unicode="f" horiz-adv-x="435" 
d="M293 716c-27 -3 -43 -31 -43 -141v-48h175v-13h-175v-501h98v-13h-318v13h56v501h-56v13h56c3 143 76 202 202 202c62 0 102 -13 137 -21v-138h-10c-71 121 -84 150 -122 146z" />
    <glyph glyph-name="g" unicode="g" horiz-adv-x="647" 
d="M371 127c159 0 241 -25 241 -127c0 -114 -104 -195 -297 -195c-190 0 -285 28 -285 96c0 57 83 92 143 110c-91 19 -123 62 -115 123c9 61 60 96 91 111c-49 27 -79 71 -79 129c0 109 104 166 246 166c43 0 83 -6 118 -16l165 127h9v-135h-153c65 -26 106 -74 106 -142
c0 -109 -103 -166 -245 -166c-61 0 -114 10 -156 31c-4 -12 -8 -25 -7 -40c1 -44 57 -72 218 -72zM316 524c-69 0 -100 -63 -100 -150s31 -151 100 -151c68 0 99 64 99 151s-31 150 -99 150zM493 -85c3 62 -41 84 -177 84c-40 0 -74 2 -103 5c-41 -21 -77 -58 -77 -99
c0 -54 79 -81 180 -81c113 0 174 38 177 91z" />
    <glyph glyph-name="h" unicode="h" horiz-adv-x="744" 
d="M704 13v-13h-277v13h56v346c0 68 -48 109 -123 98c-59 -9 -109 -57 -109 -108v-336h56v-13h-277v13h57v674h-57v13h221v-312c48 93 121 152 212 152c138 0 184 -86 184 -190v-337h57z" />
    <glyph glyph-name="i" unicode="i" horiz-adv-x="346" 
d="M250 13h56v-13h-276v13h56v501h-56v13h220v-514zM168 567c-49 0 -89 39 -89 89c0 49 40 89 89 89s89 -40 89 -89c0 -50 -40 -89 -89 -89z" />
    <glyph glyph-name="j" unicode="j" horiz-adv-x="336" 
d="M16 527h242v-354c0 -238 -49 -353 -258 -353v15c71 0 94 84 94 206v473h-78v13zM176 567c-49 0 -89 39 -89 89c0 49 40 89 89 89c50 0 90 -40 90 -89c0 -50 -40 -89 -90 -89z" />
    <glyph glyph-name="k" unicode="k" horiz-adv-x="673" 
d="M607 13h61v-13h-285v13h52l-127 229l-58 -63v-166h56v-13h-276v13h56v674h-56v13h220v-505l167 184c70 77 52 128 -12 135v13h222v-13c-70 -17 -123 -56 -189 -128l-26 -29z" />
    <glyph glyph-name="l" unicode="l" horiz-adv-x="346" 
d="M250 13h56v-13h-276v13h56v674h-56v13h220v-687z" />
    <glyph glyph-name="m" unicode="m" horiz-adv-x="1124" 
d="M1084 13v-13h-277v13h56v346c0 68 -40 109 -114 98c-60 -9 -110 -57 -110 -108v-336h56v-13h-277v13h57v346c0 68 -41 109 -115 98c-59 -9 -110 -57 -110 -108v-336h57v-13h-277v13h57v501h-57v13h220v-139c49 93 122 152 213 152c122 0 166 -68 174 -156
c47 95 122 156 214 156c138 0 176 -86 176 -190v-337h57z" />
    <glyph glyph-name="n" unicode="n" 
d="M703 13v-13h-220h-56v13h56v346c0 68 -49 109 -123 98c-59 -9 -110 -57 -110 -108v-336h57v-13h-277v13h56v501h-56v13h220v-139c49 93 122 152 213 152c138 0 184 -86 184 -190v-337h56z" />
    <glyph glyph-name="o" unicode="o" horiz-adv-x="672" 
d="M334 540c153 0 303 -84 303 -274c0 -189 -150 -273 -303 -273s-304 84 -304 273c0 190 151 274 304 274zM334 5c88 0 132 113 132 261s-44 261 -132 261s-132 -113 -132 -261s44 -261 132 -261z" />
    <glyph glyph-name="p" unicode="p" horiz-adv-x="713" 
d="M442 540c109 0 236 -89 236 -274c0 -184 -127 -273 -236 -273c-103 0 -168 61 -192 119v-266h80v-13h-300v13h57v668h-57v13h220v-106c24 58 89 119 192 119zM345 63c90 -12 163 67 163 203c0 137 -73 216 -163 203c-44 -6 -73 -36 -95 -69v-267c22 -33 51 -63 95 -70z
" />
    <glyph glyph-name="q" unicode="q" horiz-adv-x="701" 
d="M671 -154v-13h-294v13h73v273c-35 -60 -96 -126 -201 -126c-110 0 -219 87 -219 271c0 183 121 276 251 276c85 0 135 -19 178 -44l142 31h13v-681h57zM352 78c45 3 79 30 98 67v341c-19 11 -69 22 -101 20c-89 -5 -148 -75 -148 -216c0 -138 57 -219 151 -212z" />
    <glyph glyph-name="r" unicode="r" horiz-adv-x="549" 
d="M426 540c43 0 88 -24 103 -45l-83 -139h-9c-16 54 -55 108 -120 86c-31 -11 -66 -67 -66 -118v-311h89v-13h-310v13h57v501h-57v13h221v-147c32 97 83 160 175 160z" />
    <glyph glyph-name="s" unicode="s" horiz-adv-x="505" 
d="M170 454c0 -61 101 -110 169 -146c97 -51 144 -90 127 -181c-22 -123 -156 -134 -229 -134c-56 0 -125 15 -207 37v176h10c84 -166 138 -194 189 -201c45 -7 97 6 101 62c4 71 -88 107 -156 145c-77 43 -136 89 -131 174c9 147 152 154 206 154c50 0 130 -19 196 -37
v-160h-10c-76 150 -123 185 -188 185c-38 0 -77 -22 -77 -74z" />
    <glyph glyph-name="t" unicode="t" horiz-adv-x="400" 
d="M379 87l11 -9c-34 -50 -74 -85 -156 -85c-105 0 -147 69 -147 171v350h-57v13h57l154 160h10v-160h122v-13h-122v-372c0 -77 39 -88 64 -88c21 0 39 6 64 33z" />
    <glyph glyph-name="u" unicode="u" 
d="M647 13h56v-13h-220v145c-49 -93 -129 -152 -220 -152c-139 0 -177 86 -177 190v331h-56v13h220v-353c0 -68 41 -109 115 -98c59 8 118 57 118 108v330h-56v13h220v-514z" />
    <glyph glyph-name="v" unicode="v" horiz-adv-x="655" 
d="M420 527h225v-13c-57 -17 -90 -70 -138 -179l-147 -335h-64l-233 514h-63v13h318v-13h-67l156 -375l87 197c47 106 10 165 -74 178v13z" />
    <glyph glyph-name="w" unicode="w" horiz-adv-x="966" 
d="M731 527h225v-13c-56 -17 -86 -68 -130 -175l-137 -339h-65l-155 364l-125 -364h-65l-217 514h-62v13h326v-13h-68l129 -348l125 361h70l151 -384l79 193c44 108 4 165 -81 178v13z" />
    <glyph glyph-name="x" unicode="x" horiz-adv-x="674" 
d="M588 13h56v-13h-293v13h58l-137 200l-66 -88c-47 -65 -47 -101 18 -112v-13h-195v13c43 13 111 39 164 112l72 98l-199 291h-56v12h293v-12h-58l127 -186l53 73c50 67 40 107 -21 113v13h195v-13c-43 -12 -109 -43 -162 -115l-59 -80z" />
    <glyph glyph-name="y" unicode="y" horiz-adv-x="663" 
d="M426 527h227v-13c-57 -17 -90 -71 -138 -179l-144 -328l-137 -290l-128 116v13l223 104l-266 564h-63v13h302v-13h-68l173 -395l97 222c44 103 5 160 -78 173v13z" />
    <glyph glyph-name="z" unicode="z" horiz-adv-x="542" 
d="M507 527v-13l-301 -493h130c127 0 143 78 154 178h13v-199h-473v13l296 492h-106c-126 0 -155 -79 -166 -180h-13v202h466z" />
    <glyph glyph-name="space" unicode=" " horiz-adv-x="300" 
 />
    <glyph glyph-name="one" unicode="1" horiz-adv-x="357" 
d="M252 13h65v-13h-277v13h65v567h-65v13l197 107h15v-687z" />
    <glyph glyph-name="two" unicode="2" horiz-adv-x="584" 
d="M540 477c-22 -151 -231 -255 -393 -346h376v55h11v-186h-494v13c229 290 321 399 340 514c17 97 -7 160 -79 160c-94 0 -145 -85 -200 -233h-12v203c68 22 154 46 204 46c198 0 266 -96 247 -226z" />
    <glyph glyph-name="three" unicode="3" horiz-adv-x="564" 
d="M295 373c173 9 231 -79 228 -177c-4 -133 -96 -203 -274 -203c-52 0 -142 22 -209 44v206h12c59 -145 105 -235 195 -235c72 0 119 66 116 181c-3 117 -50 161 -142 175v16c72 11 131 42 141 158c9 107 -25 149 -90 149c-72 0 -129 -73 -187 -217h-12v191
c67 21 147 42 202 42c148 0 230 -50 227 -158c-2 -92 -68 -160 -207 -168v-4z" />
    <glyph glyph-name="four" unicode="4" horiz-adv-x="593" 
d="M583 180h-89v-167h65v-13h-277v13h64v167h-336v13c137 108 216 330 155 494v13h175c30 -299 -171 -460 -294 -507h300v108l136 243h12v-351h89v-13z" />
    <glyph glyph-name="five" unicode="5" horiz-adv-x="540" 
d="M86 376c270 128 420 -3 413 -158c-5 -133 -75 -225 -255 -225c-51 0 -136 22 -204 43v199h12c54 -145 100 -227 186 -227c66 0 104 60 103 181c0 133 -57 211 -267 175l24 336h348v56h11v-187h-357z" />
    <glyph glyph-name="six" unicode="6" horiz-adv-x="598" 
d="M370 442c141 -10 198 -96 198 -213c0 -156 -112 -236 -259 -236c-165 0 -279 109 -279 315c0 268 132 395 309 395c52 0 116 -19 182 -43v-173h-11c-55 143 -111 200 -171 200c-52 0 -129 -37 -147 -275c43 18 128 33 178 30zM309 8c82 0 111 96 111 221
c0 150 -86 208 -229 168c-1 -27 -2 -57 -2 -89c0 -145 35 -300 120 -300z" />
    <glyph glyph-name="seven" unicode="7" horiz-adv-x="501" 
d="M20 700h461v-13c-88 -181 -188 -397 -188 -687h-161c0 227 99 434 285 569h-385v-55h-12v186z" />
    <glyph glyph-name="eight" unicode="8" horiz-adv-x="604" 
d="M368 373c140 -5 206 -81 206 -187c0 -131 -123 -193 -272 -193s-272 62 -272 193c0 106 66 182 206 187v4c-105 12 -166 67 -166 160c0 103 88 166 232 166s232 -63 232 -166c0 -93 -61 -148 -166 -160v-4zM197 538c0 -116 49 -158 105 -158s105 42 105 158
c0 110 -49 149 -105 149s-105 -39 -105 -149zM302 8c73 0 128 57 128 181c0 117 -46 175 -128 175s-128 -58 -128 -175c0 -124 55 -181 128 -181z" />
    <glyph glyph-name="nine" unicode="9" horiz-adv-x="598" 
d="M289 703c164 0 279 -108 279 -314c0 -268 -125 -396 -302 -396c-51 0 -124 20 -190 43v174h11c55 -143 119 -202 179 -202c53 0 123 39 139 277c-42 -18 -127 -33 -177 -30c-142 10 -198 96 -198 212c0 157 111 236 259 236zM406 300c2 27 2 57 2 89
c0 144 -35 298 -119 298c-83 0 -112 -94 -112 -220c0 -149 86 -207 229 -167z" />
    <glyph glyph-name="zero" unicode="0" horiz-adv-x="637" 
d="M318 703c168 0 289 -130 289 -354c0 -225 -121 -356 -289 -356c-167 0 -288 131 -288 356c0 224 121 354 288 354zM318 8c79 0 132 102 132 341c0 238 -53 338 -132 338c-78 0 -131 -100 -131 -338c0 -239 53 -341 131 -341z" />
    <glyph glyph-name="grave" unicode="`" horiz-adv-x="256" 
d="M134 687c47 -47 82 -136 82 -136l-7 -6s-89 34 -136 81c-33 33 -42 63 -22 83s50 11 83 -22z" />
    <glyph glyph-name="acute" unicode="&#xb4;" horiz-adv-x="256" 
d="M205 709c20 -20 11 -50 -23 -83c-47 -47 -135 -81 -135 -81l-7 6s34 89 81 136c33 33 64 42 84 22z" />
    <glyph glyph-name="circumflex" unicode="&#x2c6;" horiz-adv-x="428" 
d="M257 720l131 -147l-7 -7l-167 69l-167 -69l-7 7l131 147h86z" />
    <glyph glyph-name="dotaccent" unicode="&#x2d9;" horiz-adv-x="246" 
d="M123 726c46 0 83 -37 83 -83s-37 -83 -83 -83s-83 37 -83 83s37 83 83 83z" />
    <glyph glyph-name="dieresis" unicode="&#xa8;" horiz-adv-x="454" 
d="M123 726c46 0 83 -37 83 -83s-37 -83 -83 -83s-83 37 -83 83s37 83 83 83zM331 726c46 0 83 -37 83 -83s-37 -83 -83 -83s-83 37 -83 83s37 83 83 83z" />
    <glyph glyph-name="macron" unicode="&#xaf;" horiz-adv-x="401" 
d="M40 647h321v-48h-321v48z" />
    <glyph glyph-name="caron" unicode="&#x2c7;" horiz-adv-x="428" 
d="M381 720l7 -7l-131 -147h-86l-131 147l7 7l167 -68z" />
    <glyph glyph-name="breve" unicode="&#x2d8;" horiz-adv-x="358" 
d="M308 720h10c0 -98 -51 -155 -139 -155s-139 57 -139 155h10c13 -48 63 -78 129 -78s116 30 129 78z" />
    <glyph glyph-name="ring" unicode="&#x2da;" horiz-adv-x="284" 
d="M142 541c-56 0 -102 46 -102 102s46 102 102 102s102 -46 102 -102s-46 -102 -102 -102zM142 712c-38 0 -69 -31 -69 -69s31 -69 69 -69s69 31 69 69s-31 69 -69 69z" />
    <glyph glyph-name="hungarumlaut" unicode="&#x2dd;" horiz-adv-x="438" 
d="M121 687c33 33 63 42 83 22s11 -50 -22 -83c-47 -47 -135 -81 -135 -81l-7 6s34 89 81 136zM387 709c20 -20 11 -50 -22 -83c-47 -47 -136 -81 -136 -81l-6 6s34 89 81 136c33 33 63 42 83 22z" />
    <glyph glyph-name="tilde" unicode="&#x2dc;" horiz-adv-x="373" 
d="M248 581c-40 0 -71 20 -107 40c-51 28 -85 -1 -93 -38h-8c4 101 35 132 96 127c44 -3 83 -37 118 -50c40 -14 64 6 72 40h7c-3 -80 -26 -119 -85 -119z" />
    <glyph glyph-name="cedilla" unicode="&#xb8;" horiz-adv-x="336" 
d="M128 -40c101 17 184 -25 165 -118c-15 -79 -128 -129 -253 -81l3 10c83 -10 137 43 150 92c15 56 -18 94 -81 85l15 53h13z" />
    <glyph glyph-name="ogonek" unicode="&#x2db;" horiz-adv-x="318" 
d="M150 8c-25 -52 -48 -124 -17 -164c29 -38 88 -38 140 -10l5 -5c-58 -94 -189 -101 -225 -42c-43 69 37 192 90 221h7z" />
    <glyph glyph-name="commaaccent" unicode="&#xf6c3;" horiz-adv-x="252" 
d="M126 -48c48 0 86 -38 86 -86c0 -86 -86 -170 -128 -196l-5 9c37 27 73 85 82 108c-8 -3 -23 -7 -35 -7c-48 0 -86 38 -86 86s38 86 86 86z" />
    <glyph glyph-name="comma" unicode="," horiz-adv-x="252" 
d="M212 80c0 -87 -86 -170 -127 -196l-6 9c37 27 73 84 82 108c-8 -4 -22 -8 -35 -8c-47 0 -86 39 -86 87c0 47 39 86 86 86c48 0 86 -39 86 -86z" />
    <glyph glyph-name="period" unicode="." horiz-adv-x="252" 
d="M126 166c48 0 86 -39 86 -86c0 -48 -38 -87 -86 -87c-47 0 -86 39 -86 87c0 47 39 86 86 86z" />
    <glyph glyph-name="colon" unicode=":" horiz-adv-x="252" 
d="M126 166c47 0 86 -39 86 -86c0 -48 -39 -87 -86 -87c-48 0 -86 39 -86 87c0 47 38 86 86 86zM126 406c-48 0 -86 38 -86 86s38 86 86 86c47 0 86 -38 86 -86s-39 -86 -86 -86z" />
    <glyph glyph-name="semicolon" unicode=";" horiz-adv-x="252" 
d="M126 406c-47 0 -86 38 -86 86s39 86 86 86c48 0 86 -38 86 -86s-38 -86 -86 -86zM126 166c48 0 86 -39 86 -86c0 -87 -86 -170 -128 -196l-5 9c37 27 73 84 82 108c-8 -4 -22 -8 -35 -8c-47 0 -86 39 -86 87c0 47 39 86 86 86z" />
    <glyph glyph-name="exclam" unicode="!" horiz-adv-x="263" 
d="M131 166c48 0 87 -39 87 -86c0 -48 -39 -87 -87 -87c-47 0 -86 39 -86 87c0 47 39 86 86 86zM135 257h-7s-96 145 -87 319c5 84 37 127 90 127c54 0 86 -43 91 -127c9 -174 -87 -319 -87 -319z" />
    <glyph glyph-name="question" unicode="?" horiz-adv-x="522" 
d="M226 166c47 0 86 -39 86 -86c0 -48 -39 -87 -86 -87c-48 0 -87 39 -87 87c0 47 39 86 87 86zM481 534c5 -130 -96 -211 -261 -223v-54h-13v66c67 25 101 121 101 200c0 113 -37 169 -101 164c-53 -4 -102 -69 -157 -216h-10v195c68 20 142 37 192 37
c156 0 244 -56 249 -169z" />
    <glyph glyph-name="degree" unicode="&#xb0;" horiz-adv-x="345" 
d="M172 426c-73 0 -132 59 -132 132c0 74 59 133 132 133c74 0 133 -59 133 -133c0 -73 -59 -132 -133 -132zM172 642c-46 0 -83 -38 -83 -84c0 -45 37 -83 83 -83s84 38 84 83c0 46 -38 84 -84 84z" />
    <glyph glyph-name="quotesinglbase" unicode="&#x201a;" horiz-adv-x="252" 
d="M126 166c48 0 86 -39 86 -86c0 -87 -86 -170 -127 -196l-6 9c37 27 73 84 82 108c-8 -4 -22 -8 -35 -8c-47 0 -86 39 -86 87c0 47 39 86 86 86z" />
    <glyph glyph-name="quotedblbase" unicode="&#x201e;" horiz-adv-x="475" 
d="M127 166c47 0 86 -39 86 -86c0 -87 -86 -170 -128 -196l-5 9c36 27 72 84 82 108c-9 -4 -23 -8 -35 -8c-48 0 -87 39 -87 87c0 47 39 86 87 86zM349 166c48 0 86 -39 86 -86c0 -87 -86 -170 -127 -196l-6 9c37 27 73 84 82 108c-8 -4 -22 -8 -35 -8c-47 0 -86 39 -86 87
c0 47 39 86 86 86z" />
    <glyph glyph-name="quotedblleft" unicode="&#x201c;" horiz-adv-x="475" 
d="M127 660c47 0 86 -38 86 -86s-39 -86 -86 -86c-48 0 -87 38 -87 86c0 86 87 170 128 196l6 -9c-37 -27 -73 -85 -82 -108c8 3 22 7 35 7zM349 660c48 0 86 -38 86 -86s-38 -86 -86 -86c-47 0 -86 38 -86 86c0 86 86 170 128 196l5 -9c-36 -27 -73 -85 -82 -108
c9 3 23 7 35 7z" />
    <glyph glyph-name="quotedblright" unicode="&#x201d;" horiz-adv-x="475" 
d="M126 704c48 0 86 -38 86 -86c0 -86 -86 -170 -127 -196l-6 10c37 27 73 84 82 107c-8 -3 -22 -7 -35 -7c-47 0 -86 39 -86 86c0 48 39 86 86 86zM349 704c47 0 86 -38 86 -86c0 -86 -86 -170 -128 -196l-5 10c36 27 73 84 82 107c-9 -3 -23 -7 -35 -7
c-48 0 -86 39 -86 86c0 48 38 86 86 86z" />
    <glyph glyph-name="quoteright" unicode="&#x2019;" horiz-adv-x="252" 
d="M126 704c48 0 86 -38 86 -86c0 -86 -86 -170 -128 -196l-5 10c37 27 73 84 82 107c-8 -3 -23 -7 -35 -7c-48 0 -86 39 -86 86c0 48 38 86 86 86z" />
    <glyph glyph-name="questiondown" unicode="&#xbf;" horiz-adv-x="522" 
d="M297 157c-48 0 -87 39 -87 86c0 48 39 87 87 87c47 0 86 -39 86 -87c0 -47 -39 -86 -86 -86zM472 -148h10v-195c-68 -19 -142 -36 -192 -36c-156 0 -244 55 -249 168c-5 130 96 211 261 223v54h13v-66c-67 -25 -100 -120 -100 -200c0 -113 36 -169 100 -164
c53 4 102 69 157 216z" />
    <glyph glyph-name="exclamdown" unicode="&#xa1;" horiz-adv-x="263" 
d="M132 157c-48 0 -86 39 -86 86c0 48 38 87 86 87c47 0 86 -39 86 -87c0 -47 -39 -86 -86 -86zM135 66c0 0 96 -145 87 -319c-5 -84 -37 -126 -90 -126s-86 42 -91 126c-9 174 87 319 87 319h7z" />
    <glyph glyph-name="asciitilde" unicode="~" horiz-adv-x="450" 
d="M401 421h9c-3 -104 -33 -155 -108 -155c-50 0 -89 27 -135 53c-64 36 -107 -2 -118 -50h-9c5 132 44 172 121 166c55 -4 105 -49 149 -65c51 -19 81 7 91 51z" />
    <glyph glyph-name="approxequal" unicode="&#x2248;" horiz-adv-x="475" 
d="M192 418c-64 37 -107 -2 -118 -50h-9c5 132 44 172 121 167c55 -4 105 -50 149 -66c51 -19 81 7 91 51h9c-4 -104 -33 -154 -108 -154c-50 0 -89 26 -135 52zM310 271c51 -19 81 7 91 51h9c-3 -104 -33 -155 -107 -155c-51 0 -90 27 -135 53c-65 36 -107 -2 -118 -50h-10
c5 132 45 172 122 166c55 -3 104 -49 148 -65z" />
    <glyph glyph-name="plus" unicode="+" horiz-adv-x="433" 
d="M393 354v-49h-152v-153h-49v153h-152v49h152v152h49v-152h152z" />
    <glyph glyph-name="plusminus" unicode="&#xb1;" horiz-adv-x="434" 
d="M241 469h153v-48h-153v-153h-48v153h-153v48h153v153h48v-153zM40 163v49h354v-49h-354z" />
    <glyph glyph-name="minus" unicode="&#x2212;" horiz-adv-x="434" 
d="M40 354h354v-49h-354v49z" />
    <glyph glyph-name="equal" unicode="=" horiz-adv-x="434" 
d="M40 414h354v-49h-354v49zM40 245v48h354v-48h-354z" />
    <glyph glyph-name="multiply" unicode="&#xd7;" horiz-adv-x="365" 
d="M325 437l-108 -108l108 -108l-34 -34l-108 108l-108 -108l-35 34l108 108l-108 108l35 34l108 -107l108 107z" />
    <glyph glyph-name="divide" unicode="&#xf7;" horiz-adv-x="434" 
d="M40 354h354v-49h-354v49zM217 237c48 0 86 -39 86 -86c0 -48 -38 -86 -86 -86s-86 38 -86 86c0 47 38 86 86 86zM217 421c-48 0 -86 39 -86 87c0 47 38 86 86 86s86 -39 86 -86c0 -48 -38 -87 -86 -87z" />
    <glyph glyph-name="notequal" unicode="&#x2260;" horiz-adv-x="434" 
d="M394 365h-139l-56 -72h195v-48h-232l-72 -93l-12 10l64 83h-102v48h140l55 72h-195v49h233l71 93l13 -10l-65 -83h102v-49z" />
    <glyph glyph-name="underscore" unicode="_" horiz-adv-x="434" 
d="M40 0h354v-48h-354v48z" />
    <glyph glyph-name="hyphen" unicode="-" horiz-adv-x="434" 
d="M40 354h354v-49h-354v49z" />
    <glyph glyph-name="endash" unicode="&#x2013;" horiz-adv-x="475" 
d="M40 354h395v-49h-395v49z" />
    <glyph glyph-name="emdash" unicode="&#x2014;" horiz-adv-x="516" 
d="M40 354h436v-49h-436v49z" />
    <glyph glyph-name="bracketleft" unicode="[" horiz-adv-x="246" 
d="M206 687h-117v-752h117v-13h-166v778h166v-13z" />
    <glyph glyph-name="bracketright" unicode="]" horiz-adv-x="246" 
d="M40 700h166v-778h-166v13h117v752h-117v13z" />
    <glyph glyph-name="bar" unicode="|" horiz-adv-x="129" 
d="M40 700h49v-778h-49v778z" />
    <glyph glyph-name="brokenbar" unicode="&#xa6;" horiz-adv-x="129" 
d="M89 700v-284h-49v284h49zM89 206v-283h-49v283h49z" />
    <glyph glyph-name="section" unicode="&#xa7;" horiz-adv-x="546" 
d="M515 306c-6 -82 -47 -133 -126 -155c47 -32 82 -74 79 -140c-4 -108 -66 -168 -228 -168c-56 0 -120 20 -177 39v144h10c41 -118 89 -170 170 -170c61 0 109 29 107 95c-4 145 -331 132 -319 319c5 81 46 133 125 155c-46 32 -81 73 -78 139c4 109 73 169 228 169
c56 0 120 -21 176 -39v-145h-9c-41 119 -89 171 -170 171c-61 0 -109 -29 -107 -95c4 -145 333 -130 319 -319zM388 218c23 104 -102 133 -200 187c-16 -10 -26 -26 -30 -47c-23 -104 102 -133 200 -188c15 11 26 27 30 48z" />
    <glyph glyph-name="numbersign" unicode="#" horiz-adv-x="730" 
d="M678 454h-129l-53 -204h126l-12 -49h-126l-52 -200h-49l52 200h-205l-52 -200h-48l52 200h-142l13 49h141l53 204h-146l12 48h147l51 199h49l-52 -199h205l52 199h48l-51 -199h128zM448 250l53 204h-205l-53 -204h205z" />
    <glyph glyph-name="paragraph" unicode="&#xb6;" horiz-adv-x="454" 
d="M208 701h206v-700h-48v687h-110v-687h-48v380c-89 0 -168 72 -168 160s79 160 168 160z" />
    <glyph glyph-name="percent" unicode="%" horiz-adv-x="851" 
d="M397 532c0 -100 -72 -173 -178 -173c-107 0 -179 73 -179 173s72 171 179 171c106 0 178 -71 178 -171zM155 532c0 -104 23 -161 64 -161c40 0 63 57 63 161c0 103 -23 160 -63 160c-41 0 -64 -57 -64 -160zM633 339c106 0 178 -73 178 -173s-72 -173 -178 -173
c-107 0 -179 73 -179 173s72 173 179 173zM633 4c40 0 63 59 63 162c0 104 -23 161 -63 161c-41 0 -64 -57 -64 -161c0 -103 23 -162 64 -162zM679 701h22l-536 -700h-22z" />
    <glyph glyph-name="quotesingle" unicode="'" horiz-adv-x="166" 
d="M83 704c26 0 43 -29 43 -75c0 -66 -38 -153 -38 -153h-10s-38 87 -38 153c0 46 17 75 43 75z" />
    <glyph glyph-name="quotedbl" unicode="&#x22;" horiz-adv-x="310" 
d="M83 704c26 0 44 -29 44 -75c0 -66 -39 -153 -39 -153h-9s-39 87 -39 153c0 46 17 75 43 75zM227 704c26 0 43 -29 43 -75c0 -66 -38 -153 -38 -153h-10s-38 87 -38 153c0 46 17 75 43 75z" />
    <glyph glyph-name="asciicircum" unicode="^" horiz-adv-x="385" 
d="M203 701l142 -190l-6 -7l-146 95l-147 -95l-6 7l142 190h21z" />
    <glyph glyph-name="guillemotleft" unicode="&#xab;" horiz-adv-x="417" 
d="M220 470l-78 -146l78 -147l-7 -6l-173 142v21l173 142zM377 470l-78 -146l78 -147l-7 -6l-173 142v21l173 142z" />
    <glyph glyph-name="guillemotright" unicode="&#xbb;" horiz-adv-x="417" 
d="M203 476l174 -142v-21l-174 -142l-6 6l78 147l-78 146zM220 334v-21l-174 -142l-6 6l78 147l-78 146l6 6z" />
    <glyph glyph-name="greaterequal" unicode="&#x2265;" horiz-adv-x="433" 
d="M40 163v49h353v-49h-353zM40 583l353 -132v-52l-353 -132v49l293 109l-293 109v49z" />
    <glyph glyph-name="lessequal" unicode="&#x2264;" horiz-adv-x="434" 
d="M40 163v49h354v-49h-354zM394 583v-49l-293 -109l293 -109v-49l-354 132v52z" />
    <glyph glyph-name="less" unicode="&#x3c;" horiz-adv-x="434" 
d="M394 497v-48l-293 -110l293 -109v-48l-354 131v52z" />
    <glyph glyph-name="greater" unicode="&#x3e;" horiz-adv-x="433" 
d="M40 497l353 -132v-52l-353 -131v48l293 109l-293 110v48z" />
    <glyph glyph-name="asterisk" unicode="*" horiz-adv-x="395" 
d="M355 597l-14 -4l-141 -10l108 -90l9 -12l-59 -43l-8 12l-53 131l-52 -131l-9 -12l-58 43l8 12l108 90l-140 10l-14 4l22 69l14 -4l119 -75l-34 136v15h73v-15l-35 -136l120 75l13 4z" />
    <glyph glyph-name="slash" unicode="/" horiz-adv-x="376" 
d="M287 700h49l-248 -778h-48z" />
    <glyph glyph-name="backslash" unicode="\" horiz-adv-x="376" 
d="M89 700l247 -778h-48l-248 778h49z" />
    <glyph glyph-name="guilsinglleft" unicode="&#x2039;" horiz-adv-x="260" 
d="M220 471l-78 -147l78 -147l-7 -6l-173 142v22l173 142z" />
    <glyph glyph-name="guilsinglright" unicode="&#x203a;" horiz-adv-x="260" 
d="M46 477l174 -142v-22l-174 -142l-6 6l78 147l-78 147z" />
    <glyph glyph-name="parenleft" unicode="(" horiz-adv-x="401" 
d="M381 773c-119 -77 -205 -236 -205 -474s86 -396 205 -474v-14c-206 62 -351 246 -351 488s145 426 351 488v-14z" />
    <glyph glyph-name="parenright" unicode=")" horiz-adv-x="402" 
d="M20 787c206 -62 352 -246 352 -488s-146 -426 -352 -488v14c119 78 206 236 206 474s-87 397 -206 474v14z" />
    <glyph glyph-name="at" unicode="@" horiz-adv-x="1061" 
d="M210 266c0 185 127 274 236 274c103 0 168 -61 191 -119v107h221v-13h-57v-372c0 -76 54 -86 90 -80c46 7 124 63 124 249c0 251 -172 424 -459 424c-333 0 -509 -188 -509 -479c0 -130 56 -282 167 -354c159 -101 428 -114 609 -39l6 -15c-261 -98 -525 -26 -624 41
c-114 77 -175 231 -175 367c0 173 72 496 526 496c300 0 475 -182 475 -441c0 -197 -83 -318 -237 -318c-92 0 -140 47 -157 118c-23 -58 -88 -119 -191 -119c-109 0 -236 89 -236 273zM543 459c-90 13 -163 -56 -163 -193c0 -136 73 -205 163 -192c44 6 73 26 94 59v267
c-21 33 -50 53 -94 59z" />
    <glyph glyph-name="braceleft" unicode="{" horiz-adv-x="305" 
d="M265 702c-48 -7 -86 -34 -82 -91c5 -58 20 -94 17 -151c-3 -71 -39 -113 -143 -121c104 -8 140 -50 143 -121c3 -57 -12 -93 -17 -151c-4 -57 34 -84 82 -91v-8c-108 0 -199 22 -154 247c17 87 -24 110 -81 118v12c57 8 98 31 81 118c-45 225 46 247 154 247v-8z" />
    <glyph glyph-name="braceright" unicode="}" horiz-adv-x="305" 
d="M194 463c-17 -87 24 -110 81 -118v-12c-57 -8 -98 -31 -81 -118c45 -225 -46 -247 -154 -247v8c48 7 86 34 82 91c-5 58 -20 94 -17 151c3 71 39 113 143 121c-104 8 -140 50 -143 121c-3 57 12 93 17 151c4 57 -34 84 -82 91v8c108 0 199 -22 154 -247z" />
    <glyph glyph-name="copyright" unicode="&#xa9;" horiz-adv-x="850" 
d="M600 195l7 -6c-23 -39 -78 -90 -170 -90c-122 0 -231 69 -231 212c0 137 116 212 238 212c52 0 97 -14 154 -36v-139h-8c-46 121 -75 165 -130 165c-64 0 -144 -68 -134 -202c9 -111 87 -161 168 -161c55 0 87 23 106 45zM425 703c218 0 395 -178 395 -395
c0 -218 -177 -395 -395 -395s-395 177 -395 395c0 217 177 395 395 395zM425 -71c209 0 378 170 378 379c0 208 -169 378 -378 378s-378 -170 -378 -378c0 -209 169 -379 378 -379z" />
    <glyph glyph-name="registered" unicode="&#xae;" horiz-adv-x="850" 
d="M425 703c218 0 395 -178 395 -395c0 -218 -177 -395 -395 -395s-395 177 -395 395c0 217 177 395 395 395zM425 -71c209 0 378 170 378 379c0 208 -169 378 -378 378s-378 -170 -378 -378c0 -209 169 -379 378 -379zM596 214v-50c0 -13 5 -28 18 -28c17 0 22 20 22 40h8
c0 -52 -27 -76 -69 -76c-45 0 -80 12 -80 71v60c0 49 -23 71 -90 71h-45v-190h38v-8h-176v8h38v394h-38v8h201c97 0 164 -20 164 -108c0 -63 -41 -96 -124 -96v-2c100 0 133 -25 133 -94zM398 310c50 0 90 16 90 93c0 78 -40 98 -90 98h-38v-191h38z" />
    <glyph glyph-name="dagger" unicode="&#x2020;" horiz-adv-x="388" 
d="M334 520h14v-73h-14l-138 35l35 -216l-34 -143h-6l-33 143l35 216l-138 -35h-15v73h15l138 -35l-35 138v14h72v-14l-34 -138z" />
    <glyph glyph-name="daggerdbl" unicode="&#x2021;" horiz-adv-x="387" 
d="M333 528h14v-73h-14l-136 35l33 -151l-33 -151l136 34h14v-72h-14l-136 34l33 -129v-14h-73v14l33 129l-136 -34h-14v72h14l136 -34l-33 151l33 151l-136 -35h-14v73h14l136 -34l-33 129v14h73v-14l-33 -129z" />
    <glyph glyph-name="ampersand" unicode="&#x26;" horiz-adv-x="724" 
d="M667 14h52v-13h-220s-16 17 -42 45c-40 -30 -91 -51 -155 -53c-160 -7 -275 58 -271 186c3 91 73 146 165 158c-80 93 -115 141 -119 206c-7 110 72 160 197 160c140 0 199 -75 194 -153c-4 -72 -57 -132 -160 -151c18 -21 160 -179 224 -246c14 25 23 48 28 65
c35 111 9 150 -58 160v10h190v-10c-62 -18 -77 -44 -120 -163c-9 -25 -19 -49 -31 -71c53 -56 104 -107 126 -130zM274 688c-72 0 -115 -76 -59 -166c31 -48 56 -80 88 -117c88 142 70 283 -29 283zM311 21c56 -7 101 10 137 35c-53 58 -234 260 -244 271
c-85 -53 -88 -281 107 -306z" />
    <glyph glyph-name="AE" unicode="&#xc6;" horiz-adv-x="1052" 
d="M1005 276h12v-276h-595v13h64v238h-256l-36 -60c-7 -11 -12 -21 -17 -31c-34 -73 -31 -136 28 -147v-13h-200v13c41 12 108 75 156 147c7 10 14 21 21 32l299 495h-59v13h578v-275h-12c-17 133 -64 254 -224 254h-105v-322h85c100 0 127 28 141 112h11v-237h-11
c-14 84 -41 112 -141 112h-85v-322h121c161 0 207 120 225 254zM486 264v410l-248 -410h248z" />
    <glyph glyph-name="OE" unicode="&#x152;" horiz-adv-x="1098" 
d="M1050 276h13v-276h-600c-271 0 -433 101 -433 350s163 350 433 350h583v-275h-12c-18 133 -64 254 -225 254h-105v-322h85c101 0 128 28 142 112h10v-237h-10c-14 84 -41 112 -142 112h-85v-322h122c161 0 207 120 224 254zM443 679c-160 0 -219 -121 -219 -329
s59 -328 219 -328h89v657h-89z" />
    <glyph glyph-name="Dcroat" unicode="&#x110;" horiz-adv-x="817" 
d="M40 700h315c270 0 432 -101 432 -350s-162 -350 -432 -350h-315v13h65v326h-65v22h65v326h-65v13zM374 22c161 0 220 120 220 328s-59 329 -220 329h-97v-318h170v-22h-170v-317h97z" />
    <glyph glyph-name="Oslash" unicode="&#xd8;" horiz-adv-x="840" 
d="M656 644c96 -59 154 -160 154 -296c0 -224 -160 -355 -390 -355c-85 0 -161 18 -222 52l-35 -45h-21l41 54c-95 59 -153 160 -153 294c0 225 160 355 390 355c85 0 160 -17 221 -51l37 48h21zM228 348c0 -85 9 -151 25 -202l327 427c-33 84 -89 119 -160 119
c-110 0 -191 -92 -192 -344zM420 5c116 0 192 92 193 343c0 87 -9 154 -26 206l-327 -428c32 -86 89 -121 160 -121z" />
    <glyph glyph-name="Thorn" unicode="&#xde;" horiz-adv-x="693" 
d="M384 572c165 0 279 -61 279 -222s-114 -222 -279 -222h-108v-115h65v-13h-301v13h64v674h-64v13h301v-13h-65v-115h108zM341 149c98 0 153 62 153 201c0 140 -55 201 -153 201h-65v-402h65z" />
    <glyph glyph-name="Lslash" unicode="&#x141;" horiz-adv-x="676" 
d="M639 276h12v-276h-611v13h64v218l-64 -28v21l64 28v435h-64v13h301v-13h-65v-361l189 81v-21l-189 -81v-283h139c160 0 206 120 224 254z" />
    <glyph glyph-name="Hbar" unicode="&#x126;" horiz-adv-x="841" 
d="M801 687h-64v-162h64v-22h-64v-490h64v-13h-301v13h64v323h-287v-323h65v-13h-302v13h65v490h-65v22h65v162h-65v13h302v-13h-65v-162h287v162h-64v13h301v-13zM564 357v146h-287v-146h287z" />
    <glyph glyph-name="Eng" unicode="&#x14a;" horiz-adv-x="832" 
d="M546 700h266v-13c-85 -16 -122 -112 -122 -215v-566c0 -118 -63 -157 -136 -157c-56 0 -162 30 -216 56v208h12c51 -164 94 -239 190 -249c71 -7 137 25 137 147v89h-47l-475 583v-355c0 -103 46 -199 130 -215v-13h-265v13c84 16 122 112 122 215v371l-72 88h-49v13h265
l391 -482v254c0 103 -46 199 -131 215v13z" />
    <glyph glyph-name="Tbar" unicode="&#x166;" horiz-adv-x="698" 
d="M20 700h658v-267h-13c-12 90 -19 246 -181 246h-49v-318h126v-22h-126v-326h65v-13h-302v13h65v326h-126v22h126v318h-49c-162 0 -169 -156 -181 -246h-13v267z" />
    <glyph glyph-name="germandbls" unicode="&#xdf;" horiz-adv-x="804" 
d="M471 471c-91 -39 303 -92 303 -291c0 -148 -113 -187 -195 -187c-64 0 -156 14 -238 37v195h15c61 -166 155 -214 222 -221c54 -6 89 14 93 67c9 122 -311 195 -234 387c58 143 43 258 -67 258c-66 0 -120 -35 -120 -141v-575h-220v13h56v501h-56v13h57
c4 153 158 202 275 202c251 0 267 -189 109 -258z" />
    <glyph glyph-name="ae" unicode="&#xe6;" horiz-adv-x="953" 
d="M662 540c157 0 266 -86 255 -274h-361c10 -142 98 -206 196 -206c72 0 110 29 135 59l11 -9c-30 -51 -100 -117 -219 -117c-141 0 -275 73 -300 221c-15 -147 -83 -221 -184 -221c-90 0 -165 52 -165 158c0 188 229 176 345 180v100c0 60 -23 96 -84 96
c-50 0 -104 -28 -187 -180h-13v154c77 23 151 39 210 39c78 0 146 -11 189 -46c49 31 109 46 172 46zM375 258v61c-122 5 -198 -42 -198 -143c0 -140 193 -182 198 82zM760 288c3 133 -25 239 -98 239c-68 0 -113 -100 -108 -239h206z" />
    <glyph glyph-name="oe" unicode="&#x153;" horiz-adv-x="1045" 
d="M754 540c157 0 266 -86 255 -274h-362c11 -142 98 -206 197 -206c72 0 110 29 135 59l11 -9c-30 -51 -100 -117 -219 -117c-82 0 -161 25 -218 74c-58 -50 -138 -74 -219 -74c-153 0 -304 84 -304 273c0 190 151 274 304 274c79 0 158 -23 215 -71c53 48 127 71 205 71z
M334 5c88 0 132 113 132 261s-44 261 -132 261c-89 0 -132 -113 -132 -261s43 -261 132 -261zM852 288c3 133 -25 239 -98 239c-68 0 -113 -100 -108 -239h206z" />
    <glyph glyph-name="dcroat" unicode="&#x111;" horiz-adv-x="718" 
d="M678 600h-57v-587h57v-13h-221v112c-23 -58 -88 -119 -191 -119c-109 0 -236 89 -236 273c0 185 127 274 236 274c103 0 168 -61 191 -119v179h-165v21h165v66h-56v13h220v-79h57v-21zM457 133v267c-21 33 -50 63 -94 69c-90 13 -163 -66 -163 -203
c0 -136 73 -215 163 -202c44 6 73 36 94 69z" />
    <glyph glyph-name="oslash" unicode="&#xf8;" horiz-adv-x="672" 
d="M551 467c52 -45 86 -111 86 -201c0 -189 -151 -273 -303 -273c-74 0 -147 20 -203 61l-54 -54h-22l64 63c-53 45 -89 112 -89 203c0 190 151 274 304 274c75 0 149 -21 206 -64l51 51h21zM202 266c0 -40 3 -78 10 -112l241 237c-19 83 -58 136 -119 136
c-89 0 -132 -113 -132 -261zM334 5c88 0 132 113 132 261c0 39 -3 75 -9 108l-242 -237c20 -80 59 -132 119 -132z" />
    <glyph glyph-name="thorn" unicode="&#xfe;" horiz-adv-x="712" 
d="M441 540c110 0 236 -89 236 -274c0 -184 -126 -273 -236 -273c-103 0 -167 61 -191 119v-266h80v-13h-300v13h56v841h-56v13h220v-279c24 58 88 119 191 119zM345 64c89 -13 163 66 163 202c0 137 -74 216 -163 203c-45 -6 -73 -36 -95 -69v-267c22 -33 50 -63 95 -69z
" />
    <glyph glyph-name="lslash" unicode="&#x142;" horiz-adv-x="347" 
d="M307 332l-56 -25v-294h56v-13h-277v13h57v224l-57 -25v22l57 24v429h-57v13h221v-371l56 24v-21z" />
    <glyph glyph-name="hbar" unicode="&#x127;" 
d="M647 13h56v-13h-277v13h57v346c0 68 -49 109 -123 98c-60 -9 -110 -57 -110 -108v-336h56v-13h-276v13h56v587h-56v21h56v66h-56v13h220v-79h158v-21h-158v-212c49 93 121 152 212 152c138 0 185 -86 185 -190v-337z" />
    <glyph glyph-name="eng" unicode="&#x14b;" horiz-adv-x="727" 
d="M463 540c138 0 184 -86 184 -190v-267c0 -163 -15 -334 -253 -334c-49 0 -147 24 -194 42v175h12c48 -165 102 -202 158 -202c112 0 113 166 113 319v276c0 68 -48 109 -123 98c-59 -9 -109 -57 -109 -108v-336h56v-13h-277v13h57v501h-57v13h221v-139
c48 93 121 152 212 152z" />
    <glyph glyph-name="tbar" unicode="&#x167;" horiz-adv-x="400" 
d="M378 87l12 -9c-34 -49 -75 -85 -157 -85c-104 0 -146 70 -146 171v166h-57v21h57v163h-57v13h57l154 160h10v-160h122v-13h-122v-163h99v-21h-99v-188c0 -77 38 -88 64 -88c21 0 39 6 63 33z" />
    <glyph glyph-name="longs" unicode="&#x17f;" horiz-adv-x="445" 
d="M288 729c62 0 102 -13 137 -21v-138h-10c-71 121 -84 150 -122 146c-26 -3 -43 -31 -43 -141v-562h98v-13h-318v13h56v501h-56v13h56c3 143 77 202 202 202z" />
    <glyph glyph-name="eth" unicode="&#xf0;" horiz-adv-x="673" 
d="M433 676c113 -67 212 -186 204 -362c-9 -201 -140 -321 -304 -321c-152 0 -303 84 -303 273c0 190 151 274 303 274c32 0 60 -12 78 -20c-5 46 -24 89 -52 125l-122 -50l-7 16l117 48c-28 32 -63 56 -102 71l4 11c50 -6 108 -24 165 -54l116 48l7 -17zM333 5
c91 0 132 117 132 261c0 145 -41 262 -132 262c-88 0 -131 -114 -131 -262s43 -261 131 -261z" />
    <glyph glyph-name="Aogonek" unicode="&#x104;" horiz-adv-x="788" 
d="M783 0h-132c-23 -51 -43 -118 -13 -156c29 -38 88 -39 139 -10l6 -6c-59 -93 -189 -100 -226 -41c-39 64 27 175 79 213h-167v13h58l-97 205h-265l-24 -59c-29 -75 4 -135 64 -146v-13h-200v13c41 12 91 67 123 147l217 540h47l327 -687h64v-13zM170 231h254l-137 291z
" />
    <glyph glyph-name="Ccedilla" unicode="&#xc7;" horiz-adv-x="733" 
d="M418 -7h-15l-9 -33c101 17 184 -25 165 -119c-15 -78 -128 -129 -253 -81l3 11c83 -10 137 43 150 92c15 56 -18 94 -81 85l13 46c-193 10 -361 126 -361 354c0 230 196 355 399 355c88 0 163 -24 259 -60v-232h-14c-77 202 -125 276 -218 276
c-106 0 -240 -114 -224 -339c14 -185 145 -268 280 -268c94 0 146 37 178 75l13 -10c-39 -67 -131 -152 -285 -152z" />
    <glyph glyph-name="Eogonek" unicode="&#x118;" horiz-adv-x="670" 
d="M635 0h-132c-24 -51 -43 -118 -14 -156s88 -39 140 -10l6 -6c-59 -93 -190 -100 -226 -41c-40 64 26 175 79 213h-448v13h64v674h-64v13h578v-275h-12c-18 133 -64 254 -225 254h-105v-322h85c101 0 128 28 142 112h10v-237h-10c-14 84 -41 112 -142 112h-85v-322h122
c161 0 207 120 224 254h13v-276z" />
    <glyph glyph-name="Iogonek" unicode="&#x12e;" horiz-adv-x="381" 
d="M342 687h-65v-674h65v-13h-164c-23 -51 -43 -118 -13 -156c29 -38 88 -39 139 -10l6 -6c-59 -93 -189 -100 -226 -41c-39 64 27 175 79 213h-123v13h65v674h-65v13h302v-13z" />
    <glyph glyph-name="Scedilla" unicode="&#x15e;" horiz-adv-x="594" 
d="M172 574c-1 -167 408 -149 391 -381c-10 -134 -109 -200 -286 -200h-11l-9 -33c101 17 184 -25 165 -119c-16 -78 -128 -129 -253 -81l3 11c83 -10 137 43 150 92c14 56 -18 94 -81 85l13 46c-70 3 -154 22 -221 43v189h11c64 -161 117 -218 227 -218c74 0 118 24 130 80
c44 202 -380 167 -370 414c5 129 88 201 274 201c67 0 141 -24 209 -46v-173h-11c-49 142 -105 203 -202 203c-73 0 -129 -34 -129 -113z" />
    <glyph glyph-name="Uogonek" unicode="&#x172;" horiz-adv-x="742" 
d="M568 700h159v-13c-49 -13 -73 -54 -73 -157v-247c0 -159 -67 -254 -183 -281c-24 -52 -44 -120 -15 -158c30 -38 88 -39 140 -10l6 -6c-59 -93 -190 -100 -226 -41c-39 63 24 170 76 211c-18 -3 -37 -5 -58 -5c-174 0 -314 91 -314 298v396h-65v13h302v-13h-65v-396
c0 -161 66 -250 193 -250c115 0 196 80 196 242v247c0 103 -22 144 -73 157v13z" />
    <glyph glyph-name="aogonek" unicode="&#x105;" horiz-adv-x="627" 
d="M621 -166l6 -6c-59 -93 -189 -100 -226 -41c-37 61 21 164 72 207c-63 6 -93 40 -98 90c-29 -41 -98 -91 -180 -91c-90 0 -165 52 -165 158c0 188 228 176 344 180v100c0 60 -23 96 -84 96c-50 0 -103 -28 -187 -180h-12v154c76 23 150 39 209 39c133 0 238 -30 238 -164
v-242c0 -63 14 -73 35 -73c15 0 32 12 41 25l13 -9c-16 -34 -58 -84 -134 -84h-1c-22 -50 -39 -113 -10 -149c29 -38 88 -39 139 -10zM176 176c0 -134 114 -155 198 -78v3v218c-121 5 -198 -42 -198 -143z" />
    <glyph glyph-name="ccedilla" unicode="&#xe7;" horiz-adv-x="589" 
d="M335 -7h-9l-10 -33c101 17 184 -25 166 -119c-16 -78 -129 -129 -254 -81l3 11c83 -10 137 43 150 92c15 56 -18 94 -81 85l13 46c-148 8 -283 97 -283 272c0 185 152 274 313 274c68 0 126 -19 200 -47v-178h-13c-59 155 -94 212 -166 212c-81 0 -165 -87 -153 -261
c11 -142 98 -206 197 -206c71 0 110 29 135 59l11 -9c-30 -51 -100 -117 -219 -117z" />
    <glyph glyph-name="eogonek" unicode="&#x119;" horiz-adv-x="609" 
d="M318 540c157 0 265 -86 255 -274h-362c11 -142 98 -206 196 -206c72 0 110 29 136 59l11 -9c-22 -38 -66 -83 -135 -105c-25 -52 -47 -122 -16 -161c29 -38 88 -39 139 -10l6 -6c-59 -93 -189 -100 -226 -41c-39 64 28 176 80 214c-20 -5 -43 -8 -67 -8
c-158 0 -305 90 -305 273c0 187 136 274 288 274zM415 288c4 133 -24 239 -97 239c-68 0 -114 -100 -108 -239h205z" />
    <glyph glyph-name="iogonek" unicode="&#x12f;" horiz-adv-x="346" 
d="M307 0h-152c-23 -51 -43 -118 -13 -156c29 -38 88 -39 139 -10l6 -6c-59 -93 -189 -100 -226 -41c-39 64 27 175 79 213h-110v13h56v501h-56v13h220v-514h57v-13zM168 567c-49 0 -89 39 -89 89c0 49 40 89 89 89c50 0 89 -40 89 -89c0 -50 -39 -89 -89 -89z" />
    <glyph glyph-name="scedilla" unicode="&#x15f;" horiz-adv-x="504" 
d="M339 308c96 -51 143 -90 126 -181c-22 -123 -155 -134 -228 -134c-4 0 -8 0 -12 1l-10 -34c101 17 184 -25 166 -119c-16 -78 -129 -129 -254 -81l3 11c83 -10 137 43 150 92c15 56 -18 94 -81 85l13 46c-51 4 -112 17 -182 36v176h9c84 -166 138 -195 189 -202
c45 -7 98 7 101 63c4 71 -87 107 -155 145c-77 43 -137 89 -132 174c9 147 153 154 206 154c50 0 130 -19 196 -37v-160h-9c-76 150 -123 186 -188 186c-39 0 -77 -23 -77 -75c0 -61 101 -110 169 -146z" />
    <glyph glyph-name="uogonek" unicode="&#x173;" 
d="M703 0h-160c-23 -51 -43 -118 -13 -156c29 -38 88 -39 139 -10l6 -6c-59 -93 -189 -100 -225 -41c-40 64 26 175 78 213h-45v145c-49 -93 -130 -152 -221 -152c-138 0 -176 86 -176 190v331h-56v13h220v-353c0 -68 40 -109 115 -98c59 9 118 57 118 108v330h-57v13h221
v-514h56v-13z" />
    <glyph glyph-name="dollar" unicode="$" horiz-adv-x="595" 
d="M301 441c118 -55 274 -103 263 -248c-10 -128 -100 -194 -263 -199v-76h-21v75h-2c-73 0 -169 20 -245 44v190h11c65 -162 118 -219 227 -219c3 0 6 1 9 1v245c-111 56 -254 103 -249 248c5 123 81 194 249 201v80h21v-80h5c67 0 141 -24 209 -46v-173h-11
c-49 142 -105 204 -202 204h-1v-247zM172 575c0 -57 47 -92 108 -123v235c-62 -7 -107 -42 -108 -112zM402 88c17 76 -33 119 -101 155v-233c57 6 91 30 101 78z" />
    <glyph glyph-name="Euro" unicode="&#x20ac;" horiz-adv-x="802" 
d="M759 155l13 -10c-39 -66 -130 -152 -285 -152c-184 0 -351 95 -382 288h-95l8 22h84c-2 14 -3 30 -3 45c0 17 1 34 4 49h-93l8 22h88c35 185 211 284 392 284c88 0 163 -24 259 -60v-232h-13c-77 202 -126 276 -219 276c-94 0 -211 -90 -223 -268h317l-8 -22h-310
c-1 -15 -1 -32 1 -49c1 -16 3 -31 6 -45h278l-8 -22h-265c36 -138 150 -201 269 -201c93 0 146 37 177 75z" />
    <glyph glyph-name="sterling" unicode="&#xa3;" horiz-adv-x="630" 
d="M579 186h11v-186h-494v13l192 118c-80 54 -148 119 -186 200h-82v22h73c-13 35 -21 74 -21 116c0 160 117 234 293 234c68 0 148 -26 215 -48v-193h-14c-56 147 -101 225 -191 225c-61 0 -133 -39 -135 -201c-1 -51 1 -94 6 -133h222v-22h-219c11 -68 30 -128 56 -200
h274v55z" />
    <glyph glyph-name="yen" unicode="&#xa5;" horiz-adv-x="757" 
d="M515 700h237v-13c-56 -16 -95 -50 -149 -151l-127 -238h124v-21h-125v-53h125v-22h-125v-189h65v-13h-302v13h65v189h-143v22h143v53h-143v21h129l-220 389h-64v13h327v-13h-66l199 -380l119 220c53 99 17 150 -69 160v13z" />
    <glyph glyph-name="cent" unicode="&#xa2;" horiz-adv-x="588" 
d="M553 110c-27 -48 -90 -107 -194 -116v-76h-21v75h-4c-157 0 -304 90 -304 274c0 182 148 271 308 273v78h21v-79c61 -3 115 -20 183 -46v-178h-12c-59 155 -95 212 -166 212h-5v-462c15 -3 32 -5 48 -5c72 0 110 29 136 59zM211 267c8 -108 59 -171 127 -195v452
c-73 -17 -139 -103 -127 -257z" />
    <glyph glyph-name="currency" unicode="&#xa4;" horiz-adv-x="590" 
d="M511 264c0 -59 -20 -109 -55 -146l94 -94l-15 -15l-95 94c-37 -31 -87 -49 -145 -49c-59 0 -109 18 -146 49l-94 -94l-15 15l93 93c-35 37 -55 88 -55 147c0 58 20 109 55 146l-93 94l15 15l94 -95c37 31 87 49 146 49c58 0 108 -18 145 -49l95 95l15 -15l-94 -94
c35 -37 55 -88 55 -146zM295 68c49 0 77 70 77 196c0 125 -28 195 -77 195c-50 0 -78 -70 -78 -195c0 -126 28 -196 78 -196z" />
    <glyph glyph-name="afii61352" unicode="&#x2116;" horiz-adv-x="1263" 
d="M546 687v13h266v-13c-84 -16 -122 -112 -122 -215v-472h-60l-475 583v-355c0 -103 46 -199 130 -215v-13h-265v13c84 16 122 112 122 215v371l-72 88h-49v13h265l391 -482v254c0 103 -46 199 -131 215zM1033 359c-107 0 -179 72 -179 172s72 172 179 172
s178 -72 178 -172s-71 -172 -178 -172zM1033 692c-41 0 -64 -58 -64 -161s23 -161 64 -161s64 58 64 161s-23 161 -64 161zM813 301h440v-22h-440v22z" />
    <glyph glyph-name="Bitcoin" unicode="&#x20bf;" horiz-adv-x="751" 
d="M721 189c0 -150 -124 -187 -282 -189v-82h-21v82h-80v-82h-21v82h-269v13h65v674h-73v13h277v83h21v-83h30c17 0 34 0 50 -1v84h21v-85c130 -10 224 -51 224 -170c0 -101 -104 -151 -210 -152v-4c155 8 268 -54 268 -183zM285 679v-305h56c86 0 145 34 145 154
c0 119 -59 151 -145 151h-56zM390 22c86 0 154 33 154 167s-76 171 -162 171h-97v-338h105z" />
    <glyph glyph-name="Ruble" unicode="&#x20bd;" horiz-adv-x="694" 
d="M385 256h-108v-71h216v-21h-216v-151h98v-13h-335v13h65v151h-65v21h65v71h-65v13h65v418h-65v13h345c164 0 279 -61 279 -222c0 -157 -115 -222 -279 -222zM277 679v-410h65c98 0 153 66 153 209c0 140 -55 201 -153 201h-65z" />
    <glyph glyph-name="Eth" unicode="&#xd0;" horiz-adv-x="817" 
d="M40 700h315c270 0 432 -101 432 -350s-162 -350 -432 -350h-315v13h65v326h-65v22h65v326h-65v13zM374 22c161 0 220 120 220 328s-59 329 -220 329h-97v-318h170v-22h-170v-317h97z" />
    <glyph glyph-name="quoteleft" unicode="&#x2018;" horiz-adv-x="253" 
d="M127 660c47 0 86 -38 86 -86s-39 -86 -86 -86c-48 0 -87 38 -87 86c0 86 87 170 128 196l6 -9c-37 -27 -73 -85 -82 -108c8 3 22 7 35 7z" />
    <glyph glyph-name="Aacute" unicode="&#xc1;" horiz-adv-x="788" 
d="M719 13h64v-13h-314v13h57l-96 205h-266l-23 -59c-30 -75 4 -135 64 -146v-13h-200v13c40 12 91 67 123 147l216 540h47zM170 231h254l-138 291zM476 909c20 -20 11 -50 -23 -83c-47 -47 -135 -81 -135 -81l-7 6s34 89 81 136c33 33 64 42 84 22z" />
    <glyph glyph-name="Abreve" unicode="&#x102;" horiz-adv-x="788" 
d="M719 13h64v-13h-314v13h57l-96 205h-266l-23 -59c-30 -75 4 -135 64 -146v-13h-200v13c40 12 91 67 123 147l216 540h47zM170 231h254l-138 291zM496 920h10c0 -98 -51 -155 -139 -155s-139 57 -139 155h10c13 -48 63 -78 129 -78s116 30 129 78z" />
    <glyph glyph-name="Acircumflex" unicode="&#xc2;" horiz-adv-x="788" 
d="M719 13h64v-13h-314v13h57l-96 205h-266l-23 -59c-30 -75 4 -135 64 -146v-13h-200v13c40 12 91 67 123 147l216 540h47zM170 231h254l-138 291zM410 920l131 -147l-7 -7l-167 69l-167 -69l-7 7l131 147h86z" />
    <glyph glyph-name="Agrave" unicode="&#xc0;" horiz-adv-x="788" 
d="M719 13h64v-13h-314v13h57l-96 205h-266l-23 -59c-30 -75 4 -135 64 -146v-13h-200v13c40 12 91 67 123 147l216 540h47zM170 231h254l-138 291zM354 887c47 -47 82 -136 82 -136l-7 -6s-89 34 -136 81c-33 33 -42 63 -22 83s50 11 83 -22z" />
    <glyph glyph-name="Adieresis" unicode="&#xc4;" horiz-adv-x="788" 
d="M719 13h64v-13h-314v13h57l-96 205h-266l-23 -59c-30 -75 4 -135 64 -146v-13h-200v13c40 12 91 67 123 147l216 540h47zM170 231h254l-138 291zM263 926c46 0 83 -37 83 -83s-37 -83 -83 -83s-83 37 -83 83s37 83 83 83zM471 926c46 0 83 -37 83 -83s-37 -83 -83 -83
s-83 37 -83 83s37 83 83 83z" />
    <glyph glyph-name="Amacron" unicode="&#x100;" horiz-adv-x="788" 
d="M719 13h64v-13h-314v13h57l-96 205h-266l-23 -59c-30 -75 4 -135 64 -146v-13h-200v13c40 12 91 67 123 147l216 540h47zM170 231h254l-138 291zM206 847h321v-48h-321v48z" />
    <glyph glyph-name="Aring" unicode="&#xc5;" horiz-adv-x="788" 
d="M719 13h64v-13h-314v13h57l-96 205h-266l-23 -59c-30 -75 4 -135 64 -146v-13h-200v13c40 12 91 67 123 147l216 540h47zM170 231h254l-138 291zM367 741c-56 0 -102 46 -102 102s46 102 102 102s102 -46 102 -102s-46 -102 -102 -102zM367 912c-38 0 -69 -31 -69 -69
s31 -69 69 -69s69 31 69 69s-31 69 -69 69z" />
    <glyph glyph-name="Atilde" unicode="&#xc3;" horiz-adv-x="788" 
d="M719 13h64v-13h-314v13h57l-96 205h-266l-23 -59c-30 -75 4 -135 64 -146v-13h-200v13c40 12 91 67 123 147l216 540h47zM170 231h254l-138 291zM428 781c-40 0 -71 20 -107 40c-51 28 -85 -1 -93 -38h-8c4 101 35 132 96 127c44 -3 83 -37 118 -50c40 -14 64 6 72 40h7
c-3 -80 -26 -119 -85 -119z" />
    <glyph glyph-name="AEacute" unicode="&#x1fc;" horiz-adv-x="1052" 
d="M1005 276h12v-276h-595v13h64v238h-256l-36 -60c-7 -11 -12 -21 -17 -31c-34 -73 -31 -136 28 -147v-13h-200v13c41 12 108 75 156 147c7 10 14 21 21 32l299 495h-59v13h578v-275h-12c-17 133 -64 254 -224 254h-105v-322h85c100 0 127 28 141 112h11v-237h-11
c-14 84 -41 112 -141 112h-85v-322h121c161 0 207 120 225 254zM486 264v410l-248 -410h248zM733 909c20 -20 11 -50 -23 -83c-47 -47 -135 -81 -135 -81l-7 6s34 89 81 136c33 33 64 42 84 22z" />
    <glyph glyph-name="Cacute" unicode="&#x106;" horiz-adv-x="732" 
d="M690 155l12 -10c-39 -67 -130 -152 -284 -152c-205 0 -388 117 -388 355c0 230 195 355 398 355c89 0 163 -24 259 -60v-232h-13c-77 202 -126 276 -219 276c-106 0 -239 -114 -223 -339c14 -185 144 -268 280 -268c93 0 146 37 178 75zM468 909c20 -20 11 -50 -23 -83
c-47 -47 -135 -81 -135 -81l-7 6s34 89 81 136c33 33 64 42 84 22z" />
    <glyph glyph-name="Ccaron" unicode="&#x10c;" horiz-adv-x="732" 
d="M690 155l12 -10c-39 -67 -130 -152 -284 -152c-205 0 -388 117 -388 355c0 230 195 355 398 355c89 0 163 -24 259 -60v-232h-13c-77 202 -126 276 -219 276c-106 0 -239 -114 -223 -339c14 -185 144 -268 280 -268c93 0 146 37 178 75zM583 920l7 -7l-131 -147h-86
l-131 147l7 7l167 -68z" />
    <glyph glyph-name="Ccircumflex" unicode="&#x108;" horiz-adv-x="732" 
d="M690 155l12 -10c-39 -67 -130 -152 -284 -152c-205 0 -388 117 -388 355c0 230 195 355 398 355c89 0 163 -24 259 -60v-232h-13c-77 202 -126 276 -219 276c-106 0 -239 -114 -223 -339c14 -185 144 -268 280 -268c93 0 146 37 178 75zM459 920l131 -147l-7 -7l-167 69
l-167 -69l-7 7l131 147h86z" />
    <glyph glyph-name="Cdotaccent" unicode="&#x10a;" horiz-adv-x="732" 
d="M690 155l12 -10c-39 -67 -130 -152 -284 -152c-205 0 -388 117 -388 355c0 230 195 355 398 355c89 0 163 -24 259 -60v-232h-13c-77 202 -126 276 -219 276c-106 0 -239 -114 -223 -339c14 -185 144 -268 280 -268c93 0 146 37 178 75zM416 926c46 0 83 -37 83 -83
s-37 -83 -83 -83s-83 37 -83 83s37 83 83 83z" />
    <glyph glyph-name="Dcaron" unicode="&#x10e;" horiz-adv-x="817" 
d="M787 350c0 -249 -163 -350 -432 -350h-315v13h64v674h-64v13h315c270 0 432 -101 432 -350zM374 22c160 0 220 120 220 328s-60 329 -220 329h-97v-657h97zM550 920l7 -7l-131 -147h-86l-131 147l7 7l167 -68z" />
    <glyph glyph-name="Eacute" unicode="&#xc9;" horiz-adv-x="670" 
d="M623 276h12v-276h-595v13h65v674h-65v13h578v-275h-12c-17 133 -63 254 -224 254h-105v-322h85c101 0 127 28 141 112h11v-237h-11c-14 84 -40 112 -141 112h-85v-322h121c161 0 207 120 225 254zM440 909c20 -20 11 -50 -23 -83c-47 -47 -135 -81 -135 -81l-7 6
s34 89 81 136c33 33 64 42 84 22z" />
    <glyph glyph-name="Ebreve" unicode="&#x114;" horiz-adv-x="670" 
d="M623 276h12v-276h-595v13h65v674h-65v13h578v-275h-12c-17 133 -63 254 -224 254h-105v-322h85c101 0 127 28 141 112h11v-237h-11c-14 84 -40 112 -141 112h-85v-322h121c161 0 207 120 225 254zM486 920h10c0 -98 -51 -155 -139 -155s-139 57 -139 155h10
c13 -48 63 -78 129 -78s116 30 129 78z" />
    <glyph glyph-name="Ecaron" unicode="&#x11a;" horiz-adv-x="670" 
d="M623 276h12v-276h-595v13h65v674h-65v13h578v-275h-12c-17 133 -63 254 -224 254h-105v-322h85c101 0 127 28 141 112h11v-237h-11c-14 84 -40 112 -141 112h-85v-322h121c161 0 207 120 225 254zM524 920l7 -7l-131 -147h-86l-131 147l7 7l167 -68z" />
    <glyph glyph-name="Ecircumflex" unicode="&#xca;" horiz-adv-x="670" 
d="M623 276h12v-276h-595v13h65v674h-65v13h578v-275h-12c-17 133 -63 254 -224 254h-105v-322h85c101 0 127 28 141 112h11v-237h-11c-14 84 -40 112 -141 112h-85v-322h121c161 0 207 120 225 254zM400 920l131 -147l-7 -7l-167 69l-167 -69l-7 7l131 147h86z" />
    <glyph glyph-name="Edieresis" unicode="&#xcb;" horiz-adv-x="670" 
d="M623 276h12v-276h-595v13h65v674h-65v13h578v-275h-12c-17 133 -63 254 -224 254h-105v-322h85c101 0 127 28 141 112h11v-237h-11c-14 84 -40 112 -141 112h-85v-322h121c161 0 207 120 225 254zM253 926c46 0 83 -37 83 -83s-37 -83 -83 -83s-83 37 -83 83s37 83 83 83
zM461 926c46 0 83 -37 83 -83s-37 -83 -83 -83s-83 37 -83 83s37 83 83 83z" />
    <glyph glyph-name="Edotaccent" unicode="&#x116;" horiz-adv-x="670" 
d="M623 276h12v-276h-595v13h65v674h-65v13h578v-275h-12c-17 133 -63 254 -224 254h-105v-322h85c101 0 127 28 141 112h11v-237h-11c-14 84 -40 112 -141 112h-85v-322h121c161 0 207 120 225 254zM357 926c46 0 83 -37 83 -83s-37 -83 -83 -83s-83 37 -83 83s37 83 83 83
z" />
    <glyph glyph-name="Egrave" unicode="&#xc8;" horiz-adv-x="670" 
d="M623 276h12v-276h-595v13h65v674h-65v13h578v-275h-12c-17 133 -63 254 -224 254h-105v-322h85c101 0 127 28 141 112h11v-237h-11c-14 84 -40 112 -141 112h-85v-322h121c161 0 207 120 225 254zM378 887c47 -47 82 -136 82 -136l-7 -6s-89 34 -136 81
c-33 33 -42 63 -22 83s50 11 83 -22z" />
    <glyph glyph-name="Emacron" unicode="&#x112;" horiz-adv-x="670" 
d="M623 276h12v-276h-595v13h65v674h-65v13h578v-275h-12c-17 133 -63 254 -224 254h-105v-322h85c101 0 127 28 141 112h11v-237h-11c-14 84 -40 112 -141 112h-85v-322h121c161 0 207 120 225 254zM197 847h321v-48h-321v48z" />
    <glyph glyph-name="Gbreve" unicode="&#x11e;" horiz-adv-x="782" 
d="M762 313v-14h-56v-299h-14v61c-65 -39 -146 -68 -239 -68c-234 0 -423 112 -423 355c0 234 180 355 423 355c74 0 153 -19 227 -47v-204h-12c-57 160 -101 236 -215 236c-116 0 -231 -119 -231 -340s106 -317 232 -330c34 -3 63 -2 89 4v277h-65v14h284zM555 920h10
c0 -98 -51 -155 -139 -155s-139 57 -139 155h10c13 -48 63 -78 129 -78s116 30 129 78z" />
    <glyph glyph-name="Gcircumflex" unicode="&#x11c;" horiz-adv-x="782" 
d="M762 313v-14h-56v-299h-14v61c-65 -39 -146 -68 -239 -68c-234 0 -423 112 -423 355c0 234 180 355 423 355c74 0 153 -19 227 -47v-204h-12c-57 160 -101 236 -215 236c-116 0 -231 -119 -231 -340s106 -317 232 -330c34 -3 63 -2 89 4v277h-65v14h284zM459 920
l131 -147l-7 -7l-167 69l-167 -69l-7 7l131 147h86z" />
    <glyph glyph-name="Gcommaaccent" unicode="&#x122;" horiz-adv-x="782" 
d="M762 313v-14h-56v-299h-14v61c-65 -39 -146 -68 -239 -68c-234 0 -423 112 -423 355c0 234 180 355 423 355c74 0 153 -19 227 -47v-204h-12c-57 160 -101 236 -215 236c-116 0 -231 -119 -231 -340s106 -317 232 -330c34 -3 63 -2 89 4v277h-65v14h284zM436 -48
c48 0 86 -38 86 -86c0 -86 -86 -170 -128 -196l-5 9c37 27 73 85 82 108c-8 -3 -23 -7 -35 -7c-48 0 -86 38 -86 86s38 86 86 86z" />
    <glyph glyph-name="Gdotaccent" unicode="&#x120;" horiz-adv-x="782" 
d="M762 313v-14h-56v-299h-14v61c-65 -39 -146 -68 -239 -68c-234 0 -423 112 -423 355c0 234 180 355 423 355c74 0 153 -19 227 -47v-204h-12c-57 160 -101 236 -215 236c-116 0 -231 -119 -231 -340s106 -317 232 -330c34 -3 63 -2 89 4v277h-65v14h284zM436 926
c46 0 83 -37 83 -83s-37 -83 -83 -83s-83 37 -83 83s37 83 83 83z" />
    <glyph glyph-name="Hcircumflex" unicode="&#x124;" horiz-adv-x="840" 
d="M800 687h-64v-674h64v-13h-301v13h65v323h-288v-323h65v-13h-301v13h64v674h-64v13h301v-13h-65v-330h288v330h-65v13h301v-13zM463 920l131 -147l-7 -7l-167 69l-167 -69l-7 7l131 147h86z" />
    <glyph glyph-name="Iacute" unicode="&#xcd;" horiz-adv-x="381" 
d="M341 687h-64v-674h64v-13h-301v13h65v674h-65v13h301v-13zM283 909c20 -20 11 -50 -23 -83c-47 -47 -135 -81 -135 -81l-7 6s34 89 81 136c33 33 64 42 84 22z" />
    <glyph glyph-name="Ibreve" unicode="&#x12c;" horiz-adv-x="381" 
d="M341 687h-64v-674h64v-13h-301v13h65v674h-65v13h301v-13zM319 920h10c0 -98 -51 -155 -139 -155s-139 57 -139 155h10c13 -48 63 -78 129 -78s116 30 129 78z" />
    <glyph glyph-name="Icircumflex" unicode="&#xce;" horiz-adv-x="381" 
d="M341 687h-64v-674h64v-13h-301v13h65v674h-65v13h301v-13zM234 920l131 -147l-7 -7l-167 69l-167 -69l-7 7l131 147h86z" />
    <glyph glyph-name="Idieresis" unicode="&#xcf;" horiz-adv-x="381" 
d="M341 687h-64v-674h64v-13h-301v13h65v674h-65v13h301v-13zM87 926c46 0 83 -37 83 -83s-37 -83 -83 -83s-83 37 -83 83s37 83 83 83zM295 926c46 0 83 -37 83 -83s-37 -83 -83 -83s-83 37 -83 83s37 83 83 83z" />
    <glyph glyph-name="Idotaccent" unicode="&#x130;" horiz-adv-x="381" 
d="M341 687h-64v-674h64v-13h-301v13h65v674h-65v13h301v-13zM190 926c46 0 83 -37 83 -83s-37 -83 -83 -83s-83 37 -83 83s37 83 83 83z" />
    <glyph glyph-name="Igrave" unicode="&#xcc;" horiz-adv-x="381" 
d="M341 687h-64v-674h64v-13h-301v13h65v674h-65v13h301v-13zM181 887c47 -47 82 -136 82 -136l-7 -6s-89 34 -136 81c-33 33 -42 63 -22 83s50 11 83 -22z" />
    <glyph glyph-name="Imacron" unicode="&#x12a;" horiz-adv-x="381" 
d="M341 687h-64v-674h64v-13h-301v13h65v674h-65v13h301v-13zM30 847h321v-48h-321v48z" />
    <glyph glyph-name="Itilde" unicode="&#x128;" horiz-adv-x="381" 
d="M341 687h-64v-674h64v-13h-301v13h65v674h-65v13h301v-13zM252 781c-40 0 -71 20 -107 40c-51 28 -85 -1 -93 -38h-8c4 101 35 132 96 127c44 -3 83 -37 118 -50c40 -14 64 6 72 40h7c-3 -80 -26 -119 -85 -119z" />
    <glyph glyph-name="IJ" unicode="&#x132;" horiz-adv-x="946" 
d="M341 687h-64v-674h64v-13h-301v13h65v674h-65v13h301v-13zM926 700v-13h-64v-393c0 -227 -73 -301 -284 -301c-59 0 -123 20 -197 48v227h11c70 -161 105 -260 186 -260c82 0 111 73 111 195v484h-97v13h334z" />
    <glyph glyph-name="Jcircumflex" unicode="&#x134;" horiz-adv-x="585" 
d="M565 700v-13h-64v-393c0 -227 -73 -301 -284 -301c-59 0 -123 20 -197 48v227h11c70 -161 105 -260 186 -260c82 0 111 73 111 195v484h-97v13h334zM415 920l131 -147l-7 -7l-167 69l-167 -69l-7 7l131 147h86z" />
    <glyph glyph-name="Kcommaaccent" unicode="&#x136;" horiz-adv-x="839" 
d="M761 13h73v-13h-326v13h56l-202 325l-85 -87v-238h65v-13h-302v13h65v674h-65v13h302v-13h-65v-415l226 235c113 124 72 177 -12 180v13h266v-13c-81 -15 -144 -85 -232 -179l-43 -45zM417 -48c48 0 86 -38 86 -86c0 -86 -86 -170 -128 -196l-5 9c37 27 73 85 82 108
c-8 -3 -23 -7 -35 -7c-48 0 -86 38 -86 86s38 86 86 86z" />
    <glyph glyph-name="Lacute" unicode="&#x139;" horiz-adv-x="677" 
d="M640 276h12v-276h-612v13h65v674h-65v13h302v-13h-65v-665h138c161 0 207 120 225 254zM278 909c20 -20 11 -50 -23 -83c-47 -47 -135 -81 -135 -81l-7 6s34 89 81 136c33 33 64 42 84 22z" />
    <glyph glyph-name="Lcaron" unicode="&#x13d;" horiz-adv-x="677" 
d="M640 276h12v-276h-612v13h65v674h-65v13h302v-13h-65v-665h138c161 0 207 120 225 254zM502 703c48 0 86 -38 86 -86c0 -86 -86 -170 -128 -196l-5 10c37 27 73 84 82 107c-8 -3 -23 -7 -35 -7c-48 0 -86 39 -86 86c0 48 38 86 86 86z" />
    <glyph glyph-name="Lcommaaccent" unicode="&#x13b;" horiz-adv-x="677" 
d="M640 276h12v-276h-612v13h65v674h-65v13h302v-13h-65v-665h138c161 0 207 120 225 254zM366 -48c48 0 86 -38 86 -86c0 -86 -86 -170 -128 -196l-5 9c37 27 73 85 82 108c-8 -3 -23 -7 -35 -7c-48 0 -86 38 -86 86s38 86 86 86z" />
    <glyph glyph-name="Ldot" unicode="&#x13f;" horiz-adv-x="677" 
d="M640 276h12v-276h-612v13h65v674h-65v13h302v-13h-65v-665h138c161 0 207 120 225 254zM456 382c46 0 83 -37 83 -83s-37 -83 -83 -83s-83 37 -83 83s37 83 83 83z" />
    <glyph glyph-name="Nacute" unicode="&#x143;" horiz-adv-x="832" 
d="M546 700h266v-13c-85 -16 -122 -112 -122 -215v-472h-60l-475 583v-355c0 -103 46 -199 130 -215v-13h-265v13c84 16 122 112 122 215v371l-72 88h-49v13h265l391 -482v254c0 103 -46 199 -131 215v13zM478 909c20 -20 11 -50 -23 -83c-47 -47 -135 -81 -135 -81l-7 6
s34 89 81 136c33 33 64 42 84 22z" />
    <glyph glyph-name="Ncaron" unicode="&#x147;" horiz-adv-x="832" 
d="M546 700h266v-13c-85 -16 -122 -112 -122 -215v-472h-60l-475 583v-355c0 -103 46 -199 130 -215v-13h-265v13c84 16 122 112 122 215v371l-72 88h-49v13h265l391 -482v254c0 103 -46 199 -131 215v13zM593 920l7 -7l-131 -147h-86l-131 147l7 7l167 -68z" />
    <glyph glyph-name="Ncommaaccent" unicode="&#x145;" horiz-adv-x="832" 
d="M546 700h266v-13c-85 -16 -122 -112 -122 -215v-472h-60l-475 583v-355c0 -103 46 -199 130 -215v-13h-265v13c84 16 122 112 122 215v371l-72 88h-49v13h265l391 -482v254c0 103 -46 199 -131 215v13zM416 -48c48 0 86 -38 86 -86c0 -86 -86 -170 -128 -196l-5 9
c37 27 73 85 82 108c-8 -3 -23 -7 -35 -7c-48 0 -86 38 -86 86s38 86 86 86z" />
    <glyph glyph-name="Ntilde" unicode="&#xd1;" horiz-adv-x="832" 
d="M546 700h266v-13c-85 -16 -122 -112 -122 -215v-472h-60l-475 583v-355c0 -103 46 -199 130 -215v-13h-265v13c84 16 122 112 122 215v371l-72 88h-49v13h265l391 -482v254c0 103 -46 199 -131 215v13zM487 781c-40 0 -71 20 -107 40c-51 28 -85 -1 -93 -38h-8
c4 101 35 132 96 127c44 -3 83 -37 118 -50c40 -14 64 6 72 40h7c-3 -80 -26 -119 -85 -119z" />
    <glyph glyph-name="Oacute" unicode="&#xd3;" horiz-adv-x="840" 
d="M420 703c230 0 390 -130 390 -355c0 -224 -160 -355 -390 -355s-390 131 -390 355c0 225 160 355 390 355zM420 5c116 0 191 92 193 343c-2 252 -77 344 -193 344c-110 0 -192 -92 -193 -344c1 -251 77 -343 193 -343zM512 909c20 -20 11 -50 -23 -83
c-47 -47 -135 -81 -135 -81l-7 6s34 89 81 136c33 33 64 42 84 22z" />
    <glyph glyph-name="Obreve" unicode="&#x14e;" horiz-adv-x="840" 
d="M420 703c230 0 390 -130 390 -355c0 -224 -160 -355 -390 -355s-390 131 -390 355c0 225 160 355 390 355zM420 5c116 0 191 92 193 343c-2 252 -77 344 -193 344c-110 0 -192 -92 -193 -344c1 -251 77 -343 193 -343zM549 920h10c0 -98 -51 -155 -139 -155
s-139 57 -139 155h10c13 -48 63 -78 129 -78s116 30 129 78z" />
    <glyph glyph-name="Ocircumflex" unicode="&#xd4;" horiz-adv-x="840" 
d="M420 703c230 0 390 -130 390 -355c0 -224 -160 -355 -390 -355s-390 131 -390 355c0 225 160 355 390 355zM420 5c116 0 191 92 193 343c-2 252 -77 344 -193 344c-110 0 -192 -92 -193 -344c1 -251 77 -343 193 -343zM463 920l131 -147l-7 -7l-167 69l-167 -69l-7 7
l131 147h86z" />
    <glyph glyph-name="Odieresis" unicode="&#xd6;" horiz-adv-x="840" 
d="M420 703c230 0 390 -130 390 -355c0 -224 -160 -355 -390 -355s-390 131 -390 355c0 225 160 355 390 355zM420 5c116 0 191 92 193 343c-2 252 -77 344 -193 344c-110 0 -192 -92 -193 -344c1 -251 77 -343 193 -343zM316 926c46 0 83 -37 83 -83s-37 -83 -83 -83
s-83 37 -83 83s37 83 83 83zM524 926c46 0 83 -37 83 -83s-37 -83 -83 -83s-83 37 -83 83s37 83 83 83z" />
    <glyph glyph-name="Ograve" unicode="&#xd2;" horiz-adv-x="840" 
d="M420 703c230 0 390 -130 390 -355c0 -224 -160 -355 -390 -355s-390 131 -390 355c0 225 160 355 390 355zM420 5c116 0 191 92 193 343c-2 252 -77 344 -193 344c-110 0 -192 -92 -193 -344c1 -251 77 -343 193 -343zM410 887c47 -47 82 -136 82 -136l-7 -6
s-89 34 -136 81c-33 33 -42 63 -22 83s50 11 83 -22z" />
    <glyph glyph-name="Ohungarumlaut" unicode="&#x150;" horiz-adv-x="840" 
d="M420 703c230 0 390 -130 390 -355c0 -224 -160 -355 -390 -355s-390 131 -390 355c0 225 160 355 390 355zM420 5c116 0 191 92 193 343c-2 252 -77 344 -193 344c-110 0 -192 -92 -193 -344c1 -251 77 -343 193 -343zM357 887c33 33 63 42 83 22s11 -50 -22 -83
c-47 -47 -135 -81 -135 -81l-7 6s34 89 81 136zM623 909c20 -20 11 -50 -22 -83c-47 -47 -136 -81 -136 -81l-6 6s34 89 81 136c33 33 63 42 83 22z" />
    <glyph glyph-name="Omacron" unicode="&#x14c;" horiz-adv-x="840" 
d="M420 703c230 0 390 -130 390 -355c0 -224 -160 -355 -390 -355s-390 131 -390 355c0 225 160 355 390 355zM420 5c116 0 191 92 193 343c-2 252 -77 344 -193 344c-110 0 -192 -92 -193 -344c1 -251 77 -343 193 -343zM259 847h321v-48h-321v48z" />
    <glyph glyph-name="Oslashacute" unicode="&#x1fe;" horiz-adv-x="840" 
d="M656 644c96 -59 154 -160 154 -296c0 -224 -160 -355 -390 -355c-85 0 -161 18 -222 52l-35 -45h-21l41 54c-95 59 -153 160 -153 294c0 225 160 355 390 355c85 0 160 -17 221 -51l37 48h21zM228 348c0 -85 9 -151 25 -202l327 427c-33 84 -89 119 -160 119
c-110 0 -191 -92 -192 -344zM420 5c116 0 192 92 193 343c0 87 -9 154 -26 206l-327 -428c32 -86 89 -121 160 -121zM512 909c20 -20 11 -50 -23 -83c-47 -47 -135 -81 -135 -81l-7 6s34 89 81 136c33 33 64 42 84 22z" />
    <glyph glyph-name="Otilde" unicode="&#xd5;" horiz-adv-x="840" 
d="M420 703c230 0 390 -130 390 -355c0 -224 -160 -355 -390 -355s-390 131 -390 355c0 225 160 355 390 355zM420 5c116 0 191 92 193 343c-2 252 -77 344 -193 344c-110 0 -192 -92 -193 -344c1 -251 77 -343 193 -343zM481 781c-40 0 -71 20 -107 40
c-51 28 -85 -1 -93 -38h-8c4 101 35 132 96 127c44 -3 83 -37 118 -50c40 -14 64 6 72 40h7c-3 -80 -26 -119 -85 -119z" />
    <glyph glyph-name="Racute" unicode="&#x154;" horiz-adv-x="761" 
d="M681 188v-86c0 -23 8 -48 31 -48c28 0 37 35 37 69h12c0 -89 -45 -130 -117 -130c-77 0 -136 20 -136 120v103c0 85 -39 122 -155 122h-76v-325h65v-13h-302v13h65v674h-65v13h345c164 0 279 -34 279 -185c0 -107 -69 -163 -212 -163v-3c172 0 229 -44 229 -161zM342 351
c86 0 153 27 153 160c0 132 -67 168 -153 168h-65v-328h65zM453 909c20 -20 11 -50 -23 -83c-47 -47 -135 -81 -135 -81l-7 6s34 89 81 136c33 33 64 42 84 22z" />
    <glyph glyph-name="Rcaron" unicode="&#x158;" horiz-adv-x="761" 
d="M681 188v-86c0 -23 8 -48 31 -48c28 0 37 35 37 69h12c0 -89 -45 -130 -117 -130c-77 0 -136 20 -136 120v103c0 85 -39 122 -155 122h-76v-325h65v-13h-302v13h65v674h-65v13h345c164 0 279 -34 279 -185c0 -107 -69 -163 -212 -163v-3c172 0 229 -44 229 -161zM342 351
c86 0 153 27 153 160c0 132 -67 168 -153 168h-65v-328h65zM527 920l7 -7l-131 -147h-86l-131 147l7 7l167 -68z" />
    <glyph glyph-name="Rcommaaccent" unicode="&#x156;" horiz-adv-x="761" 
d="M681 188v-86c0 -23 8 -48 31 -48c28 0 37 35 37 69h12c0 -89 -45 -130 -117 -130c-77 0 -136 20 -136 120v103c0 85 -39 122 -155 122h-76v-325h65v-13h-302v13h65v674h-65v13h345c164 0 279 -34 279 -185c0 -107 -69 -163 -212 -163v-3c172 0 229 -44 229 -161zM342 351
c86 0 153 27 153 160c0 132 -67 168 -153 168h-65v-328h65zM410 -48c48 0 86 -38 86 -86c0 -86 -86 -170 -128 -196l-5 9c37 27 73 85 82 108c-8 -3 -23 -7 -35 -7c-48 0 -86 38 -86 86s38 86 86 86z" />
    <glyph glyph-name="Sacute" unicode="&#x15a;" horiz-adv-x="594" 
d="M172 574c-1 -167 408 -149 391 -381c-10 -134 -109 -200 -286 -200c-73 0 -169 20 -244 44v189h11c64 -161 117 -218 227 -218c74 0 118 24 130 80c44 202 -380 167 -370 414c5 129 88 201 274 201c67 0 141 -24 209 -46v-173h-11c-49 142 -105 204 -202 204
c-73 0 -129 -35 -129 -114zM389 909c20 -20 11 -50 -23 -83c-47 -47 -135 -81 -135 -81l-7 6s34 89 81 136c33 33 64 42 84 22z" />
    <glyph glyph-name="Scaron" unicode="&#x160;" horiz-adv-x="594" 
d="M172 574c-1 -167 408 -149 391 -381c-10 -134 -109 -200 -286 -200c-73 0 -169 20 -244 44v189h11c64 -161 117 -218 227 -218c74 0 118 24 130 80c44 202 -380 167 -370 414c5 129 88 201 274 201c67 0 141 -24 209 -46v-173h-11c-49 142 -105 204 -202 204
c-73 0 -129 -35 -129 -114zM474 920l7 -7l-131 -147h-86l-131 147l7 7l167 -68z" />
    <glyph glyph-name="Scircumflex" unicode="&#x15c;" horiz-adv-x="594" 
d="M172 574c-1 -167 408 -149 391 -381c-10 -134 -109 -200 -286 -200c-73 0 -169 20 -244 44v189h11c64 -161 117 -218 227 -218c74 0 118 24 130 80c44 202 -380 167 -370 414c5 129 88 201 274 201c67 0 141 -24 209 -46v-173h-11c-49 142 -105 204 -202 204
c-73 0 -129 -35 -129 -114zM340 920l131 -147l-7 -7l-167 69l-167 -69l-7 7l131 147h86z" />
    <glyph glyph-name="Scommaaccent" unicode="&#x218;" horiz-adv-x="594" 
d="M172 574c-1 -167 408 -149 391 -381c-10 -134 -109 -200 -286 -200c-73 0 -169 20 -244 44v189h11c64 -161 117 -218 227 -218c74 0 118 24 130 80c44 202 -380 167 -370 414c5 129 88 201 274 201c67 0 141 -24 209 -46v-173h-11c-49 142 -105 204 -202 204
c-73 0 -129 -35 -129 -114zM300 -48c48 0 86 -38 86 -86c0 -86 -86 -170 -128 -196l-5 9c37 27 73 85 82 108c-8 -3 -23 -7 -35 -7c-48 0 -86 38 -86 86s38 86 86 86z" />
    <glyph glyph-name="Tcaron" unicode="&#x164;" horiz-adv-x="698" 
d="M20 700h658v-267h-13c-12 90 -19 246 -181 246h-49v-666h65v-13h-302v13h65v666h-49c-162 0 -170 -156 -181 -246h-13v267zM516 920l7 -7l-131 -147h-86l-131 147l7 7l167 -68z" />
    <glyph glyph-name="Tcommaaccent" unicode="&#x162;" horiz-adv-x="698" 
d="M20 700h658v-267h-13c-12 90 -19 246 -181 246h-49v-666h65v-13h-302v13h65v666h-49c-162 0 -170 -156 -181 -246h-13v267zM349 -48c48 0 86 -38 86 -86c0 -86 -86 -170 -128 -196l-5 9c37 27 73 85 82 108c-8 -3 -23 -7 -35 -7c-48 0 -86 38 -86 86s38 86 86 86z" />
    <glyph glyph-name="Uacute" unicode="&#xda;" horiz-adv-x="742" 
d="M568 700h159v-13c-49 -13 -73 -54 -73 -157v-247c0 -191 -96 -290 -260 -290c-174 0 -314 91 -314 298v396h-65v13h302v-13h-65v-396c0 -161 66 -250 193 -250c116 0 196 80 196 242v247c0 103 -21 144 -73 157v13zM503 909c20 -20 11 -50 -23 -83
c-47 -47 -135 -81 -135 -81l-7 6s34 89 81 136c33 33 64 42 84 22z" />
    <glyph glyph-name="Ubreve" unicode="&#x16c;" horiz-adv-x="742" 
d="M568 700h159v-13c-49 -13 -73 -54 -73 -157v-247c0 -191 -96 -290 -260 -290c-174 0 -314 91 -314 298v396h-65v13h302v-13h-65v-396c0 -161 66 -250 193 -250c116 0 196 80 196 242v247c0 103 -21 144 -73 157v13zM550 920h10c0 -98 -51 -155 -139 -155
s-139 57 -139 155h10c13 -48 63 -78 129 -78s116 30 129 78z" />
    <glyph glyph-name="Ucircumflex" unicode="&#xdb;" horiz-adv-x="742" 
d="M568 700h159v-13c-49 -13 -73 -54 -73 -157v-247c0 -191 -96 -290 -260 -290c-174 0 -314 91 -314 298v396h-65v13h302v-13h-65v-396c0 -161 66 -250 193 -250c116 0 196 80 196 242v247c0 103 -21 144 -73 157v13zM454 920l131 -147l-7 -7l-167 69l-167 -69l-7 7
l131 147h86z" />
    <glyph glyph-name="Udieresis" unicode="&#xdc;" horiz-adv-x="742" 
d="M568 700h159v-13c-49 -13 -73 -54 -73 -157v-247c0 -191 -96 -290 -260 -290c-174 0 -314 91 -314 298v396h-65v13h302v-13h-65v-396c0 -161 66 -250 193 -250c116 0 196 80 196 242v247c0 103 -21 144 -73 157v13zM317 926c46 0 83 -37 83 -83s-37 -83 -83 -83
s-83 37 -83 83s37 83 83 83zM525 926c46 0 83 -37 83 -83s-37 -83 -83 -83s-83 37 -83 83s37 83 83 83z" />
    <glyph glyph-name="Ugrave" unicode="&#xd9;" horiz-adv-x="742" 
d="M568 700h159v-13c-49 -13 -73 -54 -73 -157v-247c0 -191 -96 -290 -260 -290c-174 0 -314 91 -314 298v396h-65v13h302v-13h-65v-396c0 -161 66 -250 193 -250c116 0 196 80 196 242v247c0 103 -21 144 -73 157v13zM441 887c47 -47 82 -136 82 -136l-7 -6s-89 34 -136 81
c-33 33 -42 63 -22 83s50 11 83 -22z" />
    <glyph glyph-name="Uhungarumlaut" unicode="&#x170;" horiz-adv-x="742" 
d="M568 700h159v-13c-49 -13 -73 -54 -73 -157v-247c0 -191 -96 -290 -260 -290c-174 0 -314 91 -314 298v396h-65v13h302v-13h-65v-396c0 -161 66 -250 193 -250c116 0 196 80 196 242v247c0 103 -21 144 -73 157v13zM378 887c33 33 63 42 83 22s11 -50 -22 -83
c-47 -47 -135 -81 -135 -81l-7 6s34 89 81 136zM644 909c20 -20 11 -50 -22 -83c-47 -47 -136 -81 -136 -81l-6 6s34 89 81 136c33 33 63 42 83 22z" />
    <glyph glyph-name="Umacron" unicode="&#x16a;" horiz-adv-x="742" 
d="M568 700h159v-13c-49 -13 -73 -54 -73 -157v-247c0 -191 -96 -290 -260 -290c-174 0 -314 91 -314 298v396h-65v13h302v-13h-65v-396c0 -161 66 -250 193 -250c116 0 196 80 196 242v247c0 103 -21 144 -73 157v13zM260 847h321v-48h-321v48z" />
    <glyph glyph-name="Uring" unicode="&#x16e;" horiz-adv-x="742" 
d="M568 700h159v-13c-49 -13 -73 -54 -73 -157v-247c0 -191 -96 -290 -260 -290c-174 0 -314 91 -314 298v396h-65v13h302v-13h-65v-396c0 -161 66 -250 193 -250c116 0 196 80 196 242v247c0 103 -21 144 -73 157v13zM441 741c-56 0 -102 46 -102 102s46 102 102 102
s102 -46 102 -102s-46 -102 -102 -102zM441 912c-38 0 -69 -31 -69 -69s31 -69 69 -69s69 31 69 69s-31 69 -69 69z" />
    <glyph glyph-name="Utilde" unicode="&#x168;" horiz-adv-x="742" 
d="M568 700h159v-13c-49 -13 -73 -54 -73 -157v-247c0 -191 -96 -290 -260 -290c-174 0 -314 91 -314 298v396h-65v13h302v-13h-65v-396c0 -161 66 -250 193 -250c116 0 196 80 196 242v247c0 103 -21 144 -73 157v13zM502 781c-40 0 -71 20 -107 40c-51 28 -85 -1 -93 -38
h-8c4 101 35 132 96 127c44 -3 83 -37 118 -50c40 -14 64 6 72 40h7c-3 -80 -26 -119 -85 -119z" />
    <glyph glyph-name="Wacute" unicode="&#x1e82;" horiz-adv-x="1118" 
d="M870 700h243v-13c-57 -17 -101 -65 -140 -175l-175 -512h-56l-195 522l-166 -522h-55l-259 687h-62v13h311v-13h-60l173 -486l159 499h75l186 -514l110 322c36 106 -4 169 -89 179v13zM720 909c20 -20 11 -50 -23 -83c-47 -47 -135 -81 -135 -81l-7 6s34 89 81 136
c33 33 64 42 84 22z" />
    <glyph glyph-name="Wcircumflex" unicode="&#x174;" horiz-adv-x="1118" 
d="M870 700h243v-13c-57 -17 -101 -65 -140 -175l-175 -512h-56l-195 522l-166 -522h-55l-259 687h-62v13h311v-13h-60l173 -486l159 499h75l186 -514l110 322c36 106 -4 169 -89 179v13zM671 920l131 -147l-7 -7l-167 69l-167 -69l-7 7l131 147h86z" />
    <glyph glyph-name="Wdieresis" unicode="&#x1e84;" horiz-adv-x="1118" 
d="M870 700h243v-13c-57 -17 -101 -65 -140 -175l-175 -512h-56l-195 522l-166 -522h-55l-259 687h-62v13h311v-13h-60l173 -486l159 499h75l186 -514l110 322c36 106 -4 169 -89 179v13zM524 926c46 0 83 -37 83 -83s-37 -83 -83 -83s-83 37 -83 83s37 83 83 83zM732 926
c46 0 83 -37 83 -83s-37 -83 -83 -83s-83 37 -83 83s37 83 83 83z" />
    <glyph glyph-name="Wgrave" unicode="&#x1e80;" horiz-adv-x="1118" 
d="M870 700h243v-13c-57 -17 -101 -65 -140 -175l-175 -512h-56l-195 522l-166 -522h-55l-259 687h-62v13h311v-13h-60l173 -486l159 499h75l186 -514l110 322c36 106 -4 169 -89 179v13zM628 887c47 -47 82 -136 82 -136l-7 -6s-89 34 -136 81c-33 33 -42 63 -22 83
s50 11 83 -22z" />
    <glyph glyph-name="Yacute" unicode="&#xdd;" horiz-adv-x="756" 
d="M515 700h236v-13c-55 -16 -94 -50 -148 -152l-128 -239v-283h65v-13h-302v13h65v260l-234 414h-64v13h326v-13h-66l199 -380l120 220c52 98 17 150 -69 160v13zM500 909c20 -20 11 -50 -23 -83c-47 -47 -135 -81 -135 -81l-7 6s34 89 81 136c33 33 64 42 84 22z" />
    <glyph glyph-name="Ycircumflex" unicode="&#x176;" horiz-adv-x="756" 
d="M515 700h236v-13c-55 -16 -94 -50 -148 -152l-128 -239v-283h65v-13h-302v13h65v260l-234 414h-64v13h326v-13h-66l199 -380l120 220c52 98 17 150 -69 160v13zM451 920l131 -147l-7 -7l-167 69l-167 -69l-7 7l131 147h86z" />
    <glyph glyph-name="Ydieresis" unicode="&#x178;" horiz-adv-x="756" 
d="M515 700h236v-13c-55 -16 -94 -50 -148 -152l-128 -239v-283h65v-13h-302v13h65v260l-234 414h-64v13h326v-13h-66l199 -380l120 220c52 98 17 150 -69 160v13zM324 926c46 0 83 -37 83 -83s-37 -83 -83 -83s-83 37 -83 83s37 83 83 83zM532 926c46 0 83 -37 83 -83
s-37 -83 -83 -83s-83 37 -83 83s37 83 83 83z" />
    <glyph glyph-name="Ygrave" unicode="&#x1ef2;" horiz-adv-x="756" 
d="M515 700h236v-13c-55 -16 -94 -50 -148 -152l-128 -239v-283h65v-13h-302v13h65v260l-234 414h-64v13h326v-13h-66l199 -380l120 220c52 98 17 150 -69 160v13zM398 887c47 -47 82 -136 82 -136l-7 -6s-89 34 -136 81c-33 33 -42 63 -22 83s50 11 83 -22z" />
    <glyph glyph-name="Zacute" unicode="&#x179;" horiz-adv-x="661" 
d="M631 700v-13l-407 -666h173c168 0 191 104 209 238h13v-259h-589v13l400 666h-141c-168 0 -207 -104 -224 -238h-13v259h579zM453 909c20 -20 11 -50 -23 -83c-47 -47 -135 -81 -135 -81l-7 6s34 89 81 136c33 33 64 42 84 22z" />
    <glyph glyph-name="Zcaron" unicode="&#x17d;" horiz-adv-x="661" 
d="M631 700v-13l-407 -666h173c168 0 191 104 209 238h13v-259h-589v13l400 666h-141c-168 0 -207 -104 -224 -238h-13v259h579zM527 920l7 -7l-131 -147h-86l-131 147l7 7l167 -68z" />
    <glyph glyph-name="Zdotaccent" unicode="&#x17b;" horiz-adv-x="661" 
d="M631 700v-13l-407 -666h173c168 0 191 104 209 238h13v-259h-589v13l400 666h-141c-168 0 -207 -104 -224 -238h-13v259h579zM360 926c46 0 83 -37 83 -83s-37 -83 -83 -83s-83 37 -83 83s37 83 83 83z" />
    <glyph glyph-name="aacute" unicode="&#xe1;" horiz-adv-x="627" 
d="M614 86l13 -9c-16 -34 -58 -84 -134 -84c-77 0 -112 36 -118 91c-29 -41 -98 -91 -180 -91c-90 0 -165 52 -165 158c0 188 228 176 344 180v100c0 60 -22 96 -84 96c-50 0 -103 -28 -187 -180h-12v154c76 23 151 39 210 39c133 0 237 -30 237 -164v-243
c0 -63 14 -73 35 -73c15 0 32 13 41 26zM176 176c0 -134 114 -155 198 -78v3v218c-121 5 -198 -42 -198 -143zM431 759c20 -20 11 -50 -23 -83c-47 -47 -135 -81 -135 -81l-7 6s34 89 81 136c33 33 64 42 84 22z" />
    <glyph glyph-name="abreve" unicode="&#x103;" horiz-adv-x="627" 
d="M614 86l13 -9c-16 -34 -58 -84 -134 -84c-77 0 -112 36 -118 91c-29 -41 -98 -91 -180 -91c-90 0 -165 52 -165 158c0 188 228 176 344 180v100c0 60 -22 96 -84 96c-50 0 -103 -28 -187 -180h-12v154c76 23 151 39 210 39c133 0 237 -30 237 -164v-243
c0 -63 14 -73 35 -73c15 0 32 13 41 26zM176 176c0 -134 114 -155 198 -78v3v218c-121 5 -198 -42 -198 -143zM447 770h10c0 -98 -51 -155 -139 -155s-139 57 -139 155h10c13 -48 63 -78 129 -78s116 30 129 78z" />
    <glyph glyph-name="acircumflex" unicode="&#xe2;" horiz-adv-x="627" 
d="M614 86l13 -9c-16 -34 -58 -84 -134 -84c-77 0 -112 36 -118 91c-29 -41 -98 -91 -180 -91c-90 0 -165 52 -165 158c0 188 228 176 344 180v100c0 60 -22 96 -84 96c-50 0 -103 -28 -187 -180h-12v154c76 23 151 39 210 39c133 0 237 -30 237 -164v-243
c0 -63 14 -73 35 -73c15 0 32 13 41 26zM176 176c0 -134 114 -155 198 -78v3v218c-121 5 -198 -42 -198 -143zM361 770l131 -147l-7 -7l-167 69l-167 -69l-7 7l131 147h86z" />
    <glyph glyph-name="adieresis" unicode="&#xe4;" horiz-adv-x="627" 
d="M614 86l13 -9c-16 -34 -58 -84 -134 -84c-77 0 -112 36 -118 91c-29 -41 -98 -91 -180 -91c-90 0 -165 52 -165 158c0 188 228 176 344 180v100c0 60 -22 96 -84 96c-50 0 -103 -28 -187 -180h-12v154c76 23 151 39 210 39c133 0 237 -30 237 -164v-243
c0 -63 14 -73 35 -73c15 0 32 13 41 26zM176 176c0 -134 114 -155 198 -78v3v218c-121 5 -198 -42 -198 -143zM214 776c46 0 83 -37 83 -83s-37 -83 -83 -83s-83 37 -83 83s37 83 83 83zM422 776c46 0 83 -37 83 -83s-37 -83 -83 -83s-83 37 -83 83s37 83 83 83z" />
    <glyph glyph-name="agrave" unicode="&#xe0;" horiz-adv-x="627" 
d="M614 86l13 -9c-16 -34 -58 -84 -134 -84c-77 0 -112 36 -118 91c-29 -41 -98 -91 -180 -91c-90 0 -165 52 -165 158c0 188 228 176 344 180v100c0 60 -22 96 -84 96c-50 0 -103 -28 -187 -180h-12v154c76 23 151 39 210 39c133 0 237 -30 237 -164v-243
c0 -63 14 -73 35 -73c15 0 32 13 41 26zM176 176c0 -134 114 -155 198 -78v3v218c-121 5 -198 -42 -198 -143zM319 737c47 -47 82 -136 82 -136l-7 -6s-89 34 -136 81c-33 33 -42 63 -22 83s50 11 83 -22z" />
    <glyph glyph-name="amacron" unicode="&#x101;" horiz-adv-x="627" 
d="M614 86l13 -9c-16 -34 -58 -84 -134 -84c-77 0 -112 36 -118 91c-29 -41 -98 -91 -180 -91c-90 0 -165 52 -165 158c0 188 228 176 344 180v100c0 60 -22 96 -84 96c-50 0 -103 -28 -187 -180h-12v154c76 23 151 39 210 39c133 0 237 -30 237 -164v-243
c0 -63 14 -73 35 -73c15 0 32 13 41 26zM176 176c0 -134 114 -155 198 -78v3v218c-121 5 -198 -42 -198 -143zM148 697h321v-48h-321v48z" />
    <glyph glyph-name="aring" unicode="&#xe5;" horiz-adv-x="627" 
d="M614 86l13 -9c-16 -34 -58 -84 -134 -84c-77 0 -112 36 -118 91c-29 -41 -98 -91 -180 -91c-90 0 -165 52 -165 158c0 188 228 176 344 180v100c0 60 -22 96 -84 96c-50 0 -103 -28 -187 -180h-12v154c76 23 151 39 210 39c133 0 237 -30 237 -164v-243
c0 -63 14 -73 35 -73c15 0 32 13 41 26zM176 176c0 -134 114 -155 198 -78v3v218c-121 5 -198 -42 -198 -143zM308 591c-56 0 -102 46 -102 102s46 102 102 102s102 -46 102 -102s-46 -102 -102 -102zM308 762c-38 0 -69 -31 -69 -69s31 -69 69 -69s69 31 69 69
s-31 69 -69 69z" />
    <glyph glyph-name="atilde" unicode="&#xe3;" horiz-adv-x="627" 
d="M614 86l13 -9c-16 -34 -58 -84 -134 -84c-77 0 -112 36 -118 91c-29 -41 -98 -91 -180 -91c-90 0 -165 52 -165 158c0 188 228 176 344 180v100c0 60 -22 96 -84 96c-50 0 -103 -28 -187 -180h-12v154c76 23 151 39 210 39c133 0 237 -30 237 -164v-243
c0 -63 14 -73 35 -73c15 0 32 13 41 26zM176 176c0 -134 114 -155 198 -78v3v218c-121 5 -198 -42 -198 -143zM380 631c-40 0 -71 20 -107 40c-51 28 -85 -1 -93 -38h-8c4 101 35 132 96 127c44 -3 83 -37 118 -50c40 -14 64 6 72 40h7c-3 -80 -26 -119 -85 -119z" />
    <glyph glyph-name="aeacute" unicode="&#x1fd;" horiz-adv-x="953" 
d="M662 540c157 0 266 -86 255 -274h-361c10 -142 98 -206 196 -206c72 0 110 29 135 59l11 -9c-30 -51 -100 -117 -219 -117c-141 0 -275 73 -300 221c-15 -147 -83 -221 -184 -221c-90 0 -165 52 -165 158c0 188 229 176 345 180v100c0 60 -23 96 -84 96
c-50 0 -104 -28 -187 -180h-13v154c77 23 151 39 210 39c78 0 146 -11 189 -46c49 31 109 46 172 46zM375 258v61c-122 5 -198 -42 -198 -143c0 -140 193 -182 198 82zM760 288c3 133 -25 239 -98 239c-68 0 -113 -100 -108 -239h206zM616 759c20 -20 11 -50 -23 -83
c-47 -47 -135 -81 -135 -81l-7 6s34 89 81 136c33 33 64 42 84 22z" />
    <glyph glyph-name="cacute" unicode="&#x107;" horiz-adv-x="589" 
d="M543 119l11 -9c-30 -51 -101 -117 -220 -117c-157 0 -304 90 -304 273c0 185 151 274 313 274c68 0 125 -19 199 -47v-178h-12c-59 155 -95 212 -166 212c-82 0 -166 -87 -153 -261c10 -142 98 -206 196 -206c72 0 110 29 136 59zM394 759c20 -20 11 -50 -23 -83
c-47 -47 -135 -81 -135 -81l-7 6s34 89 81 136c33 33 64 42 84 22z" />
    <glyph glyph-name="ccaron" unicode="&#x10d;" horiz-adv-x="589" 
d="M543 119l11 -9c-30 -51 -101 -117 -220 -117c-157 0 -304 90 -304 273c0 185 151 274 313 274c68 0 125 -19 199 -47v-178h-12c-59 155 -95 212 -166 212c-82 0 -166 -87 -153 -261c10 -142 98 -206 196 -206c72 0 110 29 136 59zM489 770l7 -7l-131 -147h-86l-131 147
l7 7l167 -68z" />
    <glyph glyph-name="ccircumflex" unicode="&#x109;" horiz-adv-x="589" 
d="M543 119l11 -9c-30 -51 -101 -117 -220 -117c-157 0 -304 90 -304 273c0 185 151 274 313 274c68 0 125 -19 199 -47v-178h-12c-59 155 -95 212 -166 212c-82 0 -166 -87 -153 -261c10 -142 98 -206 196 -206c72 0 110 29 136 59zM365 770l131 -147l-7 -7l-167 69
l-167 -69l-7 7l131 147h86z" />
    <glyph glyph-name="cdotaccent" unicode="&#x10b;" horiz-adv-x="589" 
d="M543 119l11 -9c-30 -51 -101 -117 -220 -117c-157 0 -304 90 -304 273c0 185 151 274 313 274c68 0 125 -19 199 -47v-178h-12c-59 155 -95 212 -166 212c-82 0 -166 -87 -153 -261c10 -142 98 -206 196 -206c72 0 110 29 136 59zM342 776c46 0 83 -37 83 -83
s-37 -83 -83 -83s-83 37 -83 83s37 83 83 83z" />
    <glyph glyph-name="dcaron" unicode="&#x10f;" horiz-adv-x="890" 
d="M621 13h57v-13h-220v112c-24 -58 -89 -119 -192 -119c-109 0 -236 89 -236 273c0 185 127 274 236 274c103 0 168 -61 192 -119v266h-57v13h220v-687zM458 133v267c-22 33 -51 63 -95 69c-90 13 -163 -66 -163 -203c0 -136 73 -215 163 -202c44 6 73 36 95 69zM784 704
c48 0 86 -38 86 -86c0 -86 -86 -170 -128 -196l-5 10c37 27 73 84 82 107c-8 -3 -23 -7 -35 -7c-48 0 -86 39 -86 86c0 48 38 86 86 86z" />
    <glyph glyph-name="eacute" unicode="&#xe9;" horiz-adv-x="609" 
d="M318 540c157 0 266 -86 255 -274h-362c11 -142 98 -206 197 -206c72 0 110 29 135 59l11 -9c-30 -51 -100 -117 -219 -117c-157 0 -305 90 -305 273c0 187 137 274 288 274zM416 288c3 133 -25 239 -98 239c-68 0 -113 -100 -108 -239h206zM404 759
c20 -20 11 -50 -23 -83c-47 -47 -135 -81 -135 -81l-7 6s34 89 81 136c33 33 64 42 84 22z" />
    <glyph glyph-name="ebreve" unicode="&#x115;" horiz-adv-x="609" 
d="M318 540c157 0 266 -86 255 -274h-362c11 -142 98 -206 197 -206c72 0 110 29 135 59l11 -9c-30 -51 -100 -117 -219 -117c-157 0 -305 90 -305 273c0 187 137 274 288 274zM416 288c3 133 -25 239 -98 239c-68 0 -113 -100 -108 -239h206zM441 770h10
c0 -98 -51 -155 -139 -155s-139 57 -139 155h10c13 -48 63 -78 129 -78s116 30 129 78z" />
    <glyph glyph-name="ecaron" unicode="&#x11b;" horiz-adv-x="609" 
d="M318 540c157 0 266 -86 255 -274h-362c11 -142 98 -206 197 -206c72 0 110 29 135 59l11 -9c-30 -51 -100 -117 -219 -117c-157 0 -305 90 -305 273c0 187 137 274 288 274zM416 288c3 133 -25 239 -98 239c-68 0 -113 -100 -108 -239h206zM489 770l7 -7l-131 -147h-86
l-131 147l7 7l167 -68z" />
    <glyph glyph-name="ecircumflex" unicode="&#xea;" horiz-adv-x="609" 
d="M318 540c157 0 266 -86 255 -274h-362c11 -142 98 -206 197 -206c72 0 110 29 135 59l11 -9c-30 -51 -100 -117 -219 -117c-157 0 -305 90 -305 273c0 187 137 274 288 274zM416 288c3 133 -25 239 -98 239c-68 0 -113 -100 -108 -239h206zM365 770l131 -147l-7 -7
l-167 69l-167 -69l-7 7l131 147h86z" />
    <glyph glyph-name="edieresis" unicode="&#xeb;" horiz-adv-x="609" 
d="M318 540c157 0 266 -86 255 -274h-362c11 -142 98 -206 197 -206c72 0 110 29 135 59l11 -9c-30 -51 -100 -117 -219 -117c-157 0 -305 90 -305 273c0 187 137 274 288 274zM416 288c3 133 -25 239 -98 239c-68 0 -113 -100 -108 -239h206zM218 776c46 0 83 -37 83 -83
s-37 -83 -83 -83s-83 37 -83 83s37 83 83 83zM426 776c46 0 83 -37 83 -83s-37 -83 -83 -83s-83 37 -83 83s37 83 83 83z" />
    <glyph glyph-name="edotaccent" unicode="&#x117;" horiz-adv-x="609" 
d="M318 540c157 0 266 -86 255 -274h-362c11 -142 98 -206 197 -206c72 0 110 29 135 59l11 -9c-30 -51 -100 -117 -219 -117c-157 0 -305 90 -305 273c0 187 137 274 288 274zM416 288c3 133 -25 239 -98 239c-68 0 -113 -100 -108 -239h206zM322 776c46 0 83 -37 83 -83
s-37 -83 -83 -83s-83 37 -83 83s37 83 83 83z" />
    <glyph glyph-name="egrave" unicode="&#xe8;" horiz-adv-x="609" 
d="M318 540c157 0 266 -86 255 -274h-362c11 -142 98 -206 197 -206c72 0 110 29 135 59l11 -9c-30 -51 -100 -117 -219 -117c-157 0 -305 90 -305 273c0 187 137 274 288 274zM416 288c3 133 -25 239 -98 239c-68 0 -113 -100 -108 -239h206zM322 737
c47 -47 82 -136 82 -136l-7 -6s-89 34 -136 81c-33 33 -42 63 -22 83s50 11 83 -22z" />
    <glyph glyph-name="emacron" unicode="&#x113;" horiz-adv-x="609" 
d="M318 540c157 0 266 -86 255 -274h-362c11 -142 98 -206 197 -206c72 0 110 29 135 59l11 -9c-30 -51 -100 -117 -219 -117c-157 0 -305 90 -305 273c0 187 137 274 288 274zM416 288c3 133 -25 239 -98 239c-68 0 -113 -100 -108 -239h206zM161 697h321v-48h-321v48z" />
    <glyph glyph-name="gbreve" unicode="&#x11f;" horiz-adv-x="647" 
d="M371 127c159 0 241 -25 241 -127c0 -114 -104 -195 -297 -195c-190 0 -285 28 -285 96c0 57 83 92 143 110c-91 19 -123 62 -115 123c9 61 60 96 91 111c-49 27 -79 71 -79 129c0 109 104 166 246 166c43 0 83 -6 118 -16l165 127h9v-135h-153c65 -26 106 -74 106 -142
c0 -109 -103 -166 -245 -166c-61 0 -114 10 -156 31c-4 -12 -8 -25 -7 -40c1 -44 57 -72 218 -72zM316 524c-69 0 -100 -63 -100 -150s31 -151 100 -151c68 0 99 64 99 151s-31 150 -99 150zM493 -85c3 62 -41 84 -177 84c-40 0 -74 2 -103 5c-41 -21 -77 -58 -77 -99
c0 -54 79 -81 180 -81c113 0 174 38 177 91zM440 770h10c0 -98 -51 -155 -139 -155s-139 57 -139 155h10c13 -48 63 -78 129 -78s116 30 129 78z" />
    <glyph glyph-name="gcircumflex" unicode="&#x11d;" horiz-adv-x="647" 
d="M371 127c159 0 241 -25 241 -127c0 -114 -104 -195 -297 -195c-190 0 -285 28 -285 96c0 57 83 92 143 110c-91 19 -123 62 -115 123c9 61 60 96 91 111c-49 27 -79 71 -79 129c0 109 104 166 246 166c43 0 83 -6 118 -16l165 127h9v-135h-153c65 -26 106 -74 106 -142
c0 -109 -103 -166 -245 -166c-61 0 -114 10 -156 31c-4 -12 -8 -25 -7 -40c1 -44 57 -72 218 -72zM316 524c-69 0 -100 -63 -100 -150s31 -151 100 -151c68 0 99 64 99 151s-31 150 -99 150zM493 -85c3 62 -41 84 -177 84c-40 0 -74 2 -103 5c-41 -21 -77 -58 -77 -99
c0 -54 79 -81 180 -81c113 0 174 38 177 91zM364 770l131 -147l-7 -7l-167 69l-167 -69l-7 7l131 147h86z" />
    <glyph glyph-name="gcommaaccent" unicode="&#x123;" horiz-adv-x="647" 
d="M371 127c159 0 241 -25 241 -127c0 -114 -104 -195 -297 -195c-190 0 -285 28 -285 96c0 57 83 92 143 110c-91 19 -123 62 -115 123c9 61 60 96 91 111c-49 27 -79 71 -79 129c0 109 104 166 246 166c43 0 83 -6 118 -16l165 127h9v-135h-153c65 -26 106 -74 106 -142
c0 -109 -103 -166 -245 -166c-61 0 -114 10 -156 31c-4 -12 -8 -25 -7 -40c1 -44 57 -72 218 -72zM316 524c-69 0 -100 -63 -100 -150s31 -151 100 -151c68 0 99 64 99 151s-31 150 -99 150zM493 -85c3 62 -41 84 -177 84c-40 0 -74 2 -103 5c-41 -21 -77 -58 -77 -99
c0 -54 79 -81 180 -81c113 0 174 38 177 91zM321 770c47 0 86 -38 86 -86s-39 -86 -86 -86c-48 0 -87 38 -87 86c0 86 87 170 128 196l6 -9c-37 -27 -73 -85 -82 -108c8 3 22 7 35 7z" />
    <glyph glyph-name="gdotaccent" unicode="&#x121;" horiz-adv-x="647" 
d="M371 127c159 0 241 -25 241 -127c0 -114 -104 -195 -297 -195c-190 0 -285 28 -285 96c0 57 83 92 143 110c-91 19 -123 62 -115 123c9 61 60 96 91 111c-49 27 -79 71 -79 129c0 109 104 166 246 166c43 0 83 -6 118 -16l165 127h9v-135h-153c65 -26 106 -74 106 -142
c0 -109 -103 -166 -245 -166c-61 0 -114 10 -156 31c-4 -12 -8 -25 -7 -40c1 -44 57 -72 218 -72zM316 524c-69 0 -100 -63 -100 -150s31 -151 100 -151c68 0 99 64 99 151s-31 150 -99 150zM493 -85c3 62 -41 84 -177 84c-40 0 -74 2 -103 5c-41 -21 -77 -58 -77 -99
c0 -54 79 -81 180 -81c113 0 174 38 177 91zM321 776c46 0 83 -37 83 -83s-37 -83 -83 -83s-83 37 -83 83s37 83 83 83z" />
    <glyph glyph-name="hcircumflex" unicode="&#x125;" horiz-adv-x="744" 
d="M704 13v-13h-277v13h56v346c0 68 -48 109 -123 98c-59 -9 -109 -57 -109 -108v-336h56v-13h-277v13h57v674h-57v13h221v-312c48 93 121 152 212 152c138 0 184 -86 184 -190v-337h57zM253 904l131 -147l-7 -7l-167 69l-167 -69l-7 7l131 147h86z" />
    <glyph glyph-name="iacute" unicode="&#xed;" horiz-adv-x="346" 
d="M250 13h56v-13h-276v13h56v501h-56v13h220v-514zM260 759c20 -20 11 -50 -23 -83c-47 -47 -135 -81 -135 -81l-7 6s34 89 81 136c33 33 64 42 84 22z" />
    <glyph glyph-name="ibreve" unicode="&#x12d;" horiz-adv-x="346" 
d="M250 13h56v-13h-276v13h56v501h-56v13h220v-514zM297 770h10c0 -98 -51 -155 -139 -155s-139 57 -139 155h10c13 -48 63 -78 129 -78s116 30 129 78z" />
    <glyph glyph-name="icircumflex" unicode="&#xee;" horiz-adv-x="346" 
d="M250 13h56v-13h-276v13h56v501h-56v13h220v-514zM211 770l131 -147l-7 -7l-167 69l-167 -69l-7 7l131 147h86z" />
    <glyph glyph-name="idieresis" unicode="&#xef;" horiz-adv-x="346" 
d="M250 13h56v-13h-276v13h56v501h-56v13h220v-514zM64 776c46 0 83 -37 83 -83s-37 -83 -83 -83s-83 37 -83 83s37 83 83 83zM272 776c46 0 83 -37 83 -83s-37 -83 -83 -83s-83 37 -83 83s37 83 83 83z" />
    <glyph glyph-name="imacron" unicode="&#x12b;" horiz-adv-x="346" 
d="M250 13h56v-13h-276v13h56v501h-56v13h220v-514zM8 697h321v-48h-321v48z" />
    <glyph glyph-name="igrave" unicode="&#xec;" horiz-adv-x="346" 
d="M250 13h56v-13h-276v13h56v501h-56v13h220v-514zM168 737c47 -47 82 -136 82 -136l-7 -6s-89 34 -136 81c-33 33 -42 63 -22 83s50 11 83 -22z" />
    <glyph glyph-name="itilde" unicode="&#x129;" horiz-adv-x="346" 
d="M250 13h56v-13h-276v13h56v501h-56v13h220v-514zM230 631c-40 0 -71 20 -107 40c-51 28 -85 -1 -93 -38h-8c4 101 35 132 96 127c44 -3 83 -37 118 -50c40 -14 64 6 72 40h7c-3 -80 -26 -119 -85 -119z" />
    <glyph glyph-name="ij" unicode="&#x133;" horiz-adv-x="662" 
d="M250 13h56v-13h-276v13h56v501h-56v13h220v-514zM168 567c-49 0 -89 39 -89 89c0 49 40 89 89 89s89 -40 89 -89c0 -50 -40 -89 -89 -89zM342 527h242v-354c0 -238 -49 -353 -258 -353v15c71 0 94 84 94 206v473h-78v13zM502 567c-49 0 -89 39 -89 89c0 49 40 89 89 89
c50 0 90 -40 90 -89c0 -50 -40 -89 -90 -89z" />
    <glyph glyph-name="dotlessi" unicode="&#x131;" horiz-adv-x="346" 
d="M250 13h56v-13h-276v13h56v501h-56v13h220v-514z" />
    <glyph glyph-name="jcircumflex" unicode="&#x135;" horiz-adv-x="335" 
d="M17 527h242v-354c0 -238 -49 -353 -258 -353v15c71 0 94 84 94 206v473h-78v13zM207 770l131 -147l-7 -7l-167 69l-167 -69l-7 7l131 147h86z" />
    <glyph glyph-name="kcommaaccent" unicode="&#x137;" horiz-adv-x="673" 
d="M607 13h61v-13h-285v13h52l-127 229l-58 -63v-166h56v-13h-276v13h56v674h-56v13h220v-505l167 184c70 77 52 128 -12 135v13h222v-13c-70 -17 -123 -56 -189 -128l-26 -29zM339 -48c48 0 86 -38 86 -86c0 -86 -86 -170 -128 -196l-5 9c37 27 73 85 82 108
c-8 -3 -23 -7 -35 -7c-48 0 -86 38 -86 86s38 86 86 86z" />
    <glyph glyph-name="kgreenlandic" unicode="&#x138;" horiz-adv-x="673" 
d="M607 13h61v-13h-285v13h52l-127 229l-58 -63v-166h56v-13h-276v13h56v501h-56v13h276v-13h-56v-319l167 184c70 77 52 128 -12 135v13h222v-13c-70 -17 -123 -56 -189 -128l-26 -29z" />
    <glyph glyph-name="lacute" unicode="&#x13a;" horiz-adv-x="346" 
d="M250 13h56v-13h-276v13h56v674h-56v13h220v-687zM260 928c20 -20 11 -50 -23 -83c-47 -47 -135 -81 -135 -81l-7 6s34 89 81 136c33 33 64 42 84 22z" />
    <glyph glyph-name="lcaron" unicode="&#x13e;" horiz-adv-x="538" 
d="M250 13h56v-13h-276v13h56v674h-56v13h220v-687zM432 704c48 0 86 -38 86 -86c0 -86 -86 -170 -128 -196l-5 10c37 27 73 84 82 107c-8 -3 -23 -7 -35 -7c-48 0 -86 39 -86 86c0 48 38 86 86 86z" />
    <glyph glyph-name="lcommaaccent" unicode="&#x13c;" horiz-adv-x="346" 
d="M250 13h56v-13h-276v13h56v674h-56v13h220v-687zM168 -48c48 0 86 -38 86 -86c0 -86 -86 -170 -128 -196l-5 9c37 27 73 85 82 108c-8 -3 -23 -7 -35 -7c-48 0 -86 38 -86 86s38 86 86 86z" />
    <glyph glyph-name="ldot" unicode="&#x140;" horiz-adv-x="482" 
d="M250 13h56v-13h-276v13h56v674h-56v13h220v-687zM389 386c46 0 83 -37 83 -83s-37 -83 -83 -83s-83 37 -83 83s37 83 83 83z" />
    <glyph glyph-name="nacute" unicode="&#x144;" 
d="M703 13v-13h-220h-56v13h56v346c0 68 -49 109 -123 98c-59 -9 -110 -57 -110 -108v-336h57v-13h-277v13h56v501h-56v13h220v-139c49 93 122 152 213 152c138 0 184 -86 184 -190v-337h56zM449 759c20 -20 11 -50 -23 -83c-47 -47 -135 -81 -135 -81l-7 6s34 89 81 136
c33 33 64 42 84 22z" />
    <glyph glyph-name="napostrophe" unicode="&#x149;" horiz-adv-x="946" 
d="M906 13v-13h-220h-56v13h56v346c0 68 -49 109 -123 98c-59 -9 -110 -57 -110 -108v-336h57v-13h-277v13h56v501h-56v13h220v-139c49 93 122 152 213 152c138 0 184 -86 184 -190v-337h56zM96 530c48 0 86 -38 86 -86c0 -86 -86 -170 -128 -196l-5 9c37 27 73 85 82 108
c-8 -3 -23 -7 -35 -7c-48 0 -86 38 -86 86s38 86 86 86z" />
    <glyph glyph-name="ncaron" unicode="&#x148;" 
d="M703 13v-13h-220h-56v13h56v346c0 68 -49 109 -123 98c-59 -9 -110 -57 -110 -108v-336h57v-13h-277v13h56v501h-56v13h220v-139c49 93 122 152 213 152c138 0 184 -86 184 -190v-337h56zM543 770l7 -7l-131 -147h-86l-131 147l7 7l167 -68z" />
    <glyph glyph-name="ncommaaccent" unicode="&#x146;" 
d="M703 13v-13h-220h-56v13h56v346c0 68 -49 109 -123 98c-59 -9 -110 -57 -110 -108v-336h57v-13h-277v13h56v501h-56v13h220v-139c49 93 122 152 213 152c138 0 184 -86 184 -190v-337h56zM366 -48c48 0 86 -38 86 -86c0 -86 -86 -170 -128 -196l-5 9c37 27 73 85 82 108
c-8 -3 -23 -7 -35 -7c-48 0 -86 38 -86 86s38 86 86 86z" />
    <glyph glyph-name="ntilde" unicode="&#xf1;" 
d="M703 13v-13h-220h-56v13h56v346c0 68 -49 109 -123 98c-59 -9 -110 -57 -110 -108v-336h57v-13h-277v13h56v501h-56v13h220v-139c49 93 122 152 213 152c138 0 184 -86 184 -190v-337h56zM438 631c-40 0 -71 20 -107 40c-51 28 -85 -1 -93 -38h-8c4 101 35 132 96 127
c44 -3 83 -37 118 -50c40 -14 64 6 72 40h7c-3 -80 -26 -119 -85 -119z" />
    <glyph glyph-name="oacute" unicode="&#xf3;" horiz-adv-x="672" 
d="M334 540c153 0 303 -84 303 -274c0 -189 -150 -273 -303 -273s-304 84 -304 273c0 190 151 274 304 274zM334 5c88 0 132 113 132 261s-44 261 -132 261s-132 -113 -132 -261s44 -261 132 -261zM426 759c20 -20 11 -50 -23 -83c-47 -47 -135 -81 -135 -81l-7 6
s34 89 81 136c33 33 64 42 84 22z" />
    <glyph glyph-name="obreve" unicode="&#x14f;" horiz-adv-x="672" 
d="M334 540c153 0 303 -84 303 -274c0 -189 -150 -273 -303 -273s-304 84 -304 273c0 190 151 274 304 274zM334 5c88 0 132 113 132 261s-44 261 -132 261s-132 -113 -132 -261s44 -261 132 -261zM462 770h10c0 -98 -51 -155 -139 -155s-139 57 -139 155h10
c13 -48 63 -78 129 -78s116 30 129 78z" />
    <glyph glyph-name="ocircumflex" unicode="&#xf4;" horiz-adv-x="672" 
d="M334 540c153 0 303 -84 303 -274c0 -189 -150 -273 -303 -273s-304 84 -304 273c0 190 151 274 304 274zM334 5c88 0 132 113 132 261s-44 261 -132 261s-132 -113 -132 -261s44 -261 132 -261zM376 770l131 -147l-7 -7l-167 69l-167 -69l-7 7l131 147h86z" />
    <glyph glyph-name="odieresis" unicode="&#xf6;" horiz-adv-x="672" 
d="M334 540c153 0 303 -84 303 -274c0 -189 -150 -273 -303 -273s-304 84 -304 273c0 190 151 274 304 274zM334 5c88 0 132 113 132 261s-44 261 -132 261s-132 -113 -132 -261s44 -261 132 -261zM229 776c46 0 83 -37 83 -83s-37 -83 -83 -83s-83 37 -83 83s37 83 83 83z
M437 776c46 0 83 -37 83 -83s-37 -83 -83 -83s-83 37 -83 83s37 83 83 83z" />
    <glyph glyph-name="ograve" unicode="&#xf2;" horiz-adv-x="672" 
d="M334 540c153 0 303 -84 303 -274c0 -189 -150 -273 -303 -273s-304 84 -304 273c0 190 151 274 304 274zM334 5c88 0 132 113 132 261s-44 261 -132 261s-132 -113 -132 -261s44 -261 132 -261zM364 737c47 -47 82 -136 82 -136l-7 -6s-89 34 -136 81
c-33 33 -42 63 -22 83s50 11 83 -22z" />
    <glyph glyph-name="ohungarumlaut" unicode="&#x151;" horiz-adv-x="672" 
d="M334 540c153 0 303 -84 303 -274c0 -189 -150 -273 -303 -273s-304 84 -304 273c0 190 151 274 304 274zM334 5c88 0 132 113 132 261s-44 261 -132 261s-132 -113 -132 -261s44 -261 132 -261zM281 737c33 33 63 42 83 22s11 -50 -22 -83c-47 -47 -135 -81 -135 -81
l-7 6s34 89 81 136zM547 759c20 -20 11 -50 -22 -83c-47 -47 -136 -81 -136 -81l-6 6s34 89 81 136c33 33 63 42 83 22z" />
    <glyph glyph-name="omacron" unicode="&#x14d;" horiz-adv-x="672" 
d="M334 540c153 0 303 -84 303 -274c0 -189 -150 -273 -303 -273s-304 84 -304 273c0 190 151 274 304 274zM334 5c88 0 132 113 132 261s-44 261 -132 261s-132 -113 -132 -261s44 -261 132 -261zM173 697h321v-48h-321v48z" />
    <glyph glyph-name="oslashacute" unicode="&#x1ff;" horiz-adv-x="672" 
d="M551 467c52 -45 86 -111 86 -201c0 -189 -151 -273 -303 -273c-74 0 -147 20 -203 61l-54 -54h-22l64 63c-53 45 -89 112 -89 203c0 190 151 274 304 274c75 0 149 -21 206 -64l51 51h21zM202 266c0 -40 3 -78 10 -112l241 237c-19 83 -58 136 -119 136
c-89 0 -132 -113 -132 -261zM334 5c88 0 132 113 132 261c0 39 -3 75 -9 108l-242 -237c20 -80 59 -132 119 -132zM426 759c20 -20 11 -50 -23 -83c-47 -47 -135 -81 -135 -81l-7 6s34 89 81 136c33 33 64 42 84 22z" />
    <glyph glyph-name="otilde" unicode="&#xf5;" horiz-adv-x="672" 
d="M334 540c153 0 303 -84 303 -274c0 -189 -150 -273 -303 -273s-304 84 -304 273c0 190 151 274 304 274zM334 5c88 0 132 113 132 261s-44 261 -132 261s-132 -113 -132 -261s44 -261 132 -261zM395 631c-40 0 -71 20 -107 40c-51 28 -85 -1 -93 -38h-8
c4 101 35 132 96 127c44 -3 83 -37 118 -50c40 -14 64 6 72 40h7c-3 -80 -26 -119 -85 -119z" />
    <glyph glyph-name="racute" unicode="&#x155;" horiz-adv-x="549" 
d="M426 540c43 0 88 -24 103 -45l-83 -139h-9c-16 54 -55 108 -120 86c-31 -11 -66 -67 -66 -118v-311h89v-13h-310v13h57v501h-57v13h221v-147c32 97 83 160 175 160zM362 759c20 -20 11 -50 -23 -83c-47 -47 -135 -81 -135 -81l-7 6s34 89 81 136c33 33 64 42 84 22z" />
    <glyph glyph-name="rcaron" unicode="&#x159;" horiz-adv-x="549" 
d="M426 540c43 0 88 -24 103 -45l-83 -139h-9c-16 54 -55 108 -120 86c-31 -11 -66 -67 -66 -118v-311h89v-13h-310v13h57v501h-57v13h221v-147c32 97 83 160 175 160zM446 770l7 -7l-131 -147h-86l-131 147l7 7l167 -68z" />
    <glyph glyph-name="rcommaaccent" unicode="&#x157;" horiz-adv-x="549" 
d="M426 540c43 0 88 -24 103 -45l-83 -139h-9c-16 54 -55 108 -120 86c-31 -11 -66 -67 -66 -118v-311h89v-13h-310v13h57v501h-57v13h221v-147c32 97 83 160 175 160zM168 -48c48 0 86 -38 86 -86c0 -86 -86 -170 -128 -196l-5 9c37 27 73 85 82 108c-8 -3 -23 -7 -35 -7
c-48 0 -86 38 -86 86s38 86 86 86z" />
    <glyph glyph-name="sacute" unicode="&#x15b;" horiz-adv-x="505" 
d="M170 454c0 -61 101 -110 169 -146c97 -51 144 -90 127 -181c-22 -123 -156 -134 -229 -134c-56 0 -125 15 -207 37v176h10c84 -166 138 -194 189 -201c45 -7 97 6 101 62c4 71 -88 107 -156 145c-77 43 -136 89 -131 174c9 147 152 154 206 154c50 0 130 -19 196 -37
v-160h-10c-76 150 -123 185 -188 185c-38 0 -77 -22 -77 -74zM322 759c20 -20 11 -50 -23 -83c-47 -47 -135 -81 -135 -81l-7 6s34 89 81 136c33 33 64 42 84 22z" />
    <glyph glyph-name="scaron" unicode="&#x161;" horiz-adv-x="505" 
d="M170 454c0 -61 101 -110 169 -146c97 -51 144 -90 127 -181c-22 -123 -156 -134 -229 -134c-56 0 -125 15 -207 37v176h10c84 -166 138 -194 189 -201c45 -7 97 6 101 62c4 71 -88 107 -156 145c-77 43 -136 89 -131 174c9 147 152 154 206 154c50 0 130 -19 196 -37
v-160h-10c-76 150 -123 185 -188 185c-38 0 -77 -22 -77 -74zM417 770l7 -7l-131 -147h-86l-131 147l7 7l167 -68z" />
    <glyph glyph-name="scircumflex" unicode="&#x15d;" horiz-adv-x="505" 
d="M170 454c0 -61 101 -110 169 -146c97 -51 144 -90 127 -181c-22 -123 -156 -134 -229 -134c-56 0 -125 15 -207 37v176h10c84 -166 138 -194 189 -201c45 -7 97 6 101 62c4 71 -88 107 -156 145c-77 43 -136 89 -131 174c9 147 152 154 206 154c50 0 130 -19 196 -37
v-160h-10c-76 150 -123 185 -188 185c-38 0 -77 -22 -77 -74zM293 770l131 -147l-7 -7l-167 69l-167 -69l-7 7l131 147h86z" />
    <glyph glyph-name="scommaaccent" unicode="&#x219;" horiz-adv-x="505" 
d="M170 454c0 -61 101 -110 169 -146c97 -51 144 -90 127 -181c-22 -123 -156 -134 -229 -134c-56 0 -125 15 -207 37v176h10c84 -166 138 -194 189 -201c45 -7 97 6 101 62c4 71 -88 107 -156 145c-77 43 -136 89 -131 174c9 147 152 154 206 154c50 0 130 -19 196 -37
v-160h-10c-76 150 -123 185 -188 185c-38 0 -77 -22 -77 -74zM250 -48c48 0 86 -38 86 -86c0 -86 -86 -170 -128 -196l-5 9c37 27 73 85 82 108c-8 -3 -23 -7 -35 -7c-48 0 -86 38 -86 86s38 86 86 86z" />
    <glyph glyph-name="tcaron" unicode="&#x165;" horiz-adv-x="602" 
d="M379 87l11 -9c-34 -50 -74 -85 -156 -85c-105 0 -147 69 -147 171v350h-57v13h57l154 160h10v-160h122v-13h-122v-372c0 -77 39 -88 64 -88c21 0 39 6 64 33zM496 704c48 0 86 -38 86 -86c0 -86 -86 -170 -128 -196l-5 10c37 27 73 84 82 107c-8 -3 -23 -7 -35 -7
c-48 0 -86 39 -86 86c0 48 38 86 86 86z" />
    <glyph glyph-name="tcommaaccent" unicode="&#x163;" horiz-adv-x="400" 
d="M379 87l11 -9c-34 -50 -74 -85 -156 -85c-105 0 -147 69 -147 171v350h-57v13h57l154 160h10v-160h122v-13h-122v-372c0 -77 39 -88 64 -88c21 0 39 6 64 33zM210 -48c48 0 86 -38 86 -86c0 -86 -86 -170 -128 -196l-5 9c37 27 73 85 82 108c-8 -3 -23 -7 -35 -7
c-48 0 -86 38 -86 86s38 86 86 86z" />
    <glyph glyph-name="uacute" unicode="&#xfa;" 
d="M647 13h56v-13h-220v145c-49 -93 -129 -152 -220 -152c-139 0 -177 86 -177 190v331h-56v13h220v-353c0 -68 41 -109 115 -98c59 8 118 57 118 108v330h-56v13h220v-514zM429 759c20 -20 11 -50 -23 -83c-47 -47 -135 -81 -135 -81l-7 6s34 89 81 136c33 33 64 42 84 22z
" />
    <glyph glyph-name="ubreve" unicode="&#x16d;" 
d="M647 13h56v-13h-220v145c-49 -93 -129 -152 -220 -152c-139 0 -177 86 -177 190v331h-56v13h220v-353c0 -68 41 -109 115 -98c59 8 118 57 118 108v330h-56v13h220v-514zM485 770h10c0 -98 -51 -155 -139 -155s-139 57 -139 155h10c13 -48 63 -78 129 -78s116 30 129 78z
" />
    <glyph glyph-name="ucircumflex" unicode="&#xfb;" 
d="M647 13h56v-13h-220v145c-49 -93 -129 -152 -220 -152c-139 0 -177 86 -177 190v331h-56v13h220v-353c0 -68 41 -109 115 -98c59 8 118 57 118 108v330h-56v13h220v-514zM399 770l131 -147l-7 -7l-167 69l-167 -69l-7 7l131 147h86z" />
    <glyph glyph-name="udieresis" unicode="&#xfc;" 
d="M647 13h56v-13h-220v145c-49 -93 -129 -152 -220 -152c-139 0 -177 86 -177 190v331h-56v13h220v-353c0 -68 41 -109 115 -98c59 8 118 57 118 108v330h-56v13h220v-514zM252 776c46 0 83 -37 83 -83s-37 -83 -83 -83s-83 37 -83 83s37 83 83 83zM460 776
c46 0 83 -37 83 -83s-37 -83 -83 -83s-83 37 -83 83s37 83 83 83z" />
    <glyph glyph-name="uhungarumlaut" unicode="&#x171;" 
d="M647 13h56v-13h-220v145c-49 -93 -129 -152 -220 -152c-139 0 -177 86 -177 190v331h-56v13h220v-353c0 -68 41 -109 115 -98c59 8 118 57 118 108v330h-56v13h220v-514zM314 737c33 33 63 42 83 22s11 -50 -22 -83c-47 -47 -135 -81 -135 -81l-7 6s34 89 81 136z
M580 759c20 -20 11 -50 -22 -83c-47 -47 -136 -81 -136 -81l-6 6s34 89 81 136c33 33 63 42 83 22z" />
    <glyph glyph-name="ugrave" unicode="&#xf9;" 
d="M647 13h56v-13h-220v145c-49 -93 -129 -152 -220 -152c-139 0 -177 86 -177 190v331h-56v13h220v-353c0 -68 41 -109 115 -98c59 8 118 57 118 108v330h-56v13h220v-514zM377 737c47 -47 82 -136 82 -136l-7 -6s-89 34 -136 81c-33 33 -42 63 -22 83s50 11 83 -22z" />
    <glyph glyph-name="umacron" unicode="&#x16b;" 
d="M647 13h56v-13h-220v145c-49 -93 -129 -152 -220 -152c-139 0 -177 86 -177 190v331h-56v13h220v-353c0 -68 41 -109 115 -98c59 8 118 57 118 108v330h-56v13h220v-514zM196 697h321v-48h-321v48z" />
    <glyph glyph-name="uring" unicode="&#x16f;" 
d="M647 13h56v-13h-220v145c-49 -93 -129 -152 -220 -152c-139 0 -177 86 -177 190v331h-56v13h220v-353c0 -68 41 -109 115 -98c59 8 118 57 118 108v330h-56v13h220v-514zM356 591c-56 0 -102 46 -102 102s46 102 102 102s102 -46 102 -102s-46 -102 -102 -102zM356 762
c-38 0 -69 -31 -69 -69s31 -69 69 -69s69 31 69 69s-31 69 -69 69z" />
    <glyph glyph-name="utilde" unicode="&#x169;" 
d="M647 13h56v-13h-220v145c-49 -93 -129 -152 -220 -152c-139 0 -177 86 -177 190v331h-56v13h220v-353c0 -68 41 -109 115 -98c59 8 118 57 118 108v330h-56v13h220v-514zM418 631c-40 0 -71 20 -107 40c-51 28 -85 -1 -93 -38h-8c4 101 35 132 96 127
c44 -3 83 -37 118 -50c40 -14 64 6 72 40h7c-3 -80 -26 -119 -85 -119z" />
    <glyph glyph-name="wacute" unicode="&#x1e83;" horiz-adv-x="966" 
d="M731 527h225v-13c-56 -17 -86 -68 -130 -175l-137 -339h-65l-155 364l-125 -364h-65l-217 514h-62v13h326v-13h-68l129 -348l125 361h70l151 -384l79 193c44 108 4 165 -81 178v13zM650 759c20 -20 11 -50 -23 -83c-47 -47 -135 -81 -135 -81l-7 6s34 89 81 136
c33 33 64 42 84 22z" />
    <glyph glyph-name="wcircumflex" unicode="&#x175;" horiz-adv-x="966" 
d="M731 527h225v-13c-56 -17 -86 -68 -130 -175l-137 -339h-65l-155 364l-125 -364h-65l-217 514h-62v13h326v-13h-68l129 -348l125 361h70l151 -384l79 193c44 108 4 165 -81 178v13zM591 770l131 -147l-7 -7l-167 69l-167 -69l-7 7l131 147h86z" />
    <glyph glyph-name="wdieresis" unicode="&#x1e85;" horiz-adv-x="966" 
d="M731 527h225v-13c-56 -17 -86 -68 -130 -175l-137 -339h-65l-155 364l-125 -364h-65l-217 514h-62v13h326v-13h-68l129 -348l125 361h70l151 -384l79 193c44 108 4 165 -81 178v13zM434 776c46 0 83 -37 83 -83s-37 -83 -83 -83s-83 37 -83 83s37 83 83 83zM642 776
c46 0 83 -37 83 -83s-37 -83 -83 -83s-83 37 -83 83s37 83 83 83z" />
    <glyph glyph-name="wgrave" unicode="&#x1e81;" horiz-adv-x="966" 
d="M731 527h225v-13c-56 -17 -86 -68 -130 -175l-137 -339h-65l-155 364l-125 -364h-65l-217 514h-62v13h326v-13h-68l129 -348l125 361h70l151 -384l79 193c44 108 4 165 -81 178v13zM518 737c47 -47 82 -136 82 -136l-7 -6s-89 34 -136 81c-33 33 -42 63 -22 83
s50 11 83 -22z" />
    <glyph glyph-name="yacute" unicode="&#xfd;" horiz-adv-x="663" 
d="M426 527h227v-13c-57 -17 -90 -71 -138 -179l-144 -328l-137 -290l-128 116v13l223 104l-266 564h-63v13h302v-13h-68l173 -395l97 222c44 103 5 160 -78 173v13zM439 759c20 -20 11 -50 -23 -83c-47 -47 -135 -81 -135 -81l-7 6s34 89 81 136c33 33 64 42 84 22z" />
    <glyph glyph-name="ycircumflex" unicode="&#x177;" horiz-adv-x="663" 
d="M426 527h227v-13c-57 -17 -90 -71 -138 -179l-144 -328l-137 -290l-128 116v13l223 104l-266 564h-63v13h302v-13h-68l173 -395l97 222c44 103 5 160 -78 173v13zM399 770l131 -147l-7 -7l-167 69l-167 -69l-7 7l131 147h86z" />
    <glyph glyph-name="ydieresis" unicode="&#xff;" horiz-adv-x="663" 
d="M426 527h227v-13c-57 -17 -90 -71 -138 -179l-144 -328l-137 -290l-128 116v13l223 104l-266 564h-63v13h302v-13h-68l173 -395l97 222c44 103 5 160 -78 173v13zM252 776c46 0 83 -37 83 -83s-37 -83 -83 -83s-83 37 -83 83s37 83 83 83zM460 776c46 0 83 -37 83 -83
s-37 -83 -83 -83s-83 37 -83 83s37 83 83 83z" />
    <glyph glyph-name="ygrave" unicode="&#x1ef3;" horiz-adv-x="663" 
d="M426 527h227v-13c-57 -17 -90 -71 -138 -179l-144 -328l-137 -290l-128 116v13l223 104l-266 564h-63v13h302v-13h-68l173 -395l97 222c44 103 5 160 -78 173v13zM327 737c47 -47 82 -136 82 -136l-7 -6s-89 34 -136 81c-33 33 -42 63 -22 83s50 11 83 -22z" />
    <glyph glyph-name="zacute" unicode="&#x17a;" horiz-adv-x="542" 
d="M507 527v-13l-301 -493h130c127 0 143 78 154 178h13v-199h-473v13l296 492h-106c-126 0 -155 -79 -166 -180h-13v202h466zM381 759c20 -20 11 -50 -23 -83c-47 -47 -135 -81 -135 -81l-7 6s34 89 81 136c33 33 64 42 84 22z" />
    <glyph glyph-name="zcaron" unicode="&#x17e;" horiz-adv-x="542" 
d="M507 527v-13l-301 -493h130c127 0 143 78 154 178h13v-199h-473v13l296 492h-106c-126 0 -155 -79 -166 -180h-13v202h466zM455 770l7 -7l-131 -147h-86l-131 147l7 7l167 -68z" />
    <glyph glyph-name="zdotaccent" unicode="&#x17c;" horiz-adv-x="542" 
d="M507 527v-13l-301 -493h130c127 0 143 78 154 178h13v-199h-473v13l296 492h-106c-126 0 -155 -79 -166 -180h-13v202h466zM288 776c46 0 83 -37 83 -83s-37 -83 -83 -83s-83 37 -83 83s37 83 83 83z" />
    <glyph glyph-name="ellipsis" unicode="&#x2026;" horiz-adv-x="796" 
d="M126 166c48 0 86 -39 86 -86c0 -48 -38 -87 -86 -87c-47 0 -86 39 -86 87c0 47 39 86 86 86zM398 166c48 0 86 -39 86 -86c0 -48 -38 -87 -86 -87c-47 0 -86 39 -86 87c0 47 39 86 86 86zM670 166c48 0 86 -39 86 -86c0 -48 -38 -87 -86 -87c-47 0 -86 39 -86 87
c0 47 39 86 86 86z" />
    <glyph glyph-name="perthousand" unicode="&#x2030;" horiz-adv-x="1268" 
d="M397 532c0 -100 -72 -173 -178 -173c-107 0 -179 73 -179 173s72 171 179 171c106 0 178 -71 178 -171zM155 532c0 -104 23 -161 64 -161c40 0 63 57 63 161c0 103 -23 160 -63 160c-41 0 -64 -57 -64 -160zM633 339c106 0 178 -73 178 -173s-72 -173 -178 -173
c-107 0 -179 73 -179 173s72 173 179 173zM633 4c40 0 63 59 63 162c0 104 -23 161 -63 161c-41 0 -64 -57 -64 -161c0 -103 23 -162 64 -162zM679 701h22l-536 -700h-22zM1050 339c106 0 178 -73 178 -173s-72 -173 -178 -173c-107 0 -179 73 -179 173s72 173 179 173z
M1050 4c40 0 63 59 63 162c0 104 -23 161 -63 161c-41 0 -64 -57 -64 -161c0 -103 23 -162 64 -162z" />
    <glyph glyph-name="bullet" unicode="&#x2022;" horiz-adv-x="252" 
d="M126 532c48 0 86 -39 86 -86c0 -48 -38 -87 -86 -87c-47 0 -86 39 -86 87c0 47 39 86 86 86z" />
    <glyph glyph-name="fraction" unicode="&#x2044;" horiz-adv-x="376" 
d="M287 700h49l-248 -778h-48z" />
    <glyph glyph-name="A" unicode="A" horiz-adv-x="788" 
d="M719 13h64v-13h-314v13h57l-96 205h-266l-23 -59c-30 -75 4 -135 64 -146v-13h-200v13c40 12 91 67 123 147l216 540h47zM170 231h254l-138 291z" />
    </font>
</defs>
</svg>
