<?xml version="1.0" standalone="no"?>
<!DOCTYPE svg PUBLIC "-//W3C//DTD SVG 1.1//EN" "http://www.w3.org/Graphics/SVG/1.1/DTD/svg11.dtd" >
<svg xmlns="http://www.w3.org/2000/svg" xmlns:xlink="http://www.w3.org/1999/xlink" version="1.1">
<metadata>
Created by FontForge 20191125 at Mon Apr 29 12:20:12 2019
 By convertio
Copyright \(c\) 2019 by MadeType. All rights reserved.
</metadata>
<defs>
<font id="MADECoachella-Black" horiz-adv-x="371" >
  <font-face 
    font-family="MADE Coachella"
    font-weight="900"
    font-stretch="normal"
    units-per-em="1000"
    panose-1="2 0 5 3 0 0 0 2 0 4"
    ascent="800"
    descent="-200"
    x-height="527"
    cap-height="700"
    bbox="-20 -388 1275 956"
    underline-thickness="50"
    underline-position="-100"
    unicode-range="U+0020-F6C3"
  />
<missing-glyph horiz-adv-x="350" 
 />
    <glyph glyph-name=".notdef" horiz-adv-x="350" 
 />
    <glyph glyph-name="B" unicode="B" horiz-adv-x="743" 
d="M452 372c154 8 281 -49 281 -183c0 -159 -140 -189 -304 -189h-419v13h65v674h-65v13h361c165 0 304 -32 304 -173c0 -100 -118 -147 -223 -151v-4zM336 679h-7v-306h7c86 0 96 82 96 154c0 73 -13 152 -96 152zM377 22c86 0 104 82 104 167c0 86 -18 171 -104 171h-48
v-338h48z" />
    <glyph glyph-name="C" unicode="C" horiz-adv-x="728" 
d="M704 159l14 -12c-40 -66 -134 -154 -296 -154c-211 0 -412 102 -412 355s219 355 424 355c90 0 173 -21 269 -57v-267h-17c-104 198 -161 308 -236 308c-98 0 -181 -137 -162 -339c15 -161 119 -266 234 -268c100 -2 150 40 182 79z" />
    <glyph glyph-name="D" unicode="D" horiz-adv-x="817" 
d="M807 350c0 -252 -177 -350 -466 -350h-331v13h65v674h-65v13h331c289 0 466 -98 466 -350zM361 22c138 0 170 128 170 328s-32 329 -170 329h-32v-657h32z" />
    <glyph glyph-name="E" unicode="E" horiz-adv-x="651" 
d="M621 300h15v-300h-626v13h65v674h-65v13h609v-300h-15c-18 134 -87 279 -254 279h-20v-322h11c103 0 141 46 157 131h13v-274h-13c-16 84 -54 130 -157 130h-11v-322h37c167 0 236 145 254 278z" />
    <glyph glyph-name="F" unicode="F" horiz-adv-x="634" 
d="M10 700h609v-300h-15c-18 134 -86 279 -254 279h-20v-330h11c103 0 141 46 157 130h13v-273h-13c-16 84 -54 130 -157 130h-11v-323h97v-13h-417v13h65v674h-65v13z" />
    <glyph glyph-name="G" unicode="G" horiz-adv-x="769" 
d="M774 321v-13h-64v-308h-14v50c-74 -32 -168 -57 -243 -57c-241 0 -443 112 -443 355c0 233 194 355 443 355c80 0 144 -16 219 -42v-240h-17c-75 156 -128 266 -202 266c-104 0 -168 -118 -168 -339s65 -322 168 -332c12 -1 23 0 35 3v289h-73v13h359z" />
    <glyph glyph-name="H" unicode="H" horiz-adv-x="830" 
d="M820 687h-64v-674h64v-13h-384v13h65v323h-172v-323h65v-13h-384v13h65v674h-65v13h384v-13h-65v-330h172v330h-65v13h384v-13z" />
    <glyph glyph-name="I" unicode="I" horiz-adv-x="404" 
d="M394 687h-64v-674h64v-13h-384v13h65v674h-65v13h384v-13z" />
    <glyph glyph-name="J" unicode="J" horiz-adv-x="611" 
d="M601 700v-13h-65v-406c0 -225 -102 -288 -324 -288c-77 0 -128 12 -202 41v258h14c82 -162 133 -284 188 -284c53 0 69 60 69 182v497h-97v13h417z" />
    <glyph glyph-name="K" unicode="K" horiz-adv-x="889" 
d="M822 13h72v-13h-417v13h57l-179 296l-26 -26v-270h65v-13h-384v13h65v674h-65v13h384v-13h-65v-382l187 189c112 114 53 187 -36 193v13h326v-13c-93 -23 -177 -100 -268 -192l-9 -9z" />
    <glyph glyph-name="L" unicode="L" horiz-adv-x="665" 
d="M634 300h16v-300h-640v13h64v674h-64v13h384v-13h-65v-665h52c167 0 236 145 253 278z" />
    <glyph glyph-name="M" unicode="M" horiz-adv-x="975" 
d="M965 687h-65v-674h65v-13h-384v13h64v633l-201 -646h-31l-259 602v-349c0 -103 46 -224 130 -240v-13h-274v13c85 16 131 137 131 240v379l-24 55h-70v13h342l144 -361l112 361h320v-13z" />
    <glyph glyph-name="N" unicode="N" horiz-adv-x="828" 
d="M528 700h290v-13c-84 -16 -130 -136 -130 -239v-448h-93l-442 559v-306c0 -103 62 -224 147 -240v-13h-290v13c84 16 130 137 130 240v322l-88 112h-34v13h340l317 -399v147c0 103 -63 223 -147 239v13z" />
    <glyph glyph-name="O" unicode="O" horiz-adv-x="823" 
d="M412 703c230 0 401 -130 401 -355c0 -224 -171 -355 -401 -355s-402 131 -402 355c0 225 172 355 402 355zM412 5c91 0 127 107 127 345s-36 342 -127 342c-92 0 -127 -104 -127 -342s35 -345 127 -345z" />
    <glyph glyph-name="P" unicode="P" horiz-adv-x="701" 
d="M395 256h-66v-243h98v-13h-417v13h64v674h-64v13h385c165 0 296 -50 296 -222s-131 -222 -296 -222zM329 679v-410h15c90 0 110 112 110 209c0 111 -23 201 -110 201h-15z" />
    <glyph glyph-name="Q" unicode="Q" horiz-adv-x="823" 
d="M813 348c0 -224 -171 -355 -401 -355l350 -141v-15l-276 -136l-150 270v6c80 29 203 52 203 371c0 241 -36 344 -127 344c-92 0 -127 -103 -127 -344c0 -195 21 -303 118 -317v-10c-230 0 -393 103 -393 327c0 225 172 355 402 355s401 -130 401 -355z" />
    <glyph glyph-name="R" unicode="R" horiz-adv-x="774" 
d="M707 179v-41c0 -27 11 -43 36 -43c26 0 34 26 34 53h12c0 -150 -115 -155 -154 -155c-99 0 -170 43 -170 154v64c0 95 -48 127 -110 127h-26v-325h65v-13h-384v13h64v674h-64v13h377c165 0 304 -30 304 -189c0 -103 -88 -151 -228 -159v-3c182 0 244 -53 244 -170z
M344 351c86 0 107 77 107 160s-21 168 -107 168h-15v-328h15z" />
    <glyph glyph-name="S" unicode="S" horiz-adv-x="613" 
d="M214 577c9 -129 404 -111 388 -376c-8 -138 -118 -208 -310 -208c-81 0 -196 17 -269 44v231h14c80 -154 163 -260 245 -260c60 0 93 29 99 80c21 168 -376 126 -360 408c7 130 90 207 306 207c60 0 151 -19 218 -44v-213h-14c-79 136 -128 241 -217 241
c-62 0 -105 -34 -100 -110z" />
    <glyph glyph-name="T" unicode="T" horiz-adv-x="720" 
d="M10 700h700v-300h-13c-11 88 -55 271 -209 278v-665h64v-13h-384v13h65v665c-155 -7 -198 -190 -210 -278h-13v300z" />
    <glyph glyph-name="U" unicode="U" horiz-adv-x="780" 
d="M596 700h174v-13c-48 -13 -80 -54 -80 -157v-231c0 -180 -94 -306 -289 -306c-194 0 -327 108 -327 306v388h-64v13h384v-13h-65v-388c0 -153 66 -224 175 -224c100 0 173 79 173 224v231c0 103 -30 144 -81 157v13z" />
    <glyph glyph-name="V" unicode="V" horiz-adv-x="796" 
d="M602 700h199v-13c-40 -12 -91 -66 -123 -146l-216 -541h-47l-356 687h-64v13h400v-13h-57l213 -431l114 286c30 74 -4 134 -63 145v13z" />
    <glyph glyph-name="W" unicode="W" horiz-adv-x="1151" 
d="M888 700h268v-13c-58 -17 -122 -85 -161 -200l-166 -487h-97l-177 452l-143 -452h-97l-259 687h-61v13h408v-13h-60l142 -405l133 418h129l158 -437l75 220c37 107 -8 191 -92 204v13z" />
    <glyph glyph-name="X" unicode="X" horiz-adv-x="824" 
d="M750 13h64v-13h-392v13h65l-160 261l-66 -94c-64 -92 -53 -157 33 -167v-13h-265v13c57 17 150 68 219 167l73 105l-247 402h-64v13h392v-13h-65l146 -238l50 71c64 92 54 157 -32 167v13h265v-13c-57 -17 -152 -70 -221 -169l-55 -80z" />
    <glyph glyph-name="Y" unicode="Y" horiz-adv-x="770" 
d="M509 700h266v-13c-58 -17 -113 -65 -163 -176l-97 -215v-283h64v-13h-384v13h65v285l-202 389h-63v13h401v-13h-67l178 -369l88 191c47 103 -1 172 -86 178v13z" />
    <glyph glyph-name="Z" unicode="Z" horiz-adv-x="671" 
d="M661 700v-13l-376 -665h101c167 0 221 128 238 262h18v-284h-632v13l368 666h-68c-168 0 -239 -129 -256 -262h-17v283h624z" />
    <glyph glyph-name="a" unicode="a" horiz-adv-x="630" 
d="M637 89l13 -11c-18 -34 -73 -85 -157 -85c-87 0 -139 24 -152 79c-26 -38 -72 -79 -145 -79c-91 0 -186 44 -186 158c0 191 210 176 328 180v96c0 46 0 100 -41 100c-33 0 -92 -60 -201 -204h-12v181c76 23 155 36 224 36c128 0 268 -38 268 -177v-221
c0 -71 11 -79 28 -79c13 0 23 13 33 26zM231 181c0 -82 43 -142 107 -93v14v217c-82 4 -107 -40 -107 -138z" />
    <glyph glyph-name="b" unicode="b" horiz-adv-x="710" 
d="M472 540c111 5 228 -69 228 -263s-120 -284 -236 -284c-71 0 -125 16 -168 40l-214 -33h-16v687h-56v13h294v-285c25 64 82 120 168 125zM371 27c72 0 88 107 88 224c0 118 -16 206 -92 199c-31 -2 -50 -25 -63 -62v-341c20 -11 38 -20 67 -20z" />
    <glyph glyph-name="c" unicode="c" horiz-adv-x="581" 
d="M558 122l13 -11c-31 -50 -101 -118 -224 -118c-163 0 -337 78 -337 273c0 194 168 273 342 273c69 0 134 -16 208 -44v-205h-15c-81 152 -122 237 -180 237c-68 0 -108 -117 -97 -261c9 -124 76 -205 165 -207c64 -1 99 30 125 63z" />
    <glyph glyph-name="d" unicode="d" horiz-adv-x="710" 
d="M700 13v-13h-294v102c-29 -57 -84 -109 -166 -109c-116 0 -230 89 -230 274c0 184 114 273 230 273c82 0 137 -51 166 -109v256h-57v13h295v-687h56zM355 85c21 3 38 18 51 44v275c-13 26 -30 41 -51 44c-74 10 -99 -85 -99 -181c0 -97 25 -192 99 -182z" />
    <glyph glyph-name="e" unicode="e" horiz-adv-x="592" 
d="M321 539c165 0 270 -85 260 -273h-315c10 -124 65 -204 164 -207c63 -1 96 32 121 63l13 -11c-30 -51 -101 -118 -229 -118c-163 0 -325 83 -325 273s161 273 311 273zM368 288c5 132 0 239 -47 239c-41 0 -65 -101 -56 -239h103z" />
    <glyph glyph-name="f" unicode="f" horiz-adv-x="440" 
d="M313 716c-7 -1 -8 -9 -8 -125v-64h155v-13h-155v-501h97v-13h-392v13h57v501h-57v13h57v9c0 152 123 193 251 193c62 0 106 -12 142 -19v-161h-15c-95 128 -122 170 -132 167z" />
    <glyph glyph-name="g" unicode="g" horiz-adv-x="644" 
d="M369 177c162 0 265 -28 265 -156c0 -114 -108 -216 -323 -216c-190 0 -301 15 -301 88c0 54 71 79 127 91c-91 23 -123 71 -115 142c7 60 67 100 107 120c-48 27 -77 69 -77 128c0 115 112 166 260 166c41 0 79 -4 113 -12l189 172h15v-192h-146c55 -27 90 -70 90 -134
c0 -115 -113 -166 -261 -166c-57 0 -109 8 -152 24c-3 -8 -4 -16 -2 -25c7 -29 50 -30 211 -30zM312 525c-47 0 -53 -68 -53 -151s6 -151 53 -151s53 68 53 151s-6 151 -53 151zM312 -176c110 0 138 39 138 81c0 40 -34 62 -138 62c-39 0 -73 1 -103 4
c-29 -16 -49 -43 -49 -74c0 -50 51 -73 152 -73z" />
    <glyph glyph-name="h" unicode="h" horiz-adv-x="751" 
d="M741 13v-13h-351v13h57v354c0 60 -14 94 -62 90c-51 -4 -80 -82 -80 -133v-311h56v-13h-351v13h57v674h-57v13h295v-317c29 97 93 157 193 157c132 0 187 -85 187 -182v-345h56z" />
    <glyph glyph-name="i" unicode="i" 
d="M304 13h57v-13h-351v13h56v501h-56v13h294v-514zM185 564c-62 0 -112 50 -112 113c0 62 50 113 112 113c63 0 113 -51 113 -113c0 -63 -50 -113 -113 -113z" />
    <glyph glyph-name="j" unicode="j" horiz-adv-x="370" 
d="M-11 527h316v-378c0 -239 -87 -329 -325 -329v15c64 0 87 76 87 198v481h-78v13zM186 564c-62 0 -113 50 -113 113c0 62 51 113 113 113s113 -51 113 -113c0 -63 -51 -113 -113 -113z" />
    <glyph glyph-name="k" unicode="k" horiz-adv-x="727" 
d="M686 13h61v-13h-367v13h52l-113 216l-15 -16v-200h57v-13h-351v13h56v674h-56v13h294v-471l128 136c71 76 59 141 -6 149v13h246v-13c-64 -16 -137 -62 -200 -124z" />
    <glyph glyph-name="l" unicode="l" 
d="M305 13h56v-13h-351v13h57v674h-57v13h295v-687z" />
    <glyph glyph-name="m" unicode="m" horiz-adv-x="1131" 
d="M1121 13v-13h-351v13h57v354c0 60 -14 94 -62 90c-51 -4 -80 -82 -80 -133v-311h56v-13h-351v13h57v354c0 60 -14 94 -62 90c-51 -4 -80 -82 -80 -133v-311h56v-13h-351v13h57v501h-57v13h295v-144c29 97 93 157 193 157c123 0 179 -73 186 -161c0 1 1 2 1 4
c29 97 93 157 193 157c132 0 187 -85 187 -182v-345h56z" />
    <glyph glyph-name="n" unicode="n" horiz-adv-x="751" 
d="M741 13v-13h-351v13h56v354c0 60 -14 94 -61 90c-52 -4 -81 -82 -81 -133v-311h57v-13h-351v13h56v501h-56v13h294v-144c29 97 93 157 194 157c131 0 186 -85 186 -182v-345h57z" />
    <glyph glyph-name="o" unicode="o" horiz-adv-x="655" 
d="M328 540c163 0 317 -81 317 -274s-154 -273 -317 -273c-164 0 -318 80 -318 273s154 274 318 274zM328 5c64 0 74 117 74 261c0 145 -10 261 -74 261c-65 0 -75 -116 -75 -261c0 -144 10 -261 75 -261z" />
    <glyph glyph-name="p" unicode="p" horiz-adv-x="710" 
d="M470 540c116 0 230 -89 230 -274c0 -184 -114 -273 -230 -273c-82 0 -137 51 -166 109v-256h73v-13h-367v13h56v667h-56v14h294v-96c29 57 84 109 166 109zM355 85c74 -10 99 84 99 181s-25 192 -99 182c-21 -3 -37 -19 -51 -44v-275c14 -26 30 -41 51 -44z" />
    <glyph glyph-name="q" unicode="q" horiz-adv-x="710" 
d="M644 -154h56v-13h-367v13h73v272c-25 -64 -79 -125 -168 -125c-112 0 -228 69 -228 263s121 284 236 284c71 0 125 -16 168 -40l214 27h16v-681zM343 82c31 3 50 26 63 63v341c-20 11 -38 20 -66 20c-73 0 -89 -107 -89 -225c0 -117 17 -205 92 -199z" />
    <glyph glyph-name="r" unicode="r" horiz-adv-x="581" 
d="M468 540c39 0 87 -22 103 -43l-92 -166h-17c-20 39 -80 95 -124 71c-18 -10 -34 -27 -34 -78v-311h90v-13h-384v13h56v501h-56v13h294v-143c32 98 71 156 164 156z" />
    <glyph glyph-name="s" unicode="s" horiz-adv-x="504" 
d="M191 449c5 -46 76 -64 144 -95c101 -46 171 -81 156 -201c-20 -154 -178 -160 -260 -160c-64 0 -140 12 -221 34v199h16c96 -154 158 -215 204 -221c42 -6 69 17 68 66c0 50 -59 73 -129 105c-77 34 -151 74 -151 183c0 164 154 181 230 181c54 0 141 -17 207 -35v-182
h-17c-90 148 -144 204 -191 204c-39 0 -61 -32 -56 -78z" />
    <glyph glyph-name="t" unicode="t" horiz-adv-x="419" 
d="M412 92l12 -11c-34 -50 -102 -88 -192 -88c-105 0 -170 57 -170 158v363h-57v13h57l222 160h16v-160h106v-13h-106v-379c0 -71 26 -81 52 -81c18 0 35 8 60 38z" />
    <glyph glyph-name="u" unicode="u" horiz-adv-x="746" 
d="M679 13h57v-13h-295v145c-29 -98 -93 -152 -193 -152c-132 0 -187 79 -187 176v345h-56v13h294v-367c0 -60 14 -93 62 -90c51 4 80 82 80 133v311h-56v13h294v-514z" />
    <glyph glyph-name="v" unicode="v" horiz-adv-x="674" 
d="M428 527h251v-13c-57 -17 -113 -86 -160 -194l-140 -320h-89l-233 514h-62v13h384v-13h-68l137 -327l58 133c46 106 6 181 -78 194v13z" />
    <glyph glyph-name="w" unicode="w" horiz-adv-x="987" 
d="M741 527h251v-13c-57 -17 -109 -85 -154 -194l-130 -320h-89l-141 332l-114 -332h-90l-217 514h-62v13h393v-13h-68l107 -290l105 303h111l131 -332l51 124c44 108 0 182 -84 195v13z" />
    <glyph glyph-name="x" unicode="x" horiz-adv-x="702" 
d="M628 13h64v-13h-368v13h59l-115 180l-39 -58c-45 -67 -34 -111 30 -122v-13h-216v13c43 13 122 47 172 122l46 69l-198 310h-63v13h367v-13h-59l109 -170l33 49c47 69 30 114 -32 121v13h217v-13c-43 -13 -123 -50 -174 -125l-38 -56z" />
    <glyph glyph-name="y" unicode="y" horiz-adv-x="683" 
d="M436 527h252v-13c-57 -17 -113 -87 -161 -196l-137 -311l-161 -331l-161 157v13l258 101l-268 567h-63v13h384v-13h-68l141 -337s62 141 62 142c47 107 6 182 -78 195v13z" />
    <glyph glyph-name="z" unicode="z" horiz-adv-x="547" 
d="M537 527v-13l-278 -492h60c127 0 177 93 190 194h13v-216h-512v13l272 492h-36c-126 0 -189 -93 -202 -194h-13v216h506z" />
    <glyph glyph-name="space" unicode=" " horiz-adv-x="350" 
 />
    <glyph glyph-name="one" unicode="1" horiz-adv-x="388" 
d="M313 13h65v-13h-368v13h65v567h-65v13l284 107h19v-687z" />
    <glyph glyph-name="two" unicode="2" horiz-adv-x="555" 
d="M534 244h11v-244h-535v13c209 292 282 430 299 556c10 75 0 118 -43 118c-63 0 -122 -121 -201 -258h-14v230c67 22 152 44 212 44c211 0 286 -65 280 -194c-9 -194 -259 -277 -368 -320h359v55z" />
    <glyph glyph-name="three" unicode="3" horiz-adv-x="554" 
d="M293 373c172 10 253 -80 250 -177c-4 -133 -104 -203 -312 -203c-51 0 -153 20 -221 42v232h15c72 -139 151 -259 209 -259c47 0 63 63 58 181c-4 117 -32 166 -101 175v16c57 8 90 42 100 158c9 106 0 149 -45 149c-51 0 -110 -102 -188 -242h-15v217
c68 22 148 41 202 41c170 0 269 -50 267 -158c-2 -93 -83 -160 -219 -168v-4z" />
    <glyph glyph-name="four" unicode="4" horiz-adv-x="621" 
d="M626 180h-89v-167h64v-13h-367v13h64v167h-303v13c129 107 186 363 123 494v13h282c29 -295 -189 -462 -302 -507h200v108l226 242h13v-350h89v-13z" />
    <glyph glyph-name="five" unicode="5" horiz-adv-x="530" 
d="M56 376c316 128 469 -3 463 -158c-6 -133 -90 -225 -297 -225c-52 0 -144 20 -212 42v232h15c72 -139 137 -259 194 -259c41 0 63 60 59 181c-3 125 -51 201 -234 174l24 337h389v55h11v-244h-402z" />
    <glyph glyph-name="six" unicode="6" horiz-adv-x="615" 
d="M390 441c137 -10 215 -96 215 -212c0 -162 -131 -236 -288 -236c-179 0 -307 110 -307 315c0 273 140 395 341 395c52 0 128 -18 196 -39v-202h-15c-78 138 -138 225 -184 225c-48 0 -94 -38 -103 -281c29 21 89 39 145 35zM317 8c61 0 66 95 66 221
c0 111 -11 195 -139 163c-1 -26 -1 -54 -1 -84c0 -145 7 -300 74 -300z" />
    <glyph glyph-name="seven" unicode="7" horiz-adv-x="514" 
d="M10 700h494v-13c-81 -176 -147 -465 -147 -687h-252c0 227 142 412 322 511h-406v-55h-11v244z" />
    <glyph glyph-name="eight" unicode="8" horiz-adv-x="614" 
d="M378 373c161 -2 227 -79 225 -187c-2 -139 -123 -193 -296 -193s-294 54 -296 193c-2 108 64 185 225 187v4c-118 7 -186 66 -186 160c0 108 93 166 257 166s257 -58 257 -166c0 -94 -69 -153 -186 -160v-4zM307 687c-43 0 -61 -43 -61 -149c0 -117 18 -158 61 -158
s61 41 61 158c0 106 -18 149 -61 149zM307 8c46 0 70 57 70 181c0 117 -13 175 -70 175s-70 -58 -70 -175c0 -124 24 -181 70 -181z" />
    <glyph glyph-name="nine" unicode="9" horiz-adv-x="616" 
d="M298 703c180 0 308 -109 308 -314c0 -273 -140 -396 -342 -396c-52 0 -128 18 -195 40v202h14c79 -139 139 -227 185 -227c47 0 93 40 103 282c-30 -20 -89 -39 -145 -35c-138 10 -216 96 -216 212c0 162 132 236 288 236zM233 467c0 -111 11 -195 138 -163
c1 26 2 54 2 85c0 144 -7 298 -75 298c-61 0 -65 -94 -65 -220z" />
    <glyph glyph-name="zero" unicode="0" horiz-adv-x="646" 
d="M323 703c194 0 313 -130 313 -355c0 -224 -119 -355 -313 -355s-313 131 -313 355c0 225 119 355 313 355zM323 8c61 0 82 102 82 340c0 239 -21 339 -82 339s-82 -100 -82 -339c0 -238 21 -340 82 -340z" />
    <glyph glyph-name="grave" unicode="`" horiz-adv-x="203" 
d="M123 703c47 -47 70 -147 70 -147l-7 -7s-100 22 -147 70c-36 35 -37 69 -11 95c25 25 60 24 95 -11z" />
    <glyph glyph-name="acute" unicode="&#xb4;" horiz-adv-x="203" 
d="M175 714c25 -26 24 -60 -11 -95c-47 -48 -147 -70 -147 -70l-7 7s22 100 69 147c36 35 70 36 96 11z" />
    <glyph glyph-name="circumflex" unicode="&#x2c6;" horiz-adv-x="368" 
d="M239 719l119 -147l-7 -7l-167 57l-167 -57l-7 7l119 147h110z" />
    <glyph glyph-name="dotaccent" unicode="&#x2d9;" horiz-adv-x="206" 
d="M103 735c52 0 93 -42 93 -93s-41 -93 -93 -93c-51 0 -93 42 -93 93s42 93 93 93z" />
    <glyph glyph-name="dieresis" unicode="&#xa8;" horiz-adv-x="414" 
d="M103 735c52 0 93 -42 93 -93s-41 -93 -93 -93c-51 0 -93 42 -93 93s42 93 93 93zM311 735c52 0 93 -42 93 -93s-41 -93 -93 -93c-51 0 -93 42 -93 93s42 93 93 93z" />
    <glyph glyph-name="macron" unicode="&#xaf;" horiz-adv-x="341" 
d="M10 645h321v-65h-321v65z" />
    <glyph glyph-name="caron" unicode="&#x2c7;" horiz-adv-x="369" 
d="M352 719l7 -6l-119 -148h-111l-119 148l7 6l167 -56z" />
    <glyph glyph-name="breve" unicode="&#x2d8;" horiz-adv-x="298" 
d="M276 719h12c0 -98 -51 -159 -139 -159s-139 61 -139 159h11c12 -42 63 -66 128 -66c64 0 116 24 127 66z" />
    <glyph glyph-name="ring" unicode="&#x2da;" horiz-adv-x="248" 
d="M124 528c-63 0 -114 51 -114 114s51 114 114 114s114 -51 114 -114s-51 -114 -114 -114zM124 699c-31 0 -57 -26 -57 -57s26 -57 57 -57s56 26 56 57s-25 57 -56 57z" />
    <glyph glyph-name="hungarumlaut" unicode="&#x2dd;" horiz-adv-x="386" 
d="M80 703c35 35 69 36 95 11c25 -26 25 -60 -11 -95c-47 -48 -147 -70 -147 -70l-7 7s23 100 70 147zM357 714c26 -26 25 -60 -10 -95c-47 -48 -147 -70 -147 -70l-7 7s22 100 69 147c36 35 70 36 95 11z" />
    <glyph glyph-name="ogonek" unicode="&#x2db;" horiz-adv-x="268" 
d="M130 7c-25 -53 -39 -118 -11 -157c26 -36 80 -44 132 -15l7 -8c-58 -93 -189 -115 -234 -46c-49 75 48 203 99 226h7z" />
    <glyph glyph-name="tilde" unicode="&#x2dc;" horiz-adv-x="317" 
d="M217 580c-41 0 -72 21 -107 41c-51 30 -84 6 -92 -32h-8c3 105 37 143 98 140c44 -3 86 -39 121 -52c40 -15 62 2 70 33h8c-3 -83 -30 -130 -90 -130z" />
    <glyph glyph-name="cedilla" unicode="&#xb8;" horiz-adv-x="285" 
d="M98 -41c102 17 192 -25 174 -119c-16 -78 -137 -129 -262 -80l3 12c75 -9 129 41 142 90c15 56 -13 92 -73 85l15 53h13z" />
    <glyph glyph-name="commaaccent" unicode="&#xf6c3;" horiz-adv-x="237" 
d="M227 -121c0 -109 -108 -214 -161 -247l-6 12c46 34 91 106 103 136c-11 -5 -29 -10 -44 -10c-60 0 -109 49 -109 109s49 108 109 108s108 -48 108 -108z" />
    <glyph glyph-name="period" unicode="." horiz-adv-x="236" 
d="M118 210c60 0 108 -49 108 -108c0 -60 -48 -109 -108 -109s-108 49 -108 109c0 59 48 108 108 108z" />
    <glyph glyph-name="comma" unicode="," horiz-adv-x="236" 
d="M226 102c0 -109 -108 -214 -160 -247l-7 12c46 34 91 106 103 136c-11 -5 -28 -10 -44 -10c-60 0 -108 49 -108 109c0 59 48 108 108 108s108 -49 108 -108z" />
    <glyph glyph-name="colon" unicode=":" horiz-adv-x="237" 
d="M118 210c60 0 109 -49 109 -108c0 -60 -49 -109 -109 -109s-108 49 -108 109c0 59 48 108 108 108zM118 380c-60 0 -108 48 -108 108s48 108 108 108s109 -48 109 -108s-49 -108 -109 -108z" />
    <glyph glyph-name="semicolon" unicode=";" horiz-adv-x="237" 
d="M119 380c-60 0 -109 48 -109 108s49 108 109 108s108 -48 108 -108s-48 -108 -108 -108zM119 210c60 0 108 -49 108 -108c0 -109 -108 -214 -161 -247l-6 12c46 34 91 106 103 136c-11 -5 -29 -10 -44 -10c-60 0 -109 49 -109 109c0 59 49 108 109 108z" />
    <glyph glyph-name="exclam" unicode="!" horiz-adv-x="260" 
d="M130 210c60 0 109 -49 109 -108c0 -60 -49 -109 -109 -109s-108 49 -108 109c0 59 48 108 108 108zM127 264c0 0 -127 119 -116 311c5 84 55 128 119 128s114 -44 119 -128c12 -192 -115 -311 -115 -311h-7z" />
    <glyph glyph-name="question" unicode="?" horiz-adv-x="503" 
d="M492 533c6 -130 -95 -208 -281 -223v-46h-13v58c60 30 63 121 63 200c0 105 -17 172 -72 165c-33 -4 -84 -99 -164 -241h-15v221c69 20 155 36 204 36c164 0 273 -57 278 -170zM217 210c59 0 108 -49 108 -108c0 -60 -49 -109 -108 -109c-60 0 -109 49 -109 109
c0 59 49 108 109 108z" />
    <glyph glyph-name="degree" unicode="&#xb0;" horiz-adv-x="310" 
d="M155 412c-80 0 -145 66 -145 146s65 145 145 145s145 -65 145 -145s-65 -146 -145 -146zM155 628c-39 0 -70 -31 -70 -70c0 -40 31 -71 70 -71s71 31 71 71c0 39 -32 70 -71 70z" />
    <glyph glyph-name="quotesinglbase" unicode="&#x201a;" horiz-adv-x="237" 
d="M227 102c0 -109 -109 -214 -161 -247l-7 12c46 34 92 106 103 136c-10 -5 -28 -10 -44 -10c-60 0 -108 49 -108 109c0 59 48 108 108 108s109 -49 109 -108z" />
    <glyph glyph-name="quotedblbase" unicode="&#x201e;" horiz-adv-x="485" 
d="M119 210c60 0 108 -49 108 -108c0 -109 -108 -214 -161 -247l-6 12c46 34 91 106 103 136c-11 -5 -28 -10 -44 -10c-60 0 -109 49 -109 109c0 59 49 108 109 108zM366 210c60 0 109 -49 109 -108c0 -109 -109 -214 -161 -247l-7 12c46 34 92 106 103 136
c-10 -5 -28 -10 -44 -10c-60 0 -108 49 -108 109c0 59 48 108 108 108z" />
    <glyph glyph-name="quotedblleft" unicode="&#x201c;" horiz-adv-x="484" 
d="M366 704c59 0 108 -49 108 -109s-49 -108 -108 -108c-60 0 -109 48 -109 108c0 109 109 214 161 246l6 -11c-46 -34 -91 -106 -102 -136c10 5 28 10 44 10zM118 704c60 0 108 -49 108 -109s-48 -108 -108 -108s-108 48 -108 108c0 109 108 214 160 246l7 -11
c-46 -34 -91 -106 -103 -136c11 5 28 10 44 10z" />
    <glyph glyph-name="quotedblright" unicode="&#x201d;" horiz-adv-x="484" 
d="M118 703c60 0 108 -48 108 -108c0 -108 -108 -214 -160 -246l-7 11c46 34 91 107 103 136c-11 -5 -28 -9 -44 -9c-60 0 -108 48 -108 108s48 108 108 108zM365 703c60 0 109 -48 109 -108c0 -108 -109 -214 -161 -246l-7 11c46 34 92 107 103 136c-10 -5 -28 -9 -44 -9
c-60 0 -108 48 -108 108s48 108 108 108z" />
    <glyph glyph-name="quoteright" unicode="&#x2019;" horiz-adv-x="237" 
d="M227 595c0 -108 -108 -214 -161 -246l-6 11c46 34 91 107 103 136c-11 -5 -28 -9 -44 -9c-60 0 -109 48 -109 108s49 108 109 108s108 -48 108 -108z" />
    <glyph glyph-name="questiondown" unicode="&#xbf;" horiz-adv-x="503" 
d="M479 -124h14v-221c-68 -20 -154 -36 -204 -36c-164 0 -273 57 -278 169c-5 130 96 209 282 224v46h13v-58c-61 -30 -64 -121 -64 -200c0 -105 17 -172 72 -165c33 4 84 98 165 241zM287 112c-60 0 -108 48 -108 108s48 109 108 109s108 -49 108 -109s-48 -108 -108 -108z
" />
    <glyph glyph-name="quoteleft" unicode="&#x2018;" horiz-adv-x="237" 
d="M119 704c60 0 108 -49 108 -109s-48 -108 -108 -108s-109 48 -109 108c0 109 109 214 161 246l7 -11c-46 -34 -92 -106 -103 -136c10 5 28 10 44 10z" />
    <glyph glyph-name="exclamdown" unicode="&#xa1;" horiz-adv-x="260" 
d="M130 112c-60 0 -108 48 -108 108s48 109 108 109s109 -49 109 -109s-49 -108 -109 -108zM134 58c0 0 127 -119 115 -311c-5 -84 -55 -124 -119 -124s-114 40 -119 124c-11 192 116 311 116 311h7z" />
    <glyph glyph-name="asciitilde" unicode="~" horiz-adv-x="396" 
d="M273 256c-52 0 -91 27 -136 53c-65 36 -105 7 -116 -41h-11c5 133 47 181 124 176c57 -3 109 -49 153 -66c51 -19 79 3 89 42h10c-4 -104 -38 -164 -113 -164z" />
    <glyph glyph-name="approxequal" unicode="&#x2248;" horiz-adv-x="420" 
d="M297 355c-52 0 -91 27 -137 53c-64 36 -104 7 -115 -41h-11c5 132 47 181 124 176c56 -3 108 -49 153 -66c51 -19 79 3 88 42h11c-4 -105 -38 -164 -113 -164zM272 157c-52 0 -91 27 -136 53c-65 36 -105 7 -116 -41h-10c4 132 46 181 123 176c57 -3 109 -49 153 -66
c52 -19 79 3 89 42h10c-3 -105 -38 -164 -113 -164z" />
    <glyph glyph-name="plus" unicode="+" horiz-adv-x="374" 
d="M364 361v-65h-144v-144h-66v144h-144v65h144v144h66v-144h144z" />
    <glyph glyph-name="plusminus" unicode="&#xb1;" horiz-adv-x="373" 
d="M219 477h144v-65h-144v-145h-65v145h-144v65h144v144h65v-144zM10 154v65h353v-65h-353z" />
    <glyph glyph-name="minus" unicode="&#x2212;" horiz-adv-x="374" 
d="M364 296h-354v65h354v-65z" />
    <glyph glyph-name="equal" unicode="=" horiz-adv-x="373" 
d="M363 356h-353v65h353v-65zM363 236h-353v65h353v-65z" />
    <glyph glyph-name="multiply" unicode="&#xd7;" horiz-adv-x="316" 
d="M306 430l-102 -102l102 -102l-46 -46l-102 102l-102 -102l-46 46l102 102l-102 102l46 46l102 -102l102 102z" />
    <glyph glyph-name="divide" unicode="&#xf7;" horiz-adv-x="374" 
d="M10 361h354v-65h-354v65zM187 399c-60 0 -108 48 -108 108s48 108 108 108s108 -48 108 -108s-48 -108 -108 -108zM187 258c60 0 108 -48 108 -108s-48 -108 -108 -108s-108 48 -108 108s48 108 108 108z" />
    <glyph glyph-name="notequal" unicode="&#x2260;" horiz-adv-x="374" 
d="M364 356h-146l-42 -55h188v-65h-239l-65 -85l-12 10l58 75h-96v65h146l43 55h-189v65h239l65 85l13 -10l-58 -75h95v-65z" />
    <glyph glyph-name="underscore" unicode="_" horiz-adv-x="374" 
d="M10 0h354v-65h-354v65z" />
    <glyph glyph-name="hyphen" unicode="-" horiz-adv-x="374" 
d="M10 361h354v-65h-354v65z" />
    <glyph glyph-name="endash" unicode="&#x2013;" horiz-adv-x="415" 
d="M10 361h395v-65h-395v65z" />
    <glyph glyph-name="emdash" unicode="&#x2014;" horiz-adv-x="456" 
d="M10 361h436v-65h-436v65z" />
    <glyph glyph-name="bracketleft" unicode="[" horiz-adv-x="185" 
d="M175 687h-100v-753h100v-13h-165v779h165v-13z" />
    <glyph glyph-name="bracketright" unicode="]" horiz-adv-x="185" 
d="M10 700h165v-779h-165v13h100v753h-100v13z" />
    <glyph glyph-name="bar" unicode="|" horiz-adv-x="85" 
d="M10 700h65v-779h-65v779z" />
    <glyph glyph-name="brokenbar" unicode="&#xa6;" horiz-adv-x="85" 
d="M10 700h65v-285h-65v285zM10 -79v284h65v-284h-65z" />
    <glyph glyph-name="section" unicode="&#xa7;" horiz-adv-x="594" 
d="M255 626c8 -110 342 -95 328 -319c-5 -81 -51 -135 -135 -159c30 -32 49 -74 46 -131c-6 -109 -76 -175 -259 -175c-50 0 -128 16 -184 37v181h12c67 -116 108 -205 183 -205c52 0 89 30 85 93c-8 110 -334 95 -320 319c5 78 55 130 128 156c-31 33 -50 75 -47 134
c6 109 76 175 259 175c50 0 128 -16 184 -37v-181h-12c-66 116 -108 205 -183 205c-52 0 -89 -30 -85 -93zM403 205c27 90 -113 111 -214 177c-3 -6 -6 -13 -8 -20c-29 -90 114 -108 216 -173c2 5 4 10 6 16z" />
    <glyph glyph-name="numbersign" unicode="#" horiz-adv-x="678" 
d="M652 445h-123l-53 -204h124l-16 -65h-124l-46 -176h-65l45 176h-196l-46 -176h-65l46 176h-123l17 65h122l53 204h-132l17 65h132l49 190h66l-50 -190h197l49 190h65l-49 -190h122zM411 241l53 204h-197l-53 -204h197z" />
    <glyph glyph-name="paragraph" unicode="&#xb6;" horiz-adv-x="417" 
d="M183 700h224v-700h-65v687h-94v-687h-65v354c-95 0 -173 77 -173 173s78 173 173 173z" />
    <glyph glyph-name="percent" unicode="%" horiz-adv-x="824" 
d="M400 531c0 -100 -78 -173 -195 -173s-195 73 -195 173s78 172 195 172s195 -72 195 -172zM158 531c0 -103 15 -161 47 -161s47 58 47 161s-15 161 -47 161s-47 -58 -47 -161zM619 338c117 0 195 -72 195 -172s-78 -173 -195 -173s-195 73 -195 173s78 172 195 172zM619 4
c32 0 47 58 47 162c0 103 -15 161 -47 161s-47 -58 -47 -161c0 -104 15 -162 47 -162zM665 700h22l-536 -700h-22z" />
    <glyph glyph-name="quotesingle" unicode="'" horiz-adv-x="139" 
d="M69 703c37 0 60 -24 60 -75c0 -66 -55 -153 -55 -153h-9s-55 87 -55 153c0 51 23 75 59 75z" />
    <glyph glyph-name="quotedbl" unicode="&#x22;" horiz-adv-x="283" 
d="M70 703c36 0 60 -24 60 -75c0 -66 -55 -153 -55 -153h-10s-55 87 -55 153c0 51 24 75 60 75zM214 703c36 0 59 -24 59 -75c0 -66 -54 -153 -54 -153h-10s-55 87 -55 153c0 51 24 75 60 75z" />
    <glyph glyph-name="asciicircum" unicode="^" horiz-adv-x="325" 
d="M176 700l139 -190l-6 -7l-147 83l-147 -83l-5 7l138 190h28z" />
    <glyph glyph-name="guillemotleft" unicode="&#xab;" horiz-adv-x="357" 
d="M191 470l-66 -147l66 -147l-7 -6l-174 139v28l174 138zM347 470l-65 -147l65 -147l-6 -6l-174 139v28l174 138z" />
    <glyph glyph-name="guillemotright" unicode="&#xbb;" horiz-adv-x="357" 
d="M173 475l174 -138v-28l-174 -139l-6 6l66 147l-66 147zM190 337v-28l-173 -139l-7 6l66 147l-66 147l7 5z" />
    <glyph glyph-name="greaterequal" unicode="&#x2265;" horiz-adv-x="374" 
d="M10 154v65h354v-65h-354zM10 590l354 -132v-68l-354 -132v65l271 101l-271 101v65z" />
    <glyph glyph-name="lessequal" unicode="&#x2264;" horiz-adv-x="374" 
d="M10 154v65h354v-65h-354zM364 590v-65l-271 -101l271 -101v-65l-354 132v68z" />
    <glyph glyph-name="greater" unicode="&#x3e;" horiz-adv-x="374" 
d="M10 505l354 -132v-69l-354 -132v65l271 101l-271 102v65z" />
    <glyph glyph-name="less" unicode="&#x3c;" horiz-adv-x="374" 
d="M364 505v-65l-271 -102l271 -101v-65l-354 132v69z" />
    <glyph glyph-name="asterisk" unicode="*" horiz-adv-x="339" 
d="M329 590l-14 -5l-142 -3l113 -86l9 -12l-70 -50l-8 11l-47 135l-48 -135l-8 -11l-69 50l8 12l113 86l-142 3l-14 5l27 81l13 -4l118 -81l-41 136v15h85v-15l-40 -136l117 81l14 4z" />
    <glyph glyph-name="slash" unicode="/" horiz-adv-x="332" 
d="M257 700h65l-247 -779h-65z" />
    <glyph glyph-name="backslash" unicode="\" horiz-adv-x="333" 
d="M75 700l248 -779h-65l-248 779h65z" />
    <glyph glyph-name="guilsinglleft" unicode="&#x2039;" horiz-adv-x="200" 
d="M190 470l-66 -147l66 -147l-7 -5l-173 138v28l173 139z" />
    <glyph glyph-name="guilsinglright" unicode="&#x203a;" horiz-adv-x="201" 
d="M17 476l174 -139v-28l-174 -138l-7 5l66 147l-66 147z" />
    <glyph glyph-name="parenleft" unicode="(" horiz-adv-x="401" 
d="M391 768c-119 -78 -169 -274 -169 -470s50 -392 169 -470v-18c-221 56 -381 232 -381 488s160 432 381 488v-18z" />
    <glyph glyph-name="parenright" unicode=")" horiz-adv-x="401" 
d="M10 786c221 -56 381 -232 381 -488s-160 -432 -381 -488v18c119 78 169 274 169 470s-50 392 -169 470v18z" />
    <glyph glyph-name="at" unicode="@" horiz-adv-x="1021" 
d="M748 -7c-101 0 -152 36 -180 108v1v0v0c-28 -58 -83 -109 -165 -109c-117 0 -230 89 -230 273c0 185 113 274 230 274c82 0 137 -52 165 -109v96h295v-13h-57v-372c0 -72 39 -82 65 -80c46 2 124 63 124 249c0 251 -171 424 -458 424c-334 0 -510 -188 -510 -479
c0 -130 56 -282 168 -354c158 -101 428 -114 608 -39l6 -15c-261 -98 -525 -26 -624 41c-114 77 -175 231 -175 367c0 173 72 496 527 496c300 0 474 -182 474 -441c0 -197 -78 -318 -263 -318zM518 85c20 3 37 18 50 44v273v2c-13 26 -30 41 -50 44
c-75 10 -100 -85 -100 -182s25 -191 100 -181z" />
    <glyph glyph-name="braceleft" unicode="{" horiz-adv-x="254" 
d="M244 699c-39 -10 -67 -37 -61 -89c7 -58 18 -97 19 -153c2 -66 -43 -106 -139 -119c96 -13 141 -53 139 -119c-1 -56 -12 -95 -19 -153c-6 -52 22 -79 61 -89v-10c-119 0 -222 33 -166 247c18 72 -20 107 -68 118v12c48 11 86 46 68 118c-56 214 47 247 166 247v-10z" />
    <glyph glyph-name="braceright" unicode="}" horiz-adv-x="254" 
d="M176 462c-18 -72 20 -107 68 -118v-12c-48 -11 -86 -46 -68 -118c55 -214 -47 -247 -166 -247v10c39 10 66 37 61 89c-7 58 -18 97 -20 153c-1 66 44 106 140 119c-96 13 -141 53 -140 119c2 56 13 95 20 153c5 52 -22 79 -61 89v10c119 0 221 -33 166 -247z" />
    <glyph glyph-name="copyright" unicode="&#xa9;" horiz-adv-x="810" 
d="M589 195l8 -7c-24 -39 -80 -91 -176 -91c-126 0 -245 60 -245 211s130 212 252 212c53 0 103 -13 160 -35v-159h-10c-62 119 -95 184 -140 184c-58 0 -108 -82 -97 -202c9 -96 71 -159 139 -160c60 -1 90 24 109 47zM405 -88c-218 0 -395 177 -395 395s177 395 395 395
s395 -177 395 -395s-177 -395 -395 -395zM405 685c-209 0 -378 -169 -378 -378s169 -378 378 -378s378 169 378 378s-169 378 -378 378z" />
    <glyph glyph-name="registered" unicode="&#xae;" horiz-adv-x="810" 
d="M405 -88c-218 0 -395 177 -395 395c0 217 177 395 395 395s395 -178 395 -395c0 -218 -177 -395 -395 -395zM405 685c-209 0 -378 -170 -378 -378c0 -209 169 -379 378 -379s378 170 378 379c0 208 -169 378 -378 378zM592 208v-24c0 -16 6 -25 21 -25s20 15 20 30h7
c0 -87 -67 -90 -90 -90c-58 0 -99 25 -99 90v37c0 55 -28 74 -64 74h-15v-189h37v-8h-223v8h37v393h-37v7h220c96 0 177 -17 177 -110c0 -60 -52 -88 -133 -93v-2c106 0 142 -31 142 -98zM380 308c51 0 63 45 63 93s-12 98 -63 98h-8v-191h8z" />
    <glyph glyph-name="dagger" unicode="&#x2020;" horiz-adv-x="327" 
d="M303 525h14v-85h-14l-138 41l41 -216l-40 -143h-6l-39 143l41 216l-138 -41h-14v85h14l138 -41l-41 138v14h85v-14l-41 -138z" />
    <glyph glyph-name="daggerdbl" unicode="&#x2021;" horiz-adv-x="327" 
d="M317 448h-14l-136 40l39 -150l-39 -150l136 40h14v-86h-14l-135 41l38 -129v-14h-85v14l38 129l-135 -41h-14v86h14l136 -40l-39 150l39 150l-136 -40h-14v85h14l135 -40l-38 129v14h85v-14l-38 -129l135 40h14v-85z" />
    <glyph glyph-name="ampersand" unicode="&#x26;" horiz-adv-x="710" 
d="M664 13h51v-13h-220s-17 17 -43 45c-41 -30 -91 -50 -154 -52c-160 -7 -292 53 -287 185c4 96 71 151 171 161c-77 91 -106 143 -109 203c-6 110 69 161 197 161c146 0 208 -76 206 -154c-3 -70 -59 -142 -156 -148c17 -21 153 -178 212 -243c12 22 20 43 24 59
c31 112 -16 150 -82 160v10h222v-10c-59 -13 -81 -46 -126 -163c-9 -23 -19 -44 -30 -65c53 -58 102 -112 124 -136zM270 687c-76 -1 -82 -87 -34 -166c26 -42 46 -71 69 -102c71 144 29 268 -35 268zM307 23c55 -8 100 6 136 30c-55 58 -237 257 -245 267
c-56 -61 -56 -271 109 -297z" />
    <glyph glyph-name="AE" unicode="&#xc6;" horiz-adv-x="1044" 
d="M1013 300h16v-300h-626v13h64v238h-249l-54 -92c-40 -70 -28 -135 31 -146v-13h-200v13c41 12 113 72 157 147l308 527h-57v13h609v-300h-16c-18 134 -86 279 -254 279h-20v-322h11c103 0 142 46 157 131h13v-274h-13c-15 84 -54 130 -157 130h-11v-322h37
c168 0 236 145 254 278zM226 264h241v414z" />
    <glyph glyph-name="OE" unicode="&#x152;" horiz-adv-x="1065" 
d="M1034 300h16v-300h-573c-290 0 -467 98 -467 350s177 350 467 350h556v-300h-16c-18 134 -86 279 -254 279h-20v-322h11c103 0 142 46 157 131h13v-274h-13c-15 84 -54 130 -157 130h-11v-322h37c168 0 236 145 254 278zM457 679c-139 0 -171 -129 -171 -329
s32 -328 171 -328h31v657h-31z" />
    <glyph glyph-name="Dcroat" unicode="&#x110;" horiz-adv-x="817" 
d="M341 700c290 0 466 -98 466 -350s-176 -350 -466 -350h-331v13h65v326h-65v22h65v326h-65v13h331zM361 22c138 0 170 128 170 328s-32 329 -170 329h-31v-318h120v-22h-120v-317h31z" />
    <glyph glyph-name="Oslash" unicode="&#xd8;" horiz-adv-x="823" 
d="M649 645c101 -58 164 -160 164 -297c0 -224 -171 -355 -401 -355c-84 0 -161 18 -224 51l-33 -44h-22l40 52c-100 59 -163 161 -163 296c0 225 172 355 402 355c83 0 159 -17 221 -49l36 46h22zM285 350c0 -55 2 -103 6 -144l239 313c-15 119 -52 173 -118 173
c-92 0 -127 -104 -127 -342zM412 5c91 0 127 107 127 345c0 55 -2 103 -6 144l-239 -312c15 -120 52 -177 118 -177z" />
    <glyph glyph-name="Thorn" unicode="&#xde;" horiz-adv-x="701" 
d="M396 572c164 0 295 -49 295 -222c0 -172 -131 -222 -295 -222h-67v-115h65v-13h-384v13h64v674h-64v13h384v-13h-65v-115h67zM344 149c87 0 111 90 111 201s-24 201 -111 201h-15v-402h15z" />
    <glyph glyph-name="Lslash" unicode="&#x141;" horiz-adv-x="665" 
d="M634 300h16v-300h-641v13h64v211l-64 -28v22l64 28v441h-64v13h384v-13h-65v-331l121 52v-22l-121 -52v-312h52c168 0 236 145 254 278z" />
    <glyph glyph-name="Hbar" unicode="&#x126;" horiz-adv-x="830" 
d="M820 687h-65v-162h65v-22h-65v-490h65v-13h-384v13h65v323h-172v-323h65v-13h-384v13h64v490h-64v22h64v162h-64v13h384v-13h-65v-162h172v162h-65v13h384v-13zM501 357v146h-172v-146h172z" />
    <glyph glyph-name="Eng" unicode="&#x14a;" horiz-adv-x="828" 
d="M528 700h290v-13c-84 -16 -130 -136 -130 -239v-542c0 -118 -63 -157 -136 -157c-55 0 -162 27 -215 53v211h14c61 -165 129 -244 187 -249c71 -6 137 25 137 147v89h-80l-442 559v-306c0 -103 62 -224 147 -240v-13h-290v13c84 16 130 137 130 240v322l-88 112h-34v13
h340l317 -399v147c0 103 -62 223 -147 239v13z" />
    <glyph glyph-name="Tbar" unicode="&#x166;" horiz-adv-x="720" 
d="M10 700h700v-300h-13c-11 88 -55 272 -209 278v-317h92v-22h-92v-326h64v-13h-384v13h65v326h-93v22h93v317c-155 -6 -198 -190 -210 -278h-13v300z" />
    <glyph glyph-name="germandbls" unicode="&#xdf;" horiz-adv-x="813" 
d="M476 471c-92 -38 327 -81 327 -285c0 -155 -154 -193 -235 -193c-65 0 -140 12 -222 34v199h17c95 -154 157 -215 203 -221c43 -6 69 17 69 66c0 110 -270 195 -193 387c57 143 50 258 -51 258c-40 0 -87 -19 -87 -125v-591h-294v13h56v501h-56v13h56
c0 164 179 202 307 202c254 0 266 -189 103 -258z" />
    <glyph glyph-name="ae" unicode="&#xe6;" horiz-adv-x="919" 
d="M649 540c164 0 270 -86 259 -274h-314c10 -125 65 -204 163 -207c64 -1 97 32 122 62l13 -10c-30 -51 -101 -118 -230 -118c-144 0 -289 66 -319 214c-5 -72 -21 -214 -158 -214c-90 0 -175 44 -175 157c0 192 210 177 328 181v95c0 46 0 101 -40 101
c-34 0 -93 -61 -202 -205h-12v181c76 24 155 37 224 37c62 0 126 -12 176 -36c51 24 109 36 165 36zM231 181c-1 -97 109 -141 107 85v53c-81 4 -107 -41 -107 -138zM696 287c5 133 0 240 -47 240c-41 0 -65 -101 -56 -240h103z" />
    <glyph glyph-name="oe" unicode="&#x153;" horiz-adv-x="987" 
d="M716 539c165 0 270 -85 260 -273h-315c10 -125 65 -205 164 -207c63 -1 96 32 121 62l13 -10c-29 -52 -101 -118 -229 -118c-72 0 -144 16 -202 51c-56 -35 -127 -51 -200 -51c-164 0 -318 80 -318 273s154 273 318 273c72 0 143 -16 199 -50c55 34 123 50 189 50zM328 5
c64 0 74 117 74 261s-10 261 -74 261c-65 0 -74 -117 -74 -261s9 -261 74 -261zM763 287c5 133 0 239 -47 239c-41 0 -65 -100 -56 -239h103z" />
    <glyph glyph-name="dcroat" unicode="&#x111;" horiz-adv-x="710" 
d="M644 13h56v-13h-294v102c-29 -58 -84 -109 -166 -109c-116 0 -230 89 -230 273c0 185 114 274 230 274c82 0 137 -51 166 -109v169h-121v22h121v65h-57v13h295v-78h56v-22h-56v-587zM406 129v275c-13 26 -30 41 -51 44c-74 10 -99 -85 -99 -182s25 -191 99 -181
c21 3 38 18 51 44z" />
    <glyph glyph-name="oslash" unicode="&#xf8;" horiz-adv-x="655" 
d="M551 473c57 -44 94 -112 94 -207c0 -192 -154 -273 -318 -273c-76 0 -150 18 -208 56l-49 -49h-22l59 58c-59 44 -97 112 -97 208c0 193 154 274 317 274c78 0 153 -18 211 -58l46 45h22zM253 266c0 -22 0 -43 1 -64l146 144c-4 105 -21 181 -73 181
c-64 0 -74 -116 -74 -261zM327 5c65 0 74 117 74 261v59l-146 -143c4 -103 21 -177 72 -177z" />
    <glyph glyph-name="thorn" unicode="&#xfe;" horiz-adv-x="710" 
d="M470 540c116 0 230 -89 230 -274c0 -184 -114 -273 -230 -273c-82 0 -138 51 -166 109v-256h73v-13h-367v13h56v841h-56v13h294v-269c28 58 84 109 166 109zM355 85c74 -10 99 84 99 181s-25 192 -99 182c-21 -3 -38 -18 -51 -44v-275c13 -26 30 -41 51 -44z" />
    <glyph glyph-name="lslash" unicode="&#x142;" 
d="M361 348l-57 -25v-310h57v-13h-351v13h56v208l-56 -25v22l56 24v445h-56v13h294v-355l57 24v-21z" />
    <glyph glyph-name="hbar" unicode="&#x127;" horiz-adv-x="751" 
d="M684 13h57v-13h-351v13h56v354c0 60 -14 94 -61 90c-52 -4 -81 -82 -81 -133v-311h57v-13h-352v13h57v587h-57v22h57v65h-57v13h295v-78h121v-22h-121v-217c29 97 93 157 194 157c132 0 186 -85 186 -182v-345z" />
    <glyph glyph-name="eng" unicode="&#x14b;" horiz-adv-x="749" 
d="M498 540c132 0 186 -85 186 -182v-275c0 -163 -19 -334 -288 -334c-49 0 -148 22 -195 41v176h14c62 -166 111 -203 157 -202c81 1 74 166 74 319v284c0 60 -14 94 -61 90c-52 -4 -81 -82 -81 -133v-311h57v-13h-351v13h56v501h-56v13h294v-144c29 97 93 157 194 157z
" />
    <glyph glyph-name="tbar" unicode="&#x167;" horiz-adv-x="420" 
d="M412 92l13 -11c-34 -50 -102 -88 -193 -88c-104 0 -170 57 -170 159v178h-57v21h57v163h-57v13h57l223 160h15v-160h106v-13h-106v-163h88v-21h-88v-195c0 -71 27 -81 52 -81c19 0 35 8 60 38z" />
    <glyph glyph-name="longs" unicode="&#x17f;" horiz-adv-x="455" 
d="M318 729c62 0 106 -12 142 -19v-161h-15c-95 128 -122 170 -132 167c-7 -1 -8 -9 -8 -125v-578h97v-13h-392v13h57v501h-57v13h57v9c0 152 123 193 251 193z" />
    <glyph glyph-name="eth" unicode="&#xf0;" horiz-adv-x="650" 
d="M436 680c113 -65 210 -185 203 -366c-7 -201 -147 -321 -311 -321s-318 81 -318 273c0 193 140 274 318 274c19 0 42 -5 60 -13c-3 45 -16 85 -39 117l-130 -54l-7 16l126 52c-24 30 -58 54 -100 71l6 12c52 -3 114 -19 173 -50l120 50l6 -16zM328 5c64 0 74 117 74 261
c0 145 -10 261 -74 261c-65 0 -74 -116 -74 -261c0 -144 9 -261 74 -261z" />
    <glyph glyph-name="Aogonek" unicode="&#x104;" horiz-adv-x="797" 
d="M802 0h-132c-23 -51 -35 -113 -8 -150c26 -36 81 -44 132 -15l8 -8c-59 -93 -189 -115 -234 -46c-46 70 34 185 87 219h-254v13h58l-101 205h-203l-24 -60c-30 -74 5 -134 64 -145v-13h-200v13c40 12 91 67 123 146l217 541h47l356 -687h64v-13zM160 231h191l-105 213z
" />
    <glyph glyph-name="Ccedilla" unicode="&#xc7;" horiz-adv-x="728" 
d="M422 -7c-8 0 -16 0 -24 1l-10 -35c102 17 192 -25 174 -119c-16 -78 -137 -129 -262 -80l3 12c74 -9 129 41 142 90c14 56 -13 92 -73 85l13 47c-196 12 -375 116 -375 354c0 253 219 355 424 355c90 0 173 -21 269 -57v-267h-17c-104 198 -161 308 -236 308
c-98 0 -181 -138 -162 -339c15 -161 119 -267 234 -268c100 -2 150 40 182 78l14 -11c-40 -66 -134 -154 -296 -154z" />
    <glyph glyph-name="Eogonek" unicode="&#x118;" horiz-adv-x="651" 
d="M636 0h-131c-24 -51 -36 -113 -9 -150c27 -36 81 -44 133 -15l7 -8c-59 -93 -189 -115 -234 -46c-46 70 34 185 87 219h-479v13h64v674h-64v13h609v-300h-16c-17 134 -86 279 -254 279h-20v-322h11c103 0 142 46 158 131h12v-274h-12c-16 84 -55 130 -158 130h-11v-322
h37c168 0 237 145 254 278h16v-300z" />
    <glyph glyph-name="Iogonek" unicode="&#x12e;" horiz-adv-x="404" 
d="M394 687h-65v-674h65v-13h-200c-23 -51 -35 -113 -8 -150c26 -36 81 -44 132 -15l8 -8c-59 -93 -189 -115 -234 -46c-46 70 34 185 87 219h-169v13h65v674h-65v13h384v-13z" />
    <glyph glyph-name="Scedilla" unicode="&#x15e;" horiz-adv-x="613" 
d="M214 577c9 -129 405 -111 388 -376c-8 -139 -118 -208 -310 -208h-15l-9 -34c101 17 192 -25 173 -119c-16 -78 -136 -129 -261 -80l3 12c74 -9 129 41 141 90c15 56 -12 92 -72 85l13 47c-78 3 -176 19 -242 43v231h14c80 -154 163 -260 246 -260c59 0 92 29 98 80
c21 168 -375 126 -360 408c7 129 90 207 307 207c59 0 150 -19 218 -44v-214h-15c-79 137 -128 242 -217 242c-61 0 -105 -34 -100 -110z" />
    <glyph glyph-name="Uogonek" unicode="&#x172;" horiz-adv-x="780" 
d="M597 700h174v-13c-48 -13 -80 -54 -80 -157v-231c0 -147 -63 -257 -191 -293c-25 -53 -40 -118 -11 -157c26 -36 80 -44 132 -15l7 -8c-59 -93 -189 -115 -234 -46c-47 72 40 192 92 222c-26 -6 -54 -9 -84 -9c-195 0 -327 108 -327 306v388h-65v13h384v-13h-64v-388
c0 -153 65 -224 175 -224c100 0 172 79 172 224v231c0 103 -29 144 -80 157v13z" />
    <glyph glyph-name="aogonek" unicode="&#x105;" horiz-adv-x="630" 
d="M511 -150c26 -36 80 -44 132 -15l7 -8c-59 -93 -189 -115 -234 -46c-43 65 26 171 78 212h-1c-86 0 -139 24 -152 79c-25 -38 -72 -79 -145 -79c-90 0 -186 44 -186 158c0 191 211 176 328 180v96c0 45 0 100 -40 100c-34 0 -93 -60 -202 -204h-12v181
c76 23 155 36 224 36c128 0 268 -38 268 -177v-221c0 -71 11 -79 28 -79c13 0 24 13 33 26l13 -12c-16 -30 -62 -74 -133 -82c-22 -50 -32 -109 -6 -145zM231 181c0 -82 43 -143 107 -93v13v218c-81 4 -107 -40 -107 -138z" />
    <glyph glyph-name="ccedilla" unicode="&#xe7;" horiz-adv-x="581" 
d="M341 -7c-7 0 -14 1 -21 1l-9 -35c101 17 192 -25 173 -119c-16 -78 -136 -129 -261 -80l3 12c74 -9 128 41 141 90c15 56 -12 92 -72 85l13 47c-151 11 -298 91 -298 273c0 194 168 273 342 273c69 0 134 -17 207 -44v-206h-15c-80 153 -122 237 -180 237
c-67 0 -107 -117 -96 -260c9 -125 76 -205 164 -207c65 -2 100 29 126 62l13 -11c-31 -50 -98 -118 -230 -118z" />
    <glyph glyph-name="eogonek" unicode="&#x119;" horiz-adv-x="591" 
d="M321 540c164 0 270 -85 259 -273h-314c10 -125 65 -205 163 -207c64 -2 97 32 122 62l13 -11c-22 -38 -67 -84 -141 -106c-25 -52 -39 -116 -11 -155c26 -36 81 -44 132 -15l8 -7c-59 -94 -189 -116 -234 -47c-46 70 35 186 88 220c-22 -5 -46 -8 -72 -8
c-162 0 -324 84 -324 274c0 189 161 273 311 273zM368 288c5 133 0 239 -47 239c-41 0 -65 -100 -56 -239h103z" />
    <glyph glyph-name="iogonek" unicode="&#x12f;" 
d="M361 0h-183c-24 -51 -36 -113 -9 -150c26 -36 81 -44 132 -15l8 -8c-59 -93 -189 -115 -234 -46c-46 70 34 185 87 219h-152v13h56v501h-56v13h294v-514h57v-13zM185 564c-62 0 -113 50 -113 113c0 62 51 112 113 112s113 -50 113 -112c0 -63 -51 -113 -113 -113z" />
    <glyph glyph-name="scedilla" unicode="&#x15f;" horiz-adv-x="504" 
d="M336 354c100 -46 171 -81 155 -201c-20 -154 -177 -160 -259 -160h-8l-10 -34c102 17 192 -25 174 -119c-16 -78 -137 -129 -262 -80l3 12c74 -9 129 41 142 90c14 56 -13 92 -73 85l13 47c-59 2 -128 13 -201 33v199h17c96 -154 157 -215 204 -221c42 -6 68 17 68 66
c-1 50 -59 73 -130 105c-77 34 -150 74 -150 183c0 164 154 181 230 181c53 0 140 -17 207 -35v-182h-18c-89 148 -143 206 -191 206c-38 0 -60 -34 -55 -80c4 -46 76 -64 144 -95z" />
    <glyph glyph-name="uogonek" unicode="&#x173;" horiz-adv-x="746" 
d="M736 0h-183c-24 -51 -36 -113 -9 -150c27 -36 81 -44 133 -15l7 -8c-59 -93 -189 -115 -234 -46c-46 70 34 185 87 219h-96v145c-29 -98 -93 -152 -193 -152c-132 0 -187 79 -187 176v345h-56v13h294v-367c0 -60 14 -93 62 -90c51 4 80 82 80 133v311h-56v13h294v-514h57
v-13z" />
    <glyph glyph-name="dollar" unicode="$" horiz-adv-x="603" 
d="M305 484c118 -54 298 -103 287 -283c-8 -133 -110 -202 -287 -207v-76h-22v75h-1c-81 0 -196 17 -269 44v231h14c80 -154 163 -260 245 -260c4 0 8 1 11 1v197c-110 58 -282 102 -272 290c6 122 81 198 272 206v80h22v-79h12c60 0 151 -19 218 -44v-214h-14
c-79 136 -128 242 -216 243v-204zM204 577c2 -36 34 -60 79 -83v192c-50 -7 -84 -42 -79 -109zM371 88c6 48 -23 79 -66 105v-181c39 9 61 35 66 76z" />
    <glyph glyph-name="Euro" unicode="&#x20ac;" horiz-adv-x="770" 
d="M746 158l14 -11c-40 -66 -134 -154 -296 -154c-191 0 -374 84 -407 288h-77l9 22h66c-2 14 -3 29 -3 45c0 17 1 33 3 49h-75l9 21h69c37 202 233 285 418 285c89 0 173 -21 269 -57v-267h-17c-104 198 -161 308 -236 308c-86 0 -161 -106 -165 -269h262l-8 -21h-254
c0 -16 1 -32 3 -49c1 -16 4 -31 7 -45h219l-8 -22h-206c34 -123 124 -200 222 -201c100 -2 150 40 182 78z" />
    <glyph glyph-name="yen" unicode="&#xa5;" horiz-adv-x="769" 
d="M508 700h266v-13c-58 -17 -113 -65 -163 -176l-96 -213h90v-22h-91v-52h91v-22h-91v-189h64v-13h-383v13h64v189h-93v22h93v52h-93v22h93l-201 389h-63v13h400v-13h-67l178 -369s88 191 89 191c46 103 -2 172 -87 178v13z" />
    <glyph glyph-name="sterling" unicode="&#xa3;" horiz-adv-x="631" 
d="M608 244h13v-244h-551v13l225 176c-88 36 -167 74 -211 142h-74v21h61c-16 33 -25 71 -25 117c0 159 126 234 325 234c69 0 164 -24 231 -46v-228h-14c-77 139 -124 258 -207 258c-61 0 -100 -40 -102 -201c-1 -51 0 -94 2 -134h218v-21h-216c4 -49 12 -94 24 -142h301
v55z" />
    <glyph glyph-name="cent" unicode="&#xa2;" horiz-adv-x="581" 
d="M571 112c-29 -48 -92 -114 -213 -119v-76h-21v76c-161 2 -327 81 -327 274c0 188 158 268 327 273v77h21v-77c67 -1 130 -17 202 -44v-206h-15c-80 153 -122 238 -180 238c-2 0 -5 -1 -7 -1v-443c22 -15 48 -23 75 -24c64 -1 100 30 126 62zM268 267
c6 -73 31 -131 69 -166v419c-51 -28 -78 -131 -69 -253z" />
    <glyph glyph-name="currency" unicode="&#xa4;" horiz-adv-x="530" 
d="M502 263c0 -62 -25 -115 -69 -153l87 -86l-15 -15l-89 88c-39 -27 -91 -43 -151 -43s-112 16 -151 43l-89 -88l-15 15l87 86c-44 38 -69 91 -69 153c0 63 25 116 69 154l-87 86l15 15l89 -88c39 27 91 43 151 43s112 -16 151 -43l89 88l15 -15l-87 -86
c44 -38 69 -91 69 -154zM265 68c39 0 57 70 57 195c0 126 -18 196 -57 196s-57 -70 -57 -196c0 -125 18 -195 57 -195z" />
    <glyph glyph-name="afii61352" unicode="&#x2116;" horiz-adv-x="1270" 
d="M818 700v-13c-84 -16 -130 -137 -130 -240v-447h-93l-441 558v-305c0 -103 62 -224 146 -240v-13h-290v13c85 16 130 137 130 240v322l-88 112h-34v13h341l316 -399v146c0 103 -62 224 -147 240v13h290zM786 301h489v-22h-489v22zM1031 358c-117 0 -195 73 -195 173
s78 172 195 172s195 -72 195 -172s-78 -173 -195 -173zM1031 692c-32 0 -47 -58 -47 -161c0 -104 15 -161 47 -161s47 57 47 161c0 103 -15 161 -47 161z" />
    <glyph glyph-name="Bitcoin" unicode="&#x20bf;" horiz-adv-x="743" 
d="M733 189c0 -158 -139 -189 -302 -189v-82h-22v82h-79v-82h-22v82h-298v13h65v674h-65v13h298v82h22v-82h41c13 0 26 0 38 -1v83h22v-84c137 -8 244 -48 244 -171c0 -101 -118 -148 -223 -151v-4c154 8 281 -50 281 -183zM336 678h-6v-305h6c86 0 96 82 96 154
c0 73 -13 151 -96 151zM377 22c86 0 105 82 105 167c0 86 -19 171 -105 171h-47v-338h47z" />
    <glyph glyph-name="Ruble" unicode="&#x20bd;" horiz-adv-x="701" 
d="M395 256h-66v-71h170v-21h-170v-151h98v-13h-417v13h64v151h-64v21h64v502h-64v13h385c165 0 296 -50 296 -222c0 -173 -131 -222 -296 -222zM329 678v-409h15c90 0 110 111 110 209c0 111 -23 200 -110 200h-15z" />
    <glyph glyph-name="Eth" unicode="&#xd0;" horiz-adv-x="817" 
d="M341 700c290 0 466 -98 466 -350s-176 -350 -466 -350h-331v13h65v326h-65v22h65v326h-65v13h331zM361 22c138 0 170 128 170 328s-32 329 -170 329h-31v-318h120v-22h-120v-317h31z" />
    <glyph glyph-name="Aacute" unicode="&#xc1;" horiz-adv-x="797" 
d="M737 13h65v-13h-401v13h57l-101 205h-202l-24 -60c-30 -74 4 -134 64 -145v-13h-200v13c40 12 91 67 123 146l217 541h47zM160 231h191l-106 214zM478 914c25 -26 24 -60 -11 -95c-47 -48 -147 -70 -147 -70l-7 7s22 100 69 147c36 35 70 36 96 11z" />
    <glyph glyph-name="Abreve" unicode="&#x102;" horiz-adv-x="797" 
d="M737 13h65v-13h-401v13h57l-101 205h-202l-24 -60c-30 -74 4 -134 64 -145v-13h-200v13c40 12 91 67 123 146l217 541h47zM160 231h191l-106 214zM485 919h12c0 -98 -51 -159 -139 -159s-139 61 -139 159h11c12 -42 63 -66 128 -66c64 0 116 24 127 66z" />
    <glyph glyph-name="Acircumflex" unicode="&#xc2;" horiz-adv-x="797" 
d="M737 13h65v-13h-401v13h57l-101 205h-202l-24 -60c-30 -74 4 -134 64 -145v-13h-200v13c40 12 91 67 123 146l217 541h47zM160 231h191l-106 214zM413 919l119 -147l-7 -7l-167 57l-167 -57l-7 7l119 147h110z" />
    <glyph glyph-name="Agrave" unicode="&#xc0;" horiz-adv-x="797" 
d="M737 13h65v-13h-401v13h57l-101 205h-202l-24 -60c-30 -74 4 -134 64 -145v-13h-200v13c40 12 91 67 123 146l217 541h47zM160 231h191l-106 214zM354 903c47 -47 70 -147 70 -147l-7 -7s-100 22 -147 70c-36 35 -37 69 -11 95c25 25 60 24 95 -11z" />
    <glyph glyph-name="Adieresis" unicode="&#xc4;" horiz-adv-x="797" 
d="M737 13h65v-13h-401v13h57l-101 205h-202l-24 -60c-30 -74 4 -134 64 -145v-13h-200v13c40 12 91 67 123 146l217 541h47zM160 231h191l-106 214zM254 935c52 0 93 -42 93 -93s-41 -93 -93 -93c-51 0 -93 42 -93 93s42 93 93 93zM462 935c52 0 93 -42 93 -93
s-41 -93 -93 -93c-51 0 -93 42 -93 93s42 93 93 93z" />
    <glyph glyph-name="Amacron" unicode="&#x100;" horiz-adv-x="797" 
d="M737 13h65v-13h-401v13h57l-101 205h-202l-24 -60c-30 -74 4 -134 64 -145v-13h-200v13c40 12 91 67 123 146l217 541h47zM160 231h191l-106 214zM198 845h321v-65h-321v65z" />
    <glyph glyph-name="Aring" unicode="&#xc5;" horiz-adv-x="797" 
d="M737 13h65v-13h-401v13h57l-101 205h-202l-24 -60c-30 -74 4 -134 64 -145v-13h-200v13c40 12 91 67 123 146l217 541h47zM160 231h191l-106 214zM358 728c-63 0 -114 51 -114 114s51 114 114 114s114 -51 114 -114s-51 -114 -114 -114zM358 899c-31 0 -57 -26 -57 -57
s26 -57 57 -57s56 26 56 57s-25 57 -56 57z" />
    <glyph glyph-name="Atilde" unicode="&#xc3;" horiz-adv-x="797" 
d="M737 13h65v-13h-401v13h57l-101 205h-202l-24 -60c-30 -74 4 -134 64 -145v-13h-200v13c40 12 91 67 123 146l217 541h47zM160 231h191l-106 214zM417 780c-41 0 -72 21 -107 41c-51 30 -84 6 -92 -32h-8c3 105 37 143 98 140c44 -3 86 -39 121 -52c40 -15 62 2 70 33h8
c-3 -83 -30 -130 -90 -130z" />
    <glyph glyph-name="AEacute" unicode="&#x1fc;" horiz-adv-x="1044" 
d="M1013 300h16v-300h-626v13h64v238h-249l-54 -92c-40 -70 -28 -135 31 -146v-13h-200v13c41 12 113 72 157 147l308 527h-57v13h609v-300h-16c-18 134 -86 279 -254 279h-20v-322h11c103 0 142 46 157 131h13v-274h-13c-15 84 -54 130 -157 130h-11v-322h37
c168 0 236 145 254 278zM226 264h241v414zM782 914c25 -26 24 -60 -11 -95c-47 -48 -147 -70 -147 -70l-7 7s22 100 69 147c36 35 70 36 96 11z" />
    <glyph glyph-name="Cacute" unicode="&#x106;" horiz-adv-x="728" 
d="M704 159l14 -12c-40 -66 -134 -154 -296 -154c-211 0 -412 102 -412 355s219 355 424 355c90 0 173 -21 269 -57v-267h-17c-104 198 -161 308 -236 308c-98 0 -181 -137 -162 -339c15 -161 119 -266 234 -268c100 -2 150 40 182 79zM454 914c25 -26 24 -60 -11 -95
c-47 -48 -147 -70 -147 -70l-7 7s22 100 69 147c36 35 70 36 96 11z" />
    <glyph glyph-name="Ccaron" unicode="&#x10c;" horiz-adv-x="728" 
d="M704 159l14 -12c-40 -66 -134 -154 -296 -154c-211 0 -412 102 -412 355s219 355 424 355c90 0 173 -21 269 -57v-267h-17c-104 198 -161 308 -236 308c-98 0 -181 -137 -162 -339c15 -161 119 -266 234 -268c100 -2 150 40 182 79zM601 919l7 -6l-119 -148h-111
l-119 148l7 6l167 -56z" />
    <glyph glyph-name="Ccircumflex" unicode="&#x108;" horiz-adv-x="728" 
d="M704 159l14 -12c-40 -66 -134 -154 -296 -154c-211 0 -412 102 -412 355s219 355 424 355c90 0 173 -21 269 -57v-267h-17c-104 198 -161 308 -236 308c-98 0 -181 -137 -162 -339c15 -161 119 -266 234 -268c100 -2 150 40 182 79zM489 919l119 -147l-7 -7l-167 57
l-167 -57l-7 7l119 147h110z" />
    <glyph glyph-name="Cdotaccent" unicode="&#x10a;" horiz-adv-x="728" 
d="M704 159l14 -12c-40 -66 -134 -154 -296 -154c-211 0 -412 102 -412 355s219 355 424 355c90 0 173 -21 269 -57v-267h-17c-104 198 -161 308 -236 308c-98 0 -181 -137 -162 -339c15 -161 119 -266 234 -268c100 -2 150 40 182 79zM434 935c52 0 93 -42 93 -93
s-41 -93 -93 -93c-51 0 -93 42 -93 93s42 93 93 93z" />
    <glyph glyph-name="Dcaron" unicode="&#x10e;" horiz-adv-x="817" 
d="M807 350c0 -252 -177 -350 -466 -350h-331v13h65v674h-65v13h331c289 0 466 -98 466 -350zM361 22c138 0 170 128 170 328s-32 329 -170 329h-32v-657h32zM556 919l7 -6l-119 -148h-111l-119 148l7 6l167 -56z" />
    <glyph glyph-name="Eacute" unicode="&#xc9;" horiz-adv-x="651" 
d="M621 300h15v-300h-626v13h65v674h-65v13h609v-300h-15c-18 134 -87 279 -254 279h-20v-322h11c103 0 141 46 157 131h13v-274h-13c-16 84 -54 130 -157 130h-11v-322h37c167 0 236 145 254 278zM403 914c25 -26 24 -60 -11 -95c-47 -48 -147 -70 -147 -70l-7 7
s22 100 69 147c36 35 70 36 96 11z" />
    <glyph glyph-name="Ebreve" unicode="&#x114;" horiz-adv-x="651" 
d="M621 300h15v-300h-626v13h65v674h-65v13h609v-300h-15c-18 134 -87 279 -254 279h-20v-322h11c103 0 141 46 157 131h13v-274h-13c-16 84 -54 130 -157 130h-11v-322h37c167 0 236 145 254 278zM470 919h12c0 -98 -51 -159 -139 -159s-139 61 -139 159h11
c12 -42 63 -66 128 -66c64 0 116 24 127 66z" />
    <glyph glyph-name="Ecaron" unicode="&#x11a;" horiz-adv-x="651" 
d="M621 300h15v-300h-626v13h65v674h-65v13h609v-300h-15c-18 134 -87 279 -254 279h-20v-322h11c103 0 141 46 157 131h13v-274h-13c-16 84 -54 130 -157 130h-11v-322h37c167 0 236 145 254 278zM510 919l7 -6l-119 -148h-111l-119 148l7 6l167 -56z" />
    <glyph glyph-name="Ecircumflex" unicode="&#xca;" horiz-adv-x="651" 
d="M621 300h15v-300h-626v13h65v674h-65v13h609v-300h-15c-18 134 -87 279 -254 279h-20v-322h11c103 0 141 46 157 131h13v-274h-13c-16 84 -54 130 -157 130h-11v-322h37c167 0 236 145 254 278zM398 919l119 -147l-7 -7l-167 57l-167 -57l-7 7l119 147h110z" />
    <glyph glyph-name="Edieresis" unicode="&#xcb;" horiz-adv-x="651" 
d="M621 300h15v-300h-626v13h65v674h-65v13h609v-300h-15c-18 134 -87 279 -254 279h-20v-322h11c103 0 141 46 157 131h13v-274h-13c-16 84 -54 130 -157 130h-11v-322h37c167 0 236 145 254 278zM239 935c52 0 93 -42 93 -93s-41 -93 -93 -93c-51 0 -93 42 -93 93
s42 93 93 93zM447 935c52 0 93 -42 93 -93s-41 -93 -93 -93c-51 0 -93 42 -93 93s42 93 93 93z" />
    <glyph glyph-name="Edotaccent" unicode="&#x116;" horiz-adv-x="651" 
d="M621 300h15v-300h-626v13h65v674h-65v13h609v-300h-15c-18 134 -87 279 -254 279h-20v-322h11c103 0 141 46 157 131h13v-274h-13c-16 84 -54 130 -157 130h-11v-322h37c167 0 236 145 254 278zM343 935c52 0 93 -42 93 -93s-41 -93 -93 -93c-51 0 -93 42 -93 93
s42 93 93 93z" />
    <glyph glyph-name="Egrave" unicode="&#xc8;" horiz-adv-x="651" 
d="M621 300h15v-300h-626v13h65v674h-65v13h609v-300h-15c-18 134 -87 279 -254 279h-20v-322h11c103 0 141 46 157 131h13v-274h-13c-16 84 -54 130 -157 130h-11v-322h37c167 0 236 145 254 278zM378 903c47 -47 70 -147 70 -147l-7 -7s-100 22 -147 70
c-36 35 -37 69 -11 95c25 25 60 24 95 -11z" />
    <glyph glyph-name="Emacron" unicode="&#x112;" horiz-adv-x="651" 
d="M621 300h15v-300h-626v13h65v674h-65v13h609v-300h-15c-18 134 -87 279 -254 279h-20v-322h11c103 0 141 46 157 131h13v-274h-13c-16 84 -54 130 -157 130h-11v-322h37c167 0 236 145 254 278zM192 845h321v-65h-321v65z" />
    <glyph glyph-name="Gbreve" unicode="&#x11e;" horiz-adv-x="769" 
d="M774 321v-13h-64v-308h-14v50c-74 -32 -168 -57 -243 -57c-241 0 -443 112 -443 355c0 233 194 355 443 355c80 0 144 -16 219 -42v-240h-17c-75 156 -128 266 -202 266c-104 0 -168 -118 -168 -339s65 -322 168 -332c12 -1 23 0 35 3v289h-73v13h359zM559 919h12
c0 -98 -51 -159 -139 -159s-139 61 -139 159h11c12 -42 63 -66 128 -66c64 0 116 24 127 66z" />
    <glyph glyph-name="Gcircumflex" unicode="&#x11c;" horiz-adv-x="769" 
d="M774 321v-13h-64v-308h-14v50c-74 -32 -168 -57 -243 -57c-241 0 -443 112 -443 355c0 233 194 355 443 355c80 0 144 -16 219 -42v-240h-17c-75 156 -128 266 -202 266c-104 0 -168 -118 -168 -339s65 -322 168 -332c12 -1 23 0 35 3v289h-73v13h359zM487 919l119 -147
l-7 -7l-167 57l-167 -57l-7 7l119 147h110z" />
    <glyph glyph-name="Gcommaaccent" unicode="&#x122;" horiz-adv-x="769" 
d="M774 321v-13h-64v-308h-14v50c-74 -32 -168 -57 -243 -57c-241 0 -443 112 -443 355c0 233 194 355 443 355c80 0 144 -16 219 -42v-240h-17c-75 156 -128 266 -202 266c-104 0 -168 -118 -168 -339s65 -322 168 -332c12 -1 23 0 35 3v289h-73v13h359zM550 -141
c0 -109 -108 -214 -161 -247l-6 12c46 34 91 106 103 136c-11 -5 -29 -10 -44 -10c-60 0 -109 49 -109 109s49 108 109 108s108 -48 108 -108z" />
    <glyph glyph-name="Gdotaccent" unicode="&#x120;" horiz-adv-x="769" 
d="M774 321v-13h-64v-308h-14v50c-74 -32 -168 -57 -243 -57c-241 0 -443 112 -443 355c0 233 194 355 443 355c80 0 144 -16 219 -42v-240h-17c-75 156 -128 266 -202 266c-104 0 -168 -118 -168 -339s65 -322 168 -332c12 -1 23 0 35 3v289h-73v13h359zM442 935
c52 0 93 -42 93 -93s-41 -93 -93 -93c-51 0 -93 42 -93 93s42 93 93 93z" />
    <glyph glyph-name="Hcircumflex" unicode="&#x124;" horiz-adv-x="830" 
d="M820 687h-64v-674h64v-13h-384v13h65v323h-172v-323h65v-13h-384v13h65v674h-65v13h384v-13h-65v-330h172v330h-65v13h384v-13zM470 919l119 -147l-7 -7l-167 57l-167 -57l-7 7l119 147h110z" />
    <glyph glyph-name="Iacute" unicode="&#xcd;" horiz-adv-x="404" 
d="M394 687h-64v-674h64v-13h-384v13h65v674h-65v13h384v-13zM272 914c25 -26 24 -60 -11 -95c-47 -48 -147 -70 -147 -70l-7 7s22 100 69 147c36 35 70 36 96 11z" />
    <glyph glyph-name="Ibreve" unicode="&#x12c;" horiz-adv-x="404" 
d="M394 687h-64v-674h64v-13h-384v13h65v674h-65v13h384v-13zM329 919h12c0 -98 -51 -159 -139 -159s-139 61 -139 159h11c12 -42 63 -66 128 -66c64 0 116 24 127 66z" />
    <glyph glyph-name="Icircumflex" unicode="&#xce;" horiz-adv-x="404" 
d="M394 687h-64v-674h64v-13h-384v13h65v674h-65v13h384v-13zM257 919l119 -147l-7 -7l-167 57l-167 -57l-7 7l119 147h110z" />
    <glyph glyph-name="Idieresis" unicode="&#xcf;" horiz-adv-x="404" 
d="M394 687h-64v-674h64v-13h-384v13h65v674h-65v13h384v-13zM98 935c52 0 93 -42 93 -93s-41 -93 -93 -93c-51 0 -93 42 -93 93s42 93 93 93zM306 935c52 0 93 -42 93 -93s-41 -93 -93 -93c-51 0 -93 42 -93 93s42 93 93 93z" />
    <glyph glyph-name="Idotaccent" unicode="&#x130;" horiz-adv-x="404" 
d="M394 687h-64v-674h64v-13h-384v13h65v674h-65v13h384v-13zM202 935c52 0 93 -42 93 -93s-41 -93 -93 -93c-51 0 -93 42 -93 93s42 93 93 93z" />
    <glyph glyph-name="Igrave" unicode="&#xcc;" horiz-adv-x="404" 
d="M394 687h-64v-674h64v-13h-384v13h65v674h-65v13h384v-13zM237 903c47 -47 70 -147 70 -147l-7 -7s-100 22 -147 70c-36 35 -37 69 -11 95c25 25 60 24 95 -11z" />
    <glyph glyph-name="Imacron" unicode="&#x12a;" horiz-adv-x="404" 
d="M394 687h-64v-674h64v-13h-384v13h65v674h-65v13h384v-13zM41 845h321v-65h-321v65z" />
    <glyph glyph-name="Itilde" unicode="&#x128;" horiz-adv-x="404" 
d="M394 687h-64v-674h64v-13h-384v13h65v674h-65v13h384v-13zM260 780c-41 0 -72 21 -107 41c-51 30 -84 6 -92 -32h-8c3 105 37 143 98 140c44 -3 86 -39 121 -52c40 -15 62 2 70 33h8c-3 -83 -30 -130 -90 -130z" />
    <glyph glyph-name="IJ" unicode="&#x132;" horiz-adv-x="1015" 
d="M394 687h-64v-674h64v-13h-384v13h65v674h-65v13h384v-13zM1005 700v-13h-65v-406c0 -225 -102 -288 -324 -288c-77 0 -128 12 -202 41v258h14c82 -162 133 -284 188 -284c53 0 69 60 69 182v497h-97v13h417z" />
    <glyph glyph-name="Jcircumflex" unicode="&#x134;" horiz-adv-x="611" 
d="M601 700v-13h-65v-406c0 -225 -102 -288 -324 -288c-77 0 -128 12 -202 41v258h14c82 -162 133 -284 188 -284c53 0 69 60 69 182v497h-97v13h417zM445 919l119 -147l-7 -7l-167 57l-167 -57l-7 7l119 147h110z" />
    <glyph glyph-name="Kcommaaccent" unicode="&#x136;" horiz-adv-x="889" 
d="M822 13h72v-13h-417v13h57l-179 296l-26 -26v-270h65v-13h-384v13h65v674h-65v13h384v-13h-65v-382l187 189c112 114 53 187 -36 193v13h326v-13c-93 -23 -177 -100 -268 -192l-9 -9zM550 -141c0 -109 -108 -214 -161 -247l-6 12c46 34 91 106 103 136
c-11 -5 -29 -10 -44 -10c-60 0 -109 49 -109 109s49 108 109 108s108 -48 108 -108z" />
    <glyph glyph-name="Lacute" unicode="&#x139;" horiz-adv-x="665" 
d="M634 300h16v-300h-640v13h64v674h-64v13h384v-13h-65v-665h52c167 0 236 145 253 278zM270 914c25 -26 24 -60 -11 -95c-47 -48 -147 -70 -147 -70l-7 7s22 100 69 147c36 35 70 36 96 11z" />
    <glyph glyph-name="Lcaron" unicode="&#x13d;" horiz-adv-x="665" 
d="M634 300h16v-300h-640v13h64v674h-64v13h384v-13h-65v-665h52c167 0 236 145 253 278zM652 592c0 -108 -108 -214 -161 -246l-6 11c46 34 91 107 103 136c-11 -5 -28 -9 -44 -9c-60 0 -109 48 -109 108s49 108 109 108s108 -48 108 -108z" />
    <glyph glyph-name="Lcommaaccent" unicode="&#x13b;" horiz-adv-x="665" 
d="M634 300h16v-300h-640v13h64v674h-64v13h384v-13h-65v-665h52c167 0 236 145 253 278zM478 -141c0 -109 -108 -214 -161 -247l-6 12c46 34 91 106 103 136c-11 -5 -29 -10 -44 -10c-60 0 -109 49 -109 109s49 108 109 108s108 -48 108 -108z" />
    <glyph glyph-name="Ldot" unicode="&#x13f;" horiz-adv-x="665" 
d="M634 300h16v-300h-640v13h64v674h-64v13h384v-13h-65v-665h52c167 0 236 145 253 278zM473 393c52 0 93 -42 93 -93s-41 -93 -93 -93c-51 0 -93 42 -93 93s42 93 93 93z" />
    <glyph glyph-name="Nacute" unicode="&#x143;" horiz-adv-x="828" 
d="M528 700h290v-13c-84 -16 -130 -136 -130 -239v-448h-93l-442 559v-306c0 -103 62 -224 147 -240v-13h-290v13c84 16 130 137 130 240v322l-88 112h-34v13h340l317 -399v147c0 103 -63 223 -147 239v13zM504 914c25 -26 24 -60 -11 -95c-47 -48 -147 -70 -147 -70l-7 7
s22 100 69 147c36 35 70 36 96 11z" />
    <glyph glyph-name="Ncaron" unicode="&#x147;" horiz-adv-x="828" 
d="M528 700h290v-13c-84 -16 -130 -136 -130 -239v-448h-93l-442 559v-306c0 -103 62 -224 147 -240v-13h-290v13c84 16 130 137 130 240v322l-88 112h-34v13h340l317 -399v147c0 103 -63 223 -147 239v13zM611 919l7 -6l-119 -148h-111l-119 148l7 6l167 -56z" />
    <glyph glyph-name="Ncommaaccent" unicode="&#x145;" horiz-adv-x="828" 
d="M528 700h290v-13c-84 -16 -130 -136 -130 -239v-448h-93l-442 559v-306c0 -103 62 -224 147 -240v-13h-290v13c84 16 130 137 130 240v322l-88 112h-34v13h340l317 -399v147c0 103 -63 223 -147 239v13zM532 -141c0 -109 -108 -214 -161 -247l-6 12c46 34 91 106 103 136
c-11 -5 -29 -10 -44 -10c-60 0 -109 49 -109 109s49 108 109 108s108 -48 108 -108z" />
    <glyph glyph-name="Ntilde" unicode="&#xd1;" horiz-adv-x="828" 
d="M528 700h290v-13c-84 -16 -130 -136 -130 -239v-448h-93l-442 559v-306c0 -103 62 -224 147 -240v-13h-290v13c84 16 130 137 130 240v322l-88 112h-34v13h340l317 -399v147c0 103 -63 223 -147 239v13zM492 780c-41 0 -72 21 -107 41c-51 30 -84 6 -92 -32h-8
c3 105 37 143 98 140c44 -3 86 -39 121 -52c40 -15 62 2 70 33h8c-3 -83 -30 -130 -90 -130z" />
    <glyph glyph-name="Oacute" unicode="&#xd3;" horiz-adv-x="823" 
d="M412 703c230 0 401 -130 401 -355c0 -224 -171 -355 -401 -355s-402 131 -402 355c0 225 172 355 402 355zM412 5c91 0 127 107 127 345s-36 342 -127 342c-92 0 -127 -104 -127 -342s35 -345 127 -345zM491 914c25 -26 24 -60 -11 -95c-47 -48 -147 -70 -147 -70l-7 7
s22 100 69 147c36 35 70 36 96 11z" />
    <glyph glyph-name="Obreve" unicode="&#x14e;" horiz-adv-x="823" 
d="M412 703c230 0 401 -130 401 -355c0 -224 -171 -355 -401 -355s-402 131 -402 355c0 225 172 355 402 355zM412 5c91 0 127 107 127 345s-36 342 -127 342c-92 0 -127 -104 -127 -342s35 -345 127 -345zM538 919h12c0 -98 -51 -159 -139 -159s-139 61 -139 159h11
c12 -42 63 -66 128 -66c64 0 116 24 127 66z" />
    <glyph glyph-name="Ocircumflex" unicode="&#xd4;" horiz-adv-x="823" 
d="M412 703c230 0 401 -130 401 -355c0 -224 -171 -355 -401 -355s-402 131 -402 355c0 225 172 355 402 355zM412 5c91 0 127 107 127 345s-36 342 -127 342c-92 0 -127 -104 -127 -342s35 -345 127 -345zM466 919l119 -147l-7 -7l-167 57l-167 -57l-7 7l119 147h110z" />
    <glyph glyph-name="Odieresis" unicode="&#xd6;" horiz-adv-x="823" 
d="M412 703c230 0 401 -130 401 -355c0 -224 -171 -355 -401 -355s-402 131 -402 355c0 225 172 355 402 355zM412 5c91 0 127 107 127 345s-36 342 -127 342c-92 0 -127 -104 -127 -342s35 -345 127 -345zM307 935c52 0 93 -42 93 -93s-41 -93 -93 -93c-51 0 -93 42 -93 93
s42 93 93 93zM515 935c52 0 93 -42 93 -93s-41 -93 -93 -93c-51 0 -93 42 -93 93s42 93 93 93z" />
    <glyph glyph-name="Ograve" unicode="&#xd2;" horiz-adv-x="823" 
d="M412 703c230 0 401 -130 401 -355c0 -224 -171 -355 -401 -355s-402 131 -402 355c0 225 172 355 402 355zM412 5c91 0 127 107 127 345s-36 342 -127 342c-92 0 -127 -104 -127 -342s35 -345 127 -345zM447 903c47 -47 70 -147 70 -147l-7 -7s-100 22 -147 70
c-36 35 -37 69 -11 95c25 25 60 24 95 -11z" />
    <glyph glyph-name="Ohungarumlaut" unicode="&#x150;" horiz-adv-x="823" 
d="M412 703c230 0 401 -130 401 -355c0 -224 -171 -355 -401 -355s-402 131 -402 355c0 225 172 355 402 355zM412 5c91 0 127 107 127 345s-36 342 -127 342c-92 0 -127 -104 -127 -342s35 -345 127 -345zM325 903c35 35 69 36 95 11c25 -26 25 -60 -11 -95
c-47 -48 -147 -70 -147 -70l-7 7s23 100 70 147zM602 914c26 -26 25 -60 -10 -95c-47 -48 -147 -70 -147 -70l-7 7s22 100 69 147c36 35 70 36 95 11z" />
    <glyph glyph-name="Omacron" unicode="&#x14c;" horiz-adv-x="823" 
d="M412 703c230 0 401 -130 401 -355c0 -224 -171 -355 -401 -355s-402 131 -402 355c0 225 172 355 402 355zM412 5c91 0 127 107 127 345s-36 342 -127 342c-92 0 -127 -104 -127 -342s35 -345 127 -345zM251 845h321v-65h-321v65z" />
    <glyph glyph-name="Oslashacute" unicode="&#x1fe;" horiz-adv-x="823" 
d="M649 645c101 -58 164 -160 164 -297c0 -224 -171 -355 -401 -355c-84 0 -161 18 -224 51l-33 -44h-22l40 52c-100 59 -163 161 -163 296c0 225 172 355 402 355c83 0 159 -17 221 -49l36 46h22zM285 350c0 -55 2 -103 6 -144l239 313c-15 119 -52 173 -118 173
c-92 0 -127 -104 -127 -342zM412 5c91 0 127 107 127 345c0 55 -2 103 -6 144l-239 -312c15 -120 52 -177 118 -177zM491 914c25 -26 24 -60 -11 -95c-47 -48 -147 -70 -147 -70l-7 7s22 100 69 147c36 35 70 36 96 11z" />
    <glyph glyph-name="Otilde" unicode="&#xd5;" horiz-adv-x="823" 
d="M412 703c230 0 401 -130 401 -355c0 -224 -171 -355 -401 -355s-402 131 -402 355c0 225 172 355 402 355zM412 5c91 0 127 107 127 345s-36 342 -127 342c-92 0 -127 -104 -127 -342s35 -345 127 -345zM470 780c-41 0 -72 21 -107 41c-51 30 -84 6 -92 -32h-8
c3 105 37 143 98 140c44 -3 86 -39 121 -52c40 -15 62 2 70 33h8c-3 -83 -30 -130 -90 -130z" />
    <glyph glyph-name="Racute" unicode="&#x154;" horiz-adv-x="774" 
d="M707 179v-41c0 -27 11 -43 36 -43c26 0 34 26 34 53h12c0 -150 -115 -155 -154 -155c-99 0 -170 43 -170 154v64c0 95 -48 127 -110 127h-26v-325h65v-13h-384v13h64v674h-64v13h377c165 0 304 -30 304 -189c0 -103 -88 -151 -228 -159v-3c182 0 244 -53 244 -170z
M344 351c86 0 107 77 107 160s-21 168 -107 168h-15v-328h15zM459 914c25 -26 24 -60 -11 -95c-47 -48 -147 -70 -147 -70l-7 7s22 100 69 147c36 35 70 36 96 11z" />
    <glyph glyph-name="Rcaron" unicode="&#x158;" horiz-adv-x="774" 
d="M707 179v-41c0 -27 11 -43 36 -43c26 0 34 26 34 53h12c0 -150 -115 -155 -154 -155c-99 0 -170 43 -170 154v64c0 95 -48 127 -110 127h-26v-325h65v-13h-384v13h64v674h-64v13h377c165 0 304 -30 304 -189c0 -103 -88 -151 -228 -159v-3c182 0 244 -53 244 -170z
M344 351c86 0 107 77 107 160s-21 168 -107 168h-15v-328h15zM537 919l7 -6l-119 -148h-111l-119 148l7 6l167 -56z" />
    <glyph glyph-name="Rcommaaccent" unicode="&#x156;" horiz-adv-x="774" 
d="M707 179v-41c0 -27 11 -43 36 -43c26 0 34 26 34 53h12c0 -150 -115 -155 -154 -155c-99 0 -170 43 -170 154v64c0 95 -48 127 -110 127h-26v-325h65v-13h-384v13h64v674h-64v13h377c165 0 304 -30 304 -189c0 -103 -88 -151 -228 -159v-3c182 0 244 -53 244 -170z
M344 351c86 0 107 77 107 160s-21 168 -107 168h-15v-328h15zM538 -141c0 -109 -108 -214 -161 -247l-6 12c46 34 91 106 103 136c-11 -5 -29 -10 -44 -10c-60 0 -109 49 -109 109s49 108 109 108s108 -48 108 -108z" />
    <glyph glyph-name="Sacute" unicode="&#x15a;" horiz-adv-x="613" 
d="M214 577c9 -129 404 -111 388 -376c-8 -138 -118 -208 -310 -208c-81 0 -196 17 -269 44v231h14c80 -154 163 -260 245 -260c60 0 93 29 99 80c21 168 -376 126 -360 408c7 130 90 207 306 207c60 0 151 -19 218 -44v-213h-14c-79 136 -128 241 -217 241
c-62 0 -105 -34 -100 -110zM381 914c25 -26 24 -60 -11 -95c-47 -48 -147 -70 -147 -70l-7 7s22 100 69 147c36 35 70 36 96 11z" />
    <glyph glyph-name="Scaron" unicode="&#x160;" horiz-adv-x="613" 
d="M214 577c9 -129 404 -111 388 -376c-8 -138 -118 -208 -310 -208c-81 0 -196 17 -269 44v231h14c80 -154 163 -260 245 -260c60 0 93 29 99 80c21 168 -376 126 -360 408c7 130 90 207 306 207c60 0 151 -19 218 -44v-213h-14c-79 136 -128 241 -217 241
c-62 0 -105 -34 -100 -110zM479 919l7 -6l-119 -148h-111l-119 148l7 6l167 -56z" />
    <glyph glyph-name="Scircumflex" unicode="&#x15c;" horiz-adv-x="613" 
d="M214 577c9 -129 404 -111 388 -376c-8 -138 -118 -208 -310 -208c-81 0 -196 17 -269 44v231h14c80 -154 163 -260 245 -260c60 0 93 29 99 80c21 168 -376 126 -360 408c7 130 90 207 306 207c60 0 151 -19 218 -44v-213h-14c-79 136 -128 241 -217 241
c-62 0 -105 -34 -100 -110zM366 919l119 -147l-7 -7l-167 57l-167 -57l-7 7l119 147h110z" />
    <glyph glyph-name="Scommaaccent" unicode="&#x218;" horiz-adv-x="613" 
d="M214 577c9 -129 404 -111 388 -376c-8 -138 -118 -208 -310 -208c-81 0 -196 17 -269 44v231h14c80 -154 163 -260 245 -260c60 0 93 29 99 80c21 168 -376 126 -360 408c7 130 90 207 306 207c60 0 151 -19 218 -44v-213h-14c-79 136 -128 241 -217 241
c-62 0 -105 -34 -100 -110zM408 -141c0 -109 -108 -214 -161 -247l-6 12c46 34 91 106 103 136c-11 -5 -29 -10 -44 -10c-60 0 -109 49 -109 109s49 108 109 108s108 -48 108 -108z" />
    <glyph glyph-name="Tcaron" unicode="&#x164;" horiz-adv-x="720" 
d="M10 700h700v-300h-13c-11 88 -55 271 -209 278v-665h64v-13h-384v13h65v665c-155 -7 -198 -190 -210 -278h-13v300zM527 919l7 -6l-119 -148h-111l-119 148l7 6l167 -56z" />
    <glyph glyph-name="Tcommaaccent" unicode="&#x162;" horiz-adv-x="720" 
d="M10 700h700v-300h-13c-11 88 -55 271 -209 278v-665h64v-13h-384v13h65v665c-155 -7 -198 -190 -210 -278h-13v300zM468 -141c0 -109 -108 -214 -161 -247l-6 12c46 34 91 106 103 136c-11 -5 -29 -10 -44 -10c-60 0 -109 49 -109 109s49 108 109 108s108 -48 108 -108z
" />
    <glyph glyph-name="Uacute" unicode="&#xda;" horiz-adv-x="780" 
d="M596 700h174v-13c-48 -13 -80 -54 -80 -157v-231c0 -180 -94 -306 -289 -306c-194 0 -327 108 -327 306v388h-64v13h384v-13h-65v-388c0 -153 66 -224 175 -224c100 0 173 79 173 224v231c0 103 -30 144 -81 157v13zM490 914c25 -26 24 -60 -11 -95
c-47 -48 -147 -70 -147 -70l-7 7s22 100 69 147c36 35 70 36 96 11z" />
    <glyph glyph-name="Ubreve" unicode="&#x16c;" horiz-adv-x="780" 
d="M596 700h174v-13c-48 -13 -80 -54 -80 -157v-231c0 -180 -94 -306 -289 -306c-194 0 -327 108 -327 306v388h-64v13h384v-13h-65v-388c0 -153 66 -224 175 -224c100 0 173 79 173 224v231c0 103 -30 144 -81 157v13zM607 919h12c0 -98 -51 -159 -139 -159
s-139 61 -139 159h11c12 -42 63 -66 128 -66c64 0 116 24 127 66z" />
    <glyph glyph-name="Ucircumflex" unicode="&#xdb;" horiz-adv-x="780" 
d="M596 700h174v-13c-48 -13 -80 -54 -80 -157v-231c0 -180 -94 -306 -289 -306c-194 0 -327 108 -327 306v388h-64v13h384v-13h-65v-388c0 -153 66 -224 175 -224c100 0 173 79 173 224v231c0 103 -30 144 -81 157v13zM525 919l119 -147l-7 -7l-167 57l-167 -57l-7 7
l119 147h110z" />
    <glyph glyph-name="Udieresis" unicode="&#xdc;" horiz-adv-x="780" 
d="M596 700h174v-13c-48 -13 -80 -54 -80 -157v-231c0 -180 -94 -306 -289 -306c-194 0 -327 108 -327 306v388h-64v13h384v-13h-65v-388c0 -153 66 -224 175 -224c100 0 173 79 173 224v231c0 103 -30 144 -81 157v13zM376 935c52 0 93 -42 93 -93s-41 -93 -93 -93
c-51 0 -93 42 -93 93s42 93 93 93zM584 935c52 0 93 -42 93 -93s-41 -93 -93 -93c-51 0 -93 42 -93 93s42 93 93 93z" />
    <glyph glyph-name="Ugrave" unicode="&#xd9;" horiz-adv-x="780" 
d="M596 700h174v-13c-48 -13 -80 -54 -80 -157v-231c0 -180 -94 -306 -289 -306c-194 0 -327 108 -327 306v388h-64v13h384v-13h-65v-388c0 -153 66 -224 175 -224c100 0 173 79 173 224v231c0 103 -30 144 -81 157v13zM465 903c47 -47 70 -147 70 -147l-7 -7
s-100 22 -147 70c-36 35 -37 69 -11 95c25 25 60 24 95 -11z" />
    <glyph glyph-name="Uhungarumlaut" unicode="&#x170;" horiz-adv-x="780" 
d="M596 700h174v-13c-48 -13 -80 -54 -80 -157v-231c0 -180 -94 -306 -289 -306c-194 0 -327 108 -327 306v388h-64v13h384v-13h-65v-388c0 -153 66 -224 175 -224c100 0 173 79 173 224v231c0 103 -30 144 -81 157v13zM443 903c35 35 69 36 95 11c25 -26 25 -60 -11 -95
c-47 -48 -147 -70 -147 -70l-7 7s23 100 70 147zM720 914c26 -26 25 -60 -10 -95c-47 -48 -147 -70 -147 -70l-7 7s22 100 69 147c36 35 70 36 95 11z" />
    <glyph glyph-name="Umacron" unicode="&#x16a;" horiz-adv-x="780" 
d="M596 700h174v-13c-48 -13 -80 -54 -80 -157v-231c0 -180 -94 -306 -289 -306c-194 0 -327 108 -327 306v388h-64v13h384v-13h-65v-388c0 -153 66 -224 175 -224c100 0 173 79 173 224v231c0 103 -30 144 -81 157v13zM319 845h321v-65h-321v65z" />
    <glyph glyph-name="Uring" unicode="&#x16e;" horiz-adv-x="780" 
d="M596 700h174v-13c-48 -13 -80 -54 -80 -157v-231c0 -180 -94 -306 -289 -306c-194 0 -327 108 -327 306v388h-64v13h384v-13h-65v-388c0 -153 66 -224 175 -224c100 0 173 79 173 224v231c0 103 -30 144 -81 157v13zM490 728c-63 0 -114 51 -114 114s51 114 114 114
s114 -51 114 -114s-51 -114 -114 -114zM490 899c-31 0 -57 -26 -57 -57s26 -57 57 -57s56 26 56 57s-25 57 -56 57z" />
    <glyph glyph-name="Utilde" unicode="&#x168;" horiz-adv-x="780" 
d="M596 700h174v-13c-48 -13 -80 -54 -80 -157v-231c0 -180 -94 -306 -289 -306c-194 0 -327 108 -327 306v388h-64v13h384v-13h-65v-388c0 -153 66 -224 175 -224c100 0 173 79 173 224v231c0 103 -30 144 -81 157v13zM548 780c-41 0 -72 21 -107 41c-51 30 -84 6 -92 -32
h-8c3 105 37 143 98 140c44 -3 86 -39 121 -52c40 -15 62 2 70 33h8c-3 -83 -30 -130 -90 -130z" />
    <glyph glyph-name="Wacute" unicode="&#x1e82;" horiz-adv-x="1151" 
d="M888 700h268v-13c-58 -17 -122 -85 -161 -200l-166 -487h-97l-177 452l-143 -452h-97l-259 687h-61v13h408v-13h-60l142 -405l133 418h129l158 -437l75 220c37 107 -8 191 -92 204v13zM755 914c25 -26 24 -60 -11 -95c-47 -48 -147 -70 -147 -70l-7 7s22 100 69 147
c36 35 70 36 96 11z" />
    <glyph glyph-name="Wcircumflex" unicode="&#x174;" horiz-adv-x="1151" 
d="M888 700h268v-13c-58 -17 -122 -85 -161 -200l-166 -487h-97l-177 452l-143 -452h-97l-259 687h-61v13h408v-13h-60l142 -405l133 418h129l158 -437l75 220c37 107 -8 191 -92 204v13zM733 919l119 -147l-7 -7l-167 57l-167 -57l-7 7l119 147h110z" />
    <glyph glyph-name="Wdieresis" unicode="&#x1e84;" horiz-adv-x="1151" 
d="M888 700h268v-13c-58 -17 -122 -85 -161 -200l-166 -487h-97l-177 452l-143 -452h-97l-259 687h-61v13h408v-13h-60l142 -405l133 418h129l158 -437l75 220c37 107 -8 191 -92 204v13zM578 935c52 0 93 -42 93 -93s-41 -93 -93 -93c-51 0 -93 42 -93 93s42 93 93 93z
M786 935c52 0 93 -42 93 -93s-41 -93 -93 -93c-51 0 -93 42 -93 93s42 93 93 93z" />
    <glyph glyph-name="Wgrave" unicode="&#x1e80;" horiz-adv-x="1151" 
d="M888 700h268v-13c-58 -17 -122 -85 -161 -200l-166 -487h-97l-177 452l-143 -452h-97l-259 687h-61v13h408v-13h-60l142 -405l133 418h129l158 -437l75 220c37 107 -8 191 -92 204v13zM691 903c47 -47 70 -147 70 -147l-7 -7s-100 22 -147 70c-36 35 -37 69 -11 95
c25 25 60 24 95 -11z" />
    <glyph glyph-name="Yacute" unicode="&#xdd;" horiz-adv-x="770" 
d="M509 700h266v-13c-58 -17 -113 -65 -163 -176l-97 -215v-283h64v-13h-384v13h65v285l-202 389h-63v13h401v-13h-67l178 -369l88 191c47 103 -1 172 -86 178v13zM495 914c25 -26 24 -60 -11 -95c-47 -48 -147 -70 -147 -70l-7 7s22 100 69 147c36 35 70 36 96 11z" />
    <glyph glyph-name="Ycircumflex" unicode="&#x176;" horiz-adv-x="770" 
d="M509 700h266v-13c-58 -17 -113 -65 -163 -176l-97 -215v-283h64v-13h-384v13h65v285l-202 389h-63v13h401v-13h-67l178 -369l88 191c47 103 -1 172 -86 178v13zM500 919l119 -147l-7 -7l-167 57l-167 -57l-7 7l119 147h110z" />
    <glyph glyph-name="Ydieresis" unicode="&#x178;" horiz-adv-x="770" 
d="M509 700h266v-13c-58 -17 -113 -65 -163 -176l-97 -215v-283h64v-13h-384v13h65v285l-202 389h-63v13h401v-13h-67l178 -369l88 191c47 103 -1 172 -86 178v13zM350 935c52 0 93 -42 93 -93s-41 -93 -93 -93c-51 0 -93 42 -93 93s42 93 93 93zM558 935
c52 0 93 -42 93 -93s-41 -93 -93 -93c-51 0 -93 42 -93 93s42 93 93 93z" />
    <glyph glyph-name="Ygrave" unicode="&#x1ef2;" horiz-adv-x="770" 
d="M509 700h266v-13c-58 -17 -113 -65 -163 -176l-97 -215v-283h64v-13h-384v13h65v285l-202 389h-63v13h401v-13h-67l178 -369l88 191c47 103 -1 172 -86 178v13zM440 903c47 -47 70 -147 70 -147l-7 -7s-100 22 -147 70c-36 35 -37 69 -11 95c25 25 60 24 95 -11z" />
    <glyph glyph-name="Zacute" unicode="&#x179;" horiz-adv-x="671" 
d="M661 700v-13l-376 -665h101c167 0 221 128 238 262h18v-284h-632v13l368 666h-68c-168 0 -239 -129 -256 -262h-17v283h624zM445 914c25 -26 24 -60 -11 -95c-47 -48 -147 -70 -147 -70l-7 7s22 100 69 147c36 35 70 36 96 11z" />
    <glyph glyph-name="Zcaron" unicode="&#x17d;" horiz-adv-x="671" 
d="M661 700v-13l-376 -665h101c167 0 221 128 238 262h18v-284h-632v13l368 666h-68c-168 0 -239 -129 -256 -262h-17v283h624zM543 919l7 -6l-119 -148h-111l-119 148l7 6l167 -56z" />
    <glyph glyph-name="Zdotaccent" unicode="&#x17b;" horiz-adv-x="671" 
d="M661 700v-13l-376 -665h101c167 0 221 128 238 262h18v-284h-632v13l368 666h-68c-168 0 -239 -129 -256 -262h-17v283h624zM395 935c52 0 93 -42 93 -93s-41 -93 -93 -93c-51 0 -93 42 -93 93s42 93 93 93z" />
    <glyph glyph-name="aacute" unicode="&#xe1;" horiz-adv-x="630" 
d="M637 89l13 -11c-18 -34 -73 -85 -157 -85c-87 0 -139 24 -152 79c-26 -38 -72 -79 -145 -79c-91 0 -186 44 -186 158c0 191 210 176 328 180v96c0 46 0 100 -41 100c-33 0 -92 -60 -201 -204h-12v181c76 23 155 36 224 36c128 0 268 -38 268 -177v-221
c0 -71 11 -79 28 -79c13 0 23 13 33 26zM231 181c0 -82 43 -142 107 -93v14v217c-82 4 -107 -40 -107 -138zM420 764c25 -26 24 -60 -11 -95c-47 -48 -147 -70 -147 -70l-7 7s22 100 69 147c36 35 70 36 96 11z" />
    <glyph glyph-name="abreve" unicode="&#x103;" horiz-adv-x="630" 
d="M637 89l13 -11c-18 -34 -73 -85 -157 -85c-87 0 -139 24 -152 79c-26 -38 -72 -79 -145 -79c-91 0 -186 44 -186 158c0 191 210 176 328 180v96c0 46 0 100 -41 100c-33 0 -92 -60 -201 -204h-12v181c76 23 155 36 224 36c128 0 268 -38 268 -177v-221
c0 -71 11 -79 28 -79c13 0 23 13 33 26zM231 181c0 -82 43 -142 107 -93v14v217c-82 4 -107 -40 -107 -138zM457 769h12c0 -98 -51 -159 -139 -159s-139 61 -139 159h11c12 -42 63 -66 128 -66c64 0 116 24 127 66z" />
    <glyph glyph-name="acircumflex" unicode="&#xe2;" horiz-adv-x="630" 
d="M637 89l13 -11c-18 -34 -73 -85 -157 -85c-87 0 -139 24 -152 79c-26 -38 -72 -79 -145 -79c-91 0 -186 44 -186 158c0 191 210 176 328 180v96c0 46 0 100 -41 100c-33 0 -92 -60 -201 -204h-12v181c76 23 155 36 224 36c128 0 268 -38 268 -177v-221
c0 -71 11 -79 28 -79c13 0 23 13 33 26zM231 181c0 -82 43 -142 107 -93v14v217c-82 4 -107 -40 -107 -138zM385 769l119 -147l-7 -7l-167 57l-167 -57l-7 7l119 147h110z" />
    <glyph glyph-name="adieresis" unicode="&#xe4;" horiz-adv-x="630" 
d="M637 89l13 -11c-18 -34 -73 -85 -157 -85c-87 0 -139 24 -152 79c-26 -38 -72 -79 -145 -79c-91 0 -186 44 -186 158c0 191 210 176 328 180v96c0 46 0 100 -41 100c-33 0 -92 -60 -201 -204h-12v181c76 23 155 36 224 36c128 0 268 -38 268 -177v-221
c0 -71 11 -79 28 -79c13 0 23 13 33 26zM231 181c0 -82 43 -142 107 -93v14v217c-82 4 -107 -40 -107 -138zM226 785c52 0 93 -42 93 -93s-41 -93 -93 -93c-51 0 -93 42 -93 93s42 93 93 93zM434 785c52 0 93 -42 93 -93s-41 -93 -93 -93c-51 0 -93 42 -93 93s42 93 93 93z
" />
    <glyph glyph-name="agrave" unicode="&#xe0;" horiz-adv-x="630" 
d="M637 89l13 -11c-18 -34 -73 -85 -157 -85c-87 0 -139 24 -152 79c-26 -38 -72 -79 -145 -79c-91 0 -186 44 -186 158c0 191 210 176 328 180v96c0 46 0 100 -41 100c-33 0 -92 -60 -201 -204h-12v181c76 23 155 36 224 36c128 0 268 -38 268 -177v-221
c0 -71 11 -79 28 -79c13 0 23 13 33 26zM231 181c0 -82 43 -142 107 -93v14v217c-82 4 -107 -40 -107 -138zM355 753c47 -47 70 -147 70 -147l-7 -7s-100 22 -147 70c-36 35 -37 69 -11 95c25 25 60 24 95 -11z" />
    <glyph glyph-name="amacron" unicode="&#x101;" horiz-adv-x="630" 
d="M637 89l13 -11c-18 -34 -73 -85 -157 -85c-87 0 -139 24 -152 79c-26 -38 -72 -79 -145 -79c-91 0 -186 44 -186 158c0 191 210 176 328 180v96c0 46 0 100 -41 100c-33 0 -92 -60 -201 -204h-12v181c76 23 155 36 224 36c128 0 268 -38 268 -177v-221
c0 -71 11 -79 28 -79c13 0 23 13 33 26zM231 181c0 -82 43 -142 107 -93v14v217c-82 4 -107 -40 -107 -138zM169 695h321v-65h-321v65z" />
    <glyph glyph-name="aring" unicode="&#xe5;" horiz-adv-x="630" 
d="M637 89l13 -11c-18 -34 -73 -85 -157 -85c-87 0 -139 24 -152 79c-26 -38 -72 -79 -145 -79c-91 0 -186 44 -186 158c0 191 210 176 328 180v96c0 46 0 100 -41 100c-33 0 -92 -60 -201 -204h-12v181c76 23 155 36 224 36c128 0 268 -38 268 -177v-221
c0 -71 11 -79 28 -79c13 0 23 13 33 26zM231 181c0 -82 43 -142 107 -93v14v217c-82 4 -107 -40 -107 -138zM330 578c-63 0 -114 51 -114 114s51 114 114 114s114 -51 114 -114s-51 -114 -114 -114zM330 749c-31 0 -57 -26 -57 -57s26 -57 57 -57s56 26 56 57s-25 57 -56 57
z" />
    <glyph glyph-name="atilde" unicode="&#xe3;" horiz-adv-x="630" 
d="M637 89l13 -11c-18 -34 -73 -85 -157 -85c-87 0 -139 24 -152 79c-26 -38 -72 -79 -145 -79c-91 0 -186 44 -186 158c0 191 210 176 328 180v96c0 46 0 100 -41 100c-33 0 -92 -60 -201 -204h-12v181c76 23 155 36 224 36c128 0 268 -38 268 -177v-221
c0 -71 11 -79 28 -79c13 0 23 13 33 26zM231 181c0 -82 43 -142 107 -93v14v217c-82 4 -107 -40 -107 -138zM388 630c-41 0 -72 21 -107 41c-51 30 -84 6 -92 -32h-8c3 105 37 143 98 140c44 -3 86 -39 121 -52c40 -15 62 2 70 33h8c-3 -83 -30 -130 -90 -130z" />
    <glyph glyph-name="aeacute" unicode="&#x1fd;" horiz-adv-x="919" 
d="M649 540c164 0 270 -86 259 -274h-314c10 -125 65 -204 163 -207c64 -1 97 32 122 62l13 -10c-30 -51 -101 -118 -230 -118c-144 0 -289 66 -319 214c-5 -72 -21 -214 -158 -214c-90 0 -175 44 -175 157c0 192 210 177 328 181v95c0 46 0 101 -40 101
c-34 0 -93 -61 -202 -205h-12v181c76 24 155 37 224 37c62 0 126 -12 176 -36c51 24 109 36 165 36zM231 181c-1 -97 109 -141 107 85v53c-81 4 -107 -41 -107 -138zM696 287c5 133 0 240 -47 240c-41 0 -65 -101 -56 -240h103zM589 764c25 -26 24 -60 -11 -95
c-47 -48 -147 -70 -147 -70l-7 7s22 100 69 147c36 35 70 36 96 11z" />
    <glyph glyph-name="cacute" unicode="&#x107;" horiz-adv-x="581" 
d="M558 122l13 -11c-31 -50 -101 -118 -224 -118c-163 0 -337 78 -337 273c0 194 168 273 342 273c69 0 134 -16 208 -44v-205h-15c-81 152 -122 237 -180 237c-68 0 -108 -117 -97 -261c9 -124 76 -205 165 -207c64 -1 99 30 125 63zM376 764c25 -26 24 -60 -11 -95
c-47 -48 -147 -70 -147 -70l-7 7s22 100 69 147c36 35 70 36 96 11z" />
    <glyph glyph-name="ccaron" unicode="&#x10d;" horiz-adv-x="581" 
d="M558 122l13 -11c-31 -50 -101 -118 -224 -118c-163 0 -337 78 -337 273c0 194 168 273 342 273c69 0 134 -16 208 -44v-205h-15c-81 152 -122 237 -180 237c-68 0 -108 -117 -97 -261c9 -124 76 -205 165 -207c64 -1 99 30 125 63zM514 769l7 -6l-119 -148h-111l-119 148
l7 6l167 -56z" />
    <glyph glyph-name="ccircumflex" unicode="&#x109;" horiz-adv-x="581" 
d="M558 122l13 -11c-31 -50 -101 -118 -224 -118c-163 0 -337 78 -337 273c0 194 168 273 342 273c69 0 134 -16 208 -44v-205h-15c-81 152 -122 237 -180 237c-68 0 -108 -117 -97 -261c9 -124 76 -205 165 -207c64 -1 99 30 125 63zM391 769l119 -147l-7 -7l-167 57
l-167 -57l-7 7l119 147h110z" />
    <glyph glyph-name="cdotaccent" unicode="&#x10b;" horiz-adv-x="581" 
d="M558 122l13 -11c-31 -50 -101 -118 -224 -118c-163 0 -337 78 -337 273c0 194 168 273 342 273c69 0 134 -16 208 -44v-205h-15c-81 152 -122 237 -180 237c-68 0 -108 -117 -97 -261c9 -124 76 -205 165 -207c64 -1 99 30 125 63zM346 785c52 0 93 -42 93 -93
s-41 -93 -93 -93c-51 0 -93 42 -93 93s42 93 93 93z" />
    <glyph glyph-name="dcaron" unicode="&#x10f;" horiz-adv-x="917" 
d="M700 13v-13h-294v102c-29 -57 -84 -109 -166 -109c-116 0 -230 89 -230 274c0 184 114 273 230 273c82 0 137 -51 166 -109v256h-57v13h295v-687h56zM355 85c21 3 38 18 51 44v275c-13 26 -30 41 -51 44c-74 10 -99 -85 -99 -181c0 -97 25 -192 99 -182zM907 595
c0 -108 -108 -214 -161 -246l-6 11c46 34 91 107 103 136c-11 -5 -28 -9 -44 -9c-60 0 -109 48 -109 108s49 108 109 108s108 -48 108 -108z" />
    <glyph glyph-name="eacute" unicode="&#xe9;" horiz-adv-x="592" 
d="M321 539c165 0 270 -85 260 -273h-315c10 -124 65 -204 164 -207c63 -1 96 32 121 63l13 -11c-30 -51 -101 -118 -229 -118c-163 0 -325 83 -325 273s161 273 311 273zM368 288c5 132 0 239 -47 239c-41 0 -65 -101 -56 -239h103zM362 764c25 -26 24 -60 -11 -95
c-47 -48 -147 -70 -147 -70l-7 7s22 100 69 147c36 35 70 36 96 11z" />
    <glyph glyph-name="ebreve" unicode="&#x115;" horiz-adv-x="592" 
d="M321 539c165 0 270 -85 260 -273h-315c10 -124 65 -204 164 -207c63 -1 96 32 121 63l13 -11c-30 -51 -101 -118 -229 -118c-163 0 -325 83 -325 273s161 273 311 273zM368 288c5 132 0 239 -47 239c-41 0 -65 -101 -56 -239h103zM439 769h12c0 -98 -51 -159 -139 -159
s-139 61 -139 159h11c12 -42 63 -66 128 -66c64 0 116 24 127 66z" />
    <glyph glyph-name="ecaron" unicode="&#x11b;" horiz-adv-x="592" 
d="M321 539c165 0 270 -85 260 -273h-315c10 -124 65 -204 164 -207c63 -1 96 32 121 63l13 -11c-30 -51 -101 -118 -229 -118c-163 0 -325 83 -325 273s161 273 311 273zM368 288c5 132 0 239 -47 239c-41 0 -65 -101 -56 -239h103zM479 769l7 -6l-119 -148h-111l-119 148
l7 6l167 -56z" />
    <glyph glyph-name="ecircumflex" unicode="&#xea;" horiz-adv-x="592" 
d="M321 539c165 0 270 -85 260 -273h-315c10 -124 65 -204 164 -207c63 -1 96 32 121 63l13 -11c-30 -51 -101 -118 -229 -118c-163 0 -325 83 -325 273s161 273 311 273zM368 288c5 132 0 239 -47 239c-41 0 -65 -101 -56 -239h103zM367 769l119 -147l-7 -7l-167 57
l-167 -57l-7 7l119 147h110z" />
    <glyph glyph-name="edieresis" unicode="&#xeb;" horiz-adv-x="592" 
d="M321 539c165 0 270 -85 260 -273h-315c10 -124 65 -204 164 -207c63 -1 96 32 121 63l13 -11c-30 -51 -101 -118 -229 -118c-163 0 -325 83 -325 273s161 273 311 273zM368 288c5 132 0 239 -47 239c-41 0 -65 -101 -56 -239h103zM208 785c52 0 93 -42 93 -93
s-41 -93 -93 -93c-51 0 -93 42 -93 93s42 93 93 93zM416 785c52 0 93 -42 93 -93s-41 -93 -93 -93c-51 0 -93 42 -93 93s42 93 93 93z" />
    <glyph glyph-name="edotaccent" unicode="&#x117;" horiz-adv-x="592" 
d="M321 539c165 0 270 -85 260 -273h-315c10 -124 65 -204 164 -207c63 -1 96 32 121 63l13 -11c-30 -51 -101 -118 -229 -118c-163 0 -325 83 -325 273s161 273 311 273zM368 288c5 132 0 239 -47 239c-41 0 -65 -101 -56 -239h103zM312 785c52 0 93 -42 93 -93
s-41 -93 -93 -93c-51 0 -93 42 -93 93s42 93 93 93z" />
    <glyph glyph-name="egrave" unicode="&#xe8;" horiz-adv-x="592" 
d="M321 539c165 0 270 -85 260 -273h-315c10 -124 65 -204 164 -207c63 -1 96 32 121 63l13 -11c-30 -51 -101 -118 -229 -118c-163 0 -325 83 -325 273s161 273 311 273zM368 288c5 132 0 239 -47 239c-41 0 -65 -101 -56 -239h103zM317 753c47 -47 70 -147 70 -147l-7 -7
s-100 22 -147 70c-36 35 -37 69 -11 95c25 25 60 24 95 -11z" />
    <glyph glyph-name="emacron" unicode="&#x113;" horiz-adv-x="592" 
d="M321 539c165 0 270 -85 260 -273h-315c10 -124 65 -204 164 -207c63 -1 96 32 121 63l13 -11c-30 -51 -101 -118 -229 -118c-163 0 -325 83 -325 273s161 273 311 273zM368 288c5 132 0 239 -47 239c-41 0 -65 -101 -56 -239h103zM131 695h321v-65h-321v65z" />
    <glyph glyph-name="gbreve" unicode="&#x11f;" horiz-adv-x="644" 
d="M369 177c162 0 265 -28 265 -156c0 -114 -108 -216 -323 -216c-190 0 -301 15 -301 88c0 54 71 79 127 91c-91 23 -123 71 -115 142c7 60 67 100 107 120c-48 27 -77 69 -77 128c0 115 112 166 260 166c41 0 79 -4 113 -12l189 172h15v-192h-146c55 -27 90 -70 90 -134
c0 -115 -113 -166 -261 -166c-57 0 -109 8 -152 24c-3 -8 -4 -16 -2 -25c7 -29 50 -30 211 -30zM312 525c-47 0 -53 -68 -53 -151s6 -151 53 -151s53 68 53 151s-6 151 -53 151zM312 -176c110 0 138 39 138 81c0 40 -34 62 -138 62c-39 0 -73 1 -103 4
c-29 -16 -49 -43 -49 -74c0 -50 51 -73 152 -73zM439 769h12c0 -98 -51 -159 -139 -159s-139 61 -139 159h11c12 -42 63 -66 128 -66c64 0 116 24 127 66z" />
    <glyph glyph-name="gcircumflex" unicode="&#x11d;" horiz-adv-x="644" 
d="M369 177c162 0 265 -28 265 -156c0 -114 -108 -216 -323 -216c-190 0 -301 15 -301 88c0 54 71 79 127 91c-91 23 -123 71 -115 142c7 60 67 100 107 120c-48 27 -77 69 -77 128c0 115 112 166 260 166c41 0 79 -4 113 -12l189 172h15v-192h-146c55 -27 90 -70 90 -134
c0 -115 -113 -166 -261 -166c-57 0 -109 8 -152 24c-3 -8 -4 -16 -2 -25c7 -29 50 -30 211 -30zM312 525c-47 0 -53 -68 -53 -151s6 -151 53 -151s53 68 53 151s-6 151 -53 151zM312 -176c110 0 138 39 138 81c0 40 -34 62 -138 62c-39 0 -73 1 -103 4
c-29 -16 -49 -43 -49 -74c0 -50 51 -73 152 -73zM367 769l119 -147l-7 -7l-167 57l-167 -57l-7 7l119 147h110z" />
    <glyph glyph-name="gcommaaccent" unicode="&#x123;" horiz-adv-x="644" 
d="M369 177c162 0 265 -28 265 -156c0 -114 -108 -216 -323 -216c-190 0 -301 15 -301 88c0 54 71 79 127 91c-91 23 -123 71 -115 142c7 60 67 100 107 120c-48 27 -77 69 -77 128c0 115 112 166 260 166c41 0 79 -4 113 -12l189 172h15v-192h-146c55 -27 90 -70 90 -134
c0 -115 -113 -166 -261 -166c-57 0 -109 8 -152 24c-3 -8 -4 -16 -2 -25c7 -29 50 -30 211 -30zM312 525c-47 0 -53 -68 -53 -151s6 -151 53 -151s53 68 53 151s-6 151 -53 151zM312 -176c110 0 138 39 138 81c0 40 -34 62 -138 62c-39 0 -73 1 -103 4
c-29 -16 -49 -43 -49 -74c0 -50 51 -73 152 -73zM322 814c60 0 108 -49 108 -109s-48 -108 -108 -108s-109 48 -109 108c0 109 109 214 161 246l7 -11c-46 -34 -92 -106 -103 -136c10 5 28 10 44 10z" />
    <glyph glyph-name="gdotaccent" unicode="&#x121;" horiz-adv-x="644" 
d="M369 177c162 0 265 -28 265 -156c0 -114 -108 -216 -323 -216c-190 0 -301 15 -301 88c0 54 71 79 127 91c-91 23 -123 71 -115 142c7 60 67 100 107 120c-48 27 -77 69 -77 128c0 115 112 166 260 166c41 0 79 -4 113 -12l189 172h15v-192h-146c55 -27 90 -70 90 -134
c0 -115 -113 -166 -261 -166c-57 0 -109 8 -152 24c-3 -8 -4 -16 -2 -25c7 -29 50 -30 211 -30zM312 525c-47 0 -53 -68 -53 -151s6 -151 53 -151s53 68 53 151s-6 151 -53 151zM312 -176c110 0 138 39 138 81c0 40 -34 62 -138 62c-39 0 -73 1 -103 4
c-29 -16 -49 -43 -49 -74c0 -50 51 -73 152 -73zM312 785c52 0 93 -42 93 -93s-41 -93 -93 -93c-51 0 -93 42 -93 93s42 93 93 93z" />
    <glyph glyph-name="hcircumflex" unicode="&#x125;" horiz-adv-x="751" 
d="M741 13v-13h-351v13h57v354c0 60 -14 94 -62 90c-51 -4 -80 -82 -80 -133v-311h56v-13h-351v13h57v674h-57v13h295v-317c29 97 93 157 193 157c132 0 187 -85 187 -182v-345h56zM249 904l119 -147l-7 -7l-167 57l-167 -57l-7 7l119 147h110z" />
    <glyph glyph-name="iacute" unicode="&#xed;" 
d="M304 13h57v-13h-351v13h56v501h-56v13h294v-514zM255 764c25 -26 24 -60 -11 -95c-47 -48 -147 -70 -147 -70l-7 7s22 100 69 147c36 35 70 36 96 11z" />
    <glyph glyph-name="ibreve" unicode="&#x12d;" 
d="M304 13h57v-13h-351v13h56v501h-56v13h294v-514zM312 769h12c0 -98 -51 -159 -139 -159s-139 61 -139 159h11c12 -42 63 -66 128 -66c64 0 116 24 127 66z" />
    <glyph glyph-name="icircumflex" unicode="&#xee;" 
d="M309 13h57v-13h-351v13h56v501h-56v13h294v-514zM235 769l119 -147l-7 -7l-167 57l-167 -57l-7 7l119 147h110z" />
    <glyph glyph-name="idieresis" unicode="&#xef;" 
d="M303 13h57v-13h-351v13h56v501h-56v13h294v-514zM81 785c52 0 93 -42 93 -93s-41 -93 -93 -93c-51 0 -93 42 -93 93s42 93 93 93zM289 785c52 0 93 -42 93 -93s-41 -93 -93 -93c-51 0 -93 42 -93 93s42 93 93 93z" />
    <glyph glyph-name="igrave" unicode="&#xec;" 
d="M304 13h57v-13h-351v13h56v501h-56v13h294v-514zM191 753c47 -47 70 -147 70 -147l-7 -7s-100 22 -147 70c-36 35 -37 69 -11 95c25 25 60 24 95 -11z" />
    <glyph glyph-name="imacron" unicode="&#x12b;" 
d="M304 13h57v-13h-351v13h56v501h-56v13h294v-514zM15 695h321v-65h-321v65z" />
    <glyph glyph-name="itilde" unicode="&#x129;" 
d="M304 13h57v-13h-351v13h56v501h-56v13h294v-514zM234 630c-41 0 -72 21 -107 41c-51 30 -84 6 -92 -32h-8c3 105 37 143 98 140c44 -3 86 -39 121 -52c40 -15 62 2 70 33h8c-3 -83 -30 -130 -90 -130z" />
    <glyph glyph-name="ij" unicode="&#x133;" horiz-adv-x="741" 
d="M304 13h57v-13h-351v13h56v501h-56v13h294v-514zM185 564c-62 0 -112 50 -112 113c0 62 50 113 112 113c63 0 113 -51 113 -113c0 -63 -50 -113 -113 -113zM360 527h316v-378c0 -239 -87 -329 -325 -329v15c64 0 87 76 87 198v481h-78v13zM557 564
c-62 0 -113 50 -113 113c0 62 51 113 113 113s113 -51 113 -113c0 -63 -51 -113 -113 -113z" />
    <glyph glyph-name="dotlessi" unicode="&#x131;" 
d="M304 13h57v-13h-351v13h56v501h-56v13h294v-514z" />
    <glyph glyph-name="jcircumflex" unicode="&#x135;" horiz-adv-x="367" 
d="M-11 527h316v-378c0 -239 -87 -329 -325 -329v15c64 0 87 76 87 198v481h-78v13zM218 719l119 -147l-7 -7l-167 57l-167 -57l-7 7l119 147h110z" />
    <glyph glyph-name="kcommaaccent" unicode="&#x137;" horiz-adv-x="727" 
d="M686 13h61v-13h-367v13h52l-113 216l-15 -16v-200h57v-13h-351v13h56v674h-56v13h294v-471l128 136c71 76 59 141 -6 149v13h246v-13c-64 -16 -137 -62 -200 -124zM477 -141c0 -109 -108 -214 -161 -247l-6 12c46 34 91 106 103 136c-11 -5 -29 -10 -44 -10
c-60 0 -109 49 -109 109s49 108 109 108s108 -48 108 -108z" />
    <glyph glyph-name="kgreenlandic" unicode="&#x138;" horiz-adv-x="727" 
d="M686 13h61v-13h-367v13h52l-113 216l-15 -16v-200h57v-13h-351v13h56v501h-56v13h351v-13h-57v-285l128 136c71 76 59 141 -6 149v13h246v-13c-64 -16 -137 -62 -200 -124z" />
    <glyph glyph-name="lacute" unicode="&#x13a;" 
d="M305 13h56v-13h-351v13h57v674h-57v13h295v-687zM255 929c25 -26 24 -60 -11 -95c-47 -48 -147 -70 -147 -70l-7 7s22 100 69 147c36 35 70 36 96 11z" />
    <glyph glyph-name="lcaron" unicode="&#x13e;" horiz-adv-x="582" 
d="M305 13h56v-13h-351v13h57v674h-57v13h295v-687zM572 595c0 -108 -108 -214 -161 -246l-6 11c46 34 91 107 103 136c-11 -5 -28 -9 -44 -9c-60 0 -109 48 -109 108s49 108 109 108s108 -48 108 -108z" />
    <glyph glyph-name="lcommaaccent" unicode="&#x13c;" 
d="M305 13h56v-13h-351v13h57v674h-57v13h295v-687zM294 -141c0 -109 -108 -214 -161 -247l-6 12c46 34 91 106 103 136c-11 -5 -29 -10 -44 -10c-60 0 -109 49 -109 109s49 108 109 108s108 -48 108 -108z" />
    <glyph glyph-name="ldot" unicode="&#x140;" horiz-adv-x="537" 
d="M434 396c52 0 93 -42 93 -93s-41 -93 -93 -93c-51 0 -93 42 -93 93s42 93 93 93zM305 13h56v-13h-351v13h57v674h-57v13h295v-687z" />
    <glyph glyph-name="nacute" unicode="&#x144;" horiz-adv-x="751" 
d="M741 13v-13h-351v13h56v354c0 60 -14 94 -61 90c-52 -4 -81 -82 -81 -133v-311h57v-13h-351v13h56v501h-56v13h294v-144c29 97 93 157 194 157c131 0 186 -85 186 -182v-345h57zM455 764c25 -26 24 -60 -11 -95c-47 -48 -147 -70 -147 -70l-7 7s22 100 69 147
c36 35 70 36 96 11z" />
    <glyph glyph-name="napostrophe" unicode="&#x149;" horiz-adv-x="979" 
d="M969 13v-13h-351v13h56v354c0 60 -14 94 -61 90c-52 -4 -81 -82 -81 -133v-311h57v-13h-351v13h56v501h-56v13h294v-144c29 97 93 157 194 157c131 0 186 -85 186 -182v-345h57zM227 419c0 -109 -108 -214 -161 -247l-6 12c46 34 91 106 103 136c-11 -5 -29 -10 -44 -10
c-60 0 -109 49 -109 109s49 108 109 108s108 -48 108 -108z" />
    <glyph glyph-name="ncaron" unicode="&#x148;" horiz-adv-x="751" 
d="M741 13v-13h-351v13h56v354c0 60 -14 94 -61 90c-52 -4 -81 -82 -81 -133v-311h57v-13h-351v13h56v501h-56v13h294v-144c29 97 93 157 194 157c131 0 186 -85 186 -182v-345h57zM533 769l7 -6l-119 -148h-111l-119 148l7 6l167 -56z" />
    <glyph glyph-name="ncommaaccent" unicode="&#x146;" horiz-adv-x="751" 
d="M741 13v-13h-351v13h56v354c0 60 -14 94 -61 90c-52 -4 -81 -82 -81 -133v-311h57v-13h-351v13h56v501h-56v13h294v-144c29 97 93 157 194 157c131 0 186 -85 186 -182v-345h57zM484 -141c0 -109 -108 -214 -161 -247l-6 12c46 34 91 106 103 136c-11 -5 -29 -10 -44 -10
c-60 0 -109 49 -109 109s49 108 109 108s108 -48 108 -108z" />
    <glyph glyph-name="ntilde" unicode="&#xf1;" horiz-adv-x="751" 
d="M741 13v-13h-351v13h56v354c0 60 -14 94 -61 90c-52 -4 -81 -82 -81 -133v-311h57v-13h-351v13h56v501h-56v13h294v-144c29 97 93 157 194 157c131 0 186 -85 186 -182v-345h57zM434 630c-41 0 -72 21 -107 41c-51 30 -84 6 -92 -32h-8c3 105 37 143 98 140
c44 -3 86 -39 121 -52c40 -15 62 2 70 33h8c-3 -83 -30 -130 -90 -130z" />
    <glyph glyph-name="oacute" unicode="&#xf3;" horiz-adv-x="655" 
d="M328 540c163 0 317 -81 317 -274s-154 -273 -317 -273c-164 0 -318 80 -318 273s154 274 318 274zM328 5c64 0 74 117 74 261c0 145 -10 261 -74 261c-65 0 -75 -116 -75 -261c0 -144 10 -261 75 -261zM397 764c25 -26 24 -60 -11 -95c-47 -48 -147 -70 -147 -70l-7 7
s22 100 69 147c36 35 70 36 96 11z" />
    <glyph glyph-name="obreve" unicode="&#x14f;" horiz-adv-x="655" 
d="M328 540c163 0 317 -81 317 -274s-154 -273 -317 -273c-164 0 -318 80 -318 273s154 274 318 274zM328 5c64 0 74 117 74 261c0 145 -10 261 -74 261c-65 0 -75 -116 -75 -261c0 -144 10 -261 75 -261zM454 769h12c0 -98 -51 -159 -139 -159s-139 61 -139 159h11
c12 -42 63 -66 128 -66c64 0 116 24 127 66z" />
    <glyph glyph-name="ocircumflex" unicode="&#xf4;" horiz-adv-x="655" 
d="M328 540c163 0 317 -81 317 -274s-154 -273 -317 -273c-164 0 -318 80 -318 273s154 274 318 274zM328 5c64 0 74 117 74 261c0 145 -10 261 -74 261c-65 0 -75 -116 -75 -261c0 -144 10 -261 75 -261zM382 769l119 -147l-7 -7l-167 57l-167 -57l-7 7l119 147h110z" />
    <glyph glyph-name="odieresis" unicode="&#xf6;" horiz-adv-x="655" 
d="M328 540c163 0 317 -81 317 -274s-154 -273 -317 -273c-164 0 -318 80 -318 273s154 274 318 274zM328 5c64 0 74 117 74 261c0 145 -10 261 -74 261c-65 0 -75 -116 -75 -261c0 -144 10 -261 75 -261zM223 785c52 0 93 -42 93 -93s-41 -93 -93 -93c-51 0 -93 42 -93 93
s42 93 93 93zM431 785c52 0 93 -42 93 -93s-41 -93 -93 -93c-51 0 -93 42 -93 93s42 93 93 93z" />
    <glyph glyph-name="ograve" unicode="&#xf2;" horiz-adv-x="655" 
d="M328 540c163 0 317 -81 317 -274s-154 -273 -317 -273c-164 0 -318 80 -318 273s154 274 318 274zM328 5c64 0 74 117 74 261c0 145 -10 261 -74 261c-65 0 -75 -116 -75 -261c0 -144 10 -261 75 -261zM363 753c47 -47 70 -147 70 -147l-7 -7s-100 22 -147 70
c-36 35 -37 69 -11 95c25 25 60 24 95 -11z" />
    <glyph glyph-name="ohungarumlaut" unicode="&#x151;" horiz-adv-x="655" 
d="M328 540c163 0 317 -81 317 -274s-154 -273 -317 -273c-164 0 -318 80 -318 273s154 274 318 274zM328 5c64 0 74 117 74 261c0 145 -10 261 -74 261c-65 0 -75 -116 -75 -261c0 -144 10 -261 75 -261zM261 753c35 35 69 36 95 11c25 -26 25 -60 -11 -95
c-47 -48 -147 -70 -147 -70l-7 7s23 100 70 147zM538 764c26 -26 25 -60 -10 -95c-47 -48 -147 -70 -147 -70l-7 7s22 100 69 147c36 35 70 36 95 11z" />
    <glyph glyph-name="omacron" unicode="&#x14d;" horiz-adv-x="655" 
d="M328 540c163 0 317 -81 317 -274s-154 -273 -317 -273c-164 0 -318 80 -318 273s154 274 318 274zM328 5c64 0 74 117 74 261c0 145 -10 261 -74 261c-65 0 -75 -116 -75 -261c0 -144 10 -261 75 -261zM167 695h321v-65h-321v65z" />
    <glyph glyph-name="oslashacute" unicode="&#x1ff;" horiz-adv-x="655" 
d="M551 473c57 -44 94 -112 94 -207c0 -192 -154 -273 -318 -273c-76 0 -150 18 -208 56l-49 -49h-22l59 58c-59 44 -97 112 -97 208c0 193 154 274 317 274c78 0 153 -18 211 -58l46 45h22zM253 266c0 -22 0 -43 1 -64l146 144c-4 105 -21 181 -73 181
c-64 0 -74 -116 -74 -261zM327 5c65 0 74 117 74 261v59l-146 -143c4 -103 21 -177 72 -177zM397 764c25 -26 24 -60 -11 -95c-47 -48 -147 -70 -147 -70l-7 7s22 100 69 147c36 35 70 36 96 11z" />
    <glyph glyph-name="otilde" unicode="&#xf5;" horiz-adv-x="655" 
d="M328 540c163 0 317 -81 317 -274s-154 -273 -317 -273c-164 0 -318 80 -318 273s154 274 318 274zM328 5c64 0 74 117 74 261c0 145 -10 261 -74 261c-65 0 -75 -116 -75 -261c0 -144 10 -261 75 -261zM386 630c-41 0 -72 21 -107 41c-51 30 -84 6 -92 -32h-8
c3 105 37 143 98 140c44 -3 86 -39 121 -52c40 -15 62 2 70 33h8c-3 -83 -30 -130 -90 -130z" />
    <glyph glyph-name="racute" unicode="&#x155;" horiz-adv-x="581" 
d="M468 540c39 0 87 -22 103 -43l-92 -166h-17c-20 39 -80 95 -124 71c-18 -10 -34 -27 -34 -78v-311h90v-13h-384v13h56v501h-56v13h294v-143c32 98 71 156 164 156zM430 764c25 -26 24 -60 -11 -95c-47 -48 -147 -70 -147 -70l-7 7s22 100 69 147c36 35 70 36 96 11z" />
    <glyph glyph-name="rcaron" unicode="&#x159;" horiz-adv-x="581" 
d="M468 540c39 0 87 -22 103 -43l-92 -166h-17c-20 39 -80 95 -124 71c-18 -10 -34 -27 -34 -78v-311h90v-13h-384v13h56v501h-56v13h294v-143c32 98 71 156 164 156zM468 769l7 -6l-119 -148h-111l-119 148l7 6l167 -56z" />
    <glyph glyph-name="rcommaaccent" unicode="&#x157;" horiz-adv-x="581" 
d="M468 540c39 0 87 -22 103 -43l-92 -166h-17c-20 39 -80 95 -124 71c-18 -10 -34 -27 -34 -78v-311h90v-13h-384v13h56v501h-56v13h294v-143c32 98 71 156 164 156zM293 -141c0 -109 -108 -214 -161 -247l-6 12c46 34 91 106 103 136c-11 -5 -29 -10 -44 -10
c-60 0 -109 49 -109 109s49 108 109 108s108 -48 108 -108z" />
    <glyph glyph-name="sacute" unicode="&#x15b;" horiz-adv-x="504" 
d="M191 449c5 -46 76 -64 144 -95c101 -46 171 -81 156 -201c-20 -154 -178 -160 -260 -160c-64 0 -140 12 -221 34v199h16c96 -154 158 -215 204 -221c42 -6 69 17 68 66c0 50 -59 73 -129 105c-77 34 -151 74 -151 183c0 164 154 181 230 181c54 0 141 -17 207 -35v-182
h-17c-90 148 -144 204 -191 204c-39 0 -61 -32 -56 -78zM332 764c25 -26 24 -60 -11 -95c-47 -48 -147 -70 -147 -70l-7 7s22 100 69 147c36 35 70 36 96 11z" />
    <glyph glyph-name="scaron" unicode="&#x161;" horiz-adv-x="504" 
d="M191 449c5 -46 76 -64 144 -95c101 -46 171 -81 156 -201c-20 -154 -178 -160 -260 -160c-64 0 -140 12 -221 34v199h16c96 -154 158 -215 204 -221c42 -6 69 17 68 66c0 50 -59 73 -129 105c-77 34 -151 74 -151 183c0 164 154 181 230 181c54 0 141 -17 207 -35v-182
h-17c-90 148 -144 204 -191 204c-39 0 -61 -32 -56 -78zM419 769l7 -6l-119 -148h-111l-119 148l7 6l167 -56z" />
    <glyph glyph-name="scircumflex" unicode="&#x15d;" horiz-adv-x="504" 
d="M191 449c5 -46 76 -64 144 -95c101 -46 171 -81 156 -201c-20 -154 -178 -160 -260 -160c-64 0 -140 12 -221 34v199h16c96 -154 158 -215 204 -221c42 -6 69 17 68 66c0 50 -59 73 -129 105c-77 34 -151 74 -151 183c0 164 154 181 230 181c54 0 141 -17 207 -35v-182
h-17c-90 148 -144 204 -191 204c-39 0 -61 -32 -56 -78zM307 769l119 -147l-7 -7l-167 57l-167 -57l-7 7l119 147h110z" />
    <glyph glyph-name="scommaaccent" unicode="&#x219;" horiz-adv-x="504" 
d="M191 449c5 -46 76 -64 144 -95c101 -46 171 -81 156 -201c-20 -154 -178 -160 -260 -160c-64 0 -140 12 -221 34v199h16c96 -154 158 -215 204 -221c42 -6 69 17 68 66c0 50 -59 73 -129 105c-77 34 -151 74 -151 183c0 164 154 181 230 181c54 0 141 -17 207 -35v-182
h-17c-90 148 -144 204 -191 204c-39 0 -61 -32 -56 -78zM370 -141c0 -109 -108 -214 -161 -247l-6 12c46 34 91 106 103 136c-11 -5 -29 -10 -44 -10c-60 0 -109 49 -109 109s49 108 109 108s108 -48 108 -108z" />
    <glyph glyph-name="tcaron" unicode="&#x165;" horiz-adv-x="647" 
d="M412 92l12 -11c-34 -50 -102 -88 -192 -88c-105 0 -170 57 -170 158v363h-57v13h57l222 160h16v-160h106v-13h-106v-379c0 -71 26 -81 52 -81c18 0 35 8 60 38zM637 595c0 -108 -108 -214 -161 -246l-6 11c46 34 91 107 103 136c-11 -5 -28 -9 -44 -9
c-60 0 -109 48 -109 108s49 108 109 108s108 -48 108 -108z" />
    <glyph glyph-name="tcommaaccent" unicode="&#x163;" horiz-adv-x="419" 
d="M412 92l12 -11c-34 -50 -102 -88 -192 -88c-105 0 -170 57 -170 158v363h-57v13h57l222 160h16v-160h106v-13h-106v-379c0 -71 26 -81 52 -81c18 0 35 8 60 38zM333 -141c0 -109 -108 -214 -161 -247l-6 12c46 34 91 106 103 136c-11 -5 -29 -10 -44 -10
c-60 0 -109 49 -109 109s49 108 109 108s108 -48 108 -108z" />
    <glyph glyph-name="uacute" unicode="&#xfa;" horiz-adv-x="746" 
d="M679 13h57v-13h-295v145c-29 -98 -93 -152 -193 -152c-132 0 -187 79 -187 176v345h-56v13h294v-367c0 -60 14 -93 62 -90c51 4 80 82 80 133v311h-56v13h294v-514zM450 764c25 -26 24 -60 -11 -95c-47 -48 -147 -70 -147 -70l-7 7s22 100 69 147c36 35 70 36 96 11z" />
    <glyph glyph-name="ubreve" unicode="&#x16d;" horiz-adv-x="746" 
d="M679 13h57v-13h-295v145c-29 -98 -93 -152 -193 -152c-132 0 -187 79 -187 176v345h-56v13h294v-367c0 -60 14 -93 62 -90c51 4 80 82 80 133v311h-56v13h294v-514zM497 769h12c0 -98 -51 -159 -139 -159s-139 61 -139 159h11c12 -42 63 -66 128 -66c64 0 116 24 127 66z
" />
    <glyph glyph-name="ucircumflex" unicode="&#xfb;" horiz-adv-x="746" 
d="M679 13h57v-13h-295v145c-29 -98 -93 -152 -193 -152c-132 0 -187 79 -187 176v345h-56v13h294v-367c0 -60 14 -93 62 -90c51 4 80 82 80 133v311h-56v13h294v-514zM425 769l119 -147l-7 -7l-167 57l-167 -57l-7 7l119 147h110z" />
    <glyph glyph-name="udieresis" unicode="&#xfc;" horiz-adv-x="746" 
d="M679 13h57v-13h-295v145c-29 -98 -93 -152 -193 -152c-132 0 -187 79 -187 176v345h-56v13h294v-367c0 -60 14 -93 62 -90c51 4 80 82 80 133v311h-56v13h294v-514zM266 785c52 0 93 -42 93 -93s-41 -93 -93 -93c-51 0 -93 42 -93 93s42 93 93 93zM474 785
c52 0 93 -42 93 -93s-41 -93 -93 -93c-51 0 -93 42 -93 93s42 93 93 93z" />
    <glyph glyph-name="uhungarumlaut" unicode="&#x171;" horiz-adv-x="746" 
d="M679 13h57v-13h-295v145c-29 -98 -93 -152 -193 -152c-132 0 -187 79 -187 176v345h-56v13h294v-367c0 -60 14 -93 62 -90c51 4 80 82 80 133v311h-56v13h294v-514zM314 753c35 35 69 36 95 11c25 -26 25 -60 -11 -95c-47 -48 -147 -70 -147 -70l-7 7s23 100 70 147z
M591 764c26 -26 25 -60 -10 -95c-47 -48 -147 -70 -147 -70l-7 7s22 100 69 147c36 35 70 36 95 11z" />
    <glyph glyph-name="ugrave" unicode="&#xf9;" horiz-adv-x="746" 
d="M679 13h57v-13h-295v145c-29 -98 -93 -152 -193 -152c-132 0 -187 79 -187 176v345h-56v13h294v-367c0 -60 14 -93 62 -90c51 4 80 82 80 133v311h-56v13h294v-514zM376 753c47 -47 70 -147 70 -147l-7 -7s-100 22 -147 70c-36 35 -37 69 -11 95c25 25 60 24 95 -11z" />
    <glyph glyph-name="umacron" unicode="&#x16b;" horiz-adv-x="746" 
d="M679 13h57v-13h-295v145c-29 -98 -93 -152 -193 -152c-132 0 -187 79 -187 176v345h-56v13h294v-367c0 -60 14 -93 62 -90c51 4 80 82 80 133v311h-56v13h294v-514zM210 695h321v-65h-321v65z" />
    <glyph glyph-name="uring" unicode="&#x16f;" horiz-adv-x="746" 
d="M679 13h57v-13h-295v145c-29 -98 -93 -152 -193 -152c-132 0 -187 79 -187 176v345h-56v13h294v-367c0 -60 14 -93 62 -90c51 4 80 82 80 133v311h-56v13h294v-514zM370 578c-63 0 -114 51 -114 114s51 114 114 114s114 -51 114 -114s-51 -114 -114 -114zM370 749
c-31 0 -57 -26 -57 -57s26 -57 57 -57s56 26 56 57s-25 57 -56 57z" />
    <glyph glyph-name="utilde" unicode="&#x169;" horiz-adv-x="746" 
d="M679 13h57v-13h-295v145c-29 -98 -93 -152 -193 -152c-132 0 -187 79 -187 176v345h-56v13h294v-367c0 -60 14 -93 62 -90c51 4 80 82 80 133v311h-56v13h294v-514zM429 630c-41 0 -72 21 -107 41c-51 30 -84 6 -92 -32h-8c3 105 37 143 98 140c44 -3 86 -39 121 -52
c40 -15 62 2 70 33h8c-3 -83 -30 -130 -90 -130z" />
    <glyph glyph-name="wacute" unicode="&#x1e83;" horiz-adv-x="987" 
d="M741 527h251v-13c-57 -17 -109 -85 -154 -194l-130 -320h-89l-141 332l-114 -332h-90l-217 514h-62v13h393v-13h-68l107 -290l105 303h111l131 -332l51 124c44 108 0 182 -84 195v13zM683 764c25 -26 24 -60 -11 -95c-47 -48 -147 -70 -147 -70l-7 7s22 100 69 147
c36 35 70 36 96 11z" />
    <glyph glyph-name="wcircumflex" unicode="&#x175;" horiz-adv-x="987" 
d="M741 527h251v-13c-57 -17 -109 -85 -154 -194l-130 -320h-89l-141 332l-114 -332h-90l-217 514h-62v13h393v-13h-68l107 -290l105 303h111l131 -332l51 124c44 108 0 182 -84 195v13zM638 769l119 -147l-7 -7l-167 57l-167 -57l-7 7l119 147h110z" />
    <glyph glyph-name="wdieresis" unicode="&#x1e85;" horiz-adv-x="987" 
d="M741 527h251v-13c-57 -17 -109 -85 -154 -194l-130 -320h-89l-141 332l-114 -332h-90l-217 514h-62v13h393v-13h-68l107 -290l105 303h111l131 -332l51 124c44 108 0 182 -84 195v13zM479 785c52 0 93 -42 93 -93s-41 -93 -93 -93c-51 0 -93 42 -93 93s42 93 93 93z
M687 785c52 0 93 -42 93 -93s-41 -93 -93 -93c-51 0 -93 42 -93 93s42 93 93 93z" />
    <glyph glyph-name="wgrave" unicode="&#x1e81;" horiz-adv-x="987" 
d="M741 527h251v-13c-57 -17 -109 -85 -154 -194l-130 -320h-89l-141 332l-114 -332h-90l-217 514h-62v13h393v-13h-68l107 -290l105 303h111l131 -332l51 124c44 108 0 182 -84 195v13zM589 753c47 -47 70 -147 70 -147l-7 -7s-100 22 -147 70c-36 35 -37 69 -11 95
c25 25 60 24 95 -11z" />
    <glyph glyph-name="yacute" unicode="&#xfd;" horiz-adv-x="683" 
d="M436 527h252v-13c-57 -17 -113 -87 -161 -196l-137 -311l-161 -331l-161 157v13l258 101l-268 567h-63v13h384v-13h-68l141 -337s62 141 62 142c47 107 6 182 -78 195v13zM461 764c25 -26 24 -60 -11 -95c-47 -48 -147 -70 -147 -70l-7 7s22 100 69 147
c36 35 70 36 96 11z" />
    <glyph glyph-name="ycircumflex" unicode="&#x177;" horiz-adv-x="683" 
d="M436 527h252v-13c-57 -17 -113 -87 -161 -196l-137 -311l-161 -331l-161 157v13l258 101l-268 567h-63v13h384v-13h-68l141 -337s62 141 62 142c47 107 6 182 -78 195v13zM463 769l119 -147l-7 -7l-167 57l-167 -57l-7 7l119 147h110z" />
    <glyph glyph-name="ydieresis" unicode="&#xff;" horiz-adv-x="683" 
d="M436 527h252v-13c-57 -17 -113 -87 -161 -196l-137 -311l-161 -331l-161 157v13l258 101l-268 567h-63v13h384v-13h-68l141 -337s62 141 62 142c47 107 6 182 -78 195v13zM301 785c52 0 93 -42 93 -93s-41 -93 -93 -93c-51 0 -93 42 -93 93s42 93 93 93zM509 785
c52 0 93 -42 93 -93s-41 -93 -93 -93c-51 0 -93 42 -93 93s42 93 93 93z" />
    <glyph glyph-name="ygrave" unicode="&#x1ef3;" horiz-adv-x="683" 
d="M436 527h252v-13c-57 -17 -113 -87 -161 -196l-137 -311l-161 -331l-161 157v13l258 101l-268 567h-63v13h384v-13h-68l141 -337s62 141 62 142c47 107 6 182 -78 195v13zM387 753c47 -47 70 -147 70 -147l-7 -7s-100 22 -147 70c-36 35 -37 69 -11 95
c25 25 60 24 95 -11z" />
    <glyph glyph-name="zacute" unicode="&#x17a;" horiz-adv-x="547" 
d="M537 527v-13l-278 -492h60c127 0 177 93 190 194h13v-216h-512v13l272 492h-36c-126 0 -189 -93 -202 -194h-13v216h506zM383 764c25 -26 24 -60 -11 -95c-47 -48 -147 -70 -147 -70l-7 7s22 100 69 147c36 35 70 36 96 11z" />
    <glyph glyph-name="zcaron" unicode="&#x17e;" horiz-adv-x="547" 
d="M537 527v-13l-278 -492h60c127 0 177 93 190 194h13v-216h-512v13l272 492h-36c-126 0 -189 -93 -202 -194h-13v216h506zM471 769l7 -6l-119 -148h-111l-119 148l7 6l167 -56z" />
    <glyph glyph-name="zdotaccent" unicode="&#x17c;" horiz-adv-x="547" 
d="M537 527v-13l-278 -492h60c127 0 177 93 190 194h13v-216h-512v13l272 492h-36c-126 0 -189 -93 -202 -194h-13v216h506zM303 785c52 0 93 -42 93 -93s-41 -93 -93 -93c-51 0 -93 42 -93 93s42 93 93 93z" />
    <glyph glyph-name="fraction" unicode="&#x2044;" horiz-adv-x="332" 
d="M257 700h65l-247 -779h-65z" />
    <glyph glyph-name="perthousand" unicode="&#x2030;" horiz-adv-x="1252" 
d="M400 531c0 -100 -78 -173 -195 -173s-195 73 -195 173s78 172 195 172s195 -72 195 -172zM158 531c0 -103 15 -161 47 -161s47 58 47 161s-15 161 -47 161s-47 -58 -47 -161zM619 338c117 0 195 -72 195 -172s-78 -173 -195 -173s-195 73 -195 173s78 172 195 172zM619 4
c32 0 47 58 47 162c0 103 -15 161 -47 161s-47 -58 -47 -161c0 -104 15 -162 47 -162zM665 700h22l-536 -700h-22zM1047 338c117 0 195 -72 195 -172s-78 -173 -195 -173s-195 73 -195 173s78 172 195 172zM1047 4c32 0 47 58 47 162c0 103 -15 161 -47 161
s-47 -58 -47 -161c0 -104 15 -162 47 -162z" />
    <glyph glyph-name="ellipsis" unicode="&#x2026;" horiz-adv-x="748" 
d="M118 210c60 0 108 -49 108 -108c0 -60 -48 -109 -108 -109s-108 49 -108 109c0 59 48 108 108 108zM374 210c60 0 108 -49 108 -108c0 -60 -48 -109 -108 -109s-108 49 -108 109c0 59 48 108 108 108zM630 210c60 0 108 -49 108 -108c0 -60 -48 -109 -108 -109
s-108 49 -108 109c0 59 48 108 108 108z" />
    <glyph glyph-name="bullet" unicode="&#x2022;" horiz-adv-x="230" 
d="M115 552c58 0 105 -47 105 -106c0 -58 -47 -105 -105 -105s-105 47 -105 105c0 59 47 106 105 106z" />
    <glyph glyph-name="A" unicode="A" horiz-adv-x="797" 
d="M737 13h65v-13h-401v13h57l-101 205h-202l-24 -60c-30 -74 4 -134 64 -145v-13h-200v13c40 12 91 67 123 146l217 541h47zM160 231h191l-106 214z" />
    </font>
</defs>
</svg>
