<?xml version="1.0" standalone="no"?>
<!DOCTYPE svg PUBLIC "-//W3C//DTD SVG 1.1//EN" "http://www.w3.org/Graphics/SVG/1.1/DTD/svg11.dtd" >
<svg xmlns="http://www.w3.org/2000/svg" xmlns:xlink="http://www.w3.org/1999/xlink" version="1.1">
<metadata>
Created by FontForge 20191125 at Mon Apr 29 12:18:35 2019
 By convertio
Copyright \(c\) 2019 by MadeType. All rights reserved.
</metadata>
<defs>
<font id="MADECoachella-Thin" horiz-adv-x="286" >
  <font-face 
    font-family="MADE Coachella"
    font-weight="250"
    font-stretch="normal"
    units-per-em="1000"
    panose-1="2 0 5 3 0 0 0 2 0 4"
    ascent="800"
    descent="-200"
    x-height="527"
    cap-height="700"
    bbox="-50 -381 1250 937"
    underline-thickness="50"
    underline-position="-100"
    unicode-range="U+0020-F6C3"
  />
<missing-glyph horiz-adv-x="300" 
 />
    <glyph glyph-name=".notdef" horiz-adv-x="300" 
 />
    <glyph glyph-name="A" unicode="A" horiz-adv-x="746" 
d="M673 13h63v-13h-215v13h58l-86 205h-334l-35 -89c-25 -60 1 -107 50 -116v-13h-164v13c33 10 74 52 101 118l227 569h36zM164 231h323l-166 393z" />
    <glyph glyph-name="B" unicode="B" horiz-adv-x="734" 
d="M433 369c150 6 251 -52 251 -180c0 -151 -123 -189 -288 -189h-328v13h65v674h-73v13h279c164 0 287 -37 287 -173c0 -100 -87 -154 -193 -155v-3zM215 679v-306h130c86 0 195 19 195 154s-109 152 -195 152h-130zM394 22c87 0 204 17 204 167c0 151 -126 171 -212 171
h-171v-338h179z" />
    <glyph glyph-name="C" unicode="C" horiz-adv-x="769" 
d="M708 152l11 -9c-41 -66 -138 -150 -304 -150c-193 0 -365 134 -365 355c0 232 180 355 371 355c88 0 190 -31 278 -65v-197h-12c-42 190 -149 246 -244 246c-149 0 -313 -108 -304 -339c9 -202 159 -306 316 -308c143 -1 221 73 253 112z" />
    <glyph glyph-name="D" unicode="D" horiz-adv-x="811" 
d="M325 700c264 0 436 -91 436 -350s-172 -350 -436 -350h-265v13h65v674h-65v13h265zM353 22c204 0 313 103 313 328s-109 329 -313 329h-147v-657h147z" />
    <glyph glyph-name="E" unicode="E" horiz-adv-x="656" 
d="M594 226h12v-226h-546v13h65v674h-65v13h529v-226h-12c-15 132 -55 205 -200 205h-171v-322h154c86 0 108 20 125 95h9v-203h-9c-17 75 -39 95 -125 95h-154v-322h188c145 0 185 72 200 204z" />
    <glyph glyph-name="F" unicode="F" horiz-adv-x="631" 
d="M60 700h521v-226h-12c-15 132 -55 205 -200 205h-163v-330h148c87 0 109 20 125 95h10v-203h-10c-16 75 -38 95 -125 95h-148v-323h108v-13h-254v13h65v674h-65v13z" />
    <glyph glyph-name="G" unicode="G" horiz-adv-x="779" 
d="M574 313h201v-14h-56v-299h-13v124c-46 -63 -136 -131 -291 -131c-193 0 -365 134 -365 355c0 232 180 355 371 355c88 0 191 -31 278 -65v-197h-12c-41 190 -149 246 -244 246c-149 0 -313 -108 -303 -339c8 -202 158 -318 316 -322c89 -3 145 21 183 50v223h-65v14z
" />
    <glyph glyph-name="I" unicode="I" horiz-adv-x="331" 
d="M271 687h-64v-674h64v-13h-211v13h65v674h-65v13h211v-13z" />
    <glyph glyph-name="J" unicode="J" horiz-adv-x="579" 
d="M519 700v-13h-65v-426c0 -190 -51 -268 -223 -268c-48 0 -118 22 -191 52v181h10c46 -168 104 -218 181 -218c96 0 141 48 141 187v492h-114v13h261z" />
    <glyph glyph-name="K" unicode="K" horiz-adv-x="775" 
d="M681 13h74v-13h-236v13h56l-239 361l-130 -133v-228h65v-13h-211v13h64v674h-64v13h211v-13h-65v-424l279 283c106 107 73 141 4 141v13h215v-13c-66 -15 -115 -58 -209 -152l-94 -96z" />
    <glyph glyph-name="L" unicode="L" horiz-adv-x="662" 
d="M610 226h12v-226h-562v13h65v674h-65v13h211v-13h-64v-665h204c144 0 185 72 199 204z" />
    <glyph glyph-name="M" unicode="M" horiz-adv-x="982" 
d="M922 687h-65v-674h65v-13h-211v13h65v641l-276 -654h-22l-309 662v-451c0 -103 11 -182 95 -198v-13h-204v13c84 16 95 95 95 198v476h-77v13h168l274 -607l256 607h146v-13z" />
    <glyph glyph-name="N" unicode="N" horiz-adv-x="858" 
d="M592 700h216v-13c-84 -16 -97 -87 -97 -190v-497h-44l-491 612v-409c0 -103 21 -174 105 -190v-13h-216v13c85 16 98 87 98 190v426l-47 58h-66v13h174l474 -589v386c0 103 -22 174 -106 190v13z" />
    <glyph glyph-name="O" unicode="O" horiz-adv-x="839" 
d="M419 703c227 0 370 -140 370 -355s-143 -355 -370 -355c-226 0 -369 140 -369 355s143 355 369 355zM419 5c143 0 278 102 278 343c0 242 -135 344 -278 344s-277 -102 -277 -344c0 -241 134 -343 277 -343z" />
    <glyph glyph-name="P" unicode="P" horiz-adv-x="668" 
d="M362 700c161 -4 256 -73 256 -222c0 -141 -95 -220 -255 -222h-157v-243h98v-13h-244v13h64v674h-64v13h302zM312 269c143 0 211 66 211 209c0 139 -71 201 -211 201h-106v-410h106z" />
    <glyph glyph-name="Q" unicode="Q" horiz-adv-x="838" 
d="M788 348c0 -220 -154 -348 -378 -358l277 -141v-11l-95 -63l-240 203v6c80 18 345 25 345 364c0 242 -135 344 -278 344s-278 -102 -278 -344c0 -218 134 -306 269 -317v-10c-201 0 -360 117 -360 327c0 215 143 355 369 355s369 -140 369 -355z" />
    <glyph glyph-name="R" unicode="R" horiz-adv-x="739" 
d="M618 181v-87c0 -55 17 -75 50 -75c36 0 49 37 49 87h12c0 -48 -6 -113 -92 -113c-67 0 -109 25 -109 113v103c0 94 -37 121 -167 121h-155v-317h65v-13h-211v13h65v674h-65v13h287c164 0 271 -44 271 -189c0 -98 -67 -169 -204 -169v-4c157 0 204 -35 204 -157zM337 343
c110 0 191 37 191 171s-88 165 -191 165h-131v-336h131z" />
    <glyph glyph-name="S" unicode="S" horiz-adv-x="578" 
d="M152 587c-15 -112 78 -155 193 -207c125 -57 196 -107 181 -218c-16 -117 -121 -169 -243 -169c-74 0 -158 24 -233 48v161h9c50 -157 115 -194 217 -194c86 0 142 25 160 79c38 110 -28 172 -155 228c-119 51 -217 108 -204 230c14 124 123 158 215 158
c70 0 145 -28 206 -50v-144h-9c-49 141 -102 179 -198 179c-66 0 -129 -22 -139 -101z" />
    <glyph glyph-name="T" unicode="T" horiz-adv-x="725" 
d="M50 700h625v-218h-12c-9 91 -9 197 -145 197h-115v-666h65v-13h-211v13h65v666h-115c-136 0 -137 -106 -145 -197h-12v218z" />
    <glyph glyph-name="U" unicode="U" horiz-adv-x="774" 
d="M578 700h146v-13c-48 -13 -66 -54 -66 -157v-248c0 -190 -100 -289 -268 -289c-163 0 -265 100 -265 289v405h-65v13h211v-13h-65v-405c0 -164 74 -249 223 -249c118 0 215 88 215 249v248c0 103 -15 144 -66 157v13z" />
    <glyph glyph-name="V" unicode="V" horiz-adv-x="766" 
d="M582 700h164v-13c-33 -10 -75 -52 -101 -116l-227 -571h-36l-299 687h-63v13h215v-13h-59l259 -610l197 494c24 61 -1 107 -50 116v13z" />
    <glyph glyph-name="W" unicode="W" horiz-adv-x="1098" 
d="M868 700h210v-13c-54 -16 -75 -33 -112 -142l-186 -545h-23l-214 570l-180 -570h-23l-259 687h-61v13h207v-13h-59l213 -579l188 592h14l218 -598l150 438c36 107 4 142 -83 147v13z" />
    <glyph glyph-name="X" unicode="X" horiz-adv-x="805" 
d="M700 13h65v-13h-235v13h63l-219 311l-132 -174c-67 -87 -56 -124 27 -137v-13h-219v13c57 17 106 42 179 138l138 182l-250 354h-57v13h227v-13h-63l201 -285l115 151c66 88 59 127 -28 134v13h215v-13c-57 -17 -102 -39 -175 -135l-121 -159z" />
    <glyph glyph-name="Y" unicode="Y" horiz-adv-x="696" 
d="M472 700h204v-13c-51 -18 -66 -24 -126 -128l-151 -263v-283h65v-13h-211v13h65v260l-234 414h-64v13h227v-13h-65l207 -381l147 252c56 98 17 124 -64 129v13z" />
    <glyph glyph-name="Z" unicode="Z" horiz-adv-x="668" 
d="M618 700v-13l-463 -665h262c134 0 158 62 175 196h13v-218h-555v13l455 666h-254c-134 0 -158 -63 -175 -197h-13v218h555z" />
    <glyph glyph-name="a" unicode="a" horiz-adv-x="628" 
d="M597 59l11 -6c-18 -35 -42 -60 -92 -60c-53 0 -106 28 -104 109c-31 -64 -88 -109 -181 -109c-94 0 -191 42 -191 151c0 200 250 171 372 171v88c0 83 -37 124 -118 124c-56 0 -128 -27 -190 -164h-8v133c76 25 146 44 200 44c126 0 189 -36 189 -161v-295
c0 -44 22 -64 54 -64c33 0 50 25 58 39zM412 116v187c-132 5 -291 18 -291 -143c0 -175 213 -180 291 -44z" />
    <glyph glyph-name="b" unicode="b" horiz-adv-x="665" 
d="M374 540c154 2 259 -114 250 -285c-9 -178 -130 -262 -275 -262c-85 0 -134 21 -176 45l-59 -38h-8v687h-56v13h129v-290c19 55 79 127 195 130zM540 247c11 162 -71 271 -223 247c-71 -11 -122 -59 -138 -103v-344c20 -12 73 -33 137 -33c100 0 212 67 224 233z" />
    <glyph glyph-name="c" unicode="c" horiz-adv-x="610" 
d="M551 117l9 -8c-31 -52 -111 -116 -233 -116c-153 0 -287 103 -287 273c0 183 138 274 291 274c68 0 147 -25 214 -51v-158h-11c-38 147 -114 196 -186 196c-114 0 -228 -83 -221 -261c7 -155 129 -228 250 -228c91 0 150 49 174 79z" />
    <glyph glyph-name="d" unicode="d" horiz-adv-x="679" 
d="M573 13h56v-13h-129v121c-13 -49 -87 -128 -207 -128c-118 0 -253 89 -253 273c0 185 135 274 253 274c120 0 194 -79 207 -128v275h-57v13h130v-687zM500 135v263c-16 36 -64 81 -140 92c-122 18 -233 -55 -233 -224s111 -241 233 -223c76 11 124 56 140 92z" />
    <glyph glyph-name="e" unicode="e" horiz-adv-x="625" 
d="M574 266h-446c6 -155 128 -228 249 -228c92 0 150 49 174 79l10 -8c-31 -52 -112 -116 -234 -116c-152 0 -287 103 -287 273c0 190 131 274 280 274c156 0 264 -86 254 -274zM127 288h370c10 144 -62 239 -177 239c-114 0 -195 -100 -193 -239z" />
    <glyph glyph-name="f" unicode="f" horiz-adv-x="417" 
d="M270 716c-42 -2 -91 -34 -91 -144v-45h208v-13h-208v-501h98v-13h-227v13h56v501h-56v13h56c1 145 48 202 162 202c53 0 92 -14 119 -24v-115h-9c-41 112 -69 128 -108 126z" />
    <glyph glyph-name="g" unicode="g" horiz-adv-x="611" 
d="M581 601v-85h-172c60 -27 97 -76 97 -142c0 -103 -91 -166 -217 -166c-59 0 -110 14 -148 39c-10 -12 -20 -28 -25 -48c-18 -80 57 -101 232 -101c154 0 213 -40 204 -124c-9 -95 -112 -169 -269 -169c-168 0 -263 36 -263 104c0 75 99 116 153 132
c-86 17 -112 55 -108 105c4 51 45 88 69 106c-38 28 -61 70 -61 122c0 103 90 166 216 166c39 0 75 -6 105 -18l180 79h7zM485 -83c19 72 -21 115 -189 115c-43 0 -79 2 -108 7c-51 -19 -104 -70 -104 -125c0 -64 104 -90 205 -90c109 0 180 32 196 93zM289 223
c93 0 137 64 137 151s-44 150 -137 150c-92 0 -136 -63 -136 -150s44 -151 136 -151z" />
    <glyph glyph-name="h" unicode="h" horiz-adv-x="691" 
d="M585 13h56v-13h-186v13h56v338c0 113 -61 158 -169 142c-85 -13 -162 -93 -162 -144v-336h56v-13h-186v13h56v674h-56v13h130v-315c34 69 123 155 223 155c147 0 182 -86 182 -190v-337z" />
    <glyph glyph-name="i" unicode="i" 
d="M180 13h56v-13h-186v13h57v501h-57v13h130v-514zM143 595c-28 0 -50 23 -50 51s22 51 50 51s51 -23 51 -51s-23 -51 -51 -51z" />
    <glyph glyph-name="j" unicode="j" 
d="M30 527h152v-379c0 -238 -37 -328 -193 -328v15c88 0 119 81 119 206v473h-78v13zM145 595c-28 0 -51 23 -51 51s23 51 51 51s51 -23 51 -51s-23 -51 -51 -51z" />
    <glyph glyph-name="k" unicode="k" horiz-adv-x="618" 
d="M535 13h63v-13h-203v13h50l-169 248l-97 -110v-138h57v-13h-186v13h56v674h-56v13h129v-533l204 233c66 75 54 112 -7 114v13h172v-13c-57 -15 -79 -33 -144 -106l-75 -86z" />
    <glyph glyph-name="l" unicode="l" 
d="M180 13h56v-13h-186v13h56v674h-56v13h130v-687z" />
    <glyph glyph-name="m" unicode="m" horiz-adv-x="1063" 
d="M956 13h57v-13h-186v13h56v338c0 113 -53 158 -161 142c-85 -13 -154 -93 -154 -144v-336h56v-13h-186v13h57v338c0 113 -53 158 -161 142c-86 -13 -154 -93 -154 -144v-336h56v-13h-186v13h56v501h-56v13h130v-142c34 69 114 155 214 155c134 0 167 -73 174 -155
c34 69 115 155 214 155c148 0 174 -86 174 -190v-337z" />
    <glyph glyph-name="n" unicode="n" horiz-adv-x="691" 
d="M585 13h56v-13h-186v13h56v338c0 113 -60 158 -169 142c-85 -13 -162 -93 -162 -144v-336h56v-13h-186v13h56v501h-56v13h130v-142c34 69 123 155 223 155c147 0 182 -86 182 -190v-337z" />
    <glyph glyph-name="o" unicode="o" horiz-adv-x="686" 
d="M339 540c142 0 297 -84 297 -274c0 -189 -155 -273 -297 -273c-141 0 -299 84 -299 273c0 190 158 274 299 274zM339 5c128 0 212 107 212 261c0 155 -84 261 -212 261s-214 -106 -214 -261c0 -154 86 -261 214 -261z" />
    <glyph glyph-name="p" unicode="p" horiz-adv-x="689" 
d="M386 540c118 0 253 -89 253 -274c0 -184 -135 -273 -253 -273c-120 0 -194 79 -207 128v-275h80v-13h-209v13h56v667h-56v14h129v-115c13 49 87 128 207 128zM319 43c122 -18 233 54 233 223s-111 242 -233 224c-76 -11 -124 -56 -140 -92v-263c16 -36 64 -81 140 -92z
" />
    <glyph glyph-name="q" unicode="q" horiz-adv-x="666" 
d="M560 -154h56v-13h-211v13h81v277c-18 -55 -78 -128 -194 -130c-153 -2 -260 114 -251 284c10 179 131 263 275 263c86 0 134 -21 177 -45l58 32h9v-681zM349 39c71 11 122 59 137 103v344c-19 11 -72 33 -137 33c-99 0 -212 -67 -223 -233c-11 -158 71 -271 223 -247z
" />
    <glyph glyph-name="r" unicode="r" horiz-adv-x="505" 
d="M354 540c55 0 96 -34 111 -55l-56 -81h-7c-15 57 -60 103 -128 79c-45 -15 -94 -100 -94 -151v-319h90v-13h-220v13h57v501h-57v13h130v-155c30 89 80 168 174 168z" />
    <glyph glyph-name="s" unicode="s" horiz-adv-x="487" 
d="M134 448c-12 -77 38 -103 148 -150c103 -45 183 -96 145 -205c-28 -76 -110 -100 -183 -100c-56 0 -123 17 -204 39v149h7c73 -165 140 -175 186 -178c50 -3 108 8 125 66c29 101 -54 140 -143 175c-128 51 -160 104 -148 186c14 93 119 110 178 110
c50 0 110 -20 176 -38v-134h-7c-60 136 -109 161 -174 161c-38 0 -97 -20 -106 -81z" />
    <glyph glyph-name="t" unicode="t" horiz-adv-x="384" 
d="M344 82l10 -7c-24 -44 -62 -82 -123 -82c-97 0 -134 57 -134 171v350h-57v13h57l65 160h8v-160h155v-13h-155v-364c0 -80 33 -115 83 -115c42 0 69 18 91 47z" />
    <glyph glyph-name="u" unicode="u" horiz-adv-x="671" 
d="M564 13h57v-13h-130v147c-31 -70 -110 -154 -214 -154c-148 0 -191 86 -191 190v331h-56v13h130v-345c0 -114 68 -157 177 -142c87 12 154 93 154 144v330h-56v13h129v-514z" />
    <glyph glyph-name="v" unicode="v" horiz-adv-x="635" 
d="M440 527h175v-13c-40 -15 -61 -30 -91 -95l-177 -419h-32l-233 514h-62v13h217v-13h-68l194 -444l126 299c46 109 28 141 -49 145v13z" />
    <glyph glyph-name="w" unicode="w" horiz-adv-x="938" 
d="M743 527h175v-13c-55 -21 -67 -43 -110 -154l-141 -360h-23l-177 422l-145 -422h-23l-217 514h-62v13h215v-13h-68l172 -427l151 440h21l175 -444l109 278c42 108 30 148 -52 153v13z" />
    <glyph glyph-name="x" unicode="x" horiz-adv-x="610" 
d="M524 13h56v-13h-202v13h58l-160 223l-109 -140c-43 -55 -30 -78 26 -83v-13h-170v13c43 13 85 25 134 88l113 144l-193 269h-57v13h203v-13h-58l153 -214l99 127c46 58 28 85 -27 87v13h170v-13c-43 -13 -80 -25 -130 -88l-106 -135z" />
    <glyph glyph-name="y" unicode="y" horiz-adv-x="638" 
d="M430 527h178v-13c-49 -15 -74 -42 -104 -120c-39 -100 -150 -387 -150 -387l-112 -232l-78 58v13l162 128l-244 540h-62v13h215v-13h-66l194 -455s70 180 117 302c42 108 30 149 -50 153v13z" />
    <glyph glyph-name="z" unicode="z" horiz-adv-x="546" 
d="M496 527v-13l-362 -493h202c110 0 136 59 147 159h11v-180h-454v13l357 492h-188c-110 0 -136 -58 -147 -158h-11v180h445z" />
    <glyph glyph-name="space" unicode=" " horiz-adv-x="300" 
 />
    <glyph glyph-name="one" unicode="1" horiz-adv-x="296" 
d="M182 13h64v-13h-196v13h65v567h-65v13l120 107h12v-687z" />
    <glyph glyph-name="two" unicode="2" horiz-adv-x="544" 
d="M483 112h11v-112h-444v13c255 275 342 345 365 489c17 109 -25 186 -119 186c-103 0 -155 -47 -195 -193h-10v158c62 22 145 50 196 50c151 0 231 -81 196 -225c-30 -125 -217 -285 -384 -421h384v55z" />
    <glyph glyph-name="three" unicode="3" horiz-adv-x="559" 
d="M290 371c171 -8 223 -88 218 -185c-7 -133 -103 -193 -249 -193c-52 0 -142 26 -209 47v162h11c50 -150 105 -194 204 -194c75 0 156 50 166 172c10 131 -85 175 -192 184v16c79 8 168 42 181 158c12 115 -68 150 -139 150c-81 0 -137 -30 -187 -177h-11v146
c67 22 139 46 193 46c135 0 219 -50 211 -158c-6 -92 -64 -155 -197 -170v-4z" />
    <glyph glyph-name="four" unicode="4" horiz-adv-x="577" 
d="M537 180h-90v-167h65v-13h-196v13h64v167h-350v13c151 95 232 300 180 494v13h84c22 -321 -137 -451 -251 -507h337v108l58 243h9v-351h90v-13z" />
    <glyph glyph-name="five" unicode="5" horiz-adv-x="554" 
d="M106 376c244 104 400 10 397 -158c-3 -131 -86 -225 -234 -225c-48 0 -141 24 -209 46v171h10c44 -146 96 -202 200 -202c95 0 154 75 157 197c5 145 -116 234 -333 158l24 337h323v55h11v-112h-326z" />
    <glyph glyph-name="six" unicode="6" horiz-adv-x="605" 
d="M348 450c142 -14 207 -105 207 -221c0 -148 -90 -236 -235 -236c-174 0 -270 123 -270 326c0 258 123 384 290 384c52 0 109 -21 176 -45v-155h-10c-37 147 -91 185 -164 185c-67 0 -194 -23 -213 -295c41 32 142 64 219 57zM320 8c107 0 165 91 165 221
c0 211 -225 238 -357 153c-1 -20 -2 -41 -2 -63c0 -194 80 -311 194 -311z" />
    <glyph glyph-name="seven" unicode="7" horiz-adv-x="533" 
d="M40 700h453v-13c-100 -166 -238 -350 -238 -687h-75c0 241 94 463 277 643h-406v-55h-11v112z" />
    <glyph glyph-name="eight" unicode="8" horiz-adv-x="612" 
d="M364 372c128 -13 201 -83 197 -189c-4 -132 -125 -190 -255 -190s-250 58 -255 190c-4 106 69 176 197 189v4c-95 15 -157 67 -157 161c0 103 96 166 215 166c120 0 216 -63 216 -166c0 -94 -63 -146 -158 -161v-4zM152 538c0 -116 84 -158 154 -158s154 42 154 158
c0 110 -77 150 -154 150s-154 -40 -154 -150zM306 8c92 0 186 58 186 179c0 117 -84 177 -186 177s-186 -60 -186 -177c0 -121 94 -179 186 -179z" />
    <glyph glyph-name="nine" unicode="9" horiz-adv-x="605" 
d="M293 703c174 0 262 -123 262 -325c0 -258 -123 -385 -290 -385c-52 0 -109 22 -176 46v154h10c37 -146 91 -185 164 -185c67 0 194 24 213 295c-41 -31 -142 -63 -219 -56c-142 13 -207 104 -207 220c0 148 98 236 243 236zM120 467c0 -210 225 -238 357 -153
c1 20 2 41 2 64c0 193 -71 310 -186 310c-107 0 -173 -90 -173 -221z" />
    <glyph glyph-name="zero" unicode="0" horiz-adv-x="643" 
d="M321 703c157 0 272 -130 272 -355c0 -224 -115 -355 -272 -355c-156 0 -271 131 -271 355c0 225 115 355 271 355zM321 8c99 0 198 96 198 340c0 245 -99 340 -198 340c-98 0 -197 -95 -197 -340c0 -244 99 -340 197 -340z" />
    <glyph glyph-name="grave" unicode="`" horiz-adv-x="292" 
d="M133 677c48 -47 99 -129 99 -129l-7 -7s-82 51 -129 98c-32 32 -44 51 -29 66c15 16 35 4 66 -28z" />
    <glyph glyph-name="acute" unicode="&#xb4;" horiz-adv-x="292" 
d="M225 705c15 -15 3 -34 -28 -66c-47 -47 -130 -98 -130 -98l-7 7s52 82 99 129c32 32 51 44 66 28z" />
    <glyph glyph-name="caron" unicode="&#x2c7;" horiz-adv-x="468" 
d="M401 720l7 -6l-156 -148h-36l-156 148l7 6l167 -93z" />
    <glyph glyph-name="circumflex" unicode="&#x2c6;" horiz-adv-x="468" 
d="M252 720l156 -147l-7 -7l-167 94l-167 -94l-7 7l156 147h36z" />
    <glyph glyph-name="breve" unicode="&#x2d8;" horiz-adv-x="398" 
d="M331 720h7c0 -98 -51 -155 -139 -155s-139 57 -139 155h7c16 -51 57 -103 132 -103c76 0 116 52 132 103z" />
    <glyph glyph-name="dieresis" unicode="&#xa8;" horiz-adv-x="353" 
d="M105 688c25 0 46 -20 46 -45s-21 -45 -46 -45s-45 20 -45 45s20 45 45 45zM247 688c25 0 46 -20 46 -45s-21 -45 -46 -45s-45 20 -45 45s20 45 45 45z" />
    <glyph glyph-name="hungarumlaut" unicode="&#x2dd;" horiz-adv-x="468" 
d="M225 705c15 -15 3 -34 -28 -66c-48 -47 -130 -98 -130 -98l-7 7s52 82 99 129c31 32 51 44 66 28zM400 705c16 -15 4 -34 -28 -66c-47 -47 -129 -98 -129 -98l-7 7s51 82 98 129c32 32 51 44 66 28z" />
    <glyph glyph-name="ring" unicode="&#x2da;" horiz-adv-x="307" 
d="M153 549c-51 0 -93 42 -93 94s42 94 93 94c52 0 94 -42 94 -94s-42 -94 -94 -94zM153 720c-42 0 -77 -35 -77 -77c0 -43 35 -77 77 -77c43 0 77 34 77 77c0 42 -34 77 -77 77z" />
    <glyph glyph-name="tilde" unicode="&#x2dc;" horiz-adv-x="413" 
d="M268 580c-38 5 -71 34 -107 53c-52 27 -86 1 -95 -38h-6c4 97 53 109 90 103c44 -6 88 -52 123 -64c41 -13 66 4 73 39h7c-2 -70 -36 -99 -85 -93z" />
    <glyph glyph-name="dotaccent" unicode="&#x2d9;" horiz-adv-x="211" 
d="M105 688c25 0 46 -20 46 -45s-21 -45 -46 -45s-45 20 -45 45s20 45 45 45z" />
    <glyph glyph-name="macron" unicode="&#xaf;" horiz-adv-x="441" 
d="M60 632h321v-19h-321v19z" />
    <glyph glyph-name="ogonek" unicode="&#x2db;" horiz-adv-x="356" 
d="M292 -168l4 -4c-59 -93 -191 -101 -225 -41c-39 68 35 173 90 221h7c-33 -57 -66 -144 -35 -186c31 -43 105 -29 159 10z" />
    <glyph glyph-name="cedilla" unicode="&#xb8;" horiz-adv-x="370" 
d="M148 -40c101 17 180 -27 157 -119c-20 -79 -120 -129 -245 -81l2 9c91 -14 166 17 184 94c14 61 -43 100 -114 85l15 53h12z" />
    <glyph glyph-name="period" unicode="." horiz-adv-x="207" 
d="M104 99c29 0 53 -24 53 -53s-24 -53 -53 -53c-30 0 -54 24 -54 53s24 53 54 53z" />
    <glyph glyph-name="comma" unicode="," horiz-adv-x="207" 
d="M103 99c30 0 54 -24 54 -53c0 -53 -54 -105 -79 -120l-3 5c22 17 44 52 50 67c-5 -3 -14 -5 -22 -5c-29 0 -53 24 -53 53s24 53 53 53z" />
    <glyph glyph-name="colon" unicode=":" horiz-adv-x="226" 
d="M113 99c29 0 53 -24 53 -53s-24 -53 -53 -53s-53 24 -53 53s24 53 53 53zM113 421c-29 0 -53 24 -53 53s24 53 53 53s53 -24 53 -53s-24 -53 -53 -53z" />
    <glyph glyph-name="semicolon" unicode=";" horiz-adv-x="226" 
d="M113 421c-30 0 -53 24 -53 53s23 53 53 53c29 0 53 -24 53 -53s-24 -53 -53 -53zM113 99c29 0 53 -24 53 -53c0 -53 -53 -105 -79 -120l-3 5c22 17 44 52 50 67c-5 -3 -14 -5 -21 -5c-30 0 -53 24 -53 53s23 53 53 53z" />
    <glyph glyph-name="exclam" unicode="!" horiz-adv-x="226" 
d="M117 240h-8s-40 180 -37 344c2 84 15 120 41 120s39 -36 41 -120c3 -164 -37 -344 -37 -344zM113 99c29 0 53 -24 53 -53s-24 -53 -53 -53s-53 24 -53 53s24 53 53 53z" />
    <glyph glyph-name="question" unicode="?" horiz-adv-x="512" 
d="M240 701c134 0 222 -58 222 -170c0 -128 -87 -204 -240 -221v-70h-14v83c107 11 167 98 167 200c0 117 -60 166 -147 166c-74 0 -135 -49 -169 -185h-9v160c68 21 141 37 190 37zM227 99c30 0 53 -24 53 -53s-23 -53 -53 -53c-29 0 -53 24 -53 53s24 53 53 53z" />
    <glyph glyph-name="degree" unicode="&#xb0;" horiz-adv-x="333" 
d="M166 442c-64 0 -116 52 -116 116c0 65 52 117 116 117s117 -52 117 -117c0 -64 -53 -116 -117 -116zM166 658c-55 0 -99 -45 -99 -100s44 -99 99 -99s100 44 100 99s-45 100 -100 100z" />
    <glyph glyph-name="quotesinglbase" unicode="&#x201a;" horiz-adv-x="226" 
d="M113 99c30 0 53 -24 53 -53c0 -53 -53 -105 -78 -120l-3 5c22 17 44 52 50 67c-5 -3 -14 -5 -22 -5c-29 0 -53 24 -53 53s24 53 53 53z" />
    <glyph glyph-name="quotedblbase" unicode="&#x201e;" horiz-adv-x="383" 
d="M113 99c29 0 53 -24 53 -53c0 -53 -53 -105 -79 -120l-3 5c23 17 45 52 51 67c-6 -3 -14 -5 -22 -5c-29 0 -53 24 -53 53s24 53 53 53zM270 99c29 0 53 -24 53 -53c0 -53 -53 -105 -79 -120l-3 5c22 17 44 52 50 67c-5 -3 -14 -5 -21 -5c-30 0 -53 24 -53 53s23 53 53 53
z" />
    <glyph glyph-name="quoteright" unicode="&#x2019;" horiz-adv-x="226" 
d="M113 704c30 0 53 -23 53 -53c0 -53 -53 -105 -78 -120l-3 5c22 17 44 52 50 67c-5 -3 -14 -5 -22 -5c-29 0 -53 24 -53 53c0 30 24 53 53 53z" />
    <glyph glyph-name="quotedblright" unicode="&#x201d;" horiz-adv-x="383" 
d="M113 704c29 0 53 -23 53 -53c0 -53 -53 -105 -79 -120l-3 5c22 17 45 52 50 67c-5 -3 -14 -5 -21 -5c-30 0 -53 24 -53 53c0 30 23 53 53 53zM269 704c30 0 54 -23 54 -53c0 -53 -54 -105 -79 -120l-3 5c22 17 44 52 50 67c-5 -3 -14 -5 -22 -5c-29 0 -53 24 -53 53
c0 30 24 53 53 53z" />
    <glyph glyph-name="quotedblleft" unicode="&#x201c;" horiz-adv-x="383" 
d="M113 653c29 0 53 -24 53 -53c0 -30 -24 -53 -53 -53c-30 0 -53 23 -53 53c0 53 53 104 78 120l4 -6c-23 -16 -45 -52 -51 -66c5 2 14 5 22 5zM269 653c30 0 54 -24 54 -53c0 -30 -24 -53 -54 -53c-29 0 -53 23 -53 53c0 53 53 104 79 120l3 -6c-22 -16 -44 -52 -50 -66
c5 2 14 5 21 5z" />
    <glyph glyph-name="questiondown" unicode="&#xbf;" horiz-adv-x="513" 
d="M454 -182h9v-160c-68 -20 -141 -37 -190 -37c-135 0 -223 58 -223 171c0 127 87 204 241 220v70h13v-82c-107 -11 -167 -98 -167 -200c0 -117 60 -167 147 -167c74 0 135 50 170 185zM285 223c-29 0 -53 24 -53 53c0 30 24 53 53 53s53 -23 53 -53c0 -29 -24 -53 -53 -53
z" />
    <glyph glyph-name="exclamdown" unicode="&#xa1;" horiz-adv-x="227" 
d="M110 82h7s41 -180 37 -343c-2 -85 -15 -120 -41 -120c-25 0 -39 35 -40 120c-4 163 37 343 37 343zM113 223c-29 0 -53 24 -53 53c0 30 24 53 53 53c30 0 54 -23 54 -53c0 -29 -24 -53 -54 -53z" />
    <glyph glyph-name="quoteleft" unicode="&#x2018;" horiz-adv-x="226" 
d="M113 653c29 0 53 -24 53 -53c0 -30 -24 -53 -53 -53c-30 0 -53 23 -53 53c0 53 53 104 78 120l4 -6c-23 -16 -45 -52 -51 -66c5 2 14 5 22 5z" />
    <glyph glyph-name="asciitilde" unicode="~" horiz-adv-x="490" 
d="M421 396h9c-3 -92 -46 -130 -108 -121c-48 6 -89 44 -135 68c-65 36 -109 2 -119 -49h-8c5 126 67 142 114 135c55 -9 110 -69 155 -84c52 -17 83 4 92 51z" />
    <glyph glyph-name="approxequal" unicode="&#x2248;" horiz-adv-x="515" 
d="M347 373c-48 6 -89 44 -135 69c-65 35 -109 1 -119 -50h-9c6 126 67 142 115 135c55 -8 110 -69 155 -84c52 -17 83 5 92 51h9c-3 -91 -46 -129 -108 -121zM322 175c-48 6 -89 44 -135 69c-65 35 -108 1 -119 -50h-8c5 126 67 142 114 135c55 -9 110 -69 156 -84
c52 -17 82 5 92 51h8c-3 -92 -46 -129 -108 -121z" />
    <glyph glyph-name="plus" unicode="+" horiz-adv-x="454" 
d="M404 341v-24h-165v-164h-24v164h-165v24h165v165h24v-165h165z" />
    <glyph glyph-name="plusminus" unicode="&#xb1;" horiz-adv-x="453" 
d="M239 457h164v-24h-164v-165h-24v165h-165v24h165v165h24v-165zM50 175v24h353v-24h-353z" />
    <glyph glyph-name="minus" unicode="&#x2212;" horiz-adv-x="474" 
d="M60 341h354v-24h-354v24z" />
    <glyph glyph-name="equal" unicode="=" horiz-adv-x="473" 
d="M60 401h353v-23h-353v23zM60 257v24h353v-24h-353z" />
    <glyph glyph-name="multiply" unicode="&#xd7;" horiz-adv-x="387" 
d="M327 446l-117 -117l117 -116l-17 -17l-117 117l-116 -117l-17 17l117 116l-117 117l17 17l116 -117l117 117z" />
    <glyph glyph-name="divide" unicode="&#xf7;" horiz-adv-x="473" 
d="M60 341h353v-24h-353v24zM237 204c29 0 53 -24 53 -53s-24 -53 -53 -53c-30 0 -53 24 -53 53s23 53 53 53zM237 455c-30 0 -53 23 -53 53c0 29 23 53 53 53c29 0 53 -24 53 -53c0 -30 -24 -53 -53 -53z" />
    <glyph glyph-name="notequal" unicode="&#x2260;" horiz-adv-x="474" 
d="M414 378h-130l-75 -97h205v-24h-223l-81 -105l-13 10l74 95h-111v24h130l74 97h-204v23h223l81 106l12 -10l-74 -96h112v-23z" />
    <glyph glyph-name="underscore" unicode="_" horiz-adv-x="474" 
d="M60 0h354v-24h-354v24z" />
    <glyph glyph-name="hyphen" unicode="-" horiz-adv-x="473" 
d="M60 341h353v-24h-353v24z" />
    <glyph glyph-name="endash" unicode="&#x2013;" horiz-adv-x="515" 
d="M60 341h395v-24h-395v24z" />
    <glyph glyph-name="emdash" unicode="&#x2014;" horiz-adv-x="556" 
d="M60 341h436v-24h-436v24z" />
    <glyph glyph-name="bracketleft" unicode="[" horiz-adv-x="261" 
d="M201 687h-117v-752h117v-13h-141v778h141v-13z" />
    <glyph glyph-name="bracketright" unicode="]" horiz-adv-x="261" 
d="M60 700h141v-778h-141v13h117v752h-117v13z" />
    <glyph glyph-name="bar" unicode="|" horiz-adv-x="143" 
d="M60 700h23v-778h-23v778z" />
    <glyph glyph-name="brokenbar" unicode="&#xa6;" horiz-adv-x="143" 
d="M60 700h23v-284h-23v284zM60 -77v283h23v-283h-23z" />
    <glyph glyph-name="section" unicode="&#xa7;" horiz-adv-x="540" 
d="M489 292c-1 -94 -64 -143 -173 -150c63 -37 117 -80 117 -151c0 -106 -78 -147 -184 -147c-58 0 -123 24 -175 42v120h8c41 -118 85 -149 165 -149c61 0 117 24 123 91c15 158 -322 165 -319 337c1 94 65 143 173 150c-63 37 -117 80 -117 151c0 107 78 147 184 147
c58 0 124 -24 175 -42v-120h-8c-41 118 -85 149 -165 149c-61 0 -117 -24 -123 -91c-14 -158 322 -165 319 -337zM412 220c34 107 -71 151 -167 203c-67 -2 -104 -23 -117 -66c-34 -107 71 -151 167 -203c67 2 104 23 117 66z" />
    <glyph glyph-name="numbersign" unicode="#" horiz-adv-x="690" 
d="M662 461h-152l-57 -220h157l-8 -24h-155l-56 -216h-24l56 216h-221l-56 -216h-24l56 216h-158l9 24h155l57 220h-169l8 24h167l56 216h24l-56 -216h222l56 216h23l-56 -216h154zM429 241l57 220h-221l-57 -220h221z" />
    <glyph glyph-name="paragraph" unicode="&#xb6;" horiz-adv-x="416" 
d="M174 701h182v-700h-24v687h-134v-687h-24v445c-71 0 -134 57 -134 127c0 71 63 128 134 128z" />
    <glyph glyph-name="percent" unicode="%" horiz-adv-x="853" 
d="M219 704c103 0 170 -72 170 -172s-67 -173 -170 -173s-169 73 -169 173s66 172 169 172zM219 371c55 0 97 53 97 161c0 107 -42 161 -97 161s-96 -54 -96 -161c0 -108 41 -161 96 -161zM633 339c103 0 170 -73 170 -172c0 -100 -67 -173 -170 -173s-169 73 -169 173
c0 99 66 172 169 172zM633 5c55 0 97 54 97 162c0 107 -42 161 -97 161s-96 -54 -96 -161c0 -108 41 -162 96 -162zM701 701h-21l-536 -700h21z" />
    <glyph glyph-name="quotesingle" unicode="'" horiz-adv-x="145" 
d="M72 704c18 0 33 -26 33 -72c0 -67 -28 -156 -28 -156h-10s-27 89 -27 156c0 46 14 72 32 72z" />
    <glyph glyph-name="quotedbl" unicode="&#x22;" horiz-adv-x="239" 
d="M72 704c19 0 33 -26 33 -72c0 -67 -28 -156 -28 -156h-9s-28 89 -28 156c0 46 14 72 32 72zM167 704c18 0 32 -26 32 -72c0 -67 -27 -156 -27 -156h-10s-28 89 -28 156c0 46 15 72 33 72z" />
    <glyph glyph-name="asciicircum" unicode="^" horiz-adv-x="405" 
d="M206 701l149 -190l-6 -7l-146 120l-147 -120l-6 7l150 190h6z" />
    <glyph glyph-name="guillemotleft" unicode="&#xab;" horiz-adv-x="447" 
d="M230 470l-103 -146l103 -147l-6 -6l-174 150v6l174 149zM387 470l-103 -146l103 -147l-7 -6l-173 150v6l173 149z" />
    <glyph glyph-name="guillemotright" unicode="&#xbb;" horiz-adv-x="447" 
d="M223 476l174 -149v-6l-174 -150l-6 6l103 147l-103 146zM240 327v-6l-174 -150l-6 6l103 147l-103 146l6 6z" />
    <glyph glyph-name="greaterequal" unicode="&#x2265;" horiz-adv-x="464" 
d="M60 175v24h354v-24h-354zM60 570l354 -131v-28l-354 -132v24l327 122l-327 122v23z" />
    <glyph glyph-name="lessequal" unicode="&#x2264;" horiz-adv-x="464" 
d="M50 175v24h354v-24h-354zM404 570v-23l-326 -122l326 -122v-24l-354 132v28z" />
    <glyph glyph-name="greater" unicode="&#x3e;" horiz-adv-x="464" 
d="M60 485l354 -132v-27l-354 -132v24l327 121l-327 122v24z" />
    <glyph glyph-name="less" unicode="&#x3c;" horiz-adv-x="464" 
d="M404 485v-24l-326 -122l326 -121v-24l-354 132v27z" />
    <glyph glyph-name="asterisk" unicode="*" horiz-adv-x="427" 
d="M367 609l-14 -5l-137 -21l99 -98l8 -11l-38 -29l-9 12l-62 124l-63 -124l-9 -12l-38 29l8 11l99 98l-137 21l-14 5l15 45l14 -4l123 -64l-22 137v15h47v-15l-22 -137l124 64l13 4z" />
    <glyph glyph-name="slash" unicode="/" horiz-adv-x="372" 
d="M298 700h24l-248 -778h-24z" />
    <glyph glyph-name="backslash" unicode="\" horiz-adv-x="371" 
d="M74 700l247 -778h-24l-247 778h24z" />
    <glyph glyph-name="guilsinglleft" unicode="&#x2039;" horiz-adv-x="290" 
d="M230 470l-103 -146l103 -147l-7 -6l-173 150v6l173 149z" />
    <glyph glyph-name="guilsinglright" unicode="&#x203a;" horiz-adv-x="291" 
d="M67 476l174 -149v-6l-174 -150l-7 6l103 147l-103 146z" />
    <glyph glyph-name="parenleft" unicode="(" horiz-adv-x="435" 
d="M385 777c-131 -69 -263 -216 -263 -478s132 -409 263 -478v-10c-205 69 -335 252 -335 488s130 419 335 488v-10z" />
    <glyph glyph-name="parenright" unicode=")" horiz-adv-x="435" 
d="M50 787c205 -69 335 -252 335 -488s-130 -419 -335 -488v10c131 69 263 216 263 478s-132 409 -263 478v10z" />
    <glyph glyph-name="at" unicode="@" horiz-adv-x="1100" 
d="M576 752c300 0 474 -181 474 -440c0 -197 -81 -318 -198 -318c-81 0 -130 52 -130 127c-13 -49 -87 -128 -207 -128c-117 0 -253 89 -253 273c0 185 136 274 253 274c120 0 194 -79 207 -128v116h130v-13h-57v-372c0 -84 32 -108 84 -106c66 3 155 89 155 275
c0 251 -171 424 -458 424c-334 0 -510 -189 -510 -479c0 -130 56 -282 168 -354c158 -101 428 -114 608 -39l6 -15c-261 -98 -525 -26 -623 41c-115 77 -175 231 -175 367c0 173 71 495 526 495zM582 43c77 11 124 56 140 92v155v108c-16 36 -63 81 -140 92
c-122 18 -233 -55 -233 -224s111 -241 233 -223z" />
    <glyph glyph-name="braceleft" unicode="{" horiz-adv-x="318" 
d="M258 703c-59 -2 -105 -26 -106 -92c-1 -59 14 -98 17 -151c4 -76 -14 -118 -127 -121c113 -3 131 -45 127 -122c-3 -52 -18 -91 -17 -150c1 -66 47 -90 106 -93v-6c-123 0 -173 23 -144 247c11 87 -15 112 -74 118v12c59 6 85 30 74 118c-29 224 21 247 144 247v-7z" />
    <glyph glyph-name="braceright" unicode="}" horiz-adv-x="318" 
d="M205 463c-12 -88 15 -112 73 -118v-12c-58 -6 -85 -31 -73 -118c28 -224 -21 -247 -145 -247v6c60 3 106 27 107 93c1 59 -14 98 -17 150c-4 77 13 119 126 122c-113 3 -130 45 -126 121c3 53 18 92 17 151c-1 66 -47 90 -107 92v7c124 0 173 -23 145 -247z" />
    <glyph glyph-name="copyright" unicode="&#xa9;" horiz-adv-x="890" 
d="M445 -87c-218 0 -395 177 -395 395c0 217 177 394 395 394s395 -177 395 -394c0 -218 -177 -395 -395 -395zM445 686c-209 0 -378 -170 -378 -378c0 -209 169 -379 378 -379s378 170 378 379c0 208 -169 378 -378 378zM620 194l6 -6c-25 -40 -82 -89 -181 -89
c-116 0 -218 80 -218 212c0 138 107 212 221 212c53 0 114 -19 166 -39v-118h-7c-25 114 -89 147 -145 147c-89 0 -187 -65 -182 -202c5 -121 95 -183 189 -184c85 -1 132 43 151 67z" />
    <glyph glyph-name="registered" unicode="&#xae;" horiz-adv-x="890" 
d="M445 -87c-218 0 -395 177 -395 395c0 217 177 394 395 394c217 0 395 -177 395 -394c0 -218 -178 -395 -395 -395zM445 686c-209 0 -378 -170 -378 -378c0 -209 169 -379 378 -379c208 0 378 170 378 379c0 208 -170 378 -378 378zM583 210v-51c0 -32 10 -44 30 -44
s28 22 28 51h7c0 -28 -3 -66 -54 -66c-39 0 -64 15 -64 66v60c0 56 -21 71 -98 71h-90v-185h38v-8h-123v8h38v394h-38v8h167c97 0 159 -26 159 -111c0 -57 -39 -99 -119 -99v-2c91 0 119 -21 119 -92zM418 305c65 0 112 22 112 100s-51 96 -112 96h-76v-196h76z" />
    <glyph glyph-name="dagger" unicode="&#x2020;" horiz-adv-x="428" 
d="M353 507h15v-48h-15l-138 23l23 -216l-21 -143h-6l-21 143l23 216l-138 -23h-15v48h15l137 -22l-22 137v15h48v-15l-23 -137z" />
    <glyph glyph-name="daggerdbl" unicode="&#x2021;" horiz-adv-x="428" 
d="M353 515h15v-47h-15l-136 22l21 -151l-21 -151l136 22h15v-48h-15l-136 22l21 -129v-14h-48v14l21 129l-136 -22h-15v48h15l136 -22l-21 151l21 151l-136 -22h-15v47h15l136 -22l-21 129v15h48v-15l-21 -129z" />
    <glyph glyph-name="ampersand" unicode="&#x26;" horiz-adv-x="704" 
d="M633 13h51v-13h-138s-23 25 -58 62c-42 -42 -98 -69 -175 -69c-138 0 -266 57 -262 184c3 95 76 154 175 175c-72 83 -107 132 -115 190c-15 109 64 161 173 161c136 0 188 -72 179 -150c-9 -74 -63 -135 -168 -176c13 -14 160 -177 229 -250c20 33 32 67 39 90
c35 111 25 152 -41 159v11h157v-11c-55 -14 -62 -43 -103 -162c-12 -34 -26 -66 -44 -95c44 -46 82 -86 101 -106zM284 688c-89 0 -145 -85 -91 -175c35 -58 59 -87 99 -133c121 92 158 308 -8 308zM321 13c71 -3 122 23 159 58c-54 58 -234 259 -249 276
c-125 -49 -178 -323 90 -334z" />
    <glyph glyph-name="AE" unicode="&#xc6;" horiz-adv-x="1031" 
d="M968 226h13v-226h-546v13h65v238h-267l-59 -94c-6 -10 -16 -27 -16 -27c-31 -58 -33 -108 15 -117v-13h-163v13c33 10 93 58 133 117c6 9 13 19 20 30l328 527h-56v13h529v-226h-12c-15 132 -55 205 -200 205h-171v-322h153c87 0 109 20 125 96h10v-204h-10
c-16 75 -38 95 -125 95h-153v-322h188c145 0 185 72 199 204zM500 264v415l-259 -415h259z" />
    <glyph glyph-name="OE" unicode="&#x152;" horiz-adv-x="1094" 
d="M1032 226h12v-226h-558c-264 0 -436 91 -436 350s172 350 436 350h542v-226h-12c-15 132 -55 205 -200 205h-171v-322h153c87 0 109 20 125 96h10v-204h-10c-16 75 -38 95 -125 95h-153v-322h187c145 0 186 72 200 204zM458 22h105v657h-105c-204 0 -313 -104 -313 -329
c0 -224 109 -328 313 -328z" />
    <glyph glyph-name="Dcroat" unicode="&#x110;" horiz-adv-x="811" 
d="M324 700c265 0 437 -91 437 -350s-172 -350 -437 -350h-264v13h64v327h-64v21h64v326h-64v13h264zM353 22c204 0 313 104 313 328c0 225 -109 329 -313 329h-147v-318h221v-21h-221v-318h147z" />
    <glyph glyph-name="Oslash" unicode="&#xd8;" horiz-adv-x="839" 
d="M650 638c88 -61 139 -162 139 -290c0 -215 -144 -355 -370 -355c-86 0 -160 21 -219 58l-38 -51h-22l46 60c-87 61 -136 162 -136 288c0 215 143 355 369 355c85 0 159 -19 217 -55l40 52h22zM141 348c0 -112 29 -194 75 -249l393 514c-51 54 -119 79 -190 79
c-143 0 -278 -102 -278 -344zM419 5c143 0 278 102 278 343c0 114 -30 196 -76 252l-394 -514c52 -56 121 -81 192 -81z" />
    <glyph glyph-name="Thorn" unicode="&#xde;" horiz-adv-x="668" 
d="M347 572c170 0 271 -68 271 -222s-101 -222 -271 -222h-141v-115h65v-13h-211v13h65v674h-65v13h211v-13h-65v-115h141zM312 149c140 0 211 62 211 201c0 140 -71 201 -211 201h-106v-402h106z" />
    <glyph glyph-name="Lslash" unicode="&#x141;" horiz-adv-x="662" 
d="M610 226h12v-226h-562v13h65v228l-65 -28v22l65 28v424h-65v13h211v-13h-65v-389l230 99v-22l-230 -98v-255h204c145 0 185 72 200 204z" />
    <glyph glyph-name="Hbar" unicode="&#x126;" horiz-adv-x="815" 
d="M755 687h-65v-162h65v-22h-65v-490h65v-13h-211v13h65v323h-403v-323h65v-13h-211v13h65v490h-65v22h65v162h-65v13h211v-13h-65v-162h403v162h-65v13h211v-13zM609 357v146h-403v-146h403z" />
    <glyph glyph-name="Eng" unicode="&#x14a;" horiz-adv-x="858" 
d="M591 700h217v-13c-85 -16 -98 -87 -98 -190v-591c0 -118 -63 -157 -136 -157c-55 0 -161 34 -215 59v205h10c32 -171 89 -237 192 -249c70 -8 136 25 136 147v89h-31l-491 612v-409c0 -103 21 -174 106 -190v-13h-216v13c84 16 97 87 97 190v426l-47 58h-65v13h174
l473 -589v386c0 103 -21 174 -106 190v13z" />
    <glyph glyph-name="Tbar" unicode="&#x166;" horiz-adv-x="725" 
d="M50 700h625v-218h-12c-8 91 -8 197 -144 197h-115v-318h154v-21h-154v-327h64v-13h-211v13h65v327h-154v21h154v318h-115c-136 0 -136 -106 -145 -197h-12v218z" />
    <glyph glyph-name="germandbls" unicode="&#xdf;" horiz-adv-x="771" 
d="M720 163c5 -134 -91 -170 -162 -170c-64 0 -148 19 -230 41v174h13c41 -173 114 -202 216 -204c54 -1 116 17 125 78c28 186 -338 202 -258 376c58 125 57 258 -91 258c-78 0 -153 -38 -153 -144v-572h-130v13h56v501h-56v13h56c2 150 106 202 230 202
c212 0 250 -192 122 -258c-95 -48 254 -111 262 -308z" />
    <glyph glyph-name="ae" unicode="&#xe6;" horiz-adv-x="967" 
d="M692 540c156 0 264 -86 254 -274h-446c6 -155 128 -228 249 -228c92 0 150 49 174 79l10 -8c-31 -52 -112 -116 -234 -116c-138 0 -261 85 -283 226c-7 -116 -67 -226 -185 -226c-94 0 -191 36 -191 151c0 200 250 171 372 171v88c0 84 -45 124 -126 124
c-56 0 -120 -27 -182 -164h-8v133c76 25 138 44 192 44c97 0 161 -21 186 -88c52 60 132 88 218 88zM412 266v37c-132 5 -291 18 -291 -143c0 -171 291 -211 291 106zM869 288c10 144 -62 239 -177 239c-114 0 -196 -100 -193 -239h370z" />
    <glyph glyph-name="oe" unicode="&#x153;" horiz-adv-x="1137" 
d="M832 540c156 0 264 -86 254 -274h-446c6 -155 128 -228 249 -228c92 0 150 49 174 79l10 -8c-31 -52 -112 -116 -234 -116c-100 0 -193 45 -245 124c-55 -85 -158 -124 -255 -124c-141 0 -299 84 -299 273c0 190 158 274 299 274c95 0 195 -38 252 -119
c50 81 141 119 241 119zM339 5c128 0 212 107 212 261c0 155 -84 261 -212 261s-214 -106 -214 -261c0 -154 86 -261 214 -261zM832 527c-114 0 -196 -100 -193 -239h370c10 144 -62 239 -177 239z" />
    <glyph glyph-name="dcroat" unicode="&#x111;" horiz-adv-x="680" 
d="M630 600h-56v-587h56v-13h-129v121c-13 -49 -88 -128 -208 -128c-117 0 -253 89 -253 273c0 185 136 274 253 274c120 0 195 -79 208 -128v188h-211v21h211v66h-57v13h130v-79h56v-21zM501 135v263c-16 36 -64 81 -141 92c-121 18 -232 -55 -232 -224s111 -241 232 -223
c77 11 125 56 141 92z" />
    <glyph glyph-name="oslash" unicode="&#xf8;" horiz-adv-x="686" 
d="M553 464c50 -45 83 -110 83 -198c0 -189 -155 -273 -297 -273c-70 0 -143 21 -200 64l-58 -57h-22l68 67c-52 44 -87 110 -87 199c0 190 158 274 299 274c71 0 146 -21 202 -66l54 53h22zM125 266c0 -63 14 -118 40 -162l340 334c-37 57 -94 89 -166 89
c-128 0 -214 -106 -214 -261zM339 5c128 0 212 107 212 261c0 62 -13 117 -38 159l-339 -333c38 -55 95 -87 165 -87z" />
    <glyph glyph-name="thorn" unicode="&#xfe;" horiz-adv-x="700" 
d="M397 540c117 0 253 -89 253 -274c0 -184 -136 -273 -253 -273c-120 0 -194 79 -207 128v-275h80v-13h-80h-73h-57v13h57v841h-57v13h130v-288c13 49 87 128 207 128zM330 43c122 -18 233 54 233 223s-111 242 -233 224c-77 -11 -124 -56 -140 -92v-263
c16 -36 63 -81 140 -92z" />
    <glyph glyph-name="lslash" unicode="&#x142;" 
d="M236 312l-56 -24v-275h56v-13h-186v13h56v243l-56 -24v21l56 25v409h-56v13h130v-391l56 25v-22z" />
    <glyph glyph-name="hbar" unicode="&#x127;" horiz-adv-x="691" 
d="M585 13h56v-13h-186v13h56v338c0 114 -60 158 -169 142c-85 -13 -162 -93 -162 -144v-336h56v-13h-186v13h57v587h-57v21h57v66h-57v13h130v-79h191v-21h-191v-215c34 69 123 155 223 155c148 0 182 -86 182 -190v-337z" />
    <glyph glyph-name="eng" unicode="&#x14b;" horiz-adv-x="685" 
d="M403 540c147 0 182 -86 182 -190v-267c0 -163 -16 -334 -213 -334c-49 0 -147 26 -194 45v172h11c34 -166 99 -202 163 -202c159 0 159 152 159 319v268c0 114 -61 158 -169 142c-85 -13 -162 -93 -162 -144v-336h56v-13h-186v13h56v501h-56v13h130v-142
c34 69 123 155 223 155z" />
    <glyph glyph-name="tbar" unicode="&#x167;" horiz-adv-x="383" 
d="M343 82l10 -7c-24 -44 -62 -82 -122 -82c-98 0 -135 57 -135 171v166h-56v21h56v163h-56v13h56l65 160h8v-160h156v-13h-156v-163h134v-21h-134v-180c0 -80 33 -115 83 -115c42 0 69 18 91 47z" />
    <glyph glyph-name="longs" unicode="&#x17f;" horiz-adv-x="418" 
d="M269 729c53 0 92 -14 119 -24v-114h-9c-42 111 -69 127 -108 125c-42 -2 -91 -34 -91 -144v-559h98v-13h-228v13h57v501h-57v13h57c1 145 48 202 162 202z" />
    <glyph glyph-name="eth" unicode="&#xf0;" horiz-adv-x="679" 
d="M414 666c111 -75 215 -198 215 -352c0 -201 -128 -320 -291 -321c-141 1 -298 84 -298 273s157 273 299 274c62 -1 114 -20 135 -32c-14 51 -51 102 -97 143l-123 -51l-6 16l114 47c-36 31 -76 54 -113 68l5 10c42 -10 93 -32 143 -63l125 51l7 -16zM338 5
c137 0 213 117 213 261s-75 261 -212 262c-128 0 -214 -107 -214 -262c0 -154 86 -260 213 -261z" />
    <glyph glyph-name="Eth" unicode="&#xd0;" horiz-adv-x="811" 
d="M324 700c265 0 437 -91 437 -350s-172 -350 -437 -350h-264v13h64v327h-64v21h64v326h-64v13h264zM353 22c204 0 313 104 313 328c0 225 -109 329 -313 329h-147v-318h221v-21h-221v-318h147z" />
    <glyph glyph-name="Aogonek" unicode="&#x104;" horiz-adv-x="746" 
d="M736 0h-132c-32 -56 -61 -137 -31 -178c31 -43 105 -29 159 10l4 -4c-59 -93 -191 -101 -225 -41c-37 65 28 163 82 213h-72v13h59l-87 205h-334l-35 -89c-24 -60 1 -107 50 -116v-13h-164v13c33 10 75 53 101 118l227 569h36l299 -687h63v-13zM164 231h323l-166 393z
" />
    <glyph glyph-name="Ccedilla" unicode="&#xc7;" horiz-adv-x="769" 
d="M719 143c-41 -65 -134 -146 -294 -150l-9 -33c101 17 180 -26 157 -119c-21 -78 -120 -129 -245 -81l2 9c91 -14 166 17 183 94c15 61 -42 100 -113 85l12 45c-192 1 -362 135 -362 355c0 232 180 355 371 355c88 0 190 -31 278 -65v-197h-12c-42 190 -149 246 -244 246
c-149 0 -313 -108 -304 -339c9 -202 159 -306 316 -308c143 -1 221 73 253 112z" />
    <glyph glyph-name="Eogonek" unicode="&#x118;" horiz-adv-x="656" 
d="M602 -168l4 -4c-59 -93 -192 -101 -226 -41c-37 65 29 163 82 213h-402v13h65v674h-65v13h529v-226h-12c-14 132 -55 205 -200 205h-171v-322h154c86 0 109 20 125 95h9v-203h-9c-16 75 -39 95 -125 95h-154v-322h188c145 0 185 72 200 204h12v-226h-133
c-32 -56 -61 -137 -31 -178c32 -43 106 -29 160 10z" />
    <glyph glyph-name="Iogonek" unicode="&#x12e;" horiz-adv-x="331" 
d="M279 -168l4 -4c-59 -93 -191 -101 -225 -41c-37 65 28 163 82 213h-80v13h64v674h-64v13h211v-13h-65v-674h65v-13h-120c-32 -56 -61 -137 -31 -178c31 -43 105 -29 159 10z" />
    <glyph glyph-name="Scedilla" unicode="&#x15e;" horiz-adv-x="578" 
d="M345 380c124 -57 196 -107 181 -218c-16 -117 -121 -169 -244 -169c-7 0 -14 0 -21 1l-9 -34c101 17 180 -27 157 -119c-20 -79 -120 -129 -245 -81l2 9c92 -14 166 17 184 94c14 61 -42 100 -114 84l13 48c-65 5 -135 25 -199 46v161h9c50 -157 114 -194 217 -194
c85 0 142 25 160 79c38 110 -29 172 -155 228c-119 51 -218 108 -204 230c14 124 123 158 215 158c70 0 144 -28 206 -50v-144h-10c-49 141 -101 179 -198 179c-65 0 -128 -22 -139 -101c-15 -112 78 -155 194 -207z" />
    <glyph glyph-name="Uogonek" unicode="&#x172;" horiz-adv-x="774" 
d="M578 700h146v-13c-48 -13 -67 -54 -67 -157v-247c0 -149 -60 -242 -167 -275c-33 -57 -66 -144 -35 -186c32 -43 106 -29 160 10l4 -4c-59 -93 -192 -101 -226 -41c-38 67 33 169 87 218c-27 -8 -58 -12 -90 -12c-163 0 -266 100 -266 290v404h-64v13h211v-13h-65v-404
c0 -165 74 -250 223 -250c118 0 215 88 215 250v247c0 103 -15 144 -66 157v13z" />
    <glyph glyph-name="aogonek" unicode="&#x105;" horiz-adv-x="628" 
d="M430 -178c32 -43 105 -29 160 10l4 -4c-59 -93 -192 -101 -226 -41c-39 68 35 173 90 220c-27 16 -47 45 -46 95c-31 -64 -88 -109 -181 -109s-191 43 -191 151c0 200 251 171 372 171v88c0 83 -36 124 -117 124c-56 0 -128 -27 -191 -164h-8v133c77 25 146 44 201 44
c126 0 188 -36 188 -161v-295c0 -44 23 -64 54 -64c34 0 50 25 58 39l11 -6c-18 -35 -42 -60 -92 -60c-18 0 -36 4 -52 11c-33 -56 -65 -140 -34 -182zM412 116v187c-131 5 -291 18 -291 -143c0 -175 213 -180 291 -44z" />
    <glyph glyph-name="ccedilla" unicode="&#xe7;" horiz-adv-x="610" 
d="M560 109c-30 -50 -107 -112 -223 -115l-9 -34c101 17 180 -26 157 -119c-21 -78 -120 -129 -245 -81l2 9c91 -14 166 17 183 94c15 61 -42 100 -113 85l12 45c-151 1 -284 104 -284 273c0 183 138 274 291 274c68 0 147 -24 214 -51v-158h-11c-38 147 -114 196 -185 196
c-115 0 -229 -83 -221 -261c6 -155 128 -228 249 -228c92 0 150 49 174 79z" />
    <glyph glyph-name="eogonek" unicode="&#x119;" horiz-adv-x="625" 
d="M320 540c157 0 265 -86 254 -274h-446c7 -155 129 -228 250 -228c91 0 149 49 174 79l9 -8c-22 -37 -69 -80 -138 -101c-34 -57 -67 -144 -35 -186c31 -43 105 -29 159 10l4 -4c-59 -93 -191 -101 -226 -41c-38 67 33 168 87 217c-25 -7 -54 -11 -84 -11
c-153 0 -288 104 -288 273c0 190 131 274 280 274zM498 288c9 144 -62 239 -178 239c-114 0 -195 -100 -193 -239h371z" />
    <glyph glyph-name="iogonek" unicode="&#x12f;" 
d="M257 -168l4 -4c-59 -93 -191 -101 -225 -41c-37 65 28 163 82 213h-68v13h57v501h-57v13h130v-514h56v-13h-107c-32 -56 -61 -137 -31 -178c31 -43 105 -29 159 10zM143 595c-28 0 -50 23 -50 51s22 51 50 51s51 -23 51 -51s-23 -51 -51 -51z" />
    <glyph glyph-name="scedilla" unicode="&#x15f;" horiz-adv-x="487" 
d="M282 298c103 -45 183 -96 144 -205c-27 -76 -109 -100 -182 -100c-9 0 -18 1 -27 1l-9 -34c100 17 180 -27 156 -119c-20 -79 -119 -129 -244 -81l2 9c91 -14 166 17 183 94c15 61 -42 100 -113 84l13 49c-48 5 -102 19 -165 36v149h7c73 -165 140 -175 186 -178
c49 -3 108 8 125 66c29 101 -54 140 -144 175c-128 51 -159 104 -147 186c14 93 119 110 178 110c50 0 110 -20 176 -38v-134h-7c-60 136 -109 161 -174 161c-38 0 -97 -20 -106 -81c-12 -77 38 -103 148 -150z" />
    <glyph glyph-name="uogonek" unicode="&#x173;" horiz-adv-x="699" 
d="M645 -168l4 -4c-59 -93 -191 -101 -226 -41c-37 65 30 163 84 213h-16v147c-32 -70 -110 -154 -215 -154c-147 0 -190 86 -190 190v331h-56v13h129v-345c0 -114 69 -157 178 -142c87 12 154 93 154 144v330h-56v13h129v-514h57v-13h-104c-32 -57 -61 -137 -31 -178
c31 -43 105 -29 159 10z" />
    <glyph glyph-name="dollar" unicode="$" horiz-adv-x="578" 
d="M345 380c125 -57 196 -107 181 -218c-15 -114 -115 -166 -233 -169v-75h-22v75c-70 3 -149 25 -221 48v161h9c50 -155 113 -192 212 -194v311c-114 50 -206 107 -193 226c13 114 107 152 193 157v80h22v-79c70 0 144 -28 206 -50v-144h-10c-49 140 -101 178 -196 179
v-284c17 -8 34 -16 52 -24zM152 587c-11 -86 42 -132 119 -172v272c-57 -4 -109 -29 -119 -100zM437 87c36 106 -25 169 -144 223v-301c76 3 127 28 144 78z" />
    <glyph glyph-name="Euro" unicode="&#x20ac;" horiz-adv-x="830" 
d="M770 152l10 -9c-41 -66 -138 -150 -304 -150c-173 0 -328 108 -359 288h-97l8 22h86c-2 14 -3 30 -3 45c0 17 1 33 3 49h-94l8 22h89c33 186 195 284 365 284c88 0 191 -31 278 -65v-197h-12c-41 191 -149 246 -243 246c-133 0 -278 -86 -301 -268h408l-8 -22h-403
c-1 -16 -1 -32 0 -49c0 -16 2 -31 4 -45h375l-9 -22h-362c35 -158 169 -239 308 -241c142 -1 220 73 253 112z" />
    <glyph glyph-name="sterling" unicode="&#xa3;" horiz-adv-x="614" 
d="M553 112h11v-112h-444v13l143 44c-70 81 -124 178 -152 274h-101v22h95c-9 39 -15 78 -15 116c0 157 105 234 253 234c69 0 129 -25 195 -51v-157h-12c-44 136 -95 193 -185 193c-82 0 -162 -40 -168 -202c-2 -50 -2 -93 2 -133h259v-22h-257c12 -95 43 -173 97 -274h279
v55z" />
    <glyph glyph-name="yen" unicode="&#xa5;" horiz-adv-x="695" 
d="M472 700h203v-13c-50 -18 -65 -24 -125 -127l-150 -262h161v-22h-162v-52h162v-22h-162v-189h65v-13h-211v13h64v189h-180v22h180v52h-180v22h167l-220 389h-64v13h227v-13h-66l208 -381l146 252c57 98 18 124 -63 129v13z" />
    <glyph glyph-name="currency" unicode="&#xa4;" horiz-adv-x="610" 
d="M519 264c0 -58 -20 -108 -54 -145l95 -95l-15 -16l-96 96c-37 -31 -87 -50 -144 -50c-58 0 -107 18 -144 50l-96 -96l-15 16l95 95c-34 37 -54 87 -54 145c0 57 20 107 54 144l-95 95l15 16l96 -96c37 32 86 50 144 50c57 0 107 -18 144 -50l96 96l15 -16l-95 -95
c34 -37 54 -87 54 -144zM305 68c67 0 126 65 126 196c0 130 -59 195 -126 195s-126 -65 -126 -195c0 -131 59 -196 126 -196z" />
    <glyph glyph-name="cent" unicode="&#xa2;" horiz-adv-x="611" 
d="M561 109c-29 -49 -105 -110 -218 -115v-76h-21v75c-150 3 -282 106 -282 273c0 179 133 270 282 273v79h21v-79c66 -2 139 -25 203 -50v-158h-11c-38 147 -114 196 -186 196h-6v-487c12 -2 23 -2 35 -2c91 0 149 49 174 79zM128 266c5 -131 94 -204 194 -223v482
c-105 -12 -200 -95 -194 -259z" />
    <glyph glyph-name="afii61352" unicode="&#x2116;" horiz-adv-x="1300" 
d="M592 700h216v-13c-84 -16 -97 -87 -97 -190v-497h-44l-491 612v-409c0 -103 21 -174 105 -190v-13h-216v13c85 16 98 87 98 190v426l-47 58h-66v13h174l474 -589v386c0 103 -21 174 -106 190v13zM1046 703c103 0 170 -72 170 -172s-67 -173 -170 -173s-169 73 -169 173
s66 172 169 172zM1046 370c55 0 97 53 97 161s-42 161 -97 161s-97 -53 -97 -161s42 -161 97 -161zM843 301h407v-22h-407v22z" />
    <glyph glyph-name="Bitcoin" unicode="&#x20bf;" horiz-adv-x="733" 
d="M683 189c0 -140 -106 -183 -252 -188v-83h-22v82h-13h-67v-82h-21v82h-240v13h64v674h-72v13h248v83h21v-83h9c25 0 49 -1 71 -3v86h22v-88c116 -14 195 -59 195 -168c0 -100 -88 -154 -194 -155v-3c151 6 251 -52 251 -180zM214 679v-306h130c86 0 195 19 195 154
s-109 152 -195 152h-130zM394 22c86 0 203 17 203 167c0 151 -125 171 -211 171h-172v-338h180z" />
    <glyph glyph-name="Ruble" unicode="&#x20bd;" horiz-adv-x="668" 
d="M363 256h-156v-71h256v-21h-256v-151h97v-13h-244v13h65v151h-65v21h65v71h-65v13h65v418h-65v13h303c160 -4 255 -73 255 -222c0 -141 -95 -220 -255 -222zM207 679v-410h105c144 0 212 66 212 209c0 139 -71 201 -212 201h-105z" />
    <glyph glyph-name="Aacute" unicode="&#xc1;" horiz-adv-x="746" 
d="M673 13h63v-13h-215v13h58l-86 205h-334l-35 -89c-25 -60 1 -107 50 -116v-13h-164v13c33 10 74 52 101 118l227 569h36zM164 231h323l-166 393zM458 905c15 -15 3 -34 -28 -66c-47 -47 -130 -98 -130 -98l-7 7s52 82 99 129c32 32 51 44 66 28z" />
    <glyph glyph-name="Abreve" unicode="&#x102;" horiz-adv-x="746" 
d="M673 13h63v-13h-215v13h58l-86 205h-334l-35 -89c-25 -60 1 -107 50 -116v-13h-164v13c33 10 74 52 101 118l227 569h36zM164 231h323l-166 393zM488 920h7c0 -98 -51 -155 -139 -155s-139 57 -139 155h7c16 -51 57 -103 132 -103c76 0 116 52 132 103z" />
    <glyph glyph-name="Acircumflex" unicode="&#xc2;" horiz-adv-x="746" 
d="M673 13h63v-13h-215v13h58l-86 205h-334l-35 -89c-25 -60 1 -107 50 -116v-13h-164v13c33 10 74 52 101 118l227 569h36zM164 231h323l-166 393zM374 920l156 -147l-7 -7l-167 94l-167 -94l-7 7l156 147h36z" />
    <glyph glyph-name="Agrave" unicode="&#xc0;" horiz-adv-x="746" 
d="M673 13h63v-13h-215v13h58l-86 205h-334l-35 -89c-25 -60 1 -107 50 -116v-13h-164v13c33 10 74 52 101 118l227 569h36zM164 231h323l-166 393zM334 877c48 -47 99 -129 99 -129l-7 -7s-82 51 -129 98c-32 32 -44 51 -29 66c15 16 35 4 66 -28z" />
    <glyph glyph-name="Adieresis" unicode="&#xc4;" horiz-adv-x="746" 
d="M673 13h63v-13h-215v13h58l-86 205h-334l-35 -89c-25 -60 1 -107 50 -116v-13h-164v13c33 10 74 52 101 118l227 569h36zM164 231h323l-166 393zM284 888c25 0 46 -20 46 -45s-21 -45 -46 -45s-45 20 -45 45s20 45 45 45zM426 888c25 0 46 -20 46 -45s-21 -45 -46 -45
s-45 20 -45 45s20 45 45 45z" />
    <glyph glyph-name="Amacron" unicode="&#x100;" horiz-adv-x="746" 
d="M673 13h63v-13h-215v13h58l-86 205h-334l-35 -89c-25 -60 1 -107 50 -116v-13h-164v13c33 10 74 52 101 118l227 569h36zM164 231h323l-166 393zM195 832h321v-19h-321v19z" />
    <glyph glyph-name="Aring" unicode="&#xc5;" horiz-adv-x="746" 
d="M673 13h63v-13h-215v13h58l-86 205h-334l-35 -89c-25 -60 1 -107 50 -116v-13h-164v13c33 10 74 52 101 118l227 569h36zM164 231h323l-166 393zM355 749c-51 0 -93 42 -93 94s42 94 93 94c52 0 94 -42 94 -94s-42 -94 -94 -94zM355 920c-42 0 -77 -35 -77 -77
c0 -43 35 -77 77 -77c43 0 77 34 77 77c0 42 -34 77 -77 77z" />
    <glyph glyph-name="Atilde" unicode="&#xc3;" horiz-adv-x="746" 
d="M673 13h63v-13h-215v13h58l-86 205h-334l-35 -89c-25 -60 1 -107 50 -116v-13h-164v13c33 10 74 52 101 118l227 569h36zM164 231h323l-166 393zM417 780c-38 5 -71 34 -107 53c-52 27 -86 1 -95 -38h-6c4 97 53 109 90 103c44 -6 88 -52 123 -64c41 -13 66 4 73 39h7
c-2 -70 -36 -99 -85 -93z" />
    <glyph glyph-name="AEacute" unicode="&#x1fc;" horiz-adv-x="1031" 
d="M968 226h13v-226h-546v13h65v238h-267l-59 -94c-6 -10 -16 -27 -16 -27c-31 -58 -33 -108 15 -117v-13h-163v13c33 10 93 58 133 117c6 9 13 19 20 30l328 527h-56v13h529v-226h-12c-15 132 -55 205 -200 205h-171v-322h153c87 0 109 20 125 96h10v-204h-10
c-16 75 -38 95 -125 95h-153v-322h188c145 0 185 72 199 204zM500 264v415l-259 -415h259zM750 905c15 -15 3 -34 -28 -66c-47 -47 -130 -98 -130 -98l-7 7s52 82 99 129c32 32 51 44 66 28z" />
    <glyph glyph-name="Cacute" unicode="&#x106;" horiz-adv-x="769" 
d="M708 152l11 -9c-41 -66 -138 -150 -304 -150c-193 0 -365 134 -365 355c0 232 180 355 371 355c88 0 190 -31 278 -65v-197h-12c-42 190 -149 246 -244 246c-149 0 -313 -108 -304 -339c9 -202 159 -306 316 -308c143 -1 221 73 253 112zM519 905c15 -15 3 -34 -28 -66
c-47 -47 -130 -98 -130 -98l-7 7s52 82 99 129c32 32 51 44 66 28z" />
    <glyph glyph-name="Ccaron" unicode="&#x10c;" horiz-adv-x="769" 
d="M708 152l11 -9c-41 -66 -138 -150 -304 -150c-193 0 -365 134 -365 355c0 232 180 355 371 355c88 0 190 -31 278 -65v-197h-12c-42 190 -149 246 -244 246c-149 0 -313 -108 -304 -339c9 -202 159 -306 316 -308c143 -1 221 73 253 112zM591 920l7 -6l-156 -148h-36
l-156 148l7 6l167 -93z" />
    <glyph glyph-name="Ccircumflex" unicode="&#x108;" horiz-adv-x="769" 
d="M708 152l11 -9c-41 -66 -138 -150 -304 -150c-193 0 -365 134 -365 355c0 232 180 355 371 355c88 0 190 -31 278 -65v-197h-12c-42 190 -149 246 -244 246c-149 0 -313 -108 -304 -339c9 -202 159 -306 316 -308c143 -1 221 73 253 112zM452 920l156 -147l-7 -7l-167 94
l-167 -94l-7 7l156 147h36z" />
    <glyph glyph-name="Cdotaccent" unicode="&#x10a;" horiz-adv-x="769" 
d="M708 152l11 -9c-41 -66 -138 -150 -304 -150c-193 0 -365 134 -365 355c0 232 180 355 371 355c88 0 190 -31 278 -65v-197h-12c-42 190 -149 246 -244 246c-149 0 -313 -108 -304 -339c9 -202 159 -306 316 -308c143 -1 221 73 253 112zM444 888c25 0 46 -20 46 -45
s-21 -45 -46 -45s-45 20 -45 45s20 45 45 45z" />
    <glyph glyph-name="Dcaron" unicode="&#x10e;" horiz-adv-x="811" 
d="M325 700c264 0 436 -91 436 -350s-172 -350 -436 -350h-265v13h65v674h-65v13h265zM353 22c204 0 313 103 313 328s-109 329 -313 329h-147v-657h147zM557 920l7 -6l-156 -148h-36l-156 148l7 6l167 -93z" />
    <glyph glyph-name="Eacute" unicode="&#xc9;" horiz-adv-x="656" 
d="M594 226h12v-226h-546v13h65v674h-65v13h529v-226h-12c-15 132 -55 205 -200 205h-171v-322h154c86 0 108 20 125 95h9v-203h-9c-17 75 -39 95 -125 95h-154v-322h188c145 0 185 72 200 204zM438 905c15 -15 3 -34 -28 -66c-47 -47 -130 -98 -130 -98l-7 7s52 82 99 129
c32 32 51 44 66 28z" />
    <glyph glyph-name="Ebreve" unicode="&#x114;" horiz-adv-x="656" 
d="M594 226h12v-226h-546v13h65v674h-65v13h529v-226h-12c-15 132 -55 205 -200 205h-171v-322h154c86 0 108 20 125 95h9v-203h-9c-17 75 -39 95 -125 95h-154v-322h188c145 0 185 72 200 204zM495 920h7c0 -98 -51 -155 -139 -155s-139 57 -139 155h7
c16 -51 57 -103 132 -103c76 0 116 52 132 103z" />
    <glyph glyph-name="Ecaron" unicode="&#x11a;" horiz-adv-x="656" 
d="M594 226h12v-226h-546v13h65v674h-65v13h529v-226h-12c-15 132 -55 205 -200 205h-171v-322h154c86 0 108 20 125 95h9v-203h-9c-17 75 -39 95 -125 95h-154v-322h188c145 0 185 72 200 204zM520 920l7 -6l-156 -148h-36l-156 148l7 6l167 -93z" />
    <glyph glyph-name="Ecircumflex" unicode="&#xca;" horiz-adv-x="656" 
d="M594 226h12v-226h-546v13h65v674h-65v13h529v-226h-12c-15 132 -55 205 -200 205h-171v-322h154c86 0 108 20 125 95h9v-203h-9c-17 75 -39 95 -125 95h-154v-322h188c145 0 185 72 200 204zM371 920l156 -147l-7 -7l-167 94l-167 -94l-7 7l156 147h36z" />
    <glyph glyph-name="Edieresis" unicode="&#xcb;" horiz-adv-x="656" 
d="M594 226h12v-226h-546v13h65v674h-65v13h529v-226h-12c-15 132 -55 205 -200 205h-171v-322h154c86 0 108 20 125 95h9v-203h-9c-17 75 -39 95 -125 95h-154v-322h188c145 0 185 72 200 204zM281 888c25 0 46 -20 46 -45s-21 -45 -46 -45s-45 20 -45 45s20 45 45 45z
M423 888c25 0 46 -20 46 -45s-21 -45 -46 -45s-45 20 -45 45s20 45 45 45z" />
    <glyph glyph-name="Edotaccent" unicode="&#x116;" horiz-adv-x="656" 
d="M594 226h12v-226h-546v13h65v674h-65v13h529v-226h-12c-15 132 -55 205 -200 205h-171v-322h154c86 0 108 20 125 95h9v-203h-9c-17 75 -39 95 -125 95h-154v-322h188c145 0 185 72 200 204zM362 888c25 0 46 -20 46 -45s-21 -45 -46 -45s-45 20 -45 45s20 45 45 45z" />
    <glyph glyph-name="Egrave" unicode="&#xc8;" horiz-adv-x="656" 
d="M594 226h12v-226h-546v13h65v674h-65v13h529v-226h-12c-15 132 -55 205 -200 205h-171v-322h154c86 0 108 20 125 95h9v-203h-9c-17 75 -39 95 -125 95h-154v-322h188c145 0 185 72 200 204zM304 877c48 -47 99 -129 99 -129l-7 -7s-82 51 -129 98c-32 32 -44 51 -29 66
c15 16 35 4 66 -28z" />
    <glyph glyph-name="Emacron" unicode="&#x112;" horiz-adv-x="656" 
d="M594 226h12v-226h-546v13h65v674h-65v13h529v-226h-12c-15 132 -55 205 -200 205h-171v-322h154c86 0 108 20 125 95h9v-203h-9c-17 75 -39 95 -125 95h-154v-322h188c145 0 185 72 200 204zM192 832h321v-19h-321v19z" />
    <glyph glyph-name="Gbreve" unicode="&#x11e;" horiz-adv-x="779" 
d="M574 313h201v-14h-56v-299h-13v124c-46 -63 -136 -131 -291 -131c-193 0 -365 134 -365 355c0 232 180 355 371 355c88 0 191 -31 278 -65v-197h-12c-41 190 -149 246 -244 246c-149 0 -313 -108 -303 -339c8 -202 158 -318 316 -322c89 -3 145 21 183 50v223h-65v14z
M574 920h7c0 -98 -51 -155 -139 -155s-139 57 -139 155h7c16 -51 57 -103 132 -103c76 0 116 52 132 103z" />
    <glyph glyph-name="Gcircumflex" unicode="&#x11c;" horiz-adv-x="779" 
d="M574 313h201v-14h-56v-299h-13v124c-46 -63 -136 -131 -291 -131c-193 0 -365 134 -365 355c0 232 180 355 371 355c88 0 191 -31 278 -65v-197h-12c-41 190 -149 246 -244 246c-149 0 -313 -108 -303 -339c8 -202 158 -318 316 -322c89 -3 145 21 183 50v223h-65v14z
M460 920l156 -147l-7 -7l-167 94l-167 -94l-7 7l156 147h36z" />
    <glyph glyph-name="commaaccent" unicode="&#xf6c3;" horiz-adv-x="226" 
d="M113 -78c30 0 53 -24 53 -53c0 -53 -53 -105 -78 -120l-3 5c22 17 44 52 50 67c-5 -3 -14 -5 -22 -5c-29 0 -53 24 -53 53s24 53 53 53z" />
    <glyph glyph-name="Gcommaaccent" unicode="&#x122;" horiz-adv-x="779" 
d="M574 313h201v-14h-56v-299h-13v124c-46 -63 -136 -131 -291 -131c-193 0 -365 134 -365 355c0 232 180 355 371 355c88 0 191 -31 278 -65v-197h-12c-41 190 -149 246 -244 246c-149 0 -313 -108 -303 -339c8 -202 158 -318 316 -322c89 -3 145 21 183 50v223h-65v14z
M432 -78c30 0 53 -24 53 -53c0 -53 -53 -105 -78 -120l-3 5c22 17 44 52 50 67c-5 -3 -14 -5 -22 -5c-29 0 -53 24 -53 53s24 53 53 53z" />
    <glyph glyph-name="Gdotaccent" unicode="&#x120;" horiz-adv-x="779" 
d="M574 313h201v-14h-56v-299h-13v124c-46 -63 -136 -131 -291 -131c-193 0 -365 134 -365 355c0 232 180 355 371 355c88 0 191 -31 278 -65v-197h-12c-41 190 -149 246 -244 246c-149 0 -313 -108 -303 -339c8 -202 158 -318 316 -322c89 -3 145 21 183 50v223h-65v14z
M452 888c25 0 46 -20 46 -45s-21 -45 -46 -45s-45 20 -45 45s20 45 45 45z" />
    <glyph glyph-name="Hcircumflex" unicode="&#x124;" horiz-adv-x="815" 
d="M755 687h-65v-674h65v-13h-211v13h65v323h-403v-323h65v-13h-211v13h65v674h-65v13h211v-13h-65v-330h403v330h-65v13h211v-13zM425 920l156 -147l-7 -7l-167 94l-167 -94l-7 7l156 147h36z" />
    <glyph glyph-name="Iacute" unicode="&#xcd;" horiz-adv-x="331" 
d="M271 687h-64v-674h64v-13h-211v13h65v674h-65v13h211v-13zM270 905c15 -15 3 -34 -28 -66c-47 -47 -130 -98 -130 -98l-7 7s52 82 99 129c32 32 51 44 66 28z" />
    <glyph glyph-name="Ibreve" unicode="&#x12c;" horiz-adv-x="331" 
d="M270 687h-64v-674h64v-13h-211v13h65v674h-65v13h211v-13zM297 920h7c0 -98 -51 -155 -139 -155s-139 57 -139 155h7c16 -51 57 -103 132 -103c76 0 116 52 132 103z" />
    <glyph glyph-name="Icircumflex" unicode="&#xce;" horiz-adv-x="331" 
d="M271 687h-64v-674h64v-13h-211v13h65v674h-65v13h211v-13zM184 920l156 -147l-7 -7l-167 94l-167 -94l-7 7l156 147h36z" />
    <glyph glyph-name="Idieresis" unicode="&#xcf;" horiz-adv-x="331" 
d="M271 687h-64v-674h64v-13h-211v13h65v674h-65v13h211v-13zM94 888c25 0 46 -20 46 -45s-21 -45 -46 -45s-45 20 -45 45s20 45 45 45zM236 888c25 0 46 -20 46 -45s-21 -45 -46 -45s-45 20 -45 45s20 45 45 45z" />
    <glyph glyph-name="Idotaccent" unicode="&#x130;" horiz-adv-x="331" 
d="M271 687h-64v-674h64v-13h-211v13h65v674h-65v13h211v-13zM165 888c25 0 46 -20 46 -45s-21 -45 -46 -45s-45 20 -45 45s20 45 45 45z" />
    <glyph glyph-name="Igrave" unicode="&#xcc;" horiz-adv-x="331" 
d="M271 687h-64v-674h64v-13h-211v13h65v674h-65v13h211v-13zM126 877c48 -47 99 -129 99 -129l-7 -7s-82 51 -129 98c-32 32 -44 51 -29 66c15 16 35 4 66 -28z" />
    <glyph glyph-name="Imacron" unicode="&#x12a;" horiz-adv-x="331" 
d="M271 687h-64v-674h64v-13h-211v13h65v674h-65v13h211v-13zM5 832h321v-19h-321v19z" />
    <glyph glyph-name="Itilde" unicode="&#x128;" horiz-adv-x="331" 
d="M271 687h-64v-674h64v-13h-211v13h65v674h-65v13h211v-13zM227 780c-38 5 -71 34 -107 53c-52 27 -86 1 -95 -38h-6c4 97 53 109 90 103c44 -6 88 -52 123 -64c41 -13 66 4 73 39h7c-2 -70 -36 -99 -85 -93z" />
    <glyph glyph-name="IJ" unicode="&#x132;" horiz-adv-x="910" 
d="M271 687h-64v-674h64v-13h-211v13h65v674h-65v13h211v-13zM850 700v-13h-65v-426c0 -190 -51 -268 -223 -268c-48 0 -118 22 -191 52v181h10c46 -168 104 -218 181 -218c96 0 141 48 141 187v492h-114v13h261z" />
    <glyph glyph-name="Jcircumflex" unicode="&#x134;" horiz-adv-x="579" 
d="M519 700v-13h-65v-426c0 -190 -51 -268 -223 -268c-48 0 -118 22 -191 52v181h10c46 -168 104 -218 181 -218c96 0 141 48 141 187v492h-114v13h261zM357 920l156 -147l-7 -7l-167 94l-167 -94l-7 7l156 147h36z" />
    <glyph glyph-name="Kcommaaccent" unicode="&#x136;" horiz-adv-x="775" 
d="M681 13h74v-13h-236v13h56l-239 361l-130 -133v-228h65v-13h-211v13h64v674h-64v13h211v-13h-65v-424l279 283c106 107 73 141 4 141v13h215v-13c-66 -15 -115 -58 -209 -152l-94 -96zM387 -78c30 0 53 -24 53 -53c0 -53 -53 -105 -78 -120l-3 5c22 17 44 52 50 67
c-5 -3 -14 -5 -22 -5c-29 0 -53 24 -53 53s24 53 53 53z" />
    <glyph glyph-name="Lacute" unicode="&#x139;" horiz-adv-x="662" 
d="M610 226h12v-226h-562v13h65v674h-65v13h211v-13h-64v-665h204c144 0 185 72 199 204zM273 905c15 -15 3 -34 -28 -66c-47 -47 -130 -98 -130 -98l-7 7s52 82 99 129c32 32 51 44 66 28z" />
    <glyph glyph-name="Lcaron" unicode="&#x13d;" horiz-adv-x="662" 
d="M610 226h12v-226h-562v13h65v674h-65v13h211v-13h-64v-665h204c144 0 185 72 199 204zM427 703c30 0 53 -23 53 -53c0 -53 -53 -105 -78 -120l-3 5c22 17 44 52 50 67c-5 -3 -14 -5 -22 -5c-29 0 -53 24 -53 53c0 30 24 53 53 53z" />
    <glyph glyph-name="Lcommaaccent" unicode="&#x13b;" horiz-adv-x="662" 
d="M610 226h12v-226h-562v13h65v674h-65v13h211v-13h-64v-665h204c144 0 185 72 199 204zM361 -78c30 0 53 -24 53 -53c0 -53 -53 -105 -78 -120l-3 5c22 17 44 52 50 67c-5 -3 -14 -5 -22 -5c-29 0 -53 24 -53 53s24 53 53 53z" />
    <glyph glyph-name="Ldot" unicode="&#x13f;" horiz-adv-x="662" 
d="M428 353c29 0 53 -24 53 -53s-24 -53 -53 -53c-30 0 -54 24 -54 53s24 53 54 53zM610 226h12v-226h-562v13h65v674h-65v13h211v-13h-64v-665h204c144 0 185 72 199 204z" />
    <glyph glyph-name="Nacute" unicode="&#x143;" horiz-adv-x="858" 
d="M592 700h216v-13c-84 -16 -97 -87 -97 -190v-497h-44l-491 612v-409c0 -103 21 -174 105 -190v-13h-216v13c85 16 98 87 98 190v426l-47 58h-66v13h174l474 -589v386c0 103 -22 174 -106 190v13zM534 905c15 -15 3 -34 -28 -66c-47 -47 -130 -98 -130 -98l-7 7
s52 82 99 129c32 32 51 44 66 28z" />
    <glyph glyph-name="Ncaron" unicode="&#x147;" horiz-adv-x="858" 
d="M592 700h216v-13c-84 -16 -97 -87 -97 -190v-497h-44l-491 612v-409c0 -103 21 -174 105 -190v-13h-216v13c85 16 98 87 98 190v426l-47 58h-66v13h174l474 -589v386c0 103 -22 174 -106 190v13zM596 920l7 -6l-156 -148h-36l-156 148l7 6l167 -93z" />
    <glyph glyph-name="Ncommaaccent" unicode="&#x145;" horiz-adv-x="858" 
d="M592 700h216v-13c-84 -16 -97 -87 -97 -190v-497h-44l-491 612v-409c0 -103 21 -174 105 -190v-13h-216v13c85 16 98 87 98 190v426l-47 58h-66v13h174l474 -589v386c0 103 -22 174 -106 190v13zM464 -78c30 0 53 -24 53 -53c0 -53 -53 -105 -78 -120l-3 5
c22 17 44 52 50 67c-5 -3 -14 -5 -22 -5c-29 0 -53 24 -53 53s24 53 53 53z" />
    <glyph glyph-name="Ntilde" unicode="&#xd1;" horiz-adv-x="858" 
d="M592 700h216v-13c-84 -16 -97 -87 -97 -190v-497h-44l-491 612v-409c0 -103 21 -174 105 -190v-13h-216v13c85 16 98 87 98 190v426l-47 58h-66v13h174l474 -589v386c0 103 -22 174 -106 190v13zM480 780c-38 5 -71 34 -107 53c-52 27 -86 1 -95 -38h-6
c4 97 53 109 90 103c44 -6 88 -52 123 -64c41 -13 66 4 73 39h7c-2 -70 -36 -99 -85 -93z" />
    <glyph glyph-name="Oacute" unicode="&#xd3;" horiz-adv-x="839" 
d="M419 703c227 0 370 -140 370 -355s-143 -355 -370 -355c-226 0 -369 140 -369 355s143 355 369 355zM419 5c143 0 278 102 278 343c0 242 -135 344 -278 344s-277 -102 -277 -344c0 -241 134 -343 277 -343zM504 905c15 -15 3 -34 -28 -66c-47 -47 -130 -98 -130 -98
l-7 7s52 82 99 129c32 32 51 44 66 28z" />
    <glyph glyph-name="Obreve" unicode="&#x14e;" horiz-adv-x="839" 
d="M419 703c227 0 370 -140 370 -355s-143 -355 -370 -355c-226 0 -369 140 -369 355s143 355 369 355zM419 5c143 0 278 102 278 343c0 242 -135 344 -278 344s-277 -102 -277 -344c0 -241 134 -343 277 -343zM551 920h7c0 -98 -51 -155 -139 -155s-139 57 -139 155h7
c16 -51 57 -103 132 -103c76 0 116 52 132 103z" />
    <glyph glyph-name="Ocircumflex" unicode="&#xd4;" horiz-adv-x="839" 
d="M419 703c227 0 370 -140 370 -355s-143 -355 -370 -355c-226 0 -369 140 -369 355s143 355 369 355zM419 5c143 0 278 102 278 343c0 242 -135 344 -278 344s-277 -102 -277 -344c0 -241 134 -343 277 -343zM437 920l156 -147l-7 -7l-167 94l-167 -94l-7 7l156 147h36z
" />
    <glyph glyph-name="Odieresis" unicode="&#xd6;" horiz-adv-x="839" 
d="M419 703c227 0 370 -140 370 -355s-143 -355 -370 -355c-226 0 -369 140 -369 355s143 355 369 355zM419 5c143 0 278 102 278 343c0 242 -135 344 -278 344s-277 -102 -277 -344c0 -241 134 -343 277 -343zM348 888c25 0 46 -20 46 -45s-21 -45 -46 -45s-45 20 -45 45
s20 45 45 45zM490 888c25 0 46 -20 46 -45s-21 -45 -46 -45s-45 20 -45 45s20 45 45 45z" />
    <glyph glyph-name="Ograve" unicode="&#xd2;" horiz-adv-x="839" 
d="M419 703c227 0 370 -140 370 -355s-143 -355 -370 -355c-226 0 -369 140 -369 355s143 355 369 355zM419 5c143 0 278 102 278 343c0 242 -135 344 -278 344s-277 -102 -277 -344c0 -241 134 -343 277 -343zM400 877c48 -47 99 -129 99 -129l-7 -7s-82 51 -129 98
c-32 32 -44 51 -29 66c15 16 35 4 66 -28z" />
    <glyph glyph-name="Ohungarumlaut" unicode="&#x150;" horiz-adv-x="839" 
d="M419 703c227 0 370 -140 370 -355s-143 -355 -370 -355c-226 0 -369 140 -369 355s143 355 369 355zM419 5c143 0 278 102 278 343c0 242 -135 344 -278 344s-277 -102 -277 -344c0 -241 134 -343 277 -343zM456 905c15 -15 3 -34 -28 -66c-48 -47 -130 -98 -130 -98
l-7 7s52 82 99 129c31 32 51 44 66 28zM631 905c16 -15 4 -34 -28 -66c-47 -47 -129 -98 -129 -98l-7 7s51 82 98 129c32 32 51 44 66 28z" />
    <glyph glyph-name="Omacron" unicode="&#x14c;" horiz-adv-x="839" 
d="M419 703c227 0 370 -140 370 -355s-143 -355 -370 -355c-226 0 -369 140 -369 355s143 355 369 355zM419 5c143 0 278 102 278 343c0 242 -135 344 -278 344s-277 -102 -277 -344c0 -241 134 -343 277 -343zM259 832h321v-19h-321v19z" />
    <glyph glyph-name="Oslashacute" unicode="&#x1fe;" horiz-adv-x="839" 
d="M650 638c88 -61 139 -162 139 -290c0 -215 -144 -355 -370 -355c-86 0 -160 21 -219 58l-38 -51h-22l46 60c-87 61 -136 162 -136 288c0 215 143 355 369 355c85 0 159 -19 217 -55l40 52h22zM141 348c0 -112 29 -194 75 -249l393 514c-51 54 -119 79 -190 79
c-143 0 -278 -102 -278 -344zM419 5c143 0 278 102 278 343c0 114 -30 196 -76 252l-394 -514c52 -56 121 -81 192 -81zM504 905c15 -15 3 -34 -28 -66c-47 -47 -130 -98 -130 -98l-7 7s52 82 99 129c32 32 51 44 66 28z" />
    <glyph glyph-name="Otilde" unicode="&#xd5;" horiz-adv-x="839" 
d="M419 703c227 0 370 -140 370 -355s-143 -355 -370 -355c-226 0 -369 140 -369 355s143 355 369 355zM419 5c143 0 278 102 278 343c0 242 -135 344 -278 344s-277 -102 -277 -344c0 -241 134 -343 277 -343zM481 780c-38 5 -71 34 -107 53c-52 27 -86 1 -95 -38h-6
c4 97 53 109 90 103c44 -6 88 -52 123 -64c41 -13 66 4 73 39h7c-2 -70 -36 -99 -85 -93z" />
    <glyph glyph-name="Racute" unicode="&#x154;" horiz-adv-x="739" 
d="M618 181v-87c0 -55 17 -75 50 -75c36 0 49 37 49 87h12c0 -48 -6 -113 -92 -113c-67 0 -109 25 -109 113v103c0 94 -37 121 -167 121h-155v-317h65v-13h-211v13h65v674h-65v13h287c164 0 271 -44 271 -189c0 -98 -67 -169 -204 -169v-4c157 0 204 -35 204 -157zM337 343
c110 0 191 37 191 171s-88 165 -191 165h-131v-336h131zM439 905c15 -15 3 -34 -28 -66c-47 -47 -130 -98 -130 -98l-7 7s52 82 99 129c32 32 51 44 66 28z" />
    <glyph glyph-name="Rcaron" unicode="&#x158;" horiz-adv-x="739" 
d="M618 181v-87c0 -55 17 -75 50 -75c36 0 49 37 49 87h12c0 -48 -6 -113 -92 -113c-67 0 -109 25 -109 113v103c0 94 -37 121 -167 121h-155v-317h65v-13h-211v13h65v674h-65v13h287c164 0 271 -44 271 -189c0 -98 -67 -169 -204 -169v-4c157 0 204 -35 204 -157zM337 343
c110 0 191 37 191 171s-88 165 -191 165h-131v-336h131zM501 920l7 -6l-156 -148h-36l-156 148l7 6l167 -93z" />
    <glyph glyph-name="Rcommaaccent" unicode="&#x156;" horiz-adv-x="739" 
d="M618 181v-87c0 -55 17 -75 50 -75c36 0 49 37 49 87h12c0 -48 -6 -113 -92 -113c-67 0 -109 25 -109 113v103c0 94 -37 121 -167 121h-155v-317h65v-13h-211v13h65v674h-65v13h287c164 0 271 -44 271 -189c0 -98 -67 -169 -204 -169v-4c157 0 204 -35 204 -157zM337 343
c110 0 191 37 191 171s-88 165 -191 165h-131v-336h131zM404 -78c30 0 53 -24 53 -53c0 -53 -53 -105 -78 -120l-3 5c22 17 44 52 50 67c-5 -3 -14 -5 -22 -5c-29 0 -53 24 -53 53s24 53 53 53z" />
    <glyph glyph-name="Sacute" unicode="&#x15a;" horiz-adv-x="578" 
d="M152 587c-15 -112 78 -155 193 -207c125 -57 196 -107 181 -218c-16 -117 -121 -169 -243 -169c-74 0 -158 24 -233 48v161h9c50 -157 115 -194 217 -194c86 0 142 25 160 79c38 110 -28 172 -155 228c-119 51 -217 108 -204 230c14 124 123 158 215 158
c70 0 145 -28 206 -50v-144h-9c-49 141 -102 179 -198 179c-66 0 -129 -22 -139 -101zM394 905c15 -15 3 -34 -28 -66c-47 -47 -130 -98 -130 -98l-7 7s52 82 99 129c32 32 51 44 66 28z" />
    <glyph glyph-name="Scaron" unicode="&#x160;" horiz-adv-x="578" 
d="M152 587c-15 -112 78 -155 193 -207c125 -57 196 -107 181 -218c-16 -117 -121 -169 -243 -169c-74 0 -158 24 -233 48v161h9c50 -157 115 -194 217 -194c86 0 142 25 160 79c38 110 -28 172 -155 228c-119 51 -217 108 -204 230c14 124 123 158 215 158
c70 0 145 -28 206 -50v-144h-9c-49 141 -102 179 -198 179c-66 0 -129 -22 -139 -101zM476 920l7 -6l-156 -148h-36l-156 148l7 6l167 -93z" />
    <glyph glyph-name="Scircumflex" unicode="&#x15c;" horiz-adv-x="578" 
d="M152 587c-15 -112 78 -155 193 -207c125 -57 196 -107 181 -218c-16 -117 -121 -169 -243 -169c-74 0 -158 24 -233 48v161h9c50 -157 115 -194 217 -194c86 0 142 25 160 79c38 110 -28 172 -155 228c-119 51 -217 108 -204 230c14 124 123 158 215 158
c70 0 145 -28 206 -50v-144h-9c-49 141 -102 179 -198 179c-66 0 -129 -22 -139 -101zM317 920l156 -147l-7 -7l-167 94l-167 -94l-7 7l156 147h36z" />
    <glyph glyph-name="Scommaaccent" unicode="&#x218;" horiz-adv-x="578" 
d="M152 587c-15 -112 78 -155 193 -207c125 -57 196 -107 181 -218c-16 -117 -121 -169 -243 -169c-74 0 -158 24 -233 48v161h9c50 -157 115 -194 217 -194c86 0 142 25 160 79c38 110 -28 172 -155 228c-119 51 -217 108 -204 230c14 124 123 158 215 158
c70 0 145 -28 206 -50v-144h-9c-49 141 -102 179 -198 179c-66 0 -129 -22 -139 -101zM294 -78c30 0 53 -24 53 -53c0 -53 -53 -105 -78 -120l-3 5c22 17 44 52 50 67c-5 -3 -14 -5 -22 -5c-29 0 -53 24 -53 53s24 53 53 53z" />
    <glyph glyph-name="Tcaron" unicode="&#x164;" horiz-adv-x="725" 
d="M50 700h625v-218h-12c-9 91 -9 197 -145 197h-115v-666h65v-13h-211v13h65v666h-115c-136 0 -137 -106 -145 -197h-12v218zM529 920l7 -6l-156 -148h-36l-156 148l7 6l167 -93z" />
    <glyph glyph-name="Tcommaaccent" unicode="&#x162;" horiz-adv-x="725" 
d="M50 700h625v-218h-12c-9 91 -9 197 -145 197h-115v-666h65v-13h-211v13h65v666h-115c-136 0 -137 -106 -145 -197h-12v218zM362 -78c30 0 53 -24 53 -53c0 -53 -53 -105 -78 -120l-3 5c22 17 44 52 50 67c-5 -3 -14 -5 -22 -5c-29 0 -53 24 -53 53s24 53 53 53z" />
    <glyph glyph-name="Uacute" unicode="&#xda;" horiz-adv-x="774" 
d="M578 700h146v-13c-48 -13 -66 -54 -66 -157v-248c0 -190 -100 -289 -268 -289c-163 0 -265 100 -265 289v405h-65v13h211v-13h-65v-405c0 -164 74 -249 223 -249c118 0 215 88 215 249v248c0 103 -15 144 -66 157v13zM497 905c15 -15 3 -34 -28 -66
c-47 -47 -130 -98 -130 -98l-7 7s52 82 99 129c32 32 51 44 66 28z" />
    <glyph glyph-name="Ubreve" unicode="&#x16c;" horiz-adv-x="774" 
d="M578 700h146v-13c-48 -13 -66 -54 -66 -157v-248c0 -190 -100 -289 -268 -289c-163 0 -265 100 -265 289v405h-65v13h211v-13h-65v-405c0 -164 74 -249 223 -249c118 0 215 88 215 249v248c0 103 -15 144 -66 157v13zM554 920h7c0 -98 -51 -155 -139 -155
s-139 57 -139 155h7c16 -51 57 -103 132 -103c76 0 116 52 132 103z" />
    <glyph glyph-name="Ucircumflex" unicode="&#xdb;" horiz-adv-x="774" 
d="M578 700h146v-13c-48 -13 -66 -54 -66 -157v-248c0 -190 -100 -289 -268 -289c-163 0 -265 100 -265 289v405h-65v13h211v-13h-65v-405c0 -164 74 -249 223 -249c118 0 215 88 215 249v248c0 103 -15 144 -66 157v13zM430 920l156 -147l-7 -7l-167 94l-167 -94l-7 7
l156 147h36z" />
    <glyph glyph-name="Udieresis" unicode="&#xdc;" horiz-adv-x="774" 
d="M578 700h146v-13c-48 -13 -66 -54 -66 -157v-248c0 -190 -100 -289 -268 -289c-163 0 -265 100 -265 289v405h-65v13h211v-13h-65v-405c0 -164 74 -249 223 -249c118 0 215 88 215 249v248c0 103 -15 144 -66 157v13zM360 888c25 0 46 -20 46 -45s-21 -45 -46 -45
s-45 20 -45 45s20 45 45 45zM502 888c25 0 46 -20 46 -45s-21 -45 -46 -45s-45 20 -45 45s20 45 45 45z" />
    <glyph glyph-name="Ugrave" unicode="&#xd9;" horiz-adv-x="774" 
d="M578 700h146v-13c-48 -13 -66 -54 -66 -157v-248c0 -190 -100 -289 -268 -289c-163 0 -265 100 -265 289v405h-65v13h211v-13h-65v-405c0 -164 74 -249 223 -249c118 0 215 88 215 249v248c0 103 -15 144 -66 157v13zM383 877c48 -47 99 -129 99 -129l-7 -7
s-82 51 -129 98c-32 32 -44 51 -29 66c15 16 35 4 66 -28z" />
    <glyph glyph-name="Uhungarumlaut" unicode="&#x170;" horiz-adv-x="774" 
d="M578 700h146v-13c-48 -13 -66 -54 -66 -157v-248c0 -190 -100 -289 -268 -289c-163 0 -265 100 -265 289v405h-65v13h211v-13h-65v-405c0 -164 74 -249 223 -249c118 0 215 88 215 249v248c0 103 -15 144 -66 157v13zM449 905c15 -15 3 -34 -28 -66
c-48 -47 -130 -98 -130 -98l-7 7s52 82 99 129c31 32 51 44 66 28zM624 905c16 -15 4 -34 -28 -66c-47 -47 -129 -98 -129 -98l-7 7s51 82 98 129c32 32 51 44 66 28z" />
    <glyph glyph-name="Umacron" unicode="&#x16a;" horiz-adv-x="774" 
d="M578 700h146v-13c-48 -13 -66 -54 -66 -157v-248c0 -190 -100 -289 -268 -289c-163 0 -265 100 -265 289v405h-65v13h211v-13h-65v-405c0 -164 74 -249 223 -249c118 0 215 88 215 249v248c0 103 -15 144 -66 157v13zM261 832h321v-19h-321v19z" />
    <glyph glyph-name="Uring" unicode="&#x16e;" horiz-adv-x="774" 
d="M578 700h146v-13c-48 -13 -66 -54 -66 -157v-248c0 -190 -100 -289 -268 -289c-163 0 -265 100 -265 289v405h-65v13h211v-13h-65v-405c0 -164 74 -249 223 -249c118 0 215 88 215 249v248c0 103 -15 144 -66 157v13zM421 749c-51 0 -93 42 -93 94s42 94 93 94
c52 0 94 -42 94 -94s-42 -94 -94 -94zM421 920c-42 0 -77 -35 -77 -77c0 -43 35 -77 77 -77c43 0 77 34 77 77c0 42 -34 77 -77 77z" />
    <glyph glyph-name="Utilde" unicode="&#x168;" horiz-adv-x="774" 
d="M578 700h146v-13c-48 -13 -66 -54 -66 -157v-248c0 -190 -100 -289 -268 -289c-163 0 -265 100 -265 289v405h-65v13h211v-13h-65v-405c0 -164 74 -249 223 -249c118 0 215 88 215 249v248c0 103 -15 144 -66 157v13zM483 780c-38 5 -71 34 -107 53c-52 27 -86 1 -95 -38
h-6c4 97 53 109 90 103c44 -6 88 -52 123 -64c41 -13 66 4 73 39h7c-2 -70 -36 -99 -85 -93z" />
    <glyph glyph-name="Wacute" unicode="&#x1e82;" horiz-adv-x="1098" 
d="M868 700h210v-13c-54 -16 -75 -33 -112 -142l-186 -545h-23l-214 570l-180 -570h-23l-259 687h-61v13h207v-13h-59l213 -579l188 592h14l218 -598l150 438c36 107 4 142 -83 147v13zM700 905c15 -15 3 -34 -28 -66c-47 -47 -130 -98 -130 -98l-7 7s52 82 99 129
c32 32 51 44 66 28z" />
    <glyph glyph-name="Wcircumflex" unicode="&#x174;" horiz-adv-x="1098" 
d="M868 700h210v-13c-54 -16 -75 -33 -112 -142l-186 -545h-23l-214 570l-180 -570h-23l-259 687h-61v13h207v-13h-59l213 -579l188 592h14l218 -598l150 438c36 107 4 142 -83 147v13zM603 920l156 -147l-7 -7l-167 94l-167 -94l-7 7l156 147h36z" />
    <glyph glyph-name="Wdieresis" unicode="&#x1e84;" horiz-adv-x="1098" 
d="M868 700h210v-13c-54 -16 -75 -33 -112 -142l-186 -545h-23l-214 570l-180 -570h-23l-259 687h-61v13h207v-13h-59l213 -579l188 592h14l218 -598l150 438c36 107 4 142 -83 147v13zM513 888c25 0 46 -20 46 -45s-21 -45 -46 -45s-45 20 -45 45s20 45 45 45zM655 888
c25 0 46 -20 46 -45s-21 -45 -46 -45s-45 20 -45 45s20 45 45 45z" />
    <glyph glyph-name="Wgrave" unicode="&#x1e80;" horiz-adv-x="1098" 
d="M868 700h210v-13c-54 -16 -75 -33 -112 -142l-186 -545h-23l-214 570l-180 -570h-23l-259 687h-61v13h207v-13h-59l213 -579l188 592h14l218 -598l150 438c36 107 4 142 -83 147v13zM536 877c48 -47 99 -129 99 -129l-7 -7s-82 51 -129 98c-32 32 -44 51 -29 66
c15 16 35 4 66 -28z" />
    <glyph glyph-name="Yacute" unicode="&#xdd;" horiz-adv-x="696" 
d="M472 700h204v-13c-51 -18 -66 -24 -126 -128l-151 -263v-283h65v-13h-211v13h65v260l-234 414h-64v13h227v-13h-65l207 -381l147 252c56 98 17 124 -64 129v13zM473 905c15 -15 3 -34 -28 -66c-47 -47 -130 -98 -130 -98l-7 7s52 82 99 129c32 32 51 44 66 28z" />
    <glyph glyph-name="Ycircumflex" unicode="&#x176;" horiz-adv-x="696" 
d="M472 700h204v-13c-51 -18 -66 -24 -126 -128l-151 -263v-283h65v-13h-211v13h65v260l-234 414h-64v13h227v-13h-65l207 -381l147 252c56 98 17 124 -64 129v13zM376 920l156 -147l-7 -7l-167 94l-167 -94l-7 7l156 147h36z" />
    <glyph glyph-name="Ydieresis" unicode="&#x178;" horiz-adv-x="696" 
d="M472 700h204v-13c-51 -18 -66 -24 -126 -128l-151 -263v-283h65v-13h-211v13h65v260l-234 414h-64v13h227v-13h-65l207 -381l147 252c56 98 17 124 -64 129v13zM296 888c25 0 46 -20 46 -45s-21 -45 -46 -45s-45 20 -45 45s20 45 45 45zM438 888c25 0 46 -20 46 -45
s-21 -45 -46 -45s-45 20 -45 45s20 45 45 45z" />
    <glyph glyph-name="Ygrave" unicode="&#x1ef2;" horiz-adv-x="696" 
d="M472 700h204v-13c-51 -18 -66 -24 -126 -128l-151 -263v-283h65v-13h-211v13h65v260l-234 414h-64v13h227v-13h-65l207 -381l147 252c56 98 17 124 -64 129v13zM319 877c48 -47 99 -129 99 -129l-7 -7s-82 51 -129 98c-32 32 -44 51 -29 66c15 16 35 4 66 -28z" />
    <glyph glyph-name="Zacute" unicode="&#x179;" horiz-adv-x="668" 
d="M618 700v-13l-463 -665h262c134 0 158 62 175 196h13v-218h-555v13l455 666h-254c-134 0 -158 -63 -175 -197h-13v218h555zM439 905c15 -15 3 -34 -28 -66c-47 -47 -130 -98 -130 -98l-7 7s52 82 99 129c32 32 51 44 66 28z" />
    <glyph glyph-name="Zcaron" unicode="&#x17d;" horiz-adv-x="668" 
d="M618 700v-13l-463 -665h262c134 0 158 62 175 196h13v-218h-555v13l455 666h-254c-134 0 -158 -63 -175 -197h-13v218h555zM521 920l7 -6l-156 -148h-36l-156 148l7 6l167 -93z" />
    <glyph glyph-name="Zdotaccent" unicode="&#x17b;" horiz-adv-x="668" 
d="M618 700v-13l-463 -665h262c134 0 158 62 175 196h13v-218h-555v13l455 666h-254c-134 0 -158 -63 -175 -197h-13v218h555zM353 888c25 0 46 -20 46 -45s-21 -45 -46 -45s-45 20 -45 45s20 45 45 45z" />
    <glyph glyph-name="aacute" unicode="&#xe1;" horiz-adv-x="628" 
d="M597 59l11 -6c-18 -35 -42 -60 -92 -60c-53 0 -106 28 -104 109c-31 -64 -88 -109 -181 -109c-94 0 -191 42 -191 151c0 200 250 171 372 171v88c0 83 -37 124 -118 124c-56 0 -128 -27 -190 -164h-8v133c76 25 146 44 200 44c126 0 189 -36 189 -161v-295
c0 -44 22 -64 54 -64c33 0 50 25 58 39zM412 116v187c-132 5 -291 18 -291 -143c0 -175 213 -180 291 -44zM399 755c15 -15 3 -34 -28 -66c-47 -47 -130 -98 -130 -98l-7 7s52 82 99 129c32 32 51 44 66 28z" />
    <glyph glyph-name="abreve" unicode="&#x103;" horiz-adv-x="628" 
d="M597 59l11 -6c-18 -35 -42 -60 -92 -60c-53 0 -106 28 -104 109c-31 -64 -88 -109 -181 -109c-94 0 -191 42 -191 151c0 200 250 171 372 171v88c0 83 -37 124 -118 124c-56 0 -128 -27 -190 -164h-8v133c76 25 146 44 200 44c126 0 189 -36 189 -161v-295
c0 -44 22 -64 54 -64c33 0 50 25 58 39zM412 116v187c-132 5 -291 18 -291 -143c0 -175 213 -180 291 -44zM426 770h7c0 -98 -51 -155 -139 -155s-139 57 -139 155h7c16 -51 57 -103 132 -103c76 0 116 52 132 103z" />
    <glyph glyph-name="acircumflex" unicode="&#xe2;" horiz-adv-x="628" 
d="M597 59l11 -6c-18 -35 -42 -60 -92 -60c-53 0 -106 28 -104 109c-31 -64 -88 -109 -181 -109c-94 0 -191 42 -191 151c0 200 250 171 372 171v88c0 83 -37 124 -118 124c-56 0 -128 -27 -190 -164h-8v133c76 25 146 44 200 44c126 0 189 -36 189 -161v-295
c0 -44 22 -64 54 -64c33 0 50 25 58 39zM412 116v187c-132 5 -291 18 -291 -143c0 -175 213 -180 291 -44zM312 770l156 -147l-7 -7l-167 94l-167 -94l-7 7l156 147h36z" />
    <glyph glyph-name="adieresis" unicode="&#xe4;" horiz-adv-x="628" 
d="M597 59l11 -6c-18 -35 -42 -60 -92 -60c-53 0 -106 28 -104 109c-31 -64 -88 -109 -181 -109c-94 0 -191 42 -191 151c0 200 250 171 372 171v88c0 83 -37 124 -118 124c-56 0 -128 -27 -190 -164h-8v133c76 25 146 44 200 44c126 0 189 -36 189 -161v-295
c0 -44 22 -64 54 -64c33 0 50 25 58 39zM412 116v187c-132 5 -291 18 -291 -143c0 -175 213 -180 291 -44zM232 738c25 0 46 -20 46 -45s-21 -45 -46 -45s-45 20 -45 45s20 45 45 45zM374 738c25 0 46 -20 46 -45s-21 -45 -46 -45s-45 20 -45 45s20 45 45 45z" />
    <glyph glyph-name="agrave" unicode="&#xe0;" horiz-adv-x="628" 
d="M597 59l11 -6c-18 -35 -42 -60 -92 -60c-53 0 -106 28 -104 109c-31 -64 -88 -109 -181 -109c-94 0 -191 42 -191 151c0 200 250 171 372 171v88c0 83 -37 124 -118 124c-56 0 -128 -27 -190 -164h-8v133c76 25 146 44 200 44c126 0 189 -36 189 -161v-295
c0 -44 22 -64 54 -64c33 0 50 25 58 39zM412 116v187c-132 5 -291 18 -291 -143c0 -175 213 -180 291 -44zM275 727c48 -47 99 -129 99 -129l-7 -7s-82 51 -129 98c-32 32 -44 51 -29 66c15 16 35 4 66 -28z" />
    <glyph glyph-name="amacron" unicode="&#x101;" horiz-adv-x="628" 
d="M597 59l11 -6c-18 -35 -42 -60 -92 -60c-53 0 -106 28 -104 109c-31 -64 -88 -109 -181 -109c-94 0 -191 42 -191 151c0 200 250 171 372 171v88c0 83 -37 124 -118 124c-56 0 -128 -27 -190 -164h-8v133c76 25 146 44 200 44c126 0 189 -36 189 -161v-295
c0 -44 22 -64 54 -64c33 0 50 25 58 39zM412 116v187c-132 5 -291 18 -291 -143c0 -175 213 -180 291 -44zM123 682h321v-19h-321v19z" />
    <glyph glyph-name="aring" unicode="&#xe5;" horiz-adv-x="628" 
d="M597 59l11 -6c-18 -35 -42 -60 -92 -60c-53 0 -106 28 -104 109c-31 -64 -88 -109 -181 -109c-94 0 -191 42 -191 151c0 200 250 171 372 171v88c0 83 -37 124 -118 124c-56 0 -128 -27 -190 -164h-8v133c76 25 146 44 200 44c126 0 189 -36 189 -161v-295
c0 -44 22 -64 54 -64c33 0 50 25 58 39zM412 116v187c-132 5 -291 18 -291 -143c0 -175 213 -180 291 -44zM293 599c-51 0 -93 42 -93 94s42 94 93 94c52 0 94 -42 94 -94s-42 -94 -94 -94zM293 770c-42 0 -77 -35 -77 -77c0 -43 35 -77 77 -77c43 0 77 34 77 77
c0 42 -34 77 -77 77z" />
    <glyph glyph-name="atilde" unicode="&#xe3;" horiz-adv-x="628" 
d="M597 59l11 -6c-18 -35 -42 -60 -92 -60c-53 0 -106 28 -104 109c-31 -64 -88 -109 -181 -109c-94 0 -191 42 -191 151c0 200 250 171 372 171v88c0 83 -37 124 -118 124c-56 0 -128 -27 -190 -164h-8v133c76 25 146 44 200 44c126 0 189 -36 189 -161v-295
c0 -44 22 -64 54 -64c33 0 50 25 58 39zM412 116v187c-132 5 -291 18 -291 -143c0 -175 213 -180 291 -44zM355 630c-38 5 -71 34 -107 53c-52 27 -86 1 -95 -38h-6c4 97 53 109 90 103c44 -6 88 -52 123 -64c41 -13 66 4 73 39h7c-2 -70 -36 -99 -85 -93z" />
    <glyph glyph-name="aeacute" unicode="&#x1fd;" horiz-adv-x="987" 
d="M692 540c156 0 264 -86 254 -274h-446c6 -155 128 -228 249 -228c92 0 150 49 174 79l10 -8c-31 -52 -112 -116 -234 -116c-138 0 -261 85 -283 226c-7 -116 -67 -226 -185 -226c-94 0 -191 36 -191 151c0 200 250 171 372 171v88c0 84 -45 124 -126 124
c-56 0 -120 -27 -182 -164h-8v133c76 25 138 44 192 44c97 0 161 -21 186 -88c52 60 132 88 218 88zM412 266v37c-132 5 -291 18 -291 -143c0 -171 291 -211 291 106zM869 288c10 144 -62 239 -177 239c-114 0 -196 -100 -193 -239h370zM608 755c15 -15 3 -34 -28 -66
c-47 -47 -130 -98 -130 -98l-7 7s52 82 99 129c32 32 51 44 66 28z" />
    <glyph glyph-name="cacute" unicode="&#x107;" horiz-adv-x="610" 
d="M551 117l9 -8c-31 -52 -111 -116 -233 -116c-153 0 -287 103 -287 273c0 183 138 274 291 274c68 0 147 -25 214 -51v-158h-11c-38 147 -114 196 -186 196c-114 0 -228 -83 -221 -261c7 -155 129 -228 250 -228c91 0 150 49 174 79zM425 755c15 -15 3 -34 -28 -66
c-47 -47 -130 -98 -130 -98l-7 7s52 82 99 129c32 32 51 44 66 28z" />
    <glyph glyph-name="ccaron" unicode="&#x10d;" horiz-adv-x="610" 
d="M551 117l9 -8c-31 -52 -111 -116 -233 -116c-153 0 -287 103 -287 273c0 183 138 274 291 274c68 0 147 -25 214 -51v-158h-11c-38 147 -114 196 -186 196c-114 0 -228 -83 -221 -261c7 -155 129 -228 250 -228c91 0 150 49 174 79zM507 770l7 -6l-156 -148h-36l-156 148
l7 6l167 -93z" />
    <glyph glyph-name="ccircumflex" unicode="&#x109;" horiz-adv-x="610" 
d="M551 117l9 -8c-31 -52 -111 -116 -233 -116c-153 0 -287 103 -287 273c0 183 138 274 291 274c68 0 147 -25 214 -51v-158h-11c-38 147 -114 196 -186 196c-114 0 -228 -83 -221 -261c7 -155 129 -228 250 -228c91 0 150 49 174 79zM358 770l156 -147l-7 -7l-167 94
l-167 -94l-7 7l156 147h36z" />
    <glyph glyph-name="cdotaccent" unicode="&#x10b;" horiz-adv-x="610" 
d="M551 117l9 -8c-31 -52 -111 -116 -233 -116c-153 0 -287 103 -287 273c0 183 138 274 291 274c68 0 147 -25 214 -51v-158h-11c-38 147 -114 196 -186 196c-114 0 -228 -83 -221 -261c7 -155 129 -228 250 -228c91 0 150 49 174 79zM339 738c25 0 46 -20 46 -45
s-21 -45 -46 -45s-45 20 -45 45s20 45 45 45z" />
    <glyph glyph-name="dcaron" unicode="&#x10f;" horiz-adv-x="785" 
d="M573 13h56v-13h-129v121c-13 -49 -87 -128 -207 -128c-118 0 -253 89 -253 273c0 185 135 274 253 274c120 0 194 -79 207 -128v275h-57v13h130v-687zM500 135v263c-16 36 -64 81 -140 92c-122 18 -233 -55 -233 -224s111 -241 233 -223c76 11 124 56 140 92zM722 704
c30 0 53 -23 53 -53c0 -53 -53 -105 -78 -120l-3 5c22 17 44 52 50 67c-5 -3 -14 -5 -22 -5c-29 0 -53 24 -53 53c0 30 24 53 53 53z" />
    <glyph glyph-name="eacute" unicode="&#xe9;" horiz-adv-x="625" 
d="M574 266h-446c6 -155 128 -228 249 -228c92 0 150 49 174 79l10 -8c-31 -52 -112 -116 -234 -116c-152 0 -287 103 -287 273c0 190 131 274 280 274c156 0 264 -86 254 -274zM127 288h370c10 144 -62 239 -177 239c-114 0 -195 -100 -193 -239zM432 755
c15 -15 3 -34 -28 -66c-47 -47 -130 -98 -130 -98l-7 7s52 82 99 129c32 32 51 44 66 28z" />
    <glyph glyph-name="ebreve" unicode="&#x115;" horiz-adv-x="625" 
d="M574 266h-446c6 -155 128 -228 249 -228c92 0 150 49 174 79l10 -8c-31 -52 -112 -116 -234 -116c-152 0 -287 103 -287 273c0 190 131 274 280 274c156 0 264 -86 254 -274zM127 288h370c10 144 -62 239 -177 239c-114 0 -195 -100 -193 -239zM449 770h7
c0 -98 -51 -155 -139 -155s-139 57 -139 155h7c16 -51 57 -103 132 -103c76 0 116 52 132 103z" />
    <glyph glyph-name="ecaron" unicode="&#x11b;" horiz-adv-x="625" 
d="M574 266h-446c6 -155 128 -228 249 -228c92 0 150 49 174 79l10 -8c-31 -52 -112 -116 -234 -116c-152 0 -287 103 -287 273c0 190 131 274 280 274c156 0 264 -86 254 -274zM127 288h370c10 144 -62 239 -177 239c-114 0 -195 -100 -193 -239zM484 770l7 -6l-156 -148
h-36l-156 148l7 6l167 -93z" />
    <glyph glyph-name="ecircumflex" unicode="&#xea;" horiz-adv-x="625" 
d="M574 266h-446c6 -155 128 -228 249 -228c92 0 150 49 174 79l10 -8c-31 -52 -112 -116 -234 -116c-152 0 -287 103 -287 273c0 190 131 274 280 274c156 0 264 -86 254 -274zM127 288h370c10 144 -62 239 -177 239c-114 0 -195 -100 -193 -239zM335 770l156 -147l-7 -7
l-167 94l-167 -94l-7 7l156 147h36z" />
    <glyph glyph-name="edieresis" unicode="&#xeb;" horiz-adv-x="625" 
d="M574 266h-446c6 -155 128 -228 249 -228c92 0 150 49 174 79l10 -8c-31 -52 -112 -116 -234 -116c-152 0 -287 103 -287 273c0 190 131 274 280 274c156 0 264 -86 254 -274zM127 288h370c10 144 -62 239 -177 239c-114 0 -195 -100 -193 -239zM246 738
c25 0 46 -20 46 -45s-21 -45 -46 -45s-45 20 -45 45s20 45 45 45zM388 738c25 0 46 -20 46 -45s-21 -45 -46 -45s-45 20 -45 45s20 45 45 45z" />
    <glyph glyph-name="edotaccent" unicode="&#x117;" horiz-adv-x="625" 
d="M574 266h-446c6 -155 128 -228 249 -228c92 0 150 49 174 79l10 -8c-31 -52 -112 -116 -234 -116c-152 0 -287 103 -287 273c0 190 131 274 280 274c156 0 264 -86 254 -274zM127 288h370c10 144 -62 239 -177 239c-114 0 -195 -100 -193 -239zM317 738
c25 0 46 -20 46 -45s-21 -45 -46 -45s-45 20 -45 45s20 45 45 45z" />
    <glyph glyph-name="egrave" unicode="&#xe8;" horiz-adv-x="625" 
d="M574 266h-446c6 -155 128 -228 249 -228c92 0 150 49 174 79l10 -8c-31 -52 -112 -116 -234 -116c-152 0 -287 103 -287 273c0 190 131 274 280 274c156 0 264 -86 254 -274zM127 288h370c10 144 -62 239 -177 239c-114 0 -195 -100 -193 -239zM288 727
c48 -47 99 -129 99 -129l-7 -7s-82 51 -129 98c-32 32 -44 51 -29 66c15 16 35 4 66 -28z" />
    <glyph glyph-name="emacron" unicode="&#x113;" horiz-adv-x="625" 
d="M574 266h-446c6 -155 128 -228 249 -228c92 0 150 49 174 79l10 -8c-31 -52 -112 -116 -234 -116c-152 0 -287 103 -287 273c0 190 131 274 280 274c156 0 264 -86 254 -274zM127 288h370c10 144 -62 239 -177 239c-114 0 -195 -100 -193 -239zM157 682h321v-19h-321v19z
" />
    <glyph glyph-name="gbreve" unicode="&#x11f;" horiz-adv-x="611" 
d="M581 601v-85h-172c60 -27 97 -76 97 -142c0 -103 -91 -166 -217 -166c-59 0 -110 14 -148 39c-10 -12 -20 -28 -25 -48c-18 -80 57 -101 232 -101c154 0 213 -40 204 -124c-9 -95 -112 -169 -269 -169c-168 0 -263 36 -263 104c0 75 99 116 153 132
c-86 17 -112 55 -108 105c4 51 45 88 69 106c-38 28 -61 70 -61 122c0 103 90 166 216 166c39 0 75 -6 105 -18l180 79h7zM485 -83c19 72 -21 115 -189 115c-43 0 -79 2 -108 7c-51 -19 -104 -70 -104 -125c0 -64 104 -90 205 -90c109 0 180 32 196 93zM289 223
c93 0 137 64 137 151s-44 150 -137 150c-92 0 -136 -63 -136 -150s44 -151 136 -151zM422 770h7c0 -98 -51 -155 -139 -155s-139 57 -139 155h7c16 -51 57 -103 132 -103c76 0 116 52 132 103z" />
    <glyph glyph-name="gcircumflex" unicode="&#x11d;" horiz-adv-x="611" 
d="M581 601v-85h-172c60 -27 97 -76 97 -142c0 -103 -91 -166 -217 -166c-59 0 -110 14 -148 39c-10 -12 -20 -28 -25 -48c-18 -80 57 -101 232 -101c154 0 213 -40 204 -124c-9 -95 -112 -169 -269 -169c-168 0 -263 36 -263 104c0 75 99 116 153 132
c-86 17 -112 55 -108 105c4 51 45 88 69 106c-38 28 -61 70 -61 122c0 103 90 166 216 166c39 0 75 -6 105 -18l180 79h7zM485 -83c19 72 -21 115 -189 115c-43 0 -79 2 -108 7c-51 -19 -104 -70 -104 -125c0 -64 104 -90 205 -90c109 0 180 32 196 93zM289 223
c93 0 137 64 137 151s-44 150 -137 150c-92 0 -136 -63 -136 -150s44 -151 136 -151zM308 770l156 -147l-7 -7l-167 94l-167 -94l-7 7l156 147h36z" />
    <glyph glyph-name="gcommaaccent" unicode="&#x123;" horiz-adv-x="611" 
d="M581 601v-85h-172c60 -27 97 -76 97 -142c0 -103 -91 -166 -217 -166c-59 0 -110 14 -148 39c-10 -12 -20 -28 -25 -48c-18 -80 57 -101 232 -101c154 0 213 -40 204 -124c-9 -95 -112 -169 -269 -169c-168 0 -263 36 -263 104c0 75 99 116 153 132
c-86 17 -112 55 -108 105c4 51 45 88 69 106c-38 28 -61 70 -61 122c0 103 90 166 216 166c39 0 75 -6 105 -18l180 79h7zM485 -83c19 72 -21 115 -189 115c-43 0 -79 2 -108 7c-51 -19 -104 -70 -104 -125c0 -64 104 -90 205 -90c109 0 180 32 196 93zM289 223
c93 0 137 64 137 151s-44 150 -137 150c-92 0 -136 -63 -136 -150s44 -151 136 -151zM290 723c29 0 53 -24 53 -53c0 -30 -24 -53 -53 -53c-30 0 -53 23 -53 53c0 53 53 104 78 120l4 -6c-23 -16 -45 -52 -51 -66c5 2 14 5 22 5z" />
    <glyph glyph-name="gdotaccent" unicode="&#x121;" horiz-adv-x="611" 
d="M581 601v-85h-172c60 -27 97 -76 97 -142c0 -103 -91 -166 -217 -166c-59 0 -110 14 -148 39c-10 -12 -20 -28 -25 -48c-18 -80 57 -101 232 -101c154 0 213 -40 204 -124c-9 -95 -112 -169 -269 -169c-168 0 -263 36 -263 104c0 75 99 116 153 132
c-86 17 -112 55 -108 105c4 51 45 88 69 106c-38 28 -61 70 -61 122c0 103 90 166 216 166c39 0 75 -6 105 -18l180 79h7zM485 -83c19 72 -21 115 -189 115c-43 0 -79 2 -108 7c-51 -19 -104 -70 -104 -125c0 -64 104 -90 205 -90c109 0 180 32 196 93zM289 223
c93 0 137 64 137 151s-44 150 -137 150c-92 0 -136 -63 -136 -150s44 -151 136 -151zM300 738c25 0 46 -20 46 -45s-21 -45 -46 -45s-45 20 -45 45s20 45 45 45z" />
    <glyph glyph-name="hcircumflex" unicode="&#x125;" horiz-adv-x="691" 
d="M585 13h56v-13h-186v13h56v338c0 113 -61 158 -169 142c-85 -13 -162 -93 -162 -144v-336h56v-13h-186v13h56v674h-56v13h130v-315c34 69 123 155 223 155c147 0 182 -86 182 -190v-337zM254 897l156 -147l-7 -7l-167 94l-167 -94l-7 7l156 147h36z" />
    <glyph glyph-name="iacute" unicode="&#xed;" 
d="M180 13h56v-13h-186v13h57v501h-57v13h130v-514zM248 755c15 -15 3 -34 -28 -66c-47 -47 -130 -98 -130 -98l-7 7s52 82 99 129c32 32 51 44 66 28z" />
    <glyph glyph-name="ibreve" unicode="&#x12d;" 
d="M180 13h56v-13h-186v13h57v501h-57v13h130v-514zM275 770h7c0 -98 -51 -155 -139 -155s-139 57 -139 155h7c16 -51 57 -103 132 -103c76 0 116 52 132 103z" />
    <glyph glyph-name="icircumflex" unicode="&#xee;" 
d="M180 13h56v-13h-186v13h57v501h-57v13h130v-514zM161 770l156 -147l-7 -7l-167 94l-167 -94l-7 7l156 147h36z" />
    <glyph glyph-name="idieresis" unicode="&#xef;" horiz-adv-x="287" 
d="M181 13h56v-13h-186v13h57v501h-57v13h130v-514zM73 738c25 0 46 -20 46 -45s-21 -45 -46 -45s-45 20 -45 45s20 45 45 45zM215 738c25 0 46 -20 46 -45s-21 -45 -46 -45s-45 20 -45 45s20 45 45 45z" />
    <glyph glyph-name="igrave" unicode="&#xec;" 
d="M180 13h56v-13h-186v13h57v501h-57v13h130v-514zM104 727c48 -47 99 -129 99 -129l-7 -7s-82 51 -129 98c-32 32 -44 51 -29 66c15 16 35 4 66 -28z" />
    <glyph glyph-name="itilde" unicode="&#x129;" 
d="M180 13h56v-13h-186v13h57v501h-57v13h130v-514zM205 580c-38 5 -71 34 -107 53c-52 27 -86 1 -95 -38h-6c4 97 53 109 90 103c44 -6 88 -52 123 -64c41 -13 66 4 73 39h7c-2 -70 -36 -99 -85 -93z" />
    <glyph glyph-name="imacron" unicode="&#x12b;" 
d="M180 13h56v-13h-186v13h57v501h-57v13h130v-514zM-17 632h321v-19h-321v19z" />
    <glyph glyph-name="ij" unicode="&#x133;" horiz-adv-x="553" 
d="M180 13h56v-13h-186v13h57v501h-57v13h130v-514zM143 595c-28 0 -50 23 -50 51s22 51 50 51s51 -23 51 -51s-23 -51 -51 -51zM307 527h152v-379c0 -238 -37 -328 -193 -328v15c88 0 119 81 119 206v473h-78v13zM422 595c-28 0 -51 23 -51 51s23 51 51 51s51 -23 51 -51
s-23 -51 -51 -51z" />
    <glyph glyph-name="dotlessi" unicode="&#x131;" 
d="M180 13h56v-13h-186v13h57v501h-57v13h130v-514z" />
    <glyph glyph-name="jcircumflex" unicode="&#x135;" 
d="M37 527h152v-379c0 -238 -37 -328 -193 -328v15c88 0 119 81 119 206v473h-78v13zM142 720l156 -147l-7 -7l-167 94l-167 -94l-7 7l156 147h36z" />
    <glyph glyph-name="kcommaaccent" unicode="&#x137;" horiz-adv-x="618" 
d="M535 13h63v-13h-203v13h50l-169 248l-97 -110v-138h57v-13h-186v13h56v674h-56v13h129v-533l204 233c66 75 54 112 -7 114v13h172v-13c-57 -15 -79 -33 -144 -106l-75 -86zM314 -78c30 0 53 -24 53 -53c0 -53 -53 -105 -78 -120l-3 5c22 17 44 52 50 67
c-5 -3 -14 -5 -22 -5c-29 0 -53 24 -53 53s24 53 53 53z" />
    <glyph glyph-name="kgreenlandic" unicode="&#x138;" horiz-adv-x="618" 
d="M535 13h63v-13h-203v13h50l-169 248l-97 -110v-138h57v-13h-186v13h56v501h-56v13h186v-13h-57v-347l204 233c66 75 54 112 -7 114v13h172v-13c-57 -15 -79 -33 -144 -106l-75 -86z" />
    <glyph glyph-name="lacute" unicode="&#x13a;" 
d="M180 13h56v-13h-186v13h56v674h-56v13h130v-687zM228 928c15 -15 3 -34 -28 -66c-47 -47 -130 -98 -130 -98l-7 7s52 82 99 129c32 32 51 44 66 28z" />
    <glyph glyph-name="lcaron" unicode="&#x13e;" horiz-adv-x="402" 
d="M180 13h56v-13h-186v13h56v674h-56v13h130v-687zM329 704c30 0 53 -23 53 -53c0 -53 -53 -105 -78 -120l-3 5c22 17 44 52 50 67c-5 -3 -14 -5 -22 -5c-29 0 -53 24 -53 53c0 30 24 53 53 53z" />
    <glyph glyph-name="lcommaaccent" unicode="&#x13c;" 
d="M180 13h56v-13h-186v13h56v674h-56v13h130v-687zM143 -78c30 0 53 -24 53 -53c0 -53 -53 -105 -78 -120l-3 5c22 17 44 52 50 67c-5 -3 -14 -5 -22 -5c-29 0 -53 24 -53 53s24 53 53 53z" />
    <glyph glyph-name="ldot" unicode="&#x140;" horiz-adv-x="471" 
d="M378 353c29 0 53 -24 53 -53s-24 -53 -53 -53c-30 0 -54 24 -54 53s24 53 54 53zM180 13h56v-13h-186v13h56v674h-56v13h130v-687z" />
    <glyph glyph-name="nacute" unicode="&#x144;" horiz-adv-x="691" 
d="M585 13h56v-13h-186v13h56v338c0 113 -60 158 -169 142c-85 -13 -162 -93 -162 -144v-336h56v-13h-186v13h56v501h-56v13h130v-142c34 69 123 155 223 155c147 0 182 -86 182 -190v-337zM420 755c15 -15 3 -34 -28 -66c-47 -47 -130 -98 -130 -98l-7 7s52 82 99 129
c32 32 51 44 66 28z" />
    <glyph glyph-name="napostrophe" unicode="&#x149;" horiz-adv-x="868" 
d="M762 13h56v-13h-186v13h56v338c0 113 -60 158 -169 142c-85 -13 -162 -93 -162 -144v-336h56v-13h-186v13h56v501h-56v13h130v-142c34 69 123 155 223 155c147 0 182 -86 182 -190v-337zM93 530c30 0 53 -24 53 -53c0 -53 -53 -105 -78 -120l-3 5c22 17 44 52 50 67
c-5 -3 -14 -5 -22 -5c-29 0 -53 24 -53 53s24 53 53 53z" />
    <glyph glyph-name="ncaron" unicode="&#x148;" horiz-adv-x="691" 
d="M585 13h56v-13h-186v13h56v338c0 113 -60 158 -169 142c-85 -13 -162 -93 -162 -144v-336h56v-13h-186v13h56v501h-56v13h130v-142c34 69 123 155 223 155c147 0 182 -86 182 -190v-337zM512 770l7 -6l-156 -148h-36l-156 148l7 6l167 -93z" />
    <glyph glyph-name="ncommaaccent" unicode="&#x146;" horiz-adv-x="691" 
d="M585 13h56v-13h-186v13h56v338c0 113 -60 158 -169 142c-85 -13 -162 -93 -162 -144v-336h56v-13h-186v13h56v501h-56v13h130v-142c34 69 123 155 223 155c147 0 182 -86 182 -190v-337zM355 -78c30 0 53 -24 53 -53c0 -53 -53 -105 -78 -120l-3 5c22 17 44 52 50 67
c-5 -3 -14 -5 -22 -5c-29 0 -53 24 -53 53s24 53 53 53z" />
    <glyph glyph-name="ntilde" unicode="&#xf1;" horiz-adv-x="691" 
d="M585 13h56v-13h-186v13h56v338c0 113 -60 158 -169 142c-85 -13 -162 -93 -162 -144v-336h56v-13h-186v13h56v501h-56v13h130v-142c34 69 123 155 223 155c147 0 182 -86 182 -190v-337zM407 630c-38 5 -71 34 -107 53c-52 27 -86 1 -95 -38h-6c4 97 53 109 90 103
c44 -6 88 -52 123 -64c41 -13 66 4 73 39h7c-2 -70 -36 -99 -85 -93z" />
    <glyph glyph-name="oacute" unicode="&#xf3;" horiz-adv-x="686" 
d="M339 540c142 0 297 -84 297 -274c0 -189 -155 -273 -297 -273c-141 0 -299 84 -299 273c0 190 158 274 299 274zM339 5c128 0 212 107 212 261c0 155 -84 261 -212 261s-214 -106 -214 -261c0 -154 86 -261 214 -261zM423 755c15 -15 3 -34 -28 -66
c-47 -47 -130 -98 -130 -98l-7 7s52 82 99 129c32 32 51 44 66 28z" />
    <glyph glyph-name="obreve" unicode="&#x14f;" horiz-adv-x="686" 
d="M339 540c142 0 297 -84 297 -274c0 -189 -155 -273 -297 -273c-141 0 -299 84 -299 273c0 190 158 274 299 274zM339 5c128 0 212 107 212 261c0 155 -84 261 -212 261s-214 -106 -214 -261c0 -154 86 -261 214 -261zM470 770h7c0 -98 -51 -155 -139 -155
s-139 57 -139 155h7c16 -51 57 -103 132 -103c76 0 116 52 132 103z" />
    <glyph glyph-name="ocircumflex" unicode="&#xf4;" horiz-adv-x="686" 
d="M339 540c142 0 297 -84 297 -274c0 -189 -155 -273 -297 -273c-141 0 -299 84 -299 273c0 190 158 274 299 274zM339 5c128 0 212 107 212 261c0 155 -84 261 -212 261s-214 -106 -214 -261c0 -154 86 -261 214 -261zM356 770l156 -147l-7 -7l-167 94l-167 -94l-7 7
l156 147h36z" />
    <glyph glyph-name="odieresis" unicode="&#xf6;" horiz-adv-x="686" 
d="M339 540c142 0 297 -84 297 -274c0 -189 -155 -273 -297 -273c-141 0 -299 84 -299 273c0 190 158 274 299 274zM339 5c128 0 212 107 212 261c0 155 -84 261 -212 261s-214 -106 -214 -261c0 -154 86 -261 214 -261zM266 738c25 0 46 -20 46 -45s-21 -45 -46 -45
s-45 20 -45 45s20 45 45 45zM408 738c25 0 46 -20 46 -45s-21 -45 -46 -45s-45 20 -45 45s20 45 45 45z" />
    <glyph glyph-name="ograve" unicode="&#xf2;" horiz-adv-x="686" 
d="M339 540c142 0 297 -84 297 -274c0 -189 -155 -273 -297 -273c-141 0 -299 84 -299 273c0 190 158 274 299 274zM339 5c128 0 212 107 212 261c0 155 -84 261 -212 261s-214 -106 -214 -261c0 -154 86 -261 214 -261zM319 727c48 -47 99 -129 99 -129l-7 -7
s-82 51 -129 98c-32 32 -44 51 -29 66c15 16 35 4 66 -28z" />
    <glyph glyph-name="ohungarumlaut" unicode="&#x151;" horiz-adv-x="686" 
d="M339 540c142 0 297 -84 297 -274c0 -189 -155 -273 -297 -273c-141 0 -299 84 -299 273c0 190 158 274 299 274zM339 5c128 0 212 107 212 261c0 155 -84 261 -212 261s-214 -106 -214 -261c0 -154 86 -261 214 -261zM395 755c15 -15 3 -34 -28 -66
c-48 -47 -130 -98 -130 -98l-7 7s52 82 99 129c31 32 51 44 66 28zM570 755c16 -15 4 -34 -28 -66c-47 -47 -129 -98 -129 -98l-7 7s51 82 98 129c32 32 51 44 66 28z" />
    <glyph glyph-name="omacron" unicode="&#x14d;" horiz-adv-x="686" 
d="M339 540c142 0 297 -84 297 -274c0 -189 -155 -273 -297 -273c-141 0 -299 84 -299 273c0 190 158 274 299 274zM339 5c128 0 212 107 212 261c0 155 -84 261 -212 261s-214 -106 -214 -261c0 -154 86 -261 214 -261zM177 682h321v-19h-321v19z" />
    <glyph glyph-name="oslashacute" unicode="&#x1ff;" horiz-adv-x="686" 
d="M553 464c50 -45 83 -110 83 -198c0 -189 -155 -273 -297 -273c-70 0 -143 21 -200 64l-58 -57h-22l68 67c-52 44 -87 110 -87 199c0 190 158 274 299 274c71 0 146 -21 202 -66l54 53h22zM125 266c0 -63 14 -118 40 -162l340 334c-37 57 -94 89 -166 89
c-128 0 -214 -106 -214 -261zM339 5c128 0 212 107 212 261c0 62 -13 117 -38 159l-339 -333c38 -55 95 -87 165 -87zM423 755c15 -15 3 -34 -28 -66c-47 -47 -130 -98 -130 -98l-7 7s52 82 99 129c32 32 51 44 66 28z" />
    <glyph glyph-name="otilde" unicode="&#xf5;" horiz-adv-x="686" 
d="M339 540c142 0 297 -84 297 -274c0 -189 -155 -273 -297 -273c-141 0 -299 84 -299 273c0 190 158 274 299 274zM339 5c128 0 212 107 212 261c0 155 -84 261 -212 261s-214 -106 -214 -261c0 -154 86 -261 214 -261zM409 630c-38 5 -71 34 -107 53c-52 27 -86 1 -95 -38
h-6c4 97 53 109 90 103c44 -6 88 -52 123 -64c41 -13 66 4 73 39h7c-2 -70 -36 -99 -85 -93z" />
    <glyph glyph-name="racute" unicode="&#x155;" horiz-adv-x="505" 
d="M354 540c55 0 96 -34 111 -55l-56 -81h-7c-15 57 -60 103 -128 79c-45 -15 -94 -100 -94 -151v-319h90v-13h-220v13h57v501h-57v13h130v-155c30 89 80 168 174 168zM342 755c15 -15 3 -34 -28 -66c-47 -47 -130 -98 -130 -98l-7 7s52 82 99 129c32 32 51 44 66 28z" />
    <glyph glyph-name="rcaron" unicode="&#x159;" horiz-adv-x="505" 
d="M354 540c55 0 96 -34 111 -55l-56 -81h-7c-15 57 -60 103 -128 79c-45 -15 -94 -100 -94 -151v-319h90v-13h-220v13h57v501h-57v13h130v-155c30 89 80 168 174 168zM434 770l7 -6l-156 -148h-36l-156 148l7 6l167 -93z" />
    <glyph glyph-name="rcommaaccent" unicode="&#x157;" horiz-adv-x="505" 
d="M354 540c55 0 96 -34 111 -55l-56 -81h-7c-15 57 -60 103 -128 79c-45 -15 -94 -100 -94 -151v-319h90v-13h-220v13h57v501h-57v13h130v-155c30 89 80 168 174 168zM142 -78c30 0 53 -24 53 -53c0 -53 -53 -105 -78 -120l-3 5c22 17 44 52 50 67c-5 -3 -14 -5 -22 -5
c-29 0 -53 24 -53 53s24 53 53 53z" />
    <glyph glyph-name="sacute" unicode="&#x15b;" horiz-adv-x="487" 
d="M134 448c-12 -77 38 -103 148 -150c103 -45 183 -96 145 -205c-28 -76 -110 -100 -183 -100c-56 0 -123 17 -204 39v149h7c73 -165 140 -175 186 -178c50 -3 108 8 125 66c29 101 -54 140 -143 175c-128 51 -160 104 -148 186c14 93 119 110 178 110
c50 0 110 -20 176 -38v-134h-7c-60 136 -109 161 -174 161c-38 0 -97 -20 -106 -81zM353 755c15 -15 3 -34 -28 -66c-47 -47 -130 -98 -130 -98l-7 7s52 82 99 129c32 32 51 44 66 28z" />
    <glyph glyph-name="scaron" unicode="&#x161;" horiz-adv-x="487" 
d="M134 448c-12 -77 38 -103 148 -150c103 -45 183 -96 145 -205c-28 -76 -110 -100 -183 -100c-56 0 -123 17 -204 39v149h7c73 -165 140 -175 186 -178c50 -3 108 8 125 66c29 101 -54 140 -143 175c-128 51 -160 104 -148 186c14 93 119 110 178 110
c50 0 110 -20 176 -38v-134h-7c-60 136 -109 161 -174 161c-38 0 -97 -20 -106 -81zM415 770l7 -6l-156 -148h-36l-156 148l7 6l167 -93z" />
    <glyph glyph-name="scircumflex" unicode="&#x15d;" horiz-adv-x="487" 
d="M134 448c-12 -77 38 -103 148 -150c103 -45 183 -96 145 -205c-28 -76 -110 -100 -183 -100c-56 0 -123 17 -204 39v149h7c73 -165 140 -175 186 -178c50 -3 108 8 125 66c29 101 -54 140 -143 175c-128 51 -160 104 -148 186c14 93 119 110 178 110
c50 0 110 -20 176 -38v-134h-7c-60 136 -109 161 -174 161c-38 0 -97 -20 -106 -81zM266 770l156 -147l-7 -7l-167 94l-167 -94l-7 7l156 147h36z" />
    <glyph glyph-name="scommaaccent" unicode="&#x219;" horiz-adv-x="487" 
d="M134 448c-12 -77 38 -103 148 -150c103 -45 183 -96 145 -205c-28 -76 -110 -100 -183 -100c-56 0 -123 17 -204 39v149h7c73 -165 140 -175 186 -178c50 -3 108 8 125 66c29 101 -54 140 -143 175c-128 51 -160 104 -148 186c14 93 119 110 178 110
c50 0 110 -20 176 -38v-134h-7c-60 136 -109 161 -174 161c-38 0 -97 -20 -106 -81zM238 -78c30 0 53 -24 53 -53c0 -53 -53 -105 -78 -120l-3 5c22 17 44 52 50 67c-5 -3 -14 -5 -22 -5c-29 0 -53 24 -53 53s24 53 53 53z" />
    <glyph glyph-name="tcaron" unicode="&#x165;" horiz-adv-x="500" 
d="M344 82l10 -7c-24 -44 -62 -82 -123 -82c-97 0 -134 57 -134 171v350h-57v13h57l65 160h8v-160h155v-13h-155v-364c0 -80 33 -115 83 -115c42 0 69 18 91 47zM427 704c30 0 53 -23 53 -53c0 -53 -53 -105 -78 -120l-3 5c22 17 44 52 50 67c-5 -3 -14 -5 -22 -5
c-29 0 -53 24 -53 53c0 30 24 53 53 53z" />
    <glyph glyph-name="tcommaaccent" unicode="&#x163;" horiz-adv-x="384" 
d="M344 82l10 -7c-24 -44 -62 -82 -123 -82c-97 0 -134 57 -134 171v350h-57v13h57l65 160h8v-160h155v-13h-155v-364c0 -80 33 -115 83 -115c42 0 69 18 91 47zM207 -78c30 0 53 -24 53 -53c0 -53 -53 -105 -78 -120l-3 5c22 17 44 52 50 67c-5 -3 -14 -5 -22 -5
c-29 0 -53 24 -53 53s24 53 53 53z" />
    <glyph glyph-name="uacute" unicode="&#xfa;" horiz-adv-x="671" 
d="M564 13h57v-13h-130v147c-31 -70 -110 -154 -214 -154c-148 0 -191 86 -191 190v331h-56v13h130v-345c0 -114 68 -157 177 -142c87 12 154 93 154 144v330h-56v13h129v-514zM410 755c15 -15 3 -34 -28 -66c-47 -47 -130 -98 -130 -98l-7 7s52 82 99 129
c32 32 51 44 66 28z" />
    <glyph glyph-name="ubreve" unicode="&#x16d;" horiz-adv-x="671" 
d="M564 13h57v-13h-130v147c-31 -70 -110 -154 -214 -154c-148 0 -191 86 -191 190v331h-56v13h130v-345c0 -114 68 -157 177 -142c87 12 154 93 154 144v330h-56v13h129v-514zM437 770h7c0 -98 -51 -155 -139 -155s-139 57 -139 155h7c16 -51 57 -103 132 -103
c76 0 116 52 132 103z" />
    <glyph glyph-name="ucircumflex" unicode="&#xfb;" horiz-adv-x="671" 
d="M564 13h57v-13h-130v147c-31 -70 -110 -154 -214 -154c-148 0 -191 86 -191 190v331h-56v13h130v-345c0 -114 68 -157 177 -142c87 12 154 93 154 144v330h-56v13h129v-514zM343 770l156 -147l-7 -7l-167 94l-167 -94l-7 7l156 147h36z" />
    <glyph glyph-name="udieresis" unicode="&#xfc;" horiz-adv-x="671" 
d="M564 13h57v-13h-130v147c-31 -70 -110 -154 -214 -154c-148 0 -191 86 -191 190v331h-56v13h130v-345c0 -114 68 -157 177 -142c87 12 154 93 154 144v330h-56v13h129v-514zM234 738c25 0 46 -20 46 -45s-21 -45 -46 -45s-45 20 -45 45s20 45 45 45zM376 738
c25 0 46 -20 46 -45s-21 -45 -46 -45s-45 20 -45 45s20 45 45 45z" />
    <glyph glyph-name="uhungarumlaut" unicode="&#x171;" horiz-adv-x="671" 
d="M564 13h57v-13h-130v147c-31 -70 -110 -154 -214 -154c-148 0 -191 86 -191 190v331h-56v13h130v-345c0 -114 68 -157 177 -142c87 12 154 93 154 144v330h-56v13h129v-514zM362 755c15 -15 3 -34 -28 -66c-48 -47 -130 -98 -130 -98l-7 7s52 82 99 129
c31 32 51 44 66 28zM537 755c16 -15 4 -34 -28 -66c-47 -47 -129 -98 -129 -98l-7 7s51 82 98 129c32 32 51 44 66 28z" />
    <glyph glyph-name="ugrave" unicode="&#xf9;" horiz-adv-x="671" 
d="M564 13h57v-13h-130v147c-31 -70 -110 -154 -214 -154c-148 0 -191 86 -191 190v331h-56v13h130v-345c0 -114 68 -157 177 -142c87 12 154 93 154 144v330h-56v13h129v-514zM296 727c48 -47 99 -129 99 -129l-7 -7s-82 51 -129 98c-32 32 -44 51 -29 66
c15 16 35 4 66 -28z" />
    <glyph glyph-name="umacron" unicode="&#x16b;" horiz-adv-x="671" 
d="M564 13h57v-13h-130v147c-31 -70 -110 -154 -214 -154c-148 0 -191 86 -191 190v331h-56v13h130v-345c0 -114 68 -157 177 -142c87 12 154 93 154 144v330h-56v13h129v-514zM155 682h321v-19h-321v19z" />
    <glyph glyph-name="uring" unicode="&#x16f;" horiz-adv-x="671" 
d="M564 13h57v-13h-130v147c-31 -70 -110 -154 -214 -154c-148 0 -191 86 -191 190v331h-56v13h130v-345c0 -114 68 -157 177 -142c87 12 154 93 154 144v330h-56v13h129v-514zM325 599c-51 0 -93 42 -93 94s42 94 93 94c52 0 94 -42 94 -94s-42 -94 -94 -94zM325 770
c-42 0 -77 -35 -77 -77c0 -43 35 -77 77 -77c43 0 77 34 77 77c0 42 -34 77 -77 77z" />
    <glyph glyph-name="utilde" unicode="&#x169;" horiz-adv-x="671" 
d="M564 13h57v-13h-130v147c-31 -70 -110 -154 -214 -154c-148 0 -191 86 -191 190v331h-56v13h130v-345c0 -114 68 -157 177 -142c87 12 154 93 154 144v330h-56v13h129v-514zM387 630c-38 5 -71 34 -107 53c-52 27 -86 1 -95 -38h-6c4 97 53 109 90 103
c44 -6 88 -52 123 -64c41 -13 66 4 73 39h7c-2 -70 -36 -99 -85 -93z" />
    <glyph glyph-name="wacute" unicode="&#x1e83;" horiz-adv-x="938" 
d="M743 527h175v-13c-55 -21 -67 -43 -110 -154l-141 -360h-23l-177 422l-145 -422h-23l-217 514h-62v13h215v-13h-68l172 -427l151 440h21l175 -444l109 278c42 108 30 148 -52 153v13zM594 755c15 -15 3 -34 -28 -66c-47 -47 -130 -98 -130 -98l-7 7s52 82 99 129
c32 32 51 44 66 28z" />
    <glyph glyph-name="wcircumflex" unicode="&#x175;" horiz-adv-x="938" 
d="M743 527h175v-13c-55 -21 -67 -43 -110 -154l-141 -360h-23l-177 422l-145 -422h-23l-217 514h-62v13h215v-13h-68l172 -427l151 440h21l175 -444l109 278c42 108 30 148 -52 153v13zM517 770l156 -147l-7 -7l-167 94l-167 -94l-7 7l156 147h36z" />
    <glyph glyph-name="wdieresis" unicode="&#x1e85;" horiz-adv-x="938" 
d="M743 527h175v-13c-55 -21 -67 -43 -110 -154l-141 -360h-23l-177 422l-145 -422h-23l-217 514h-62v13h215v-13h-68l172 -427l151 440h21l175 -444l109 278c42 108 30 148 -52 153v13zM427 738c25 0 46 -20 46 -45s-21 -45 -46 -45s-45 20 -45 45s20 45 45 45zM569 738
c25 0 46 -20 46 -45s-21 -45 -46 -45s-45 20 -45 45s20 45 45 45z" />
    <glyph glyph-name="wgrave" unicode="&#x1e81;" horiz-adv-x="938" 
d="M743 527h175v-13c-55 -21 -67 -43 -110 -154l-141 -360h-23l-177 422l-145 -422h-23l-217 514h-62v13h215v-13h-68l172 -427l151 440h21l175 -444l109 278c42 108 30 148 -52 153v13zM450 727c48 -47 99 -129 99 -129l-7 -7s-82 51 -129 98c-32 32 -44 51 -29 66
c15 16 35 4 66 -28z" />
    <glyph glyph-name="yacute" unicode="&#xfd;" horiz-adv-x="638" 
d="M430 527h178v-13c-49 -15 -74 -42 -104 -120c-39 -100 -150 -387 -150 -387l-112 -232l-78 58v13l162 128l-244 540h-62v13h215v-13h-66l194 -455s70 180 117 302c42 108 30 149 -50 153v13zM439 755c15 -15 3 -34 -28 -66c-47 -47 -130 -98 -130 -98l-7 7s52 82 99 129
c32 32 51 44 66 28z" />
    <glyph glyph-name="ycircumflex" unicode="&#x177;" horiz-adv-x="638" 
d="M430 527h178v-13c-49 -15 -74 -42 -104 -120c-39 -100 -150 -387 -150 -387l-112 -232l-78 58v13l162 128l-244 540h-62v13h215v-13h-66l194 -455s70 180 117 302c42 108 30 149 -50 153v13zM362 770l156 -147l-7 -7l-167 94l-167 -94l-7 7l156 147h36z" />
    <glyph glyph-name="ydieresis" unicode="&#xff;" horiz-adv-x="638" 
d="M430 527h178v-13c-49 -15 -74 -42 -104 -120c-39 -100 -150 -387 -150 -387l-112 -232l-78 58v13l162 128l-244 540h-62v13h215v-13h-66l194 -455s70 180 117 302c42 108 30 149 -50 153v13zM272 738c25 0 46 -20 46 -45s-21 -45 -46 -45s-45 20 -45 45s20 45 45 45z
M414 738c25 0 46 -20 46 -45s-21 -45 -46 -45s-45 20 -45 45s20 45 45 45z" />
    <glyph glyph-name="ygrave" unicode="&#x1ef3;" horiz-adv-x="638" 
d="M430 527h178v-13c-49 -15 -74 -42 -104 -120c-39 -100 -150 -387 -150 -387l-112 -232l-78 58v13l162 128l-244 540h-62v13h215v-13h-66l194 -455s70 180 117 302c42 108 30 149 -50 153v13zM285 727c48 -47 99 -129 99 -129l-7 -7s-82 51 -129 98c-32 32 -44 51 -29 66
c15 16 35 4 66 -28z" />
    <glyph glyph-name="zacute" unicode="&#x17a;" horiz-adv-x="546" 
d="M496 527v-13l-362 -493h202c110 0 136 59 147 159h11v-180h-454v13l357 492h-188c-110 0 -136 -58 -147 -158h-11v180h445zM393 755c15 -15 3 -34 -28 -66c-47 -47 -130 -98 -130 -98l-7 7s52 82 99 129c32 32 51 44 66 28z" />
    <glyph glyph-name="zcaron" unicode="&#x17e;" horiz-adv-x="546" 
d="M496 527v-13l-362 -493h202c110 0 136 59 147 159h11v-180h-454v13l357 492h-188c-110 0 -136 -58 -147 -158h-11v180h445zM445 770l7 -6l-156 -148h-36l-156 148l7 6l167 -93z" />
    <glyph glyph-name="zdotaccent" unicode="&#x17c;" horiz-adv-x="546" 
d="M496 527v-13l-362 -493h202c110 0 136 59 147 159h11v-180h-454v13l357 492h-188c-110 0 -136 -58 -147 -158h-11v180h445zM287 738c25 0 46 -20 46 -45s-21 -45 -46 -45s-45 20 -45 45s20 45 45 45z" />
    <glyph glyph-name="perthousand" unicode="&#x2030;" horiz-adv-x="1243" 
d="M219 704c103 0 170 -72 170 -172s-67 -173 -170 -173s-169 73 -169 173s66 172 169 172zM219 371c55 0 97 53 97 161c0 107 -42 161 -97 161s-96 -54 -96 -161c0 -108 41 -161 96 -161zM633 339c103 0 170 -73 170 -172c0 -100 -67 -173 -170 -173s-169 73 -169 173
c0 99 66 172 169 172zM633 5c55 0 97 54 97 162c0 107 -42 161 -97 161s-96 -54 -96 -161c0 -108 41 -162 96 -162zM701 701h-21l-536 -700h21zM1023 339c103 0 170 -73 170 -172c0 -100 -67 -173 -170 -173s-169 73 -169 173c0 99 66 172 169 172zM1023 5
c55 0 97 54 97 162c0 107 -42 161 -97 161s-96 -54 -96 -161c0 -108 41 -162 96 -162z" />
    <glyph glyph-name="ellipsis" unicode="&#x2026;" horiz-adv-x="641" 
d="M114 99c29 0 53 -24 53 -53s-24 -53 -53 -53c-30 0 -54 24 -54 53s24 53 54 53zM321 99c29 0 53 -24 53 -53s-24 -53 -53 -53c-30 0 -54 24 -54 53s24 53 54 53zM528 99c29 0 53 -24 53 -53s-24 -53 -53 -53c-30 0 -54 24 -54 53s24 53 54 53z" />
    <glyph glyph-name="bullet" unicode="&#x2022;" horiz-adv-x="227" 
d="M114 499c29 0 53 -24 53 -53s-24 -53 -53 -53c-30 0 -54 24 -54 53s24 53 54 53z" />
    <glyph glyph-name="fraction" unicode="&#x2044;" horiz-adv-x="372" 
d="M298 700h24l-248 -778h-24z" />
    <glyph glyph-name="H" unicode="H" horiz-adv-x="815" 
d="M755 687h-65v-674h65v-13h-211v13h65v323h-403v-323h65v-13h-211v13h65v674h-65v13h211v-13h-65v-330h403v330h-65v13h211v-13z" />
    </font>
</defs>
</svg>
