<svg width="40" height="21" viewBox="0 0 40 21" fill="none" xmlns="http://www.w3.org/2000/svg">
<path d="M3.18164 4.20312V17H1.48535V4.20312H3.18164ZM10.9072 4.20312L5.58984 10.1709L2.60156 13.2734L2.32031 11.4629L4.57031 8.98438L8.86816 4.20312H10.9072ZM9.27246 17L4.53516 10.7598L5.5459 9.41504L11.2939 17H9.27246ZM12.7881 4.20312H17.0244C17.9854 4.20312 18.7969 4.34961 19.459 4.64258C20.127 4.93555 20.6338 5.36914 20.9795 5.94336C21.3311 6.51172 21.5068 7.21191 21.5068 8.04395C21.5068 8.62988 21.3867 9.16602 21.1465 9.65234C20.9121 10.1328 20.5723 10.543 20.127 10.8828C19.6875 11.2168 19.1602 11.4658 18.5449 11.6299L18.0703 11.8145H14.0889L14.0713 10.4346H17.0771C17.6865 10.4346 18.1934 10.3291 18.5977 10.1182C19.002 9.90137 19.3066 9.61133 19.5117 9.24805C19.7168 8.88477 19.8193 8.4834 19.8193 8.04395C19.8193 7.55176 19.7227 7.12109 19.5293 6.75195C19.3359 6.38281 19.0312 6.09863 18.6152 5.89941C18.2051 5.69434 17.6748 5.5918 17.0244 5.5918H14.4844V17H12.7881V4.20312ZM20.2676 17L17.1562 11.1992L18.9229 11.1904L22.0781 16.8945V17H20.2676Z" fill="black"/>
<path d="M34 14L28.8038 8L39.1962 8L34 14Z" fill="black"/>
</svg>
