<svg width="179" height="31" viewBox="0 0 179 31" fill="none" xmlns="http://www.w3.org/2000/svg">
<g clip-path="url(#clip0_20_197)">
<path d="M163.1 5.52768C163.1 6.62095 162.778 7.68967 162.173 8.59869C161.568 9.50772 160.708 10.2162 159.702 10.6346C158.696 11.053 157.589 11.1624 156.521 10.9491C155.453 10.7359 154.472 10.2094 153.702 9.43634C152.932 8.66328 152.408 7.67834 152.196 6.60608C151.983 5.53381 152.092 4.42238 152.509 3.41233C152.926 2.40228 153.631 1.53898 154.537 0.931586C155.442 0.324197 156.506 4.48553e-06 157.595 4.48553e-06C158.318 -0.000921156 159.035 0.141425 159.703 0.418889C160.371 0.696352 160.979 1.10348 161.49 1.61696C162.001 2.13044 162.407 2.74017 162.683 3.41124C162.96 4.0823 163.101 4.80152 163.1 5.52768Z" fill="#E94E24"/>
<path d="M179 5.52768C179 6.62125 178.677 7.69025 178.072 8.59942C177.466 9.5086 176.606 10.2171 175.6 10.6353C174.593 11.0534 173.486 11.1625 172.418 10.9486C171.35 10.7348 170.369 10.2076 169.599 9.43385C168.83 8.66008 168.306 7.67449 168.094 6.60176C167.883 5.52903 167.993 4.41738 168.41 3.40745C168.828 2.39753 169.535 1.53471 170.441 0.928165C171.347 0.321623 172.412 -0.00138684 173.502 4.47576e-06C174.224 3.88703e-06 174.94 0.143032 175.607 0.42091C176.275 0.698788 176.881 1.10607 177.392 1.61945C177.903 2.13283 178.307 2.74226 178.583 3.41286C178.859 4.08347 179.001 4.80211 179 5.52768Z" fill="#A9BA00"/>
<path d="M11.0178 5.52783C11.015 6.78705 10.583 8.00737 9.79363 8.98588C9.00427 9.96439 7.90511 10.6421 6.67891 10.9064C5.45271 11.1707 4.17336 11.0055 3.05359 10.4385C1.93383 9.87142 1.04112 8.93659 0.523899 7.78944C0.0066821 6.64229 -0.103874 5.35195 0.210615 4.13296C0.525104 2.91397 1.24569 1.8398 2.25255 1.08905C3.2594 0.338298 4.49187 -0.0437881 5.745 0.00632323C6.99814 0.0564346 8.19643 0.535724 9.14064 1.36449C9.73143 1.88366 10.2046 2.52384 10.5284 3.24198C10.8522 3.96011 11.0191 4.73954 11.0178 5.52783Z" fill="#189ACE"/>
<path d="M97.982 13.1791C98.1011 11.653 99.3128 10.788 100.924 10.788C102.829 10.788 103.775 11.8429 103.775 14.0371V14.9302H101.841C97.2256 14.9302 93.6674 16.4634 93.6674 20.2469C93.6674 23.6859 96.238 25.1698 99.0607 25.1698C101.344 25.1698 103.025 24.3048 103.81 22.9334V24.9026H107.522V13.9808C107.522 9.39552 104.475 7.92569 101.113 7.92569C97.7509 7.92569 94.648 9.46585 94.3048 13.1791H97.982ZM99.8802 22.3216C98.1011 22.3216 97.3797 21.3722 97.3797 20.0359C97.3797 18.2848 99.1237 17.4268 101.939 17.4268H103.775V18.6294C103.775 20.8939 102.227 22.3216 99.8802 22.3216ZM20.8235 25.3175C24.963 25.3175 27.4775 23.3976 27.4775 20.0289C27.4775 16.6603 24.9349 15.5491 21.2577 14.9373C18.6662 14.5223 17.9587 13.8542 17.9587 12.7079C17.9587 11.5616 18.9533 10.7599 20.5713 10.7599C22.3434 10.7599 23.2539 11.4069 23.5411 13.2143H27.0992C26.77 9.3041 23.8913 7.87646 20.5713 7.87646C17.5105 7.87646 14.3165 9.53617 14.3165 12.8767C14.3165 15.6898 16.0326 17.1947 20.2841 17.9261C22.6796 18.3481 23.7022 19.0795 23.7022 20.3454C23.7022 21.6113 22.8057 22.3778 20.7954 22.3778C18.5401 22.3778 17.8046 21.1682 17.6716 19.8039H14.0574C14.1905 23.2077 16.5999 25.3175 20.8235 25.3175ZM35.021 13.1791C35.1401 11.653 36.3588 10.788 37.9698 10.788C39.8679 10.788 40.8135 11.8429 40.8135 14.0371V14.9302H38.8523C34.2295 14.9302 30.6854 16.4634 30.6854 20.2469C30.6854 23.6859 33.2419 25.1698 36.0717 25.1698C38.355 25.1698 40.036 24.3048 40.8275 22.9334V24.9026H44.5328V13.9808C44.5328 9.39552 41.4929 7.92569 38.1379 7.92569C34.7829 7.92569 31.659 9.46585 31.3228 13.1791H35.021ZM36.9192 22.3216C35.1401 22.3216 34.4257 21.3722 34.4257 20.0359C34.4257 18.2848 36.1627 17.4268 38.9784 17.4268H40.8135V18.6294C40.8135 20.8939 39.2656 22.3216 36.9192 22.3216ZM49.5268 24.8955H53.3371V15.6405C53.3371 12.9962 54.85 11.3084 56.8392 11.3084C58.6113 11.3084 59.4308 12.4477 59.4308 14.9021V24.8885H63.178V15.3803C63.178 12.8415 64.6699 11.3084 66.505 11.3084C68.3401 11.3084 69.2647 12.4829 69.2647 14.9302V24.8885H73.075V14.452C73.075 9.84561 70.6235 7.98899 67.6607 7.98899C66.6059 7.94749 65.5598 8.19692 64.6362 8.7102C63.7126 9.22348 62.9467 9.981 62.4216 10.9005C61.7211 8.85401 60.1382 7.98899 58.114 7.98899C57.1394 7.94584 56.1722 8.17636 55.321 8.65465C54.4697 9.13293 53.7682 9.84005 53.295 10.6966V8.2492H49.4848L49.5268 24.8955ZM79.0006 30.599H82.7338L92.2456 8.2492H88.3092L83.9385 19.2905L79.5609 8.2492H75.5335L81.9493 23.3624L79.0006 30.599ZM112.621 24.8955H116.431V15.4717C116.431 12.9259 118.077 11.2029 120.143 11.2029C122.21 11.2029 123.274 12.3492 123.274 14.874V24.8885H127.085V14.5223C127.085 9.93704 124.668 7.98899 121.537 7.98899C119.282 7.98899 117.51 8.81884 116.403 10.6755V8.2492H112.593L112.621 24.8955ZM143.11 21.6886C142.536 23.1866 140.54 24.2696 138.543 24.2696C133.374 24.2696 130.937 20.5704 130.937 16.182C130.937 11.7937 133.409 7.93273 138.445 7.93273C140.372 7.93273 142.312 8.79071 143.11 10.2676V8.2492H146.907V23.1514C146.907 28.9323 143.04 30.9999 138.852 30.9999C134.838 30.9999 131.847 29.0307 131.406 25.4581H135.308C135.595 27.1249 137.08 28.0462 139.013 28.0462C141.555 28.0462 143.11 26.4779 143.11 23.3976V21.6886ZM139.209 10.9638C136.351 10.9638 134.838 12.9048 134.838 16.182C134.838 19.4593 136.239 21.337 139.237 21.337C141.555 21.337 143.138 19.7757 143.138 16.7517V15.5139C143.138 12.8978 141.737 10.9568 139.209 10.9568" fill="#231916"/>
</g>
<defs>
<clipPath id="clip0_20_197">
<rect width="179" height="31" fill="white"/>
</clipPath>
</defs>
</svg>
