<svg width="196" height="40" viewBox="0 0 196 40" fill="none" xmlns="http://www.w3.org/2000/svg">
<circle cx="176" cy="20" r="20" fill="#F9F9F9"/>
<g clip-path="url(#clip0_5_1417)">
<path d="M176.802 17.1966C176.802 17.1966 175.168 17.1966 173.653 18.586V13H170V27.6314H173.713V26.4972C173.713 26.4972 174.604 28.0284 176.802 28.0284C176.802 28.0284 182 27.8299 182 22.5558C182 22.5558 181.822 17.1966 176.802 17.1966ZM176 24.9093C174.693 24.9093 173.624 23.8885 173.624 22.6692C173.624 21.4499 174.693 20.4008 176 20.4008C177.307 20.4008 178.376 21.4215 178.376 22.6692C178.376 23.9168 177.307 24.9093 176 24.9093Z" fill="#888888"/>
</g>
<circle cx="124" cy="20" r="20" fill="#F9F9F9"/>
<g clip-path="url(#clip1_5_1417)">
<path d="M127.474 12H120.531C118.031 12 116 14.0553 116 16.5861V23.4186C116 25.9447 118.031 28 120.531 28H127.474C129.969 28 132.005 25.9447 132.005 23.4186V16.5861C132.005 14.06 129.974 12 127.474 12ZM130.54 23.4186C130.54 25.129 129.164 26.5226 127.474 26.5226H120.531C118.841 26.5226 117.464 25.129 117.464 23.4186V16.5861C117.464 14.8756 118.841 13.4821 120.531 13.4821H127.474C129.164 13.4821 130.54 14.8756 130.54 16.5861V23.4186Z" fill="#888888"/>
<path d="M124.002 15.8032C121.714 15.8032 119.854 17.6861 119.854 20.0025C119.854 22.3188 121.714 24.2017 124.002 24.2017C126.291 24.2017 128.151 22.3188 128.151 20.0025C128.151 17.6861 126.291 15.8032 124.002 15.8032ZM124.002 22.7196C122.52 22.7196 121.318 21.5032 121.318 20.0025C121.318 18.5017 122.52 17.2853 124.002 17.2853C125.485 17.2853 126.687 18.5064 126.687 20.0025C126.687 21.4985 125.48 22.7196 124.002 22.7196Z" fill="#888888"/>
<path d="M128.293 14.731C127.755 14.731 127.317 15.1737 127.317 15.719C127.317 16.2643 127.755 16.7071 128.293 16.7071C128.832 16.7071 129.27 16.2643 129.27 15.719C129.27 15.1737 128.832 14.731 128.293 14.731Z" fill="#888888"/>
</g>
<circle cx="72" cy="20" r="20" fill="#F9F9F9"/>
<path d="M81.8614 17.0642C81.8614 15.5037 80.5736 14.244 78.9854 14.244C78.9854 14.244 76.3635 14 72.6155 14C68.8675 14 65.9973 14.2383 65.9973 14.2383C64.4091 14.2383 63.1271 15.5037 63.1271 17.0642C63.1271 17.0642 63 18.6416 63 20.5369C63 22.4321 63.1271 23.9358 63.1271 23.9358C63.1271 25.4963 64.4149 26.756 66.003 26.756C66.003 26.756 69.6818 27 72.4365 27C75.1912 27 78.997 26.756 78.997 26.756C80.5851 26.756 81.8729 25.4906 81.8729 23.9358C81.8729 23.9358 82 22.4321 82 20.5369C82 18.6416 81.8729 17.0642 81.8729 17.0642H81.8614ZM70.935 23.323V17.677L75.6821 20.4404L70.935 23.3287V23.323Z" fill="#888888"/>
<circle cx="20" cy="20" r="20" fill="#F9F9F9"/>
<g clip-path="url(#clip2_5_1417)">
<path d="M24.9523 13V15.5868H23.1469C22.6086 15.5868 22.268 15.6983 22.0977 15.9267C21.975 16.0807 21.9273 16.3463 21.9273 16.7075V17.8867H25L24.6321 20.4947H21.9273V28.0053H17.9485V20.4894H16V17.8814H17.9485V16.3251C17.9485 14.7316 18.6571 13.7011 20.0469 13.2656C20.7282 13.0584 21.3142 13 21.9273 13H24.9523Z" fill="#888888"/>
</g>
<defs>
<clipPath id="clip0_5_1417">
<rect width="12" height="15" fill="white" transform="translate(170 13)"/>
</clipPath>
<clipPath id="clip1_5_1417">
<rect width="16" height="16" fill="white" transform="translate(116 12)"/>
</clipPath>
<clipPath id="clip2_5_1417">
<rect width="9" height="15" fill="white" transform="translate(16 13)"/>
</clipPath>
</defs>
</svg>
