<svg width="230" height="206" viewBox="0 0 230 206" fill="none" xmlns="http://www.w3.org/2000/svg">
<path fill-rule="evenodd" clip-rule="evenodd" d="M229.012 77.6723C229.031 77.6012 229.001 77.519 228.945 77.4704C228.889 77.4217 228.81 77.4143 228.743 77.4442C228.736 77.4442 228.732 77.4517 228.724 77.4554C222.733 78.3378 218.779 80.9925 216.887 85.3523C216.561 80.3793 215.881 75.4326 214.837 70.5531C221.278 67.6292 223.615 62.5216 221.771 55.3427C221.771 55.2791 221.73 55.2156 221.674 55.1856C221.618 55.1557 221.547 55.1632 221.498 55.2043L221.496 55.2069L221.493 55.2097C221.492 55.2103 221.491 55.211 221.49 55.2116C221.489 55.2123 221.488 55.2129 221.487 55.2136L221.483 55.2156C216.782 57.0365 213.999 59.8819 213.124 63.6957C212.178 60.3941 211.071 57.1299 209.792 53.9181C209.543 53.2951 209.283 52.6813 209.022 52.0658L209.022 52.0651L209.021 52.0642L209.021 52.0629L209.015 52.049L209.011 52.0398C208.942 51.8771 208.873 51.7144 208.804 51.5513C214.515 47.2103 215.664 41.669 212.189 35.0546C212.178 34.9948 212.122 34.9425 212.062 34.9275C211.998 34.9088 211.935 34.9312 211.894 34.9836C211.892 34.9855 211.89 34.9882 211.888 34.9915C211.886 34.9948 211.884 34.9985 211.882 35.0023C207.821 37.7916 205.76 41.1044 205.692 44.907C203.736 41.0857 201.552 37.399 199.151 33.8656C203.418 29.1507 203.516 24.103 199.428 18.8421C199.409 18.7898 199.349 18.7524 199.293 18.7487C199.233 18.7449 199.181 18.7748 199.155 18.8272C199.155 18.8309 199.151 18.8384 199.147 18.8421C196.039 21.9081 194.73 25.1237 195.216 28.4477C192.908 25.4827 190.436 22.6485 187.818 19.9489C191.36 14.9386 190.885 10.0105 186.386 5.27688C186.359 5.22453 186.307 5.18714 186.236 5.19836C186.18 5.19836 186.131 5.23949 186.109 5.29184C186.109 5.29558 186.109 5.29931 186.105 5.30679C183.255 8.73924 182.294 12.1418 183.207 15.4733C180.491 12.998 177.637 10.6611 174.657 8.4775C174.488 8.35411 174.301 8.27933 174.107 8.2382C172.532 2.43147 168.474 -0.327946 162.033 0.0310019C161.974 0.0160457 161.914 0.0459581 161.88 0.0908266C161.843 0.135695 161.839 0.199259 161.865 0.247866C161.865 0.250177 161.867 0.252488 161.869 0.255682C161.87 0.257655 161.871 0.259966 161.873 0.262823C162.991 6.58181 166.582 9.88338 172.543 10.1077C172.637 10.3433 172.79 10.5564 173.011 10.7172C175.726 12.7064 178.322 14.8227 180.794 17.0474C177.682 16.2098 174.417 17.0324 171.025 19.5413C170.972 19.56 170.931 19.6161 170.928 19.6759C170.924 19.732 170.95 19.7881 171.002 19.818C171.006 19.818 171.014 19.8218 171.017 19.8255C173.673 22.6447 176.474 24.0581 179.407 24.0581C181.49 24.0581 183.637 23.3439 185.836 21.9156C188.357 24.5255 190.728 27.2587 192.935 30.1004C189.86 28.8441 186.449 29.3115 182.728 31.5287C182.672 31.5399 182.627 31.596 182.616 31.6521C182.604 31.7082 182.627 31.7643 182.675 31.7979C182.679 31.7979 182.687 31.8054 182.69 31.8054C185.297 35.193 188.259 36.8905 191.536 36.8905C193.23 36.8905 195.01 36.4306 196.869 35.5257C199.226 39.0105 201.354 42.6299 203.254 46.3652C200.067 44.148 196.11 43.9049 191.424 45.6698C191.36 45.6735 191.304 45.7221 191.282 45.7819C191.259 45.8418 191.27 45.9091 191.315 45.9539C191.316 45.9551 191.318 45.9562 191.319 45.9574C191.323 45.9603 191.328 45.9637 191.33 45.9689C193.915 50.9456 197.49 53.4432 202.008 53.4432C203.34 53.4432 204.754 53.2264 206.246 52.7927C207.798 56.4569 209.137 60.2109 210.252 64.036C207.667 61.3289 203.949 60.2745 199.121 60.8989C199.057 60.8839 198.99 60.9213 198.956 60.9737C198.919 61.026 198.919 61.0971 198.953 61.1494C198.953 61.1532 198.96 61.1606 198.964 61.1644C200.654 67.8722 204.686 71.2598 210.97 71.2598C211.325 71.2598 211.692 71.2448 212.066 71.2224C213.034 75.7579 213.696 80.3681 214.033 85.0232C211.864 81.0037 207.85 78.6855 201.997 78.1284C201.93 78.0985 201.844 78.1209 201.788 78.1733C201.735 78.2219 201.713 78.3004 201.739 78.3715C201.739 78.3789 201.743 78.3864 201.747 78.3902C201.945 86.975 206.167 91.9367 214.287 93.1706C214.246 98.0874 213.842 103.034 213.06 107.966C211.613 103.502 207.985 100.484 202.173 98.9773C202.109 98.9399 202.02 98.9474 201.96 98.9885C201.9 99.0297 201.866 99.1045 201.881 99.1755V99.1979C200.744 107.562 203.994 113.085 211.542 115.642C210.682 119.254 209.631 122.803 208.404 126.227C207.824 127.843 207.203 129.439 206.541 131.013C206.601 125.633 203.77 120.955 198.059 117.033C198.003 116.966 197.902 116.936 197.816 116.962C197.733 116.985 197.67 117.052 197.651 117.138V117.16C192.901 126.209 194.487 133.799 202.345 139.74C199.906 144.224 197.112 148.501 193.997 152.543C196.076 146.246 194.345 139.912 188.791 133.631C188.708 133.448 188.394 133.448 188.312 133.631C188.308 133.638 188.304 133.649 188.301 133.657C180.454 142.447 180.162 151.38 187.418 160.227C183.147 164.725 178.423 168.845 173.303 172.539C177.604 166.471 177.694 159.24 173.534 150.939C173.516 150.834 173.426 150.748 173.325 150.718C173.22 150.688 173.112 150.722 173.041 150.808C173.033 150.815 173.026 150.827 173.022 150.834C162.494 157.77 159.737 166.923 164.809 178.058C162.714 179.277 160.567 180.436 158.372 181.524C154.74 183.319 150.981 184.908 147.073 186.306C153.682 181.483 156.244 174.001 154.699 163.954C154.718 163.839 154.65 163.715 154.549 163.655C154.452 163.595 154.329 163.595 154.232 163.655C154.224 163.659 154.213 163.667 154.205 163.674C140.894 167.368 135.026 176.043 136.743 189.462C129.872 191.22 122.511 192.476 114.511 193.257C106.511 192.476 99.1502 191.22 92.2795 189.462C93.9962 176.024 88.1129 167.346 74.7718 163.663C74.6745 163.603 74.5399 163.61 74.4427 163.67C74.3454 163.734 74.2931 163.846 74.308 163.962C74.308 163.969 74.3095 163.977 74.3115 163.986C74.3127 163.99 74.3141 163.995 74.3155 163.999C72.7858 174.024 75.3515 181.487 81.9492 186.306C78.0407 184.908 74.2781 183.319 70.6464 181.524C68.4472 180.436 66.3003 179.281 64.2096 178.062C69.2887 166.912 66.521 157.751 55.9625 150.812C55.8952 150.729 55.768 150.7 55.6633 150.729C55.5623 150.759 55.4838 150.845 55.4688 150.95V150.98C51.3285 159.266 51.4257 166.482 55.7194 172.543C50.5991 168.849 45.8753 164.725 41.6041 160.23C48.8712 151.376 48.572 142.433 40.6952 133.631C40.6129 133.451 40.2987 133.451 40.2202 133.631C40.2164 133.638 40.2127 133.649 40.209 133.657C34.6735 139.931 32.9493 146.254 35.0289 152.543C31.9133 148.501 29.1231 144.224 26.6808 139.74C34.5501 133.792 36.1285 126.194 31.3598 117.13C31.3448 117.044 31.2662 116.973 31.184 116.955C31.1017 116.932 31.0082 116.962 30.9558 117.033C30.9483 117.041 30.9446 117.048 30.9409 117.056C25.2483 120.97 22.4282 125.644 22.4881 131.013C21.8261 129.439 21.2052 127.843 20.6255 126.227C19.3987 122.803 18.3477 119.254 17.4875 115.642C25.0426 113.077 28.2928 107.547 27.1409 99.168C27.1521 99.097 27.1109 99.0185 27.0511 98.9773C26.9912 98.9362 26.909 98.9362 26.8454 98.9736C26.8379 98.9773 26.8342 98.9811 26.8267 98.9848C21.0332 100.495 17.4127 103.509 15.9653 107.966C15.1836 103.034 14.7796 98.0912 14.7385 93.1706C22.8696 91.933 27.0922 86.9638 27.2792 78.3602C27.3017 78.2892 27.2755 78.2069 27.2194 78.1546C27.1633 78.106 27.0847 78.091 27.0174 78.1172C27.0099 78.1172 27.0025 78.1247 26.9987 78.1284C21.1641 78.693 17.1584 81.0112 14.9928 85.0195C15.3294 80.3644 15.9914 75.7541 16.9601 71.2187C17.3304 71.2411 17.6969 71.2561 18.056 71.2561C24.347 71.2561 28.3826 67.861 30.0657 61.1382C30.0993 61.0821 30.0918 61.0073 30.0544 60.955C30.017 60.9026 29.9535 60.8765 29.8899 60.8877C29.8824 60.8877 29.8786 60.8877 29.8712 60.8914C25.0576 60.2745 21.3473 61.3289 18.7666 64.0322C19.8812 60.2109 21.2202 56.4569 22.7723 52.7927C24.2647 53.2264 25.6784 53.4432 27.0099 53.4432C31.5355 53.4432 35.1186 50.9381 37.7031 45.9465C37.7479 45.9016 37.7554 45.8268 37.7367 45.7707C37.7143 45.7109 37.6582 45.6698 37.5946 45.666H37.5722C32.8932 43.9087 28.9473 44.1555 25.7645 46.3652C27.6645 42.6337 29.7926 39.0105 32.1489 35.5295C34.0078 36.4343 35.7881 36.898 37.4824 36.898C40.7663 36.898 43.7322 35.193 46.3428 31.7942C46.3877 31.7605 46.4102 31.697 46.3989 31.6409C46.3877 31.5848 46.3466 31.5399 46.2905 31.525H46.2718C42.5615 29.3189 39.1542 28.8553 36.0873 30.1116C38.2977 27.2699 40.6653 24.5367 43.1861 21.9268C45.3891 23.3552 47.5359 24.0693 49.6192 24.0693C52.5552 24.0693 55.3641 22.6522 58.0234 19.8218C58.072 19.7919 58.0982 19.732 58.0944 19.6759C58.0944 19.6161 58.0533 19.5675 57.9972 19.5488C57.9947 19.5488 57.9926 19.5484 57.9906 19.5478C57.9897 19.5476 57.9888 19.5473 57.9878 19.5469C57.9867 19.5466 57.9856 19.5462 57.9844 19.5459C57.9826 19.5454 57.9807 19.5451 57.9785 19.5451C54.5936 17.0474 51.3322 16.2323 48.2279 17.0661C50.7001 14.8414 53.2958 12.7251 56.0112 10.7359C56.2318 10.5751 56.3852 10.362 56.4787 10.1264C62.4442 9.90208 66.0385 6.59676 67.1531 0.262823C67.1793 0.210476 67.168 0.143173 67.1306 0.0983047C67.0932 0.0534362 67.0371 0.03848 66.981 0.0496971C66.9773 0.0496971 66.9736 0.0496971 66.9698 0.0534362C60.5367 -0.301773 56.4936 2.46138 54.9228 8.26064C54.732 8.29803 54.5413 8.37655 54.373 8.49994C51.3883 10.6873 48.5383 13.0242 45.8192 15.4957C46.7318 12.1567 45.7668 8.75045 42.9056 5.31053C42.8832 5.26192 42.8271 5.22453 42.771 5.2208C42.7074 5.21332 42.6588 5.24697 42.6326 5.29932C42.6326 5.30479 42.6306 5.30826 42.6281 5.31266L42.6251 5.31801C38.1407 10.0479 37.6731 14.9722 41.2076 19.9751C38.5895 22.6747 36.1172 25.5089 33.8096 28.4739C34.2958 25.1424 32.9792 21.9231 29.8637 18.8534C29.8375 18.8047 29.7889 18.7599 29.7178 18.7786C29.6617 18.7786 29.6094 18.8197 29.5907 18.872C29.5907 18.873 29.5904 18.8742 29.5901 18.8754L29.5888 18.8795C29.5879 18.8823 29.5869 18.8851 29.5869 18.887C25.5139 24.1404 25.6149 29.1843 29.8786 33.8918C27.4775 37.4252 25.2932 41.1119 23.3371 44.9332C23.2698 41.1231 21.2015 37.8028 17.1247 35.0098C17.0873 34.9612 17.0125 34.9387 16.9489 34.9537C16.8853 34.9686 16.8404 35.021 16.8292 35.0845V35.1032C13.3733 41.7064 14.5216 47.2402 20.2253 51.5737C19.8887 52.3589 19.5521 53.1441 19.2379 53.9368C17.9588 57.1524 16.8517 60.4166 15.9054 63.7144C15.0302 59.8931 12.2363 57.044 7.52371 55.223C7.47135 55.1856 7.39654 55.1819 7.34044 55.2118C7.28434 55.2417 7.25068 55.3016 7.25442 55.3651V55.3838C5.42174 62.5478 7.75934 67.6479 14.1962 70.5681C13.1564 75.4475 12.4719 80.3943 12.1465 85.3672C10.2503 81 6.28946 78.3453 0.279019 77.4666C0.215436 77.4367 0.129412 77.4517 0.0695696 77.4965C0.0134672 77.5451 -0.0127139 77.6199 0.00598686 77.691C0.00598686 77.6984 0.00972702 77.7059 0.0134672 77.7134C-0.218423 86.3394 3.79477 91.5105 11.9296 93.122C11.982 98.1996 12.4084 103.292 13.2125 108.355C10.6355 104.418 6.32686 102.462 0.327641 102.541C0.256578 102.518 0.174294 102.552 0.125672 102.604C0.0770499 102.66 0.0658294 102.739 0.0957507 102.806C0.0957507 102.814 0.103231 102.821 0.106971 102.825C1.26268 111.533 6.19221 116.012 14.7534 116.169C15.6436 119.916 16.7282 123.599 18.0036 127.159C18.7966 129.376 19.668 131.556 20.6143 133.698C16.0288 129.641 10.1306 128.942 2.99438 131.634C2.90835 131.638 2.82607 131.709 2.79615 131.791C2.76623 131.873 2.78493 131.963 2.84851 132.027L2.86721 132.045C6.39792 138.839 11.2863 142.249 17.4576 142.249C19.567 142.249 21.8261 141.849 24.231 141.049C26.894 145.947 29.9647 150.606 33.4094 154.988C27.1932 151.754 20.4534 152.614 13.2836 157.587C13.1901 157.617 13.119 157.714 13.1078 157.811C13.0965 157.912 13.1414 158.009 13.2275 158.062C13.2349 158.065 13.2462 158.073 13.2536 158.077C17.854 163.27 22.8097 165.869 28.0759 165.869C31.745 165.869 35.5674 164.601 39.5208 162.074C43.9641 166.759 48.8824 171.047 54.2196 174.887C46.9338 173.283 40.2277 176.028 34.2023 183.113C34.1125 183.169 34.0676 183.293 34.0826 183.397C34.0975 183.502 34.1761 183.588 34.2771 183.618C34.282 183.618 34.2862 183.619 34.2903 183.62C34.2915 183.62 34.2926 183.621 34.2937 183.621C34.2959 183.622 34.2981 183.622 34.3004 183.623L34.307 183.626C38.8812 186.662 43.2647 188.18 47.4387 188.18C52.8993 188.18 58.0009 185.581 62.7023 180.399C64.8866 181.678 67.1269 182.885 69.4234 184.018C73.2458 185.91 77.1992 187.574 81.3171 189.036C73.0999 189.694 66.9885 194.764 63.0763 204.205C63.0015 204.295 62.9978 204.433 63.0464 204.538C63.095 204.639 63.1997 204.703 63.3082 204.703H63.3493C66.4238 205.566 69.2925 206 71.9592 206C80.6962 206 87.2265 201.352 91.4604 192.132C94.7405 192.973 98.1291 193.702 101.641 194.323C101.256 194.581 101.005 195.026 101.024 195.527C101.054 196.275 101.667 196.862 102.412 196.862H102.468C106.642 196.701 110.647 196.436 114.515 196.062C118.382 196.436 122.392 196.701 126.562 196.862H126.618C127.358 196.862 127.976 196.275 128.006 195.527C128.024 195.026 127.774 194.585 127.388 194.323C130.9 193.702 134.293 192.977 137.569 192.132C141.803 201.352 148.333 206 157.07 206C159.748 206 162.636 205.563 165.725 204.691C165.841 204.695 165.953 204.613 166.002 204.512C166.054 204.407 166.039 204.284 165.964 204.194C165.957 204.187 165.949 204.175 165.942 204.168C162.03 194.757 155.918 189.701 147.716 189.043C151.834 187.581 155.787 185.914 159.614 184.026C161.91 182.889 164.15 181.681 166.335 180.406C171.036 185.589 176.138 188.187 181.598 188.187C185.783 188.187 190.182 186.662 194.767 183.611C194.868 183.581 194.947 183.476 194.962 183.371C194.977 183.267 194.928 183.162 194.838 183.106C194.837 183.105 194.836 183.105 194.835 183.104L194.83 183.101L194.825 183.098C194.821 183.096 194.816 183.093 194.812 183.091C188.791 176.028 182.096 173.295 174.821 174.895C180.158 171.055 185.073 166.766 189.516 162.081C193.47 164.613 197.292 165.876 200.961 165.876C206.235 165.876 211.202 163.266 215.809 158.054C215.896 158.002 215.94 157.89 215.925 157.792C215.914 157.695 215.843 157.613 215.75 157.583C215.742 157.583 215.731 157.579 215.723 157.576C208.565 152.621 201.84 151.769 195.631 154.999C199.076 150.617 202.147 145.958 204.81 141.06C207.215 141.857 209.474 142.26 211.579 142.26C217.758 142.26 222.65 138.839 226.185 132.027C226.245 131.967 226.26 131.862 226.23 131.784C226.2 131.701 226.125 131.645 226.035 131.638H226.005C218.884 128.961 212.997 129.66 208.419 133.713C209.361 131.571 210.237 129.391 211.03 127.173C212.301 123.618 213.39 119.931 214.28 116.181C222.852 116.001 227.785 111.537 228.93 102.81C228.96 102.743 228.941 102.657 228.893 102.6C228.844 102.544 228.765 102.522 228.698 102.544C228.691 102.544 228.683 102.548 228.676 102.552H228.35C222.527 102.552 218.345 104.507 215.824 108.359C216.629 103.296 217.051 98.2071 217.104 93.1332C225.246 91.5217 229.263 86.3394 229.02 77.6947L229.012 77.6723ZM139.78 25.5912H89.2544C87.1248 25.5912 85.3983 27.3172 85.3983 29.4462V30.2725C85.3983 32.4016 87.1248 34.1275 89.2544 34.1275H139.78C141.91 34.1275 143.636 32.4016 143.636 30.2725V29.4462C143.636 27.3172 141.91 25.5912 139.78 25.5912ZM81.8265 47.259C79.5524 47.1207 77.3121 47.5058 76.1414 48.3097H76.1452C73.2465 50.3026 72.9211 54.3856 73.5794 57.5376C74.8735 63.7295 81.9125 69.4278 89.9314 73.264C91.4723 76.36 93.1591 79.0857 94.9731 81.4264C91.1993 80.1925 87.4105 78.5436 83.9359 76.5768C75.0231 71.5291 69.3643 65.184 68.0066 58.7005C66.9705 53.7612 67.7148 47.1992 72.9174 43.6209C74.9259 42.2412 77.8694 41.557 80.9139 41.557C81.1271 43.1236 81.4263 45.0642 81.8265 47.259ZM161.024 58.7042C162.06 53.7612 161.316 47.2029 156.114 43.6246C154.105 42.2449 151.158 41.5607 148.117 41.5607C147.904 43.1274 147.605 45.0679 147.204 47.2627C149.478 47.1244 151.715 47.5133 152.886 48.3134C155.784 50.3063 156.11 54.3894 155.452 57.5414C154.154 63.7332 147.118 69.4353 139.1 73.2678C137.559 76.36 135.872 79.0895 134.058 81.4301C137.832 80.1962 141.624 78.5473 145.095 76.5806C154.008 71.5329 159.667 65.1877 161.024 58.7042ZM134.331 133.1H94.4832H94.4794C93.0731 133.1 91.9324 131.96 91.9324 130.554V117.86C91.9324 116.454 93.0731 115.313 94.4794 115.313H97.378V112.606C97.378 111.062 98.631 109.813 100.172 109.813H108.464V86.4666C92.0221 80.4542 86.6438 50.5269 85.3198 40.8615C85.1028 39.2687 86.3408 37.8478 87.9491 37.8478H141.082C142.69 37.8478 143.928 39.2687 143.711 40.8615C142.391 50.5232 137.009 80.4542 120.567 86.4666V109.813H128.638C130.183 109.813 131.432 111.066 131.432 112.606V115.313H134.331C135.737 115.313 136.878 116.454 136.878 117.86V130.554C136.878 131.96 135.737 133.1 134.331 133.1Z" fill="#189ACE" fill-opacity="0.06"/>
</svg>
