<svg xmlns="http://www.w3.org/2000/svg" xmlns:xlink="http://www.w3.org/1999/xlink" width="262.333" height="262.333" viewBox="0 0 262.333 262.333">
  <defs>
    <linearGradient id="linear-gradient" x1="0.229" y1="0.206" x2="0.779" y2="0.755" gradientUnits="objectBoundingBox">
      <stop offset="0" stop-color="#8ee1d0"/>
      <stop offset="1" stop-color="#28bf87"/>
    </linearGradient>
    <linearGradient id="linear-gradient-2" x1="0.198" y1="0.162" x2="0.793" y2="0.812" gradientUnits="objectBoundingBox">
      <stop offset="0" stop-color="#fb89c2"/>
      <stop offset="1" stop-color="#ef43a5"/>
    </linearGradient>
    <filter id="합치기_3" x="0" y="0" width="262.333" height="262.333" filterUnits="userSpaceOnUse">
      <feOffset dx="20" dy="20" input="SourceAlpha"/>
      <feGaussianBlur stdDeviation="15" result="blur"/>
      <feFlood flood-opacity="0.141"/>
      <feComposite operator="in" in2="blur"/>
      <feComposite in="SourceGraphic"/>
    </filter>
    <clipPath id="clip-path">
      <path id="패스_118" data-name="패스 118" d="M53.068,53.068a16.276,16.276,0,0,0,0,23.016l24.091,24.091a16.274,16.274,0,1,0,23.016-23.013L76.081,53.068a16.272,16.272,0,0,0-23.013,0" transform="translate(-48.302 -48.302)" fill="url(#linear-gradient)"/>
    </clipPath>
    <clipPath id="clip-path-2">
      <rect id="사각형_127" data-name="사각형 127" width="172.333" height="172.333" fill="none"/>
    </clipPath>
    <clipPath id="clip-path-3">
      <path id="패스_117" data-name="패스 117" d="M38.693,100.185A43.482,43.482,0,1,1,69.438,112.92a43.483,43.483,0,0,1-30.745-12.735M69.181,0A69.439,69.439,0,1,0,69.7,0Z" transform="translate(0)" fill="url(#linear-gradient-2)"/>
    </clipPath>
  </defs>
  <g id="그룹_163" data-name="그룹 163" transform="translate(-4185.223 -729)">
    <g id="그룹_162" data-name="그룹 162" transform="translate(3752 -1329)">
      <g transform="matrix(1, 0, 0, 1, 433.22, 2058)" filter="url(#합치기_3)">
        <path id="합치기_3-2" data-name="합치기 3" d="M1947.551-1940.433l-24.091-24.091a16.274,16.274,0,0,1-4.036-16.338l-3.532-3.532a69.442,69.442,0,0,1-92.552-5.067,69.434,69.434,0,0,1,0-98.2A69.2,69.2,0,0,1,1872.182-2108h.515a69.211,69.211,0,0,1,48.843,20.337,69.446,69.446,0,0,1,5.067,92.555l3.531,3.531a16.321,16.321,0,0,1,4.83-.73,16.224,16.224,0,0,1,11.506,4.766l24.093,24.094a16.224,16.224,0,0,1,4.766,11.506,16.224,16.224,0,0,1-4.766,11.506,16.219,16.219,0,0,1-11.506,4.766A16.233,16.233,0,0,1,1947.551-1940.433Zm-105.859-128.875a43.484,43.484,0,0,0,0,61.492,43.346,43.346,0,0,0,30.745,12.736,43.344,43.344,0,0,0,30.748-12.736,43.482,43.482,0,0,0,0-61.492,43.35,43.35,0,0,0-30.747-12.735A43.346,43.346,0,0,0,1841.693-2069.308Z" transform="translate(-1778 2133)" fill="#fff"/>
      </g>
      <g id="그룹_126" data-name="그룹 126" transform="translate(458.223 2083)">
        <g id="그룹_122" data-name="그룹 122" transform="translate(115.695 115.694)" clip-path="url(#clip-path)">
          <rect id="사각형_126" data-name="사각형 126" width="58.228" height="58.228" transform="translate(-1.589 0)" fill="url(#linear-gradient)"/>
        </g>
        <g id="그룹_124" data-name="그룹 124" transform="translate(0)" clip-path="url(#clip-path-2)">
          <path id="패스_119" data-name="패스 119" d="M67.174,67.174h0a7.577,7.577,0,0,1-10.714,0l-10-10A7.576,7.576,0,1,1,57.171,46.457l10,10a7.577,7.577,0,0,1,0,10.714" transform="translate(61.723 61.723)" fill="#fff"/>
        </g>
        <g id="그룹_120" data-name="그룹 120" transform="translate(0)" clip-path="url(#clip-path-3)">
          <rect id="사각형_125" data-name="사각형 125" width="152.436" height="145.658" transform="translate(-6.78 0)" fill="url(#linear-gradient-2)"/>
        </g>
      </g>
    </g>
  </g>
</svg>
