<svg xmlns="http://www.w3.org/2000/svg" xmlns:xlink="http://www.w3.org/1999/xlink" width="120" height="120" viewBox="0 0 120 120">
  <defs>
    <clipPath id="clip-path">
      <rect id="사각형_8252" data-name="사각형 8252" width="116" height="116"/>
    </clipPath>
  </defs>
  <g id="icon" transform="translate(-39.837 -40.319)">
    <rect id="사각형_16" data-name="사각형 16" width="120" height="120" transform="translate(39.837 40.319)" fill="none"/>
    <g id="그룹_68949" data-name="그룹 68949" transform="translate(41.837 42.319)">
      <g id="그룹_68949-2" data-name="그룹 68949" clip-path="url(#clip-path)">
        <path id="패스_3660" data-name="패스 3660" d="M21.219,21.234A35.7,35.7,0,0,0,71.726,71.692a35.651,35.651,0,0,0,0-50.46,35.788,35.788,0,0,0-50.508,0m3.074,47.85a33.692,33.692,0,0,1,44.364,0,31.759,31.759,0,0,1-44.364,0m47.036-2.972a37.673,37.673,0,0,0-49.708,0A31.693,31.693,0,0,1,68.9,24.062v0a31.611,31.611,0,0,1,2.43,42.048" transform="translate(11.526 11.575)"/>
        <path id="패스_3661" data-name="패스 3661" d="M35.323,16.782A14.146,14.146,0,1,0,49.481,30.928,14.169,14.169,0,0,0,35.323,16.782m0,24.292A10.146,10.146,0,1,1,45.481,30.928,10.163,10.163,0,0,1,35.323,41.074" transform="translate(22.677 17.981)"/>
        <path id="패스_3662" data-name="패스 3662" d="M114,56.036h-5.034A50.932,50.932,0,0,0,60.076,7.1V2a2,2,0,0,0-4,0V7.1A50.929,50.929,0,0,0,7.035,56.036H2a2,2,0,0,0,0,4H7.035a50.925,50.925,0,0,0,49.041,48.938V114a2,2,0,1,0,4,0V108.97a50.932,50.932,0,0,0,48.89-48.933H114a2,2,0,1,0,0-4M91.261,91.259A46.714,46.714,0,0,1,60.076,104.97v-4.926a2,2,0,0,0-4,0v4.93A46.937,46.937,0,0,1,11.035,60.036h4.936a2,2,0,0,0,0-4H11.035A46.941,46.941,0,0,1,56.076,11.1v4.855a2,2,0,1,0,4,0V11.1a46.945,46.945,0,0,1,44.89,44.933h-4.936a2,2,0,1,0,0,4h4.936a46.586,46.586,0,0,1-13.7,31.223"/>
      </g>
    </g>
  </g>
</svg>
