<svg xmlns="http://www.w3.org/2000/svg" xmlns:xlink="http://www.w3.org/1999/xlink" width="120" height="120" viewBox="0 0 120 120">
  <defs>
    <clipPath id="clip-path">
      <rect id="사각형_8257" data-name="사각형 8257" width="118" height="112"/>
    </clipPath>
  </defs>
  <g id="icon" transform="translate(-39.837 -40.319)" opacity="0.9">
    <rect id="사각형_16" data-name="사각형 16" width="120" height="120" transform="translate(39.837 40.319)" fill="none"/>
    <g id="그룹_68958" data-name="그룹 68958" transform="translate(40.837 44.319)">
      <g id="그룹_68957" data-name="그룹 68957" clip-path="url(#clip-path)">
        <path id="패스_3676" data-name="패스 3676" d="M19.325,26.551a3.793,3.793,0,0,0,.869,3.748l7,7.246L25.543,47.773a3.737,3.737,0,0,0,1.369,3.573,3.247,3.247,0,0,0,3.621.278L39.186,46.8l8.651,4.829a3.255,3.255,0,0,0,3.621-.276,3.742,3.742,0,0,0,1.371-3.575L51.175,37.544l7-7.246a3.793,3.793,0,0,0,.869-3.748A3.48,3.48,0,0,0,56.27,24.07L46.6,22.577,42.27,13.268a3.356,3.356,0,0,0-6.171,0l-4.325,9.309L22.1,24.07a3.48,3.48,0,0,0-2.777,2.481M32.6,26.67a3.469,3.469,0,0,0,2.586-2l4-8.6,4,8.607a3.474,3.474,0,0,0,2.59,1.994l8.94,1.378-6.47,6.7a3.791,3.791,0,0,0-.989,3.231l1.528,9.455L40.789,42.97a3.251,3.251,0,0,0-3.2,0l-8,4.463,1.528-9.455a3.791,3.791,0,0,0-.989-3.231l-6.47-6.7Z" transform="translate(19.814 12.961)"/>
        <path id="패스_3677" data-name="패스 3677" d="M104.782,58.783a11.961,11.961,0,0,0-6.813,2.44,52.589,52.589,0,0,0,1.406-9.679,22.737,22.737,0,0,0,6.042.894,11.421,11.421,0,0,0,6.309-1.635c5.054-3.326,6.209-11.857,6.256-12.219a2.11,2.11,0,0,0-1.194-2.212c-.309-.138-7.564-3.254-13.216.459v0a12.924,12.924,0,0,0-4.49,5.671,52.2,52.2,0,0,0-2.319-10.412c2.307-.366,8.177-1.68,10.913-5.835,3.406-5.176,1.294-13.5,1.2-13.849a1.994,1.994,0,0,0-1.921-1.531c-.332,0-8.16.179-11.969,5.964a13.39,13.39,0,0,0-2,6.655,49.576,49.576,0,0,0-4.911-7.237c.071-2.412-.087-8.889-3.5-12.514C80.368-.72,72.283.034,71.941.071a2.016,2.016,0,0,0-1.756,1.742c-.053.347-1.257,8.562,3.444,13.554,3.064,3.254,7.676,3.8,10.425,3.8.45,0,.826-.017,1.16-.037a47.591,47.591,0,0,1-.543,59.926,20.454,20.454,0,0,0-4.936-.625H38.267a20.428,20.428,0,0,0-4.936.625,47.588,47.588,0,0,1-.545-59.926c.336.019.71.037,1.16.037,2.749,0,7.361-.547,10.427-3.8,4.7-4.993,3.5-13.207,3.444-13.554A2.016,2.016,0,0,0,46.061.071c-.34-.039-8.427-.79-12.634,3.674-3.416,3.625-3.573,10.1-3.5,12.514A49.447,49.447,0,0,0,25.014,23.5a13.432,13.432,0,0,0-2-6.655c-3.811-5.785-11.637-5.96-11.969-5.964a2.027,2.027,0,0,0-1.923,1.531c-.09.353-2.2,8.674,1.2,13.849,2.734,4.155,8.6,5.469,10.913,5.835A52.2,52.2,0,0,0,18.919,42.5a12.91,12.91,0,0,0-4.49-5.671v0c-5.65-3.711-12.907-.6-13.214-.459a2.109,2.109,0,0,0-1.2,2.212c.047.362,1.2,8.893,6.258,12.219a11.41,11.41,0,0,0,6.307,1.635,22.737,22.737,0,0,0,6.042-.894,52.589,52.589,0,0,0,1.408,9.679,11.967,11.967,0,0,0-6.816-2.44c-6.647,0-11.267,6.714-11.46,7a2.2,2.2,0,0,0,.081,2.552c.22.28,5.432,6.884,11.379,6.884,4.036,0,7.788-3.114,9.822-5.165A50.019,50.019,0,0,0,29.36,80.5a23.09,23.09,0,0,0-12.728,20.91v8.508A2.029,2.029,0,0,0,18.6,112H99.4a2.029,2.029,0,0,0,1.967-2.087v-8.508A23.088,23.088,0,0,0,88.642,80.5,49.923,49.923,0,0,0,94.96,70.054c2.037,2.05,5.786,5.165,9.822,5.165,5.949,0,11.161-6.6,11.381-6.884a2.2,2.2,0,0,0,.081-2.552c-.193-.286-4.814-7-11.462-7m.863-18.4c2.671-1.758,6.154-1.2,8.116-.661-.576,2.434-1.857,6.052-4.108,7.532-2.161,1.422-5.788,1.053-8.14.536.462-2.152,1.585-5.729,4.132-7.407M98.213,19.234c1.8-2.738,5.2-3.685,7.208-4.01.376,2.479.545,6.339-.97,8.641-1.457,2.214-4.93,3.394-7.279,3.907-.376-2.173-.675-5.932,1.042-8.538m-21.8-6.819c-2.224-2.363-2.511-6.089-2.464-8.241,2.366.039,5.973.536,7.845,2.524,1.8,1.908,2.289,5.744,2.354,8.292-2.037.112-5.617-.327-7.735-2.576M36.208,6.7c1.872-1.988,5.481-2.486,7.845-2.524.047,2.154-.238,5.878-2.462,8.241-2.12,2.246-5.654,2.567-7.735,2.578.063-2.55.555-6.386,2.352-8.294M20.831,27.771c-2.352-.513-5.823-1.693-7.279-3.907-1.516-2.3-1.349-6.162-.972-8.641,2.006.325,5.41,1.273,7.21,4.01,1.717,2.608,1.418,6.367,1.042,8.538M8.348,47.253c-2.248-1.48-3.53-5.1-4.106-7.532,1.963-.538,5.444-1.1,8.116.661v0c2.547,1.68,3.672,5.262,4.132,7.411-2.344.521-5.969.894-8.142-.538m4.871,23.789c-2.643,0-5.524-2.354-7.222-4.1,1.408-1.557,4.1-3.982,7.222-3.982,3,0,5.729,2.417,7.188,3.987-1.744,1.753-4.645,4.1-7.188,4.1m84.217,30.363v6.418H20.567v-6.418c0-10.364,7.941-18.794,17.7-18.794H79.736c9.759,0,17.7,8.43,17.7,18.794m7.347-30.363c-2.541,0-5.44-2.339-7.184-4.092,1.469-1.572,4.209-3.991,7.184-3.991,3.145,0,5.827,2.421,7.229,3.978-1.7,1.747-4.582,4.105-7.229,4.105" transform="translate(0 0)"/>
      </g>
    </g>
  </g>
</svg>
