<svg xmlns="http://www.w3.org/2000/svg" xmlns:xlink="http://www.w3.org/1999/xlink" width="80" height="80" viewBox="0 0 80 80">
  <defs>
    <clipPath id="clip-path">
      <rect id="사각형_8258" data-name="사각형 8258" width="72" height="64"/>
    </clipPath>
  </defs>
  <g id="icon" transform="translate(4 9)">
    <rect id="사각형_16" data-name="사각형 16" width="80" height="80" transform="translate(-4 -9)" fill="none"/>
    <g id="그룹_68960" data-name="그룹 68960" transform="translate(0 -1)">
      <g id="그룹_68959" data-name="그룹 68959" clip-path="url(#clip-path)">
        <path id="패스_3678" data-name="패스 3678" d="M23.729,22.578a2.3,2.3,0,0,0,.59,2.378l4.148,4.016-.979,5.674a2.3,2.3,0,0,0,.928,2.266,2.331,2.331,0,0,0,2.457.177L36,34.41l5.127,2.679a2.333,2.333,0,0,0,2.456-.177,2.3,2.3,0,0,0,.929-2.267l-.979-5.672,4.147-4.017A2.314,2.314,0,0,0,46.388,21l-5.733-.828-2.563-5.161h0a2.34,2.34,0,0,0-4.183,0l-2.563,5.161L25.613,21a2.316,2.316,0,0,0-1.884,1.576m8.314.387A2.332,2.332,0,0,0,33.8,21.7l2.2-4.43L38.2,21.7a2.332,2.332,0,0,0,1.756,1.267l4.92.711-3.56,3.448a2.306,2.306,0,0,0-.671,2.051l.84,4.868-4.4-2.3a2.352,2.352,0,0,0-2.171,0l-4.4,2.3.84-4.868a2.311,2.311,0,0,0-.67-2.052l-3.56-3.447Z" fill="#f15333"/>
        <path id="패스_3679" data-name="패스 3679" d="M63.742,33.333a7.471,7.471,0,0,0-3.719,1.089,28.326,28.326,0,0,0,.693-4.63,14.662,14.662,0,0,0,3.409.435,7.542,7.542,0,0,0,3.955-.962c3.108-1.914,3.834-6.579,3.907-7.1a1.429,1.429,0,0,0-.876-1.516c-.19-.08-4.7-1.894-8.233.279a7.252,7.252,0,0,0-2.435,2.6,28.126,28.126,0,0,0-1.212-4.882c1.593-.272,4.87-1.09,6.467-3.36,2.094-2.977.907-7.548.765-8.059a1.5,1.5,0,0,0-1.407-1.05c-.206,0-5.073.1-7.453,3.488A7.11,7.11,0,0,0,56.426,12.8a28.444,28.444,0,0,0-2.555-3.44c.032-1.48-.119-5.1-2.2-7.164C49.086-.368,44.351-.006,43.818.046a1.436,1.436,0,0,0-1.286,1.193c-.033.2-.78,4.981,2.157,7.9,1.921,1.909,4.8,2.228,6.505,2.228.224,0,.421-.006.6-.014a25.419,25.419,0,0,1-.081,33.164c-.275-.021-.551-.042-.832-.042H21.119c-.281,0-.557.021-.832.042a25.419,25.419,0,0,1-.081-33.164c.179.008.376.014.6.014,1.707,0,4.584-.319,6.505-2.228,2.937-2.918,2.19-7.7,2.157-7.9A1.436,1.436,0,0,0,28.182.046C27.651,0,22.913-.368,20.328,2.2c-2.08,2.067-2.231,5.684-2.2,7.164a28.444,28.444,0,0,0-2.555,3.44A7.106,7.106,0,0,0,14.4,9.659C12.017,6.275,7.15,6.174,6.944,6.171a1.485,1.485,0,0,0-1.407,1.05c-.142.511-1.329,5.082.765,8.059,1.6,2.27,4.874,3.088,6.467,3.36a28.125,28.125,0,0,0-1.212,4.882,7.252,7.252,0,0,0-2.435-2.6C5.59,18.752,1.08,20.565.889,20.645a1.427,1.427,0,0,0-.875,1.516c.072.525.8,5.19,3.906,7.1a7.542,7.542,0,0,0,3.955.962,14.724,14.724,0,0,0,3.409-.434,28.439,28.439,0,0,0,.693,4.629,7.471,7.471,0,0,0-3.719-1.089c-4.154,0-7.027,3.9-7.147,4.071a1.424,1.424,0,0,0,.06,1.747c.34.409,3.43,3.995,7.087,3.995,2.363,0,4.555-1.582,5.863-2.761a28.2,28.2,0,0,0,3.031,4.833,10.981,10.981,0,0,0-7.073,10.225v7.126A1.435,1.435,0,0,0,11.519,64H60.481a1.435,1.435,0,0,0,1.44-1.431V55.443a10.981,10.981,0,0,0-7.073-10.225,28.2,28.2,0,0,0,3.031-4.833c1.308,1.179,3.5,2.761,5.863,2.761,3.657,0,6.747-3.586,7.087-3.995a1.424,1.424,0,0,0,.06-1.747c-.12-.166-2.993-4.071-7.147-4.071m.653-9.976a6.163,6.163,0,0,1,4.484-.406c-.363,1.326-1.1,3.13-2.317,3.881-1.17.724-3.124.581-4.5.323a6.365,6.365,0,0,1,2.335-3.8M59.964,11.3a6.138,6.138,0,0,1,3.957-2.132c.189,1.35.236,3.309-.584,4.475C62.548,14.763,60.7,15.4,59.332,15.7a6.248,6.248,0,0,1,.632-4.4m-51.3,2.343c-.823-1.17-.779-3.113-.585-4.473a6.16,6.16,0,0,1,3.958,2.13,6.333,6.333,0,0,1,.636,4.406c-1.368-.305-3.219-.94-4.009-2.063M5.437,26.832c-1.222-.751-1.954-2.556-2.316-3.881a6.164,6.164,0,0,1,4.484.406,6.37,6.37,0,0,1,2.336,3.8c-1.378.257-3.33.4-4.5-.323M8.258,40.284c-1.438,0-3.016-1.15-4.027-2.087a6.142,6.142,0,0,1,4.027-2,6.423,6.423,0,0,1,4,2.006c-1.034.94-2.618,2.083-4,2.083M22.365,4.223c1.016-1.009,2.951-1.305,4.332-1.352a6.058,6.058,0,0,1-1.422,4.244,6.432,6.432,0,0,1-4.255,1.39c.063-1.391.369-3.312,1.345-4.282m36.676,51.22v5.695H12.959V55.443a8.143,8.143,0,0,1,8.16-8.108H50.881a8.143,8.143,0,0,1,8.16,8.108M45.3,2.871c1.382.047,3.316.343,4.332,1.352.975.969,1.282,2.888,1.345,4.279a6.357,6.357,0,0,1-4.255-1.387A6.059,6.059,0,0,1,45.3,2.871M63.742,40.284c-1.379,0-2.961-1.141-4-2.08a6.341,6.341,0,0,1,4-2.009,6.142,6.142,0,0,1,4.027,2c-1.012.937-2.59,2.087-4.027,2.087"/>
      </g>
    </g>
  </g>
</svg>
