<svg xmlns="http://www.w3.org/2000/svg" xmlns:xlink="http://www.w3.org/1999/xlink" width="120" height="120" viewBox="0 0 120 120">
  <defs>
    <clipPath id="clip-path">
      <rect id="사각형_8247" data-name="사각형 8247" width="108" height="107"/>
    </clipPath>
  </defs>
  <g id="icon" transform="translate(-39.837 -40.319)">
    <rect id="사각형_8249" data-name="사각형 8249" width="120" height="120" transform="translate(39.837 40.319)" fill="none"/>
    <g id="그룹_68946" data-name="그룹 68946" transform="translate(45.837 46.319)">
      <g id="그룹_68939" data-name="그룹 68939" clip-path="url(#clip-path)">
        <path id="패스_3647" data-name="패스 3647" d="M101.03,17.974,58.072.788a10.918,10.918,0,0,0-8.145,0L6.975,17.974A11.077,11.077,0,0,0,0,28.33V95.859a11.156,11.156,0,0,0,4.84,9.216,10.95,10.95,0,0,0,10.28,1.138l36.4-14.563a6.625,6.625,0,0,1,4.959,0l36.4,14.563a10.948,10.948,0,0,0,10.28-1.138A11.156,11.156,0,0,0,108,95.859V28.33a11.082,11.082,0,0,0-6.97-10.356m2.651,77.885a6.7,6.7,0,0,1-2.948,5.61,6.577,6.577,0,0,1-6.257.694L58.072,87.6a11.01,11.01,0,0,0-1.913-.562V20.578a2.16,2.16,0,1,0-4.32,0V87.039a11,11,0,0,0-1.913.56l-36.4,14.563a6.578,6.578,0,0,1-6.257-.694,6.7,6.7,0,0,1-2.948-5.61V28.33a6.741,6.741,0,0,1,4.248-6.3L51.521,4.838a6.639,6.639,0,0,1,4.959,0L99.437,22.026a6.743,6.743,0,0,1,4.244,6.3Z" transform="translate(0 0)"/>
        <path id="패스_3648" data-name="패스 3648" d="M29.988,11.758,8,20.557a2.189,2.189,0,0,0-1.213,2.83A2.156,2.156,0,0,0,9.591,24.61l21.992-8.8a2.188,2.188,0,0,0,1.21-2.83,2.163,2.163,0,0,0-2.806-1.22" transform="translate(8.292 14.816)"/>
        <path id="패스_3649" data-name="패스 3649" d="M29.988,17.892,8,26.691a2.189,2.189,0,0,0-1.213,2.83,2.156,2.156,0,0,0,2.806,1.223l21.992-8.8a2.188,2.188,0,0,0,1.21-2.83,2.161,2.161,0,0,0-2.806-1.22" transform="translate(8.292 22.645)"/>
        <path id="패스_3650" data-name="패스 3650" d="M29.988,24.023,8,32.822a2.189,2.189,0,0,0-1.213,2.83,2.156,2.156,0,0,0,2.806,1.223l21.992-8.8a2.188,2.188,0,0,0,1.21-2.83,2.163,2.163,0,0,0-2.806-1.22" transform="translate(8.292 30.474)"/>
        <path id="패스_3651" data-name="패스 3651" d="M25.611,30.542,8,37.59a2.192,2.192,0,0,0-1.213,2.83,2.152,2.152,0,0,0,2.808,1.22L27.2,34.592a2.188,2.188,0,0,0,1.21-2.83,2.159,2.159,0,0,0-2.8-1.22" transform="translate(8.292 38.794)"/>
      </g>
    </g>
  </g>
</svg>
