<svg xmlns="http://www.w3.org/2000/svg" xmlns:xlink="http://www.w3.org/1999/xlink" width="80" height="80" viewBox="0 0 80 80">
  <defs>
    <clipPath id="clip-path">
      <rect id="사각형_8255" data-name="사각형 8255" width="68" height="72" fill="none"/>
    </clipPath>
  </defs>
  <g id="icon_social" transform="translate(6 4)">
    <rect id="사각형_16" data-name="사각형 16" width="80" height="80" transform="translate(-6 -4)" fill="none"/>
    <g id="그룹_68954" data-name="그룹 68954" transform="translate(0)" clip-path="url(#clip-path)">
      <path id="패스_3670" data-name="패스 3670" d="M67.067,37.192l-.872-.871a6.385,6.385,0,0,0-8.981-.03l-5.955,5.571a4.78,4.78,0,0,0-4.728-4.122H34.507l-.185-.1A14.617,14.617,0,0,0,27.5,35.935a14.434,14.434,0,0,0-10.229,4.22l-6.956,6.933a3.379,3.379,0,0,0-4.742.017L.987,51.674a3.35,3.35,0,0,0,0,4.748l14.643,14.6a3.382,3.382,0,0,0,4.764,0l4.583-4.569a3.343,3.343,0,0,0,.187-4.52l3.818-3.808,19.68-.541c.044,0,.087,0,.132-.009a4.023,4.023,0,0,0,2.3-1.088l15.975-14.81a3.157,3.157,0,0,0,0-4.482M22.937,64.418l-4.583,4.568a.484.484,0,0,1-.686,0L3.025,54.39a.479.479,0,0,1,0-.683l4.583-4.569a.485.485,0,0,1,.686,0l14.643,14.6a.482.482,0,0,1,0,.684M65.065,39.606,49.1,54.4a1.14,1.14,0,0,1-.6.308l-20.173.555a1.454,1.454,0,0,0-.981.42l-4.2,4.191L12.352,49.118,19.3,42.189A11.564,11.564,0,0,1,27.5,38.808a11.71,11.71,0,0,1,5.469,1.369l.5.267a1.451,1.451,0,0,0,.68.169H46.531a1.912,1.912,0,0,1,1.913,1.906v2.139a.794.794,0,0,1-.794.792H29.643a1.437,1.437,0,1,0,0,2.873H47.65a3.673,3.673,0,0,0,3.418-2.341l8.152-7.628a3.5,3.5,0,0,1,4.936,0l.871.87a.288.288,0,0,1,.09.21.277.277,0,0,1-.052.173" transform="translate(0 0)"/>
      <path id="패스_3671" data-name="패스 3671" d="M36.533,32.4A13.739,13.739,0,0,0,50.279,18.7a1.438,1.438,0,0,0-1.441-1.436H37.974V6.43a1.439,1.439,0,0,0-1.441-1.437,13.7,13.7,0,1,0,0,27.4M35.092,7.962V18.7a1.439,1.439,0,0,0,1.441,1.437H47.3A10.858,10.858,0,1,1,35.092,7.962" transform="translate(0 0)"/>
      <path id="패스_3672" data-name="패스 3672" d="M41.547,15.139H53.852A1.44,1.44,0,0,0,55.293,13.7,13.74,13.74,0,0,0,41.547,0a1.439,1.439,0,0,0-1.441,1.437V13.7a1.439,1.439,0,0,0,1.441,1.437m1.441-12.17a10.868,10.868,0,0,1,9.327,9.3H42.988Z" transform="translate(0 0)" fill="#f15333"/>
    </g>
  </g>
</svg>
