<svg id="icon" xmlns="http://www.w3.org/2000/svg" xmlns:xlink="http://www.w3.org/1999/xlink" width="66" height="65" viewBox="0 0 66 65">
  <defs>
    <clipPath id="clip-path">
      <rect id="사각형_8254" data-name="사각형 8254" width="66" height="65" fill="none"/>
    </clipPath>
  </defs>
  <g id="그룹_68952" data-name="그룹 68952" clip-path="url(#clip-path)">
    <path id="패스_3665" data-name="패스 3665" d="M61.678,10.886,35.524.485a6.817,6.817,0,0,0-5.048,0h0L4.321,10.886A6.828,6.828,0,0,0,0,17.266V58.135a6.842,6.842,0,0,0,9.369,6.38L31.533,55.7a3.952,3.952,0,0,1,2.932,0L56.63,64.515A6.848,6.848,0,0,0,66,58.135V17.266a6.828,6.828,0,0,0-4.322-6.38M63.13,58.135a3.977,3.977,0,0,1-5.442,3.705L35.524,53.026a6.873,6.873,0,0,0-1.09-.325V12.574a1.435,1.435,0,1,0-2.869,0V52.7a6.842,6.842,0,0,0-1.09.325L8.311,61.84a3.976,3.976,0,0,1-5.442-3.705V17.266a3.964,3.964,0,0,1,2.51-3.705L31.533,3.16a3.942,3.942,0,0,1,2.932,0l26.155,10.4a3.965,3.965,0,0,1,2.51,3.705Z"/>
    <path id="패스_3666" data-name="패스 3666" d="M23.383,16.092,9.993,21.417a1.438,1.438,0,1,0,1.058,2.675l13.39-5.325a1.438,1.438,0,0,0-1.058-2.675" fill="#f15333"/>
    <path id="패스_3667" data-name="패스 3667" d="M23.383,24.542,9.993,29.867a1.438,1.438,0,1,0,1.058,2.675l13.39-5.325a1.438,1.438,0,0,0-1.058-2.675" fill="#f15333"/>
    <path id="패스_3668" data-name="패스 3668" d="M23.383,32.992,9.993,38.317a1.438,1.438,0,1,0,1.058,2.675l13.39-5.325a1.438,1.438,0,0,0-1.058-2.675" fill="#f15333"/>
    <path id="패스_3669" data-name="패스 3669" d="M20.719,41.972,9.993,46.237a1.438,1.438,0,1,0,1.059,2.674l10.725-4.264a1.438,1.438,0,0,0-1.058-2.675" fill="#f15333"/>
  </g>
</svg>
