<svg xmlns="http://www.w3.org/2000/svg" width="55" height="39" viewBox="0 0 55 39">
  <g id="그룹_68999" data-name="그룹 68999" transform="translate(-4.67 -6.595)">
    <path id="빼기_1" data-name="빼기 1" d="M27,38c-7.707,0-17.613-.391-19.66-.69C3.625,36.729,1.8,34.988.816,31.093A102.206,102.206,0,0,1,0,19.322V18.69A101.689,101.689,0,0,1,.816,6.919C1.8,3.031,3.625,1.283,7.336.69,9.359.388,19.254,0,27,0c7.727,0,17.633.388,19.668.69,3.7.589,5.523,2.337,6.52,6.229A105.937,105.937,0,0,1,54,18.69v.632a106.5,106.5,0,0,1-.816,11.771c-1,3.9-2.82,5.636-6.52,6.217C44.6,37.609,34.691,38,27,38ZM20.52,12.128v13.74l12.949-7.031Z" transform="translate(5.17 7.095)" fill="#fff" stroke="rgba(0,0,0,0)" stroke-miterlimit="10" stroke-width="1"/>
  </g>
</svg>
